%TF.GenerationSoftware,KiCad,Pcbnew,8.0.3*%
%TF.CreationDate,2024-07-18T08:26:54+01:00*%
%TF.ProjectId,sub,7375622e-6b69-4636-9164-5f7063625858,rev?*%
%TF.SameCoordinates,Original*%
%TF.FileFunction,Soldermask,Bot*%
%TF.FilePolarity,Negative*%
%FSLAX46Y46*%
G04 Gerber Fmt 4.6, Leading zero omitted, Abs format (unit mm)*
G04 Created by KiCad (PCBNEW 8.0.3) date 2024-07-18 08:26:54*
%MOMM*%
%LPD*%
G01*
G04 APERTURE LIST*
%ADD10R,2.400000X2.400000*%
%ADD11C,2.400000*%
%ADD12R,1.600000X1.600000*%
%ADD13O,1.600000X1.600000*%
%ADD14C,2.600000*%
%ADD15C,2.500000*%
%ADD16R,1.700000X1.700000*%
%ADD17O,1.700000X1.700000*%
%ADD18R,1.275000X1.800000*%
%ADD19O,1.275000X1.800000*%
%ADD20R,2.000000X2.000000*%
%ADD21C,2.000000*%
%ADD22R,1.350000X1.350000*%
%ADD23C,1.350000*%
%ADD24R,1.050000X1.500000*%
%ADD25O,1.050000X1.500000*%
%ADD26R,1.905000X2.000000*%
%ADD27O,1.905000X2.000000*%
G04 APERTURE END LIST*
D10*
%TO.C,C6*%
X146000000Y-70500000D03*
D11*
X141000000Y-70500000D03*
%TD*%
D10*
%TO.C,C5*%
X146000000Y-87500000D03*
D11*
X141000000Y-87500000D03*
%TD*%
D10*
%TO.C,C4*%
X131000000Y-70500000D03*
D11*
X126000000Y-70500000D03*
%TD*%
D12*
%TO.C,U1*%
X75855000Y-87390000D03*
D13*
X78395000Y-87390000D03*
X80935000Y-87390000D03*
X83475000Y-87390000D03*
X86015000Y-87390000D03*
X88555000Y-87390000D03*
X91095000Y-87390000D03*
X93635000Y-87390000D03*
X93635000Y-79770000D03*
X91095000Y-79770000D03*
X88555000Y-79770000D03*
X86015000Y-79770000D03*
X83475000Y-79770000D03*
X80935000Y-79770000D03*
X78395000Y-79770000D03*
X75855000Y-79770000D03*
%TD*%
D14*
%TO.C,J1*%
X109312500Y-111092500D03*
X109312500Y-116172500D03*
X114392500Y-111092500D03*
X114392500Y-116172500D03*
D15*
X111952500Y-113557500D03*
%TD*%
D16*
%TO.C,J3*%
X112500000Y-65000000D03*
D17*
X115040000Y-65000000D03*
%TD*%
D18*
%TO.C,U5*%
X124052271Y-83445000D03*
D19*
X125752271Y-83445000D03*
X127452271Y-83445000D03*
X129152271Y-83445000D03*
X130852271Y-83445000D03*
%TD*%
D16*
%TO.C,M3*%
X66705000Y-71410000D03*
D17*
X66705000Y-68870000D03*
X66705000Y-66330000D03*
X66705000Y-63790000D03*
%TD*%
D16*
%TO.C,J2*%
X83000000Y-117000000D03*
D17*
X80460000Y-117000000D03*
X77920000Y-117000000D03*
X75380000Y-117000000D03*
X72840000Y-117000000D03*
%TD*%
D20*
%TO.C,M2*%
X68730000Y-86630000D03*
D21*
X68730000Y-84090000D03*
%TD*%
D22*
%TO.C,U4*%
X92292500Y-99592500D03*
D23*
X92292500Y-101592500D03*
X92292500Y-103592500D03*
X92292500Y-105592500D03*
X92292500Y-107592500D03*
X92292500Y-109592500D03*
X92292500Y-111592500D03*
X92292500Y-113592500D03*
X105892500Y-113592500D03*
X105892500Y-111592500D03*
X105892500Y-109592500D03*
X105892500Y-107592500D03*
X105892500Y-105592500D03*
X105892500Y-103592500D03*
X105892500Y-101592500D03*
X105892500Y-99592500D03*
%TD*%
D24*
%TO.C,U6*%
X139770000Y-113045000D03*
D25*
X138500000Y-113045000D03*
X137230000Y-113045000D03*
%TD*%
D26*
%TO.C,U7*%
X144040000Y-104960000D03*
D27*
X141500000Y-104960000D03*
X138960000Y-104960000D03*
%TD*%
D24*
%TO.C,Q1*%
X122520000Y-113890000D03*
D25*
X121250000Y-113890000D03*
X119980000Y-113890000D03*
%TD*%
D12*
%TO.C,U3*%
X71830000Y-71210000D03*
D13*
X74370000Y-71210000D03*
X76910000Y-71210000D03*
X79450000Y-71210000D03*
X81990000Y-71210000D03*
X84530000Y-71210000D03*
X87070000Y-71210000D03*
X89610000Y-71210000D03*
X89610000Y-63590000D03*
X87070000Y-63590000D03*
X84530000Y-63590000D03*
X81990000Y-63590000D03*
X79450000Y-63590000D03*
X76910000Y-63590000D03*
X74370000Y-63590000D03*
X71830000Y-63590000D03*
%TD*%
D20*
%TO.C,L1*%
X129000000Y-115000000D03*
D21*
X126460000Y-115000000D03*
%TD*%
D20*
%TO.C,M1*%
X68730000Y-79630000D03*
D21*
X68730000Y-77090000D03*
%TD*%
M02*
