%TF.GenerationSoftware,KiCad,Pcbnew,8.0.3*%
%TF.CreationDate,2024-07-18T08:26:54+01:00*%
%TF.ProjectId,sub,7375622e-6b69-4636-9164-5f7063625858,rev?*%
%TF.SameCoordinates,Original*%
%TF.FileFunction,Legend,Top*%
%TF.FilePolarity,Positive*%
%FSLAX46Y46*%
G04 Gerber Fmt 4.6, Leading zero omitted, Abs format (unit mm)*
G04 Created by KiCad (PCBNEW 8.0.3) date 2024-07-18 08:26:54*
%MOMM*%
%LPD*%
G01*
G04 APERTURE LIST*
%ADD10C,0.150000*%
%ADD11C,0.120000*%
%ADD12C,0.100000*%
G04 APERTURE END LIST*
D10*
X143333333Y-78359580D02*
X143285714Y-78407200D01*
X143285714Y-78407200D02*
X143142857Y-78454819D01*
X143142857Y-78454819D02*
X143047619Y-78454819D01*
X143047619Y-78454819D02*
X142904762Y-78407200D01*
X142904762Y-78407200D02*
X142809524Y-78311961D01*
X142809524Y-78311961D02*
X142761905Y-78216723D01*
X142761905Y-78216723D02*
X142714286Y-78026247D01*
X142714286Y-78026247D02*
X142714286Y-77883390D01*
X142714286Y-77883390D02*
X142761905Y-77692914D01*
X142761905Y-77692914D02*
X142809524Y-77597676D01*
X142809524Y-77597676D02*
X142904762Y-77502438D01*
X142904762Y-77502438D02*
X143047619Y-77454819D01*
X143047619Y-77454819D02*
X143142857Y-77454819D01*
X143142857Y-77454819D02*
X143285714Y-77502438D01*
X143285714Y-77502438D02*
X143333333Y-77550057D01*
X144190476Y-77454819D02*
X144000000Y-77454819D01*
X144000000Y-77454819D02*
X143904762Y-77502438D01*
X143904762Y-77502438D02*
X143857143Y-77550057D01*
X143857143Y-77550057D02*
X143761905Y-77692914D01*
X143761905Y-77692914D02*
X143714286Y-77883390D01*
X143714286Y-77883390D02*
X143714286Y-78264342D01*
X143714286Y-78264342D02*
X143761905Y-78359580D01*
X143761905Y-78359580D02*
X143809524Y-78407200D01*
X143809524Y-78407200D02*
X143904762Y-78454819D01*
X143904762Y-78454819D02*
X144095238Y-78454819D01*
X144095238Y-78454819D02*
X144190476Y-78407200D01*
X144190476Y-78407200D02*
X144238095Y-78359580D01*
X144238095Y-78359580D02*
X144285714Y-78264342D01*
X144285714Y-78264342D02*
X144285714Y-78026247D01*
X144285714Y-78026247D02*
X144238095Y-77931009D01*
X144238095Y-77931009D02*
X144190476Y-77883390D01*
X144190476Y-77883390D02*
X144095238Y-77835771D01*
X144095238Y-77835771D02*
X143904762Y-77835771D01*
X143904762Y-77835771D02*
X143809524Y-77883390D01*
X143809524Y-77883390D02*
X143761905Y-77931009D01*
X143761905Y-77931009D02*
X143714286Y-78026247D01*
X143333333Y-95359580D02*
X143285714Y-95407200D01*
X143285714Y-95407200D02*
X143142857Y-95454819D01*
X143142857Y-95454819D02*
X143047619Y-95454819D01*
X143047619Y-95454819D02*
X142904762Y-95407200D01*
X142904762Y-95407200D02*
X142809524Y-95311961D01*
X142809524Y-95311961D02*
X142761905Y-95216723D01*
X142761905Y-95216723D02*
X142714286Y-95026247D01*
X142714286Y-95026247D02*
X142714286Y-94883390D01*
X142714286Y-94883390D02*
X142761905Y-94692914D01*
X142761905Y-94692914D02*
X142809524Y-94597676D01*
X142809524Y-94597676D02*
X142904762Y-94502438D01*
X142904762Y-94502438D02*
X143047619Y-94454819D01*
X143047619Y-94454819D02*
X143142857Y-94454819D01*
X143142857Y-94454819D02*
X143285714Y-94502438D01*
X143285714Y-94502438D02*
X143333333Y-94550057D01*
X144238095Y-94454819D02*
X143761905Y-94454819D01*
X143761905Y-94454819D02*
X143714286Y-94931009D01*
X143714286Y-94931009D02*
X143761905Y-94883390D01*
X143761905Y-94883390D02*
X143857143Y-94835771D01*
X143857143Y-94835771D02*
X144095238Y-94835771D01*
X144095238Y-94835771D02*
X144190476Y-94883390D01*
X144190476Y-94883390D02*
X144238095Y-94931009D01*
X144238095Y-94931009D02*
X144285714Y-95026247D01*
X144285714Y-95026247D02*
X144285714Y-95264342D01*
X144285714Y-95264342D02*
X144238095Y-95359580D01*
X144238095Y-95359580D02*
X144190476Y-95407200D01*
X144190476Y-95407200D02*
X144095238Y-95454819D01*
X144095238Y-95454819D02*
X143857143Y-95454819D01*
X143857143Y-95454819D02*
X143761905Y-95407200D01*
X143761905Y-95407200D02*
X143714286Y-95359580D01*
X128333333Y-78359580D02*
X128285714Y-78407200D01*
X128285714Y-78407200D02*
X128142857Y-78454819D01*
X128142857Y-78454819D02*
X128047619Y-78454819D01*
X128047619Y-78454819D02*
X127904762Y-78407200D01*
X127904762Y-78407200D02*
X127809524Y-78311961D01*
X127809524Y-78311961D02*
X127761905Y-78216723D01*
X127761905Y-78216723D02*
X127714286Y-78026247D01*
X127714286Y-78026247D02*
X127714286Y-77883390D01*
X127714286Y-77883390D02*
X127761905Y-77692914D01*
X127761905Y-77692914D02*
X127809524Y-77597676D01*
X127809524Y-77597676D02*
X127904762Y-77502438D01*
X127904762Y-77502438D02*
X128047619Y-77454819D01*
X128047619Y-77454819D02*
X128142857Y-77454819D01*
X128142857Y-77454819D02*
X128285714Y-77502438D01*
X128285714Y-77502438D02*
X128333333Y-77550057D01*
X129190476Y-77788152D02*
X129190476Y-78454819D01*
X128952381Y-77407200D02*
X128714286Y-78121485D01*
X128714286Y-78121485D02*
X129333333Y-78121485D01*
X96785714Y-69954819D02*
X96785714Y-68954819D01*
X96785714Y-68954819D02*
X97023809Y-68954819D01*
X97023809Y-68954819D02*
X97166666Y-69002438D01*
X97166666Y-69002438D02*
X97261904Y-69097676D01*
X97261904Y-69097676D02*
X97309523Y-69192914D01*
X97309523Y-69192914D02*
X97357142Y-69383390D01*
X97357142Y-69383390D02*
X97357142Y-69526247D01*
X97357142Y-69526247D02*
X97309523Y-69716723D01*
X97309523Y-69716723D02*
X97261904Y-69811961D01*
X97261904Y-69811961D02*
X97166666Y-69907200D01*
X97166666Y-69907200D02*
X97023809Y-69954819D01*
X97023809Y-69954819D02*
X96785714Y-69954819D01*
X98309523Y-69954819D02*
X97738095Y-69954819D01*
X98023809Y-69954819D02*
X98023809Y-68954819D01*
X98023809Y-68954819D02*
X97928571Y-69097676D01*
X97928571Y-69097676D02*
X97833333Y-69192914D01*
X97833333Y-69192914D02*
X97738095Y-69240533D01*
X99261904Y-69954819D02*
X98690476Y-69954819D01*
X98976190Y-69954819D02*
X98976190Y-68954819D01*
X98976190Y-68954819D02*
X98880952Y-69097676D01*
X98880952Y-69097676D02*
X98785714Y-69192914D01*
X98785714Y-69192914D02*
X98690476Y-69240533D01*
X72979819Y-84341904D02*
X73789342Y-84341904D01*
X73789342Y-84341904D02*
X73884580Y-84294285D01*
X73884580Y-84294285D02*
X73932200Y-84246666D01*
X73932200Y-84246666D02*
X73979819Y-84151428D01*
X73979819Y-84151428D02*
X73979819Y-83960952D01*
X73979819Y-83960952D02*
X73932200Y-83865714D01*
X73932200Y-83865714D02*
X73884580Y-83818095D01*
X73884580Y-83818095D02*
X73789342Y-83770476D01*
X73789342Y-83770476D02*
X72979819Y-83770476D01*
X73979819Y-82770476D02*
X73979819Y-83341904D01*
X73979819Y-83056190D02*
X72979819Y-83056190D01*
X72979819Y-83056190D02*
X73122676Y-83151428D01*
X73122676Y-83151428D02*
X73217914Y-83246666D01*
X73217914Y-83246666D02*
X73265533Y-83341904D01*
X116833333Y-82454819D02*
X116500000Y-81978628D01*
X116261905Y-82454819D02*
X116261905Y-81454819D01*
X116261905Y-81454819D02*
X116642857Y-81454819D01*
X116642857Y-81454819D02*
X116738095Y-81502438D01*
X116738095Y-81502438D02*
X116785714Y-81550057D01*
X116785714Y-81550057D02*
X116833333Y-81645295D01*
X116833333Y-81645295D02*
X116833333Y-81788152D01*
X116833333Y-81788152D02*
X116785714Y-81883390D01*
X116785714Y-81883390D02*
X116738095Y-81931009D01*
X116738095Y-81931009D02*
X116642857Y-81978628D01*
X116642857Y-81978628D02*
X116261905Y-81978628D01*
X117738095Y-81454819D02*
X117261905Y-81454819D01*
X117261905Y-81454819D02*
X117214286Y-81931009D01*
X117214286Y-81931009D02*
X117261905Y-81883390D01*
X117261905Y-81883390D02*
X117357143Y-81835771D01*
X117357143Y-81835771D02*
X117595238Y-81835771D01*
X117595238Y-81835771D02*
X117690476Y-81883390D01*
X117690476Y-81883390D02*
X117738095Y-81931009D01*
X117738095Y-81931009D02*
X117785714Y-82026247D01*
X117785714Y-82026247D02*
X117785714Y-82264342D01*
X117785714Y-82264342D02*
X117738095Y-82359580D01*
X117738095Y-82359580D02*
X117690476Y-82407200D01*
X117690476Y-82407200D02*
X117595238Y-82454819D01*
X117595238Y-82454819D02*
X117357143Y-82454819D01*
X117357143Y-82454819D02*
X117261905Y-82407200D01*
X117261905Y-82407200D02*
X117214286Y-82359580D01*
X108357142Y-83954819D02*
X108023809Y-83478628D01*
X107785714Y-83954819D02*
X107785714Y-82954819D01*
X107785714Y-82954819D02*
X108166666Y-82954819D01*
X108166666Y-82954819D02*
X108261904Y-83002438D01*
X108261904Y-83002438D02*
X108309523Y-83050057D01*
X108309523Y-83050057D02*
X108357142Y-83145295D01*
X108357142Y-83145295D02*
X108357142Y-83288152D01*
X108357142Y-83288152D02*
X108309523Y-83383390D01*
X108309523Y-83383390D02*
X108261904Y-83431009D01*
X108261904Y-83431009D02*
X108166666Y-83478628D01*
X108166666Y-83478628D02*
X107785714Y-83478628D01*
X109309523Y-83954819D02*
X108738095Y-83954819D01*
X109023809Y-83954819D02*
X109023809Y-82954819D01*
X109023809Y-82954819D02*
X108928571Y-83097676D01*
X108928571Y-83097676D02*
X108833333Y-83192914D01*
X108833333Y-83192914D02*
X108738095Y-83240533D01*
X109690476Y-83050057D02*
X109738095Y-83002438D01*
X109738095Y-83002438D02*
X109833333Y-82954819D01*
X109833333Y-82954819D02*
X110071428Y-82954819D01*
X110071428Y-82954819D02*
X110166666Y-83002438D01*
X110166666Y-83002438D02*
X110214285Y-83050057D01*
X110214285Y-83050057D02*
X110261904Y-83145295D01*
X110261904Y-83145295D02*
X110261904Y-83240533D01*
X110261904Y-83240533D02*
X110214285Y-83383390D01*
X110214285Y-83383390D02*
X109642857Y-83954819D01*
X109642857Y-83954819D02*
X110261904Y-83954819D01*
X112359580Y-106142857D02*
X112407200Y-106190476D01*
X112407200Y-106190476D02*
X112454819Y-106333333D01*
X112454819Y-106333333D02*
X112454819Y-106428571D01*
X112454819Y-106428571D02*
X112407200Y-106571428D01*
X112407200Y-106571428D02*
X112311961Y-106666666D01*
X112311961Y-106666666D02*
X112216723Y-106714285D01*
X112216723Y-106714285D02*
X112026247Y-106761904D01*
X112026247Y-106761904D02*
X111883390Y-106761904D01*
X111883390Y-106761904D02*
X111692914Y-106714285D01*
X111692914Y-106714285D02*
X111597676Y-106666666D01*
X111597676Y-106666666D02*
X111502438Y-106571428D01*
X111502438Y-106571428D02*
X111454819Y-106428571D01*
X111454819Y-106428571D02*
X111454819Y-106333333D01*
X111454819Y-106333333D02*
X111502438Y-106190476D01*
X111502438Y-106190476D02*
X111550057Y-106142857D01*
X112454819Y-105190476D02*
X112454819Y-105761904D01*
X112454819Y-105476190D02*
X111454819Y-105476190D01*
X111454819Y-105476190D02*
X111597676Y-105571428D01*
X111597676Y-105571428D02*
X111692914Y-105666666D01*
X111692914Y-105666666D02*
X111740533Y-105761904D01*
X111550057Y-104809523D02*
X111502438Y-104761904D01*
X111502438Y-104761904D02*
X111454819Y-104666666D01*
X111454819Y-104666666D02*
X111454819Y-104428571D01*
X111454819Y-104428571D02*
X111502438Y-104333333D01*
X111502438Y-104333333D02*
X111550057Y-104285714D01*
X111550057Y-104285714D02*
X111645295Y-104238095D01*
X111645295Y-104238095D02*
X111740533Y-104238095D01*
X111740533Y-104238095D02*
X111883390Y-104285714D01*
X111883390Y-104285714D02*
X112454819Y-104857142D01*
X112454819Y-104857142D02*
X112454819Y-104238095D01*
X108357142Y-88454819D02*
X108023809Y-87978628D01*
X107785714Y-88454819D02*
X107785714Y-87454819D01*
X107785714Y-87454819D02*
X108166666Y-87454819D01*
X108166666Y-87454819D02*
X108261904Y-87502438D01*
X108261904Y-87502438D02*
X108309523Y-87550057D01*
X108309523Y-87550057D02*
X108357142Y-87645295D01*
X108357142Y-87645295D02*
X108357142Y-87788152D01*
X108357142Y-87788152D02*
X108309523Y-87883390D01*
X108309523Y-87883390D02*
X108261904Y-87931009D01*
X108261904Y-87931009D02*
X108166666Y-87978628D01*
X108166666Y-87978628D02*
X107785714Y-87978628D01*
X109309523Y-88454819D02*
X108738095Y-88454819D01*
X109023809Y-88454819D02*
X109023809Y-87454819D01*
X109023809Y-87454819D02*
X108928571Y-87597676D01*
X108928571Y-87597676D02*
X108833333Y-87692914D01*
X108833333Y-87692914D02*
X108738095Y-87740533D01*
X109642857Y-87454819D02*
X110309523Y-87454819D01*
X110309523Y-87454819D02*
X109880952Y-88454819D01*
X116454819Y-87166666D02*
X115978628Y-87499999D01*
X116454819Y-87738094D02*
X115454819Y-87738094D01*
X115454819Y-87738094D02*
X115454819Y-87357142D01*
X115454819Y-87357142D02*
X115502438Y-87261904D01*
X115502438Y-87261904D02*
X115550057Y-87214285D01*
X115550057Y-87214285D02*
X115645295Y-87166666D01*
X115645295Y-87166666D02*
X115788152Y-87166666D01*
X115788152Y-87166666D02*
X115883390Y-87214285D01*
X115883390Y-87214285D02*
X115931009Y-87261904D01*
X115931009Y-87261904D02*
X115978628Y-87357142D01*
X115978628Y-87357142D02*
X115978628Y-87738094D01*
X115883390Y-86595237D02*
X115835771Y-86690475D01*
X115835771Y-86690475D02*
X115788152Y-86738094D01*
X115788152Y-86738094D02*
X115692914Y-86785713D01*
X115692914Y-86785713D02*
X115645295Y-86785713D01*
X115645295Y-86785713D02*
X115550057Y-86738094D01*
X115550057Y-86738094D02*
X115502438Y-86690475D01*
X115502438Y-86690475D02*
X115454819Y-86595237D01*
X115454819Y-86595237D02*
X115454819Y-86404761D01*
X115454819Y-86404761D02*
X115502438Y-86309523D01*
X115502438Y-86309523D02*
X115550057Y-86261904D01*
X115550057Y-86261904D02*
X115645295Y-86214285D01*
X115645295Y-86214285D02*
X115692914Y-86214285D01*
X115692914Y-86214285D02*
X115788152Y-86261904D01*
X115788152Y-86261904D02*
X115835771Y-86309523D01*
X115835771Y-86309523D02*
X115883390Y-86404761D01*
X115883390Y-86404761D02*
X115883390Y-86595237D01*
X115883390Y-86595237D02*
X115931009Y-86690475D01*
X115931009Y-86690475D02*
X115978628Y-86738094D01*
X115978628Y-86738094D02*
X116073866Y-86785713D01*
X116073866Y-86785713D02*
X116264342Y-86785713D01*
X116264342Y-86785713D02*
X116359580Y-86738094D01*
X116359580Y-86738094D02*
X116407200Y-86690475D01*
X116407200Y-86690475D02*
X116454819Y-86595237D01*
X116454819Y-86595237D02*
X116454819Y-86404761D01*
X116454819Y-86404761D02*
X116407200Y-86309523D01*
X116407200Y-86309523D02*
X116359580Y-86261904D01*
X116359580Y-86261904D02*
X116264342Y-86214285D01*
X116264342Y-86214285D02*
X116073866Y-86214285D01*
X116073866Y-86214285D02*
X115978628Y-86261904D01*
X115978628Y-86261904D02*
X115931009Y-86309523D01*
X115931009Y-86309523D02*
X115883390Y-86404761D01*
X75563333Y-73949580D02*
X75515714Y-73997200D01*
X75515714Y-73997200D02*
X75372857Y-74044819D01*
X75372857Y-74044819D02*
X75277619Y-74044819D01*
X75277619Y-74044819D02*
X75134762Y-73997200D01*
X75134762Y-73997200D02*
X75039524Y-73901961D01*
X75039524Y-73901961D02*
X74991905Y-73806723D01*
X74991905Y-73806723D02*
X74944286Y-73616247D01*
X74944286Y-73616247D02*
X74944286Y-73473390D01*
X74944286Y-73473390D02*
X74991905Y-73282914D01*
X74991905Y-73282914D02*
X75039524Y-73187676D01*
X75039524Y-73187676D02*
X75134762Y-73092438D01*
X75134762Y-73092438D02*
X75277619Y-73044819D01*
X75277619Y-73044819D02*
X75372857Y-73044819D01*
X75372857Y-73044819D02*
X75515714Y-73092438D01*
X75515714Y-73092438D02*
X75563333Y-73140057D01*
X76039524Y-74044819D02*
X76230000Y-74044819D01*
X76230000Y-74044819D02*
X76325238Y-73997200D01*
X76325238Y-73997200D02*
X76372857Y-73949580D01*
X76372857Y-73949580D02*
X76468095Y-73806723D01*
X76468095Y-73806723D02*
X76515714Y-73616247D01*
X76515714Y-73616247D02*
X76515714Y-73235295D01*
X76515714Y-73235295D02*
X76468095Y-73140057D01*
X76468095Y-73140057D02*
X76420476Y-73092438D01*
X76420476Y-73092438D02*
X76325238Y-73044819D01*
X76325238Y-73044819D02*
X76134762Y-73044819D01*
X76134762Y-73044819D02*
X76039524Y-73092438D01*
X76039524Y-73092438D02*
X75991905Y-73140057D01*
X75991905Y-73140057D02*
X75944286Y-73235295D01*
X75944286Y-73235295D02*
X75944286Y-73473390D01*
X75944286Y-73473390D02*
X75991905Y-73568628D01*
X75991905Y-73568628D02*
X76039524Y-73616247D01*
X76039524Y-73616247D02*
X76134762Y-73663866D01*
X76134762Y-73663866D02*
X76325238Y-73663866D01*
X76325238Y-73663866D02*
X76420476Y-73616247D01*
X76420476Y-73616247D02*
X76468095Y-73568628D01*
X76468095Y-73568628D02*
X76515714Y-73473390D01*
X108357142Y-68954819D02*
X108023809Y-68478628D01*
X107785714Y-68954819D02*
X107785714Y-67954819D01*
X107785714Y-67954819D02*
X108166666Y-67954819D01*
X108166666Y-67954819D02*
X108261904Y-68002438D01*
X108261904Y-68002438D02*
X108309523Y-68050057D01*
X108309523Y-68050057D02*
X108357142Y-68145295D01*
X108357142Y-68145295D02*
X108357142Y-68288152D01*
X108357142Y-68288152D02*
X108309523Y-68383390D01*
X108309523Y-68383390D02*
X108261904Y-68431009D01*
X108261904Y-68431009D02*
X108166666Y-68478628D01*
X108166666Y-68478628D02*
X107785714Y-68478628D01*
X108738095Y-68050057D02*
X108785714Y-68002438D01*
X108785714Y-68002438D02*
X108880952Y-67954819D01*
X108880952Y-67954819D02*
X109119047Y-67954819D01*
X109119047Y-67954819D02*
X109214285Y-68002438D01*
X109214285Y-68002438D02*
X109261904Y-68050057D01*
X109261904Y-68050057D02*
X109309523Y-68145295D01*
X109309523Y-68145295D02*
X109309523Y-68240533D01*
X109309523Y-68240533D02*
X109261904Y-68383390D01*
X109261904Y-68383390D02*
X108690476Y-68954819D01*
X108690476Y-68954819D02*
X109309523Y-68954819D01*
X109928571Y-67954819D02*
X110023809Y-67954819D01*
X110023809Y-67954819D02*
X110119047Y-68002438D01*
X110119047Y-68002438D02*
X110166666Y-68050057D01*
X110166666Y-68050057D02*
X110214285Y-68145295D01*
X110214285Y-68145295D02*
X110261904Y-68335771D01*
X110261904Y-68335771D02*
X110261904Y-68573866D01*
X110261904Y-68573866D02*
X110214285Y-68764342D01*
X110214285Y-68764342D02*
X110166666Y-68859580D01*
X110166666Y-68859580D02*
X110119047Y-68907200D01*
X110119047Y-68907200D02*
X110023809Y-68954819D01*
X110023809Y-68954819D02*
X109928571Y-68954819D01*
X109928571Y-68954819D02*
X109833333Y-68907200D01*
X109833333Y-68907200D02*
X109785714Y-68859580D01*
X109785714Y-68859580D02*
X109738095Y-68764342D01*
X109738095Y-68764342D02*
X109690476Y-68573866D01*
X109690476Y-68573866D02*
X109690476Y-68335771D01*
X109690476Y-68335771D02*
X109738095Y-68145295D01*
X109738095Y-68145295D02*
X109785714Y-68050057D01*
X109785714Y-68050057D02*
X109833333Y-68002438D01*
X109833333Y-68002438D02*
X109928571Y-67954819D01*
X111894166Y-108287319D02*
X111894166Y-109001604D01*
X111894166Y-109001604D02*
X111846547Y-109144461D01*
X111846547Y-109144461D02*
X111751309Y-109239700D01*
X111751309Y-109239700D02*
X111608452Y-109287319D01*
X111608452Y-109287319D02*
X111513214Y-109287319D01*
X112894166Y-109287319D02*
X112322738Y-109287319D01*
X112608452Y-109287319D02*
X112608452Y-108287319D01*
X112608452Y-108287319D02*
X112513214Y-108430176D01*
X112513214Y-108430176D02*
X112417976Y-108525414D01*
X112417976Y-108525414D02*
X112322738Y-108573033D01*
X108357142Y-81454819D02*
X108023809Y-80978628D01*
X107785714Y-81454819D02*
X107785714Y-80454819D01*
X107785714Y-80454819D02*
X108166666Y-80454819D01*
X108166666Y-80454819D02*
X108261904Y-80502438D01*
X108261904Y-80502438D02*
X108309523Y-80550057D01*
X108309523Y-80550057D02*
X108357142Y-80645295D01*
X108357142Y-80645295D02*
X108357142Y-80788152D01*
X108357142Y-80788152D02*
X108309523Y-80883390D01*
X108309523Y-80883390D02*
X108261904Y-80931009D01*
X108261904Y-80931009D02*
X108166666Y-80978628D01*
X108166666Y-80978628D02*
X107785714Y-80978628D01*
X109309523Y-81454819D02*
X108738095Y-81454819D01*
X109023809Y-81454819D02*
X109023809Y-80454819D01*
X109023809Y-80454819D02*
X108928571Y-80597676D01*
X108928571Y-80597676D02*
X108833333Y-80692914D01*
X108833333Y-80692914D02*
X108738095Y-80740533D01*
X109642857Y-80454819D02*
X110261904Y-80454819D01*
X110261904Y-80454819D02*
X109928571Y-80835771D01*
X109928571Y-80835771D02*
X110071428Y-80835771D01*
X110071428Y-80835771D02*
X110166666Y-80883390D01*
X110166666Y-80883390D02*
X110214285Y-80931009D01*
X110214285Y-80931009D02*
X110261904Y-81026247D01*
X110261904Y-81026247D02*
X110261904Y-81264342D01*
X110261904Y-81264342D02*
X110214285Y-81359580D01*
X110214285Y-81359580D02*
X110166666Y-81407200D01*
X110166666Y-81407200D02*
X110071428Y-81454819D01*
X110071428Y-81454819D02*
X109785714Y-81454819D01*
X109785714Y-81454819D02*
X109690476Y-81407200D01*
X109690476Y-81407200D02*
X109642857Y-81359580D01*
X109184819Y-65333333D02*
X109899104Y-65333333D01*
X109899104Y-65333333D02*
X110041961Y-65380952D01*
X110041961Y-65380952D02*
X110137200Y-65476190D01*
X110137200Y-65476190D02*
X110184819Y-65619047D01*
X110184819Y-65619047D02*
X110184819Y-65714285D01*
X109184819Y-64952380D02*
X109184819Y-64333333D01*
X109184819Y-64333333D02*
X109565771Y-64666666D01*
X109565771Y-64666666D02*
X109565771Y-64523809D01*
X109565771Y-64523809D02*
X109613390Y-64428571D01*
X109613390Y-64428571D02*
X109661009Y-64380952D01*
X109661009Y-64380952D02*
X109756247Y-64333333D01*
X109756247Y-64333333D02*
X109994342Y-64333333D01*
X109994342Y-64333333D02*
X110089580Y-64380952D01*
X110089580Y-64380952D02*
X110137200Y-64428571D01*
X110137200Y-64428571D02*
X110184819Y-64523809D01*
X110184819Y-64523809D02*
X110184819Y-64809523D01*
X110184819Y-64809523D02*
X110137200Y-64904761D01*
X110137200Y-64904761D02*
X110089580Y-64952380D01*
X142859580Y-116071666D02*
X142907200Y-116119285D01*
X142907200Y-116119285D02*
X142954819Y-116262142D01*
X142954819Y-116262142D02*
X142954819Y-116357380D01*
X142954819Y-116357380D02*
X142907200Y-116500237D01*
X142907200Y-116500237D02*
X142811961Y-116595475D01*
X142811961Y-116595475D02*
X142716723Y-116643094D01*
X142716723Y-116643094D02*
X142526247Y-116690713D01*
X142526247Y-116690713D02*
X142383390Y-116690713D01*
X142383390Y-116690713D02*
X142192914Y-116643094D01*
X142192914Y-116643094D02*
X142097676Y-116595475D01*
X142097676Y-116595475D02*
X142002438Y-116500237D01*
X142002438Y-116500237D02*
X141954819Y-116357380D01*
X141954819Y-116357380D02*
X141954819Y-116262142D01*
X141954819Y-116262142D02*
X142002438Y-116119285D01*
X142002438Y-116119285D02*
X142050057Y-116071666D01*
X142954819Y-115119285D02*
X142954819Y-115690713D01*
X142954819Y-115404999D02*
X141954819Y-115404999D01*
X141954819Y-115404999D02*
X142097676Y-115500237D01*
X142097676Y-115500237D02*
X142192914Y-115595475D01*
X142192914Y-115595475D02*
X142240533Y-115690713D01*
X125833333Y-110204819D02*
X125500000Y-109728628D01*
X125261905Y-110204819D02*
X125261905Y-109204819D01*
X125261905Y-109204819D02*
X125642857Y-109204819D01*
X125642857Y-109204819D02*
X125738095Y-109252438D01*
X125738095Y-109252438D02*
X125785714Y-109300057D01*
X125785714Y-109300057D02*
X125833333Y-109395295D01*
X125833333Y-109395295D02*
X125833333Y-109538152D01*
X125833333Y-109538152D02*
X125785714Y-109633390D01*
X125785714Y-109633390D02*
X125738095Y-109681009D01*
X125738095Y-109681009D02*
X125642857Y-109728628D01*
X125642857Y-109728628D02*
X125261905Y-109728628D01*
X126785714Y-110204819D02*
X126214286Y-110204819D01*
X126500000Y-110204819D02*
X126500000Y-109204819D01*
X126500000Y-109204819D02*
X126404762Y-109347676D01*
X126404762Y-109347676D02*
X126309524Y-109442914D01*
X126309524Y-109442914D02*
X126214286Y-109490533D01*
X150873333Y-111034819D02*
X150540000Y-110558628D01*
X150301905Y-111034819D02*
X150301905Y-110034819D01*
X150301905Y-110034819D02*
X150682857Y-110034819D01*
X150682857Y-110034819D02*
X150778095Y-110082438D01*
X150778095Y-110082438D02*
X150825714Y-110130057D01*
X150825714Y-110130057D02*
X150873333Y-110225295D01*
X150873333Y-110225295D02*
X150873333Y-110368152D01*
X150873333Y-110368152D02*
X150825714Y-110463390D01*
X150825714Y-110463390D02*
X150778095Y-110511009D01*
X150778095Y-110511009D02*
X150682857Y-110558628D01*
X150682857Y-110558628D02*
X150301905Y-110558628D01*
X151349524Y-111034819D02*
X151540000Y-111034819D01*
X151540000Y-111034819D02*
X151635238Y-110987200D01*
X151635238Y-110987200D02*
X151682857Y-110939580D01*
X151682857Y-110939580D02*
X151778095Y-110796723D01*
X151778095Y-110796723D02*
X151825714Y-110606247D01*
X151825714Y-110606247D02*
X151825714Y-110225295D01*
X151825714Y-110225295D02*
X151778095Y-110130057D01*
X151778095Y-110130057D02*
X151730476Y-110082438D01*
X151730476Y-110082438D02*
X151635238Y-110034819D01*
X151635238Y-110034819D02*
X151444762Y-110034819D01*
X151444762Y-110034819D02*
X151349524Y-110082438D01*
X151349524Y-110082438D02*
X151301905Y-110130057D01*
X151301905Y-110130057D02*
X151254286Y-110225295D01*
X151254286Y-110225295D02*
X151254286Y-110463390D01*
X151254286Y-110463390D02*
X151301905Y-110558628D01*
X151301905Y-110558628D02*
X151349524Y-110606247D01*
X151349524Y-110606247D02*
X151444762Y-110653866D01*
X151444762Y-110653866D02*
X151635238Y-110653866D01*
X151635238Y-110653866D02*
X151730476Y-110606247D01*
X151730476Y-110606247D02*
X151778095Y-110558628D01*
X151778095Y-110558628D02*
X151825714Y-110463390D01*
X108357142Y-66954819D02*
X108023809Y-66478628D01*
X107785714Y-66954819D02*
X107785714Y-65954819D01*
X107785714Y-65954819D02*
X108166666Y-65954819D01*
X108166666Y-65954819D02*
X108261904Y-66002438D01*
X108261904Y-66002438D02*
X108309523Y-66050057D01*
X108309523Y-66050057D02*
X108357142Y-66145295D01*
X108357142Y-66145295D02*
X108357142Y-66288152D01*
X108357142Y-66288152D02*
X108309523Y-66383390D01*
X108309523Y-66383390D02*
X108261904Y-66431009D01*
X108261904Y-66431009D02*
X108166666Y-66478628D01*
X108166666Y-66478628D02*
X107785714Y-66478628D01*
X108738095Y-66050057D02*
X108785714Y-66002438D01*
X108785714Y-66002438D02*
X108880952Y-65954819D01*
X108880952Y-65954819D02*
X109119047Y-65954819D01*
X109119047Y-65954819D02*
X109214285Y-66002438D01*
X109214285Y-66002438D02*
X109261904Y-66050057D01*
X109261904Y-66050057D02*
X109309523Y-66145295D01*
X109309523Y-66145295D02*
X109309523Y-66240533D01*
X109309523Y-66240533D02*
X109261904Y-66383390D01*
X109261904Y-66383390D02*
X108690476Y-66954819D01*
X108690476Y-66954819D02*
X109309523Y-66954819D01*
X110261904Y-66954819D02*
X109690476Y-66954819D01*
X109976190Y-66954819D02*
X109976190Y-65954819D01*
X109976190Y-65954819D02*
X109880952Y-66097676D01*
X109880952Y-66097676D02*
X109785714Y-66192914D01*
X109785714Y-66192914D02*
X109690476Y-66240533D01*
X97761905Y-79454819D02*
X97761905Y-78454819D01*
X97761905Y-78454819D02*
X98000000Y-78454819D01*
X98000000Y-78454819D02*
X98142857Y-78502438D01*
X98142857Y-78502438D02*
X98238095Y-78597676D01*
X98238095Y-78597676D02*
X98285714Y-78692914D01*
X98285714Y-78692914D02*
X98333333Y-78883390D01*
X98333333Y-78883390D02*
X98333333Y-79026247D01*
X98333333Y-79026247D02*
X98285714Y-79216723D01*
X98285714Y-79216723D02*
X98238095Y-79311961D01*
X98238095Y-79311961D02*
X98142857Y-79407200D01*
X98142857Y-79407200D02*
X98000000Y-79454819D01*
X98000000Y-79454819D02*
X97761905Y-79454819D01*
X98666667Y-78454819D02*
X99333333Y-78454819D01*
X99333333Y-78454819D02*
X98904762Y-79454819D01*
X96785714Y-72454819D02*
X96785714Y-71454819D01*
X96785714Y-71454819D02*
X97023809Y-71454819D01*
X97023809Y-71454819D02*
X97166666Y-71502438D01*
X97166666Y-71502438D02*
X97261904Y-71597676D01*
X97261904Y-71597676D02*
X97309523Y-71692914D01*
X97309523Y-71692914D02*
X97357142Y-71883390D01*
X97357142Y-71883390D02*
X97357142Y-72026247D01*
X97357142Y-72026247D02*
X97309523Y-72216723D01*
X97309523Y-72216723D02*
X97261904Y-72311961D01*
X97261904Y-72311961D02*
X97166666Y-72407200D01*
X97166666Y-72407200D02*
X97023809Y-72454819D01*
X97023809Y-72454819D02*
X96785714Y-72454819D01*
X98309523Y-72454819D02*
X97738095Y-72454819D01*
X98023809Y-72454819D02*
X98023809Y-71454819D01*
X98023809Y-71454819D02*
X97928571Y-71597676D01*
X97928571Y-71597676D02*
X97833333Y-71692914D01*
X97833333Y-71692914D02*
X97738095Y-71740533D01*
X98928571Y-71454819D02*
X99023809Y-71454819D01*
X99023809Y-71454819D02*
X99119047Y-71502438D01*
X99119047Y-71502438D02*
X99166666Y-71550057D01*
X99166666Y-71550057D02*
X99214285Y-71645295D01*
X99214285Y-71645295D02*
X99261904Y-71835771D01*
X99261904Y-71835771D02*
X99261904Y-72073866D01*
X99261904Y-72073866D02*
X99214285Y-72264342D01*
X99214285Y-72264342D02*
X99166666Y-72359580D01*
X99166666Y-72359580D02*
X99119047Y-72407200D01*
X99119047Y-72407200D02*
X99023809Y-72454819D01*
X99023809Y-72454819D02*
X98928571Y-72454819D01*
X98928571Y-72454819D02*
X98833333Y-72407200D01*
X98833333Y-72407200D02*
X98785714Y-72359580D01*
X98785714Y-72359580D02*
X98738095Y-72264342D01*
X98738095Y-72264342D02*
X98690476Y-72073866D01*
X98690476Y-72073866D02*
X98690476Y-71835771D01*
X98690476Y-71835771D02*
X98738095Y-71645295D01*
X98738095Y-71645295D02*
X98785714Y-71550057D01*
X98785714Y-71550057D02*
X98833333Y-71502438D01*
X98833333Y-71502438D02*
X98928571Y-71454819D01*
X73795833Y-112679580D02*
X73748214Y-112727200D01*
X73748214Y-112727200D02*
X73605357Y-112774819D01*
X73605357Y-112774819D02*
X73510119Y-112774819D01*
X73510119Y-112774819D02*
X73367262Y-112727200D01*
X73367262Y-112727200D02*
X73272024Y-112631961D01*
X73272024Y-112631961D02*
X73224405Y-112536723D01*
X73224405Y-112536723D02*
X73176786Y-112346247D01*
X73176786Y-112346247D02*
X73176786Y-112203390D01*
X73176786Y-112203390D02*
X73224405Y-112012914D01*
X73224405Y-112012914D02*
X73272024Y-111917676D01*
X73272024Y-111917676D02*
X73367262Y-111822438D01*
X73367262Y-111822438D02*
X73510119Y-111774819D01*
X73510119Y-111774819D02*
X73605357Y-111774819D01*
X73605357Y-111774819D02*
X73748214Y-111822438D01*
X73748214Y-111822438D02*
X73795833Y-111870057D01*
X74176786Y-111870057D02*
X74224405Y-111822438D01*
X74224405Y-111822438D02*
X74319643Y-111774819D01*
X74319643Y-111774819D02*
X74557738Y-111774819D01*
X74557738Y-111774819D02*
X74652976Y-111822438D01*
X74652976Y-111822438D02*
X74700595Y-111870057D01*
X74700595Y-111870057D02*
X74748214Y-111965295D01*
X74748214Y-111965295D02*
X74748214Y-112060533D01*
X74748214Y-112060533D02*
X74700595Y-112203390D01*
X74700595Y-112203390D02*
X74129167Y-112774819D01*
X74129167Y-112774819D02*
X74748214Y-112774819D01*
X126690366Y-78629819D02*
X126690366Y-79439342D01*
X126690366Y-79439342D02*
X126737985Y-79534580D01*
X126737985Y-79534580D02*
X126785604Y-79582200D01*
X126785604Y-79582200D02*
X126880842Y-79629819D01*
X126880842Y-79629819D02*
X127071318Y-79629819D01*
X127071318Y-79629819D02*
X127166556Y-79582200D01*
X127166556Y-79582200D02*
X127214175Y-79534580D01*
X127214175Y-79534580D02*
X127261794Y-79439342D01*
X127261794Y-79439342D02*
X127261794Y-78629819D01*
X128214175Y-78629819D02*
X127737985Y-78629819D01*
X127737985Y-78629819D02*
X127690366Y-79106009D01*
X127690366Y-79106009D02*
X127737985Y-79058390D01*
X127737985Y-79058390D02*
X127833223Y-79010771D01*
X127833223Y-79010771D02*
X128071318Y-79010771D01*
X128071318Y-79010771D02*
X128166556Y-79058390D01*
X128166556Y-79058390D02*
X128214175Y-79106009D01*
X128214175Y-79106009D02*
X128261794Y-79201247D01*
X128261794Y-79201247D02*
X128261794Y-79439342D01*
X128261794Y-79439342D02*
X128214175Y-79534580D01*
X128214175Y-79534580D02*
X128166556Y-79582200D01*
X128166556Y-79582200D02*
X128071318Y-79629819D01*
X128071318Y-79629819D02*
X127833223Y-79629819D01*
X127833223Y-79629819D02*
X127737985Y-79582200D01*
X127737985Y-79582200D02*
X127690366Y-79534580D01*
X63420476Y-69044819D02*
X63420476Y-68044819D01*
X63420476Y-68044819D02*
X63753809Y-68759104D01*
X63753809Y-68759104D02*
X64087142Y-68044819D01*
X64087142Y-68044819D02*
X64087142Y-69044819D01*
X64468095Y-68044819D02*
X65087142Y-68044819D01*
X65087142Y-68044819D02*
X64753809Y-68425771D01*
X64753809Y-68425771D02*
X64896666Y-68425771D01*
X64896666Y-68425771D02*
X64991904Y-68473390D01*
X64991904Y-68473390D02*
X65039523Y-68521009D01*
X65039523Y-68521009D02*
X65087142Y-68616247D01*
X65087142Y-68616247D02*
X65087142Y-68854342D01*
X65087142Y-68854342D02*
X65039523Y-68949580D01*
X65039523Y-68949580D02*
X64991904Y-68997200D01*
X64991904Y-68997200D02*
X64896666Y-69044819D01*
X64896666Y-69044819D02*
X64610952Y-69044819D01*
X64610952Y-69044819D02*
X64515714Y-68997200D01*
X64515714Y-68997200D02*
X64468095Y-68949580D01*
X119107142Y-105454819D02*
X118773809Y-104978628D01*
X118535714Y-105454819D02*
X118535714Y-104454819D01*
X118535714Y-104454819D02*
X118916666Y-104454819D01*
X118916666Y-104454819D02*
X119011904Y-104502438D01*
X119011904Y-104502438D02*
X119059523Y-104550057D01*
X119059523Y-104550057D02*
X119107142Y-104645295D01*
X119107142Y-104645295D02*
X119107142Y-104788152D01*
X119107142Y-104788152D02*
X119059523Y-104883390D01*
X119059523Y-104883390D02*
X119011904Y-104931009D01*
X119011904Y-104931009D02*
X118916666Y-104978628D01*
X118916666Y-104978628D02*
X118535714Y-104978628D01*
X120059523Y-105454819D02*
X119488095Y-105454819D01*
X119773809Y-105454819D02*
X119773809Y-104454819D01*
X119773809Y-104454819D02*
X119678571Y-104597676D01*
X119678571Y-104597676D02*
X119583333Y-104692914D01*
X119583333Y-104692914D02*
X119488095Y-104740533D01*
X121011904Y-105454819D02*
X120440476Y-105454819D01*
X120726190Y-105454819D02*
X120726190Y-104454819D01*
X120726190Y-104454819D02*
X120630952Y-104597676D01*
X120630952Y-104597676D02*
X120535714Y-104692914D01*
X120535714Y-104692914D02*
X120440476Y-104740533D01*
X108357142Y-71454819D02*
X108023809Y-70978628D01*
X107785714Y-71454819D02*
X107785714Y-70454819D01*
X107785714Y-70454819D02*
X108166666Y-70454819D01*
X108166666Y-70454819D02*
X108261904Y-70502438D01*
X108261904Y-70502438D02*
X108309523Y-70550057D01*
X108309523Y-70550057D02*
X108357142Y-70645295D01*
X108357142Y-70645295D02*
X108357142Y-70788152D01*
X108357142Y-70788152D02*
X108309523Y-70883390D01*
X108309523Y-70883390D02*
X108261904Y-70931009D01*
X108261904Y-70931009D02*
X108166666Y-70978628D01*
X108166666Y-70978628D02*
X107785714Y-70978628D01*
X109309523Y-71454819D02*
X108738095Y-71454819D01*
X109023809Y-71454819D02*
X109023809Y-70454819D01*
X109023809Y-70454819D02*
X108928571Y-70597676D01*
X108928571Y-70597676D02*
X108833333Y-70692914D01*
X108833333Y-70692914D02*
X108738095Y-70740533D01*
X109785714Y-71454819D02*
X109976190Y-71454819D01*
X109976190Y-71454819D02*
X110071428Y-71407200D01*
X110071428Y-71407200D02*
X110119047Y-71359580D01*
X110119047Y-71359580D02*
X110214285Y-71216723D01*
X110214285Y-71216723D02*
X110261904Y-71026247D01*
X110261904Y-71026247D02*
X110261904Y-70645295D01*
X110261904Y-70645295D02*
X110214285Y-70550057D01*
X110214285Y-70550057D02*
X110166666Y-70502438D01*
X110166666Y-70502438D02*
X110071428Y-70454819D01*
X110071428Y-70454819D02*
X109880952Y-70454819D01*
X109880952Y-70454819D02*
X109785714Y-70502438D01*
X109785714Y-70502438D02*
X109738095Y-70550057D01*
X109738095Y-70550057D02*
X109690476Y-70645295D01*
X109690476Y-70645295D02*
X109690476Y-70883390D01*
X109690476Y-70883390D02*
X109738095Y-70978628D01*
X109738095Y-70978628D02*
X109785714Y-71026247D01*
X109785714Y-71026247D02*
X109880952Y-71073866D01*
X109880952Y-71073866D02*
X110071428Y-71073866D01*
X110071428Y-71073866D02*
X110166666Y-71026247D01*
X110166666Y-71026247D02*
X110214285Y-70978628D01*
X110214285Y-70978628D02*
X110261904Y-70883390D01*
X85224819Y-117333333D02*
X85939104Y-117333333D01*
X85939104Y-117333333D02*
X86081961Y-117380952D01*
X86081961Y-117380952D02*
X86177200Y-117476190D01*
X86177200Y-117476190D02*
X86224819Y-117619047D01*
X86224819Y-117619047D02*
X86224819Y-117714285D01*
X85320057Y-116904761D02*
X85272438Y-116857142D01*
X85272438Y-116857142D02*
X85224819Y-116761904D01*
X85224819Y-116761904D02*
X85224819Y-116523809D01*
X85224819Y-116523809D02*
X85272438Y-116428571D01*
X85272438Y-116428571D02*
X85320057Y-116380952D01*
X85320057Y-116380952D02*
X85415295Y-116333333D01*
X85415295Y-116333333D02*
X85510533Y-116333333D01*
X85510533Y-116333333D02*
X85653390Y-116380952D01*
X85653390Y-116380952D02*
X86224819Y-116952380D01*
X86224819Y-116952380D02*
X86224819Y-116333333D01*
X108357142Y-85954819D02*
X108023809Y-85478628D01*
X107785714Y-85954819D02*
X107785714Y-84954819D01*
X107785714Y-84954819D02*
X108166666Y-84954819D01*
X108166666Y-84954819D02*
X108261904Y-85002438D01*
X108261904Y-85002438D02*
X108309523Y-85050057D01*
X108309523Y-85050057D02*
X108357142Y-85145295D01*
X108357142Y-85145295D02*
X108357142Y-85288152D01*
X108357142Y-85288152D02*
X108309523Y-85383390D01*
X108309523Y-85383390D02*
X108261904Y-85431009D01*
X108261904Y-85431009D02*
X108166666Y-85478628D01*
X108166666Y-85478628D02*
X107785714Y-85478628D01*
X109309523Y-85954819D02*
X108738095Y-85954819D01*
X109023809Y-85954819D02*
X109023809Y-84954819D01*
X109023809Y-84954819D02*
X108928571Y-85097676D01*
X108928571Y-85097676D02*
X108833333Y-85192914D01*
X108833333Y-85192914D02*
X108738095Y-85240533D01*
X110166666Y-84954819D02*
X109976190Y-84954819D01*
X109976190Y-84954819D02*
X109880952Y-85002438D01*
X109880952Y-85002438D02*
X109833333Y-85050057D01*
X109833333Y-85050057D02*
X109738095Y-85192914D01*
X109738095Y-85192914D02*
X109690476Y-85383390D01*
X109690476Y-85383390D02*
X109690476Y-85764342D01*
X109690476Y-85764342D02*
X109738095Y-85859580D01*
X109738095Y-85859580D02*
X109785714Y-85907200D01*
X109785714Y-85907200D02*
X109880952Y-85954819D01*
X109880952Y-85954819D02*
X110071428Y-85954819D01*
X110071428Y-85954819D02*
X110166666Y-85907200D01*
X110166666Y-85907200D02*
X110214285Y-85859580D01*
X110214285Y-85859580D02*
X110261904Y-85764342D01*
X110261904Y-85764342D02*
X110261904Y-85526247D01*
X110261904Y-85526247D02*
X110214285Y-85431009D01*
X110214285Y-85431009D02*
X110166666Y-85383390D01*
X110166666Y-85383390D02*
X110071428Y-85335771D01*
X110071428Y-85335771D02*
X109880952Y-85335771D01*
X109880952Y-85335771D02*
X109785714Y-85383390D01*
X109785714Y-85383390D02*
X109738095Y-85431009D01*
X109738095Y-85431009D02*
X109690476Y-85526247D01*
X108357142Y-73954819D02*
X108023809Y-73478628D01*
X107785714Y-73954819D02*
X107785714Y-72954819D01*
X107785714Y-72954819D02*
X108166666Y-72954819D01*
X108166666Y-72954819D02*
X108261904Y-73002438D01*
X108261904Y-73002438D02*
X108309523Y-73050057D01*
X108309523Y-73050057D02*
X108357142Y-73145295D01*
X108357142Y-73145295D02*
X108357142Y-73288152D01*
X108357142Y-73288152D02*
X108309523Y-73383390D01*
X108309523Y-73383390D02*
X108261904Y-73431009D01*
X108261904Y-73431009D02*
X108166666Y-73478628D01*
X108166666Y-73478628D02*
X107785714Y-73478628D01*
X109309523Y-73954819D02*
X108738095Y-73954819D01*
X109023809Y-73954819D02*
X109023809Y-72954819D01*
X109023809Y-72954819D02*
X108928571Y-73097676D01*
X108928571Y-73097676D02*
X108833333Y-73192914D01*
X108833333Y-73192914D02*
X108738095Y-73240533D01*
X109880952Y-73383390D02*
X109785714Y-73335771D01*
X109785714Y-73335771D02*
X109738095Y-73288152D01*
X109738095Y-73288152D02*
X109690476Y-73192914D01*
X109690476Y-73192914D02*
X109690476Y-73145295D01*
X109690476Y-73145295D02*
X109738095Y-73050057D01*
X109738095Y-73050057D02*
X109785714Y-73002438D01*
X109785714Y-73002438D02*
X109880952Y-72954819D01*
X109880952Y-72954819D02*
X110071428Y-72954819D01*
X110071428Y-72954819D02*
X110166666Y-73002438D01*
X110166666Y-73002438D02*
X110214285Y-73050057D01*
X110214285Y-73050057D02*
X110261904Y-73145295D01*
X110261904Y-73145295D02*
X110261904Y-73192914D01*
X110261904Y-73192914D02*
X110214285Y-73288152D01*
X110214285Y-73288152D02*
X110166666Y-73335771D01*
X110166666Y-73335771D02*
X110071428Y-73383390D01*
X110071428Y-73383390D02*
X109880952Y-73383390D01*
X109880952Y-73383390D02*
X109785714Y-73431009D01*
X109785714Y-73431009D02*
X109738095Y-73478628D01*
X109738095Y-73478628D02*
X109690476Y-73573866D01*
X109690476Y-73573866D02*
X109690476Y-73764342D01*
X109690476Y-73764342D02*
X109738095Y-73859580D01*
X109738095Y-73859580D02*
X109785714Y-73907200D01*
X109785714Y-73907200D02*
X109880952Y-73954819D01*
X109880952Y-73954819D02*
X110071428Y-73954819D01*
X110071428Y-73954819D02*
X110166666Y-73907200D01*
X110166666Y-73907200D02*
X110214285Y-73859580D01*
X110214285Y-73859580D02*
X110261904Y-73764342D01*
X110261904Y-73764342D02*
X110261904Y-73573866D01*
X110261904Y-73573866D02*
X110214285Y-73478628D01*
X110214285Y-73478628D02*
X110166666Y-73431009D01*
X110166666Y-73431009D02*
X110071428Y-73383390D01*
X65420476Y-90044819D02*
X65420476Y-89044819D01*
X65420476Y-89044819D02*
X65753809Y-89759104D01*
X65753809Y-89759104D02*
X66087142Y-89044819D01*
X66087142Y-89044819D02*
X66087142Y-90044819D01*
X66515714Y-89140057D02*
X66563333Y-89092438D01*
X66563333Y-89092438D02*
X66658571Y-89044819D01*
X66658571Y-89044819D02*
X66896666Y-89044819D01*
X66896666Y-89044819D02*
X66991904Y-89092438D01*
X66991904Y-89092438D02*
X67039523Y-89140057D01*
X67039523Y-89140057D02*
X67087142Y-89235295D01*
X67087142Y-89235295D02*
X67087142Y-89330533D01*
X67087142Y-89330533D02*
X67039523Y-89473390D01*
X67039523Y-89473390D02*
X66468095Y-90044819D01*
X66468095Y-90044819D02*
X67087142Y-90044819D01*
X98330595Y-96877319D02*
X98330595Y-97686842D01*
X98330595Y-97686842D02*
X98378214Y-97782080D01*
X98378214Y-97782080D02*
X98425833Y-97829700D01*
X98425833Y-97829700D02*
X98521071Y-97877319D01*
X98521071Y-97877319D02*
X98711547Y-97877319D01*
X98711547Y-97877319D02*
X98806785Y-97829700D01*
X98806785Y-97829700D02*
X98854404Y-97782080D01*
X98854404Y-97782080D02*
X98902023Y-97686842D01*
X98902023Y-97686842D02*
X98902023Y-96877319D01*
X99806785Y-97210652D02*
X99806785Y-97877319D01*
X99568690Y-96829700D02*
X99330595Y-97543985D01*
X99330595Y-97543985D02*
X99949642Y-97543985D01*
X97761905Y-86454819D02*
X97761905Y-85454819D01*
X97761905Y-85454819D02*
X98000000Y-85454819D01*
X98000000Y-85454819D02*
X98142857Y-85502438D01*
X98142857Y-85502438D02*
X98238095Y-85597676D01*
X98238095Y-85597676D02*
X98285714Y-85692914D01*
X98285714Y-85692914D02*
X98333333Y-85883390D01*
X98333333Y-85883390D02*
X98333333Y-86026247D01*
X98333333Y-86026247D02*
X98285714Y-86216723D01*
X98285714Y-86216723D02*
X98238095Y-86311961D01*
X98238095Y-86311961D02*
X98142857Y-86407200D01*
X98142857Y-86407200D02*
X98000000Y-86454819D01*
X98000000Y-86454819D02*
X97761905Y-86454819D01*
X99190476Y-85788152D02*
X99190476Y-86454819D01*
X98952381Y-85407200D02*
X98714286Y-86121485D01*
X98714286Y-86121485D02*
X99333333Y-86121485D01*
X72738095Y-107854819D02*
X72738095Y-108664342D01*
X72738095Y-108664342D02*
X72785714Y-108759580D01*
X72785714Y-108759580D02*
X72833333Y-108807200D01*
X72833333Y-108807200D02*
X72928571Y-108854819D01*
X72928571Y-108854819D02*
X73119047Y-108854819D01*
X73119047Y-108854819D02*
X73214285Y-108807200D01*
X73214285Y-108807200D02*
X73261904Y-108759580D01*
X73261904Y-108759580D02*
X73309523Y-108664342D01*
X73309523Y-108664342D02*
X73309523Y-107854819D01*
X73738095Y-107950057D02*
X73785714Y-107902438D01*
X73785714Y-107902438D02*
X73880952Y-107854819D01*
X73880952Y-107854819D02*
X74119047Y-107854819D01*
X74119047Y-107854819D02*
X74214285Y-107902438D01*
X74214285Y-107902438D02*
X74261904Y-107950057D01*
X74261904Y-107950057D02*
X74309523Y-108045295D01*
X74309523Y-108045295D02*
X74309523Y-108140533D01*
X74309523Y-108140533D02*
X74261904Y-108283390D01*
X74261904Y-108283390D02*
X73690476Y-108854819D01*
X73690476Y-108854819D02*
X74309523Y-108854819D01*
X108357142Y-78954819D02*
X108023809Y-78478628D01*
X107785714Y-78954819D02*
X107785714Y-77954819D01*
X107785714Y-77954819D02*
X108166666Y-77954819D01*
X108166666Y-77954819D02*
X108261904Y-78002438D01*
X108261904Y-78002438D02*
X108309523Y-78050057D01*
X108309523Y-78050057D02*
X108357142Y-78145295D01*
X108357142Y-78145295D02*
X108357142Y-78288152D01*
X108357142Y-78288152D02*
X108309523Y-78383390D01*
X108309523Y-78383390D02*
X108261904Y-78431009D01*
X108261904Y-78431009D02*
X108166666Y-78478628D01*
X108166666Y-78478628D02*
X107785714Y-78478628D01*
X109309523Y-78954819D02*
X108738095Y-78954819D01*
X109023809Y-78954819D02*
X109023809Y-77954819D01*
X109023809Y-77954819D02*
X108928571Y-78097676D01*
X108928571Y-78097676D02*
X108833333Y-78192914D01*
X108833333Y-78192914D02*
X108738095Y-78240533D01*
X110166666Y-78288152D02*
X110166666Y-78954819D01*
X109928571Y-77907200D02*
X109690476Y-78621485D01*
X109690476Y-78621485D02*
X110309523Y-78621485D01*
X97761905Y-89454819D02*
X97761905Y-88454819D01*
X97761905Y-88454819D02*
X98000000Y-88454819D01*
X98000000Y-88454819D02*
X98142857Y-88502438D01*
X98142857Y-88502438D02*
X98238095Y-88597676D01*
X98238095Y-88597676D02*
X98285714Y-88692914D01*
X98285714Y-88692914D02*
X98333333Y-88883390D01*
X98333333Y-88883390D02*
X98333333Y-89026247D01*
X98333333Y-89026247D02*
X98285714Y-89216723D01*
X98285714Y-89216723D02*
X98238095Y-89311961D01*
X98238095Y-89311961D02*
X98142857Y-89407200D01*
X98142857Y-89407200D02*
X98000000Y-89454819D01*
X98000000Y-89454819D02*
X97761905Y-89454819D01*
X98666667Y-88454819D02*
X99285714Y-88454819D01*
X99285714Y-88454819D02*
X98952381Y-88835771D01*
X98952381Y-88835771D02*
X99095238Y-88835771D01*
X99095238Y-88835771D02*
X99190476Y-88883390D01*
X99190476Y-88883390D02*
X99238095Y-88931009D01*
X99238095Y-88931009D02*
X99285714Y-89026247D01*
X99285714Y-89026247D02*
X99285714Y-89264342D01*
X99285714Y-89264342D02*
X99238095Y-89359580D01*
X99238095Y-89359580D02*
X99190476Y-89407200D01*
X99190476Y-89407200D02*
X99095238Y-89454819D01*
X99095238Y-89454819D02*
X98809524Y-89454819D01*
X98809524Y-89454819D02*
X98714286Y-89407200D01*
X98714286Y-89407200D02*
X98666667Y-89359580D01*
X137738095Y-116059819D02*
X137738095Y-116869342D01*
X137738095Y-116869342D02*
X137785714Y-116964580D01*
X137785714Y-116964580D02*
X137833333Y-117012200D01*
X137833333Y-117012200D02*
X137928571Y-117059819D01*
X137928571Y-117059819D02*
X138119047Y-117059819D01*
X138119047Y-117059819D02*
X138214285Y-117012200D01*
X138214285Y-117012200D02*
X138261904Y-116964580D01*
X138261904Y-116964580D02*
X138309523Y-116869342D01*
X138309523Y-116869342D02*
X138309523Y-116059819D01*
X139214285Y-116059819D02*
X139023809Y-116059819D01*
X139023809Y-116059819D02*
X138928571Y-116107438D01*
X138928571Y-116107438D02*
X138880952Y-116155057D01*
X138880952Y-116155057D02*
X138785714Y-116297914D01*
X138785714Y-116297914D02*
X138738095Y-116488390D01*
X138738095Y-116488390D02*
X138738095Y-116869342D01*
X138738095Y-116869342D02*
X138785714Y-116964580D01*
X138785714Y-116964580D02*
X138833333Y-117012200D01*
X138833333Y-117012200D02*
X138928571Y-117059819D01*
X138928571Y-117059819D02*
X139119047Y-117059819D01*
X139119047Y-117059819D02*
X139214285Y-117012200D01*
X139214285Y-117012200D02*
X139261904Y-116964580D01*
X139261904Y-116964580D02*
X139309523Y-116869342D01*
X139309523Y-116869342D02*
X139309523Y-116631247D01*
X139309523Y-116631247D02*
X139261904Y-116536009D01*
X139261904Y-116536009D02*
X139214285Y-116488390D01*
X139214285Y-116488390D02*
X139119047Y-116440771D01*
X139119047Y-116440771D02*
X138928571Y-116440771D01*
X138928571Y-116440771D02*
X138833333Y-116488390D01*
X138833333Y-116488390D02*
X138785714Y-116536009D01*
X138785714Y-116536009D02*
X138738095Y-116631247D01*
X151359580Y-105071666D02*
X151407200Y-105119285D01*
X151407200Y-105119285D02*
X151454819Y-105262142D01*
X151454819Y-105262142D02*
X151454819Y-105357380D01*
X151454819Y-105357380D02*
X151407200Y-105500237D01*
X151407200Y-105500237D02*
X151311961Y-105595475D01*
X151311961Y-105595475D02*
X151216723Y-105643094D01*
X151216723Y-105643094D02*
X151026247Y-105690713D01*
X151026247Y-105690713D02*
X150883390Y-105690713D01*
X150883390Y-105690713D02*
X150692914Y-105643094D01*
X150692914Y-105643094D02*
X150597676Y-105595475D01*
X150597676Y-105595475D02*
X150502438Y-105500237D01*
X150502438Y-105500237D02*
X150454819Y-105357380D01*
X150454819Y-105357380D02*
X150454819Y-105262142D01*
X150454819Y-105262142D02*
X150502438Y-105119285D01*
X150502438Y-105119285D02*
X150550057Y-105071666D01*
X150883390Y-104500237D02*
X150835771Y-104595475D01*
X150835771Y-104595475D02*
X150788152Y-104643094D01*
X150788152Y-104643094D02*
X150692914Y-104690713D01*
X150692914Y-104690713D02*
X150645295Y-104690713D01*
X150645295Y-104690713D02*
X150550057Y-104643094D01*
X150550057Y-104643094D02*
X150502438Y-104595475D01*
X150502438Y-104595475D02*
X150454819Y-104500237D01*
X150454819Y-104500237D02*
X150454819Y-104309761D01*
X150454819Y-104309761D02*
X150502438Y-104214523D01*
X150502438Y-104214523D02*
X150550057Y-104166904D01*
X150550057Y-104166904D02*
X150645295Y-104119285D01*
X150645295Y-104119285D02*
X150692914Y-104119285D01*
X150692914Y-104119285D02*
X150788152Y-104166904D01*
X150788152Y-104166904D02*
X150835771Y-104214523D01*
X150835771Y-104214523D02*
X150883390Y-104309761D01*
X150883390Y-104309761D02*
X150883390Y-104500237D01*
X150883390Y-104500237D02*
X150931009Y-104595475D01*
X150931009Y-104595475D02*
X150978628Y-104643094D01*
X150978628Y-104643094D02*
X151073866Y-104690713D01*
X151073866Y-104690713D02*
X151264342Y-104690713D01*
X151264342Y-104690713D02*
X151359580Y-104643094D01*
X151359580Y-104643094D02*
X151407200Y-104595475D01*
X151407200Y-104595475D02*
X151454819Y-104500237D01*
X151454819Y-104500237D02*
X151454819Y-104309761D01*
X151454819Y-104309761D02*
X151407200Y-104214523D01*
X151407200Y-104214523D02*
X151359580Y-104166904D01*
X151359580Y-104166904D02*
X151264342Y-104119285D01*
X151264342Y-104119285D02*
X151073866Y-104119285D01*
X151073866Y-104119285D02*
X150978628Y-104166904D01*
X150978628Y-104166904D02*
X150931009Y-104214523D01*
X150931009Y-104214523D02*
X150883390Y-104309761D01*
X144738095Y-109859819D02*
X144738095Y-110669342D01*
X144738095Y-110669342D02*
X144785714Y-110764580D01*
X144785714Y-110764580D02*
X144833333Y-110812200D01*
X144833333Y-110812200D02*
X144928571Y-110859819D01*
X144928571Y-110859819D02*
X145119047Y-110859819D01*
X145119047Y-110859819D02*
X145214285Y-110812200D01*
X145214285Y-110812200D02*
X145261904Y-110764580D01*
X145261904Y-110764580D02*
X145309523Y-110669342D01*
X145309523Y-110669342D02*
X145309523Y-109859819D01*
X145690476Y-109859819D02*
X146357142Y-109859819D01*
X146357142Y-109859819D02*
X145928571Y-110859819D01*
X97761905Y-84454819D02*
X97761905Y-83454819D01*
X97761905Y-83454819D02*
X98000000Y-83454819D01*
X98000000Y-83454819D02*
X98142857Y-83502438D01*
X98142857Y-83502438D02*
X98238095Y-83597676D01*
X98238095Y-83597676D02*
X98285714Y-83692914D01*
X98285714Y-83692914D02*
X98333333Y-83883390D01*
X98333333Y-83883390D02*
X98333333Y-84026247D01*
X98333333Y-84026247D02*
X98285714Y-84216723D01*
X98285714Y-84216723D02*
X98238095Y-84311961D01*
X98238095Y-84311961D02*
X98142857Y-84407200D01*
X98142857Y-84407200D02*
X98000000Y-84454819D01*
X98000000Y-84454819D02*
X97761905Y-84454819D01*
X99238095Y-83454819D02*
X98761905Y-83454819D01*
X98761905Y-83454819D02*
X98714286Y-83931009D01*
X98714286Y-83931009D02*
X98761905Y-83883390D01*
X98761905Y-83883390D02*
X98857143Y-83835771D01*
X98857143Y-83835771D02*
X99095238Y-83835771D01*
X99095238Y-83835771D02*
X99190476Y-83883390D01*
X99190476Y-83883390D02*
X99238095Y-83931009D01*
X99238095Y-83931009D02*
X99285714Y-84026247D01*
X99285714Y-84026247D02*
X99285714Y-84264342D01*
X99285714Y-84264342D02*
X99238095Y-84359580D01*
X99238095Y-84359580D02*
X99190476Y-84407200D01*
X99190476Y-84407200D02*
X99095238Y-84454819D01*
X99095238Y-84454819D02*
X98857143Y-84454819D01*
X98857143Y-84454819D02*
X98761905Y-84407200D01*
X98761905Y-84407200D02*
X98714286Y-84359580D01*
X117833333Y-76954819D02*
X117500000Y-76478628D01*
X117261905Y-76954819D02*
X117261905Y-75954819D01*
X117261905Y-75954819D02*
X117642857Y-75954819D01*
X117642857Y-75954819D02*
X117738095Y-76002438D01*
X117738095Y-76002438D02*
X117785714Y-76050057D01*
X117785714Y-76050057D02*
X117833333Y-76145295D01*
X117833333Y-76145295D02*
X117833333Y-76288152D01*
X117833333Y-76288152D02*
X117785714Y-76383390D01*
X117785714Y-76383390D02*
X117738095Y-76431009D01*
X117738095Y-76431009D02*
X117642857Y-76478628D01*
X117642857Y-76478628D02*
X117261905Y-76478628D01*
X118166667Y-75954819D02*
X118833333Y-75954819D01*
X118833333Y-75954819D02*
X118404762Y-76954819D01*
X125035714Y-108454819D02*
X125035714Y-107454819D01*
X125035714Y-107454819D02*
X125273809Y-107454819D01*
X125273809Y-107454819D02*
X125416666Y-107502438D01*
X125416666Y-107502438D02*
X125511904Y-107597676D01*
X125511904Y-107597676D02*
X125559523Y-107692914D01*
X125559523Y-107692914D02*
X125607142Y-107883390D01*
X125607142Y-107883390D02*
X125607142Y-108026247D01*
X125607142Y-108026247D02*
X125559523Y-108216723D01*
X125559523Y-108216723D02*
X125511904Y-108311961D01*
X125511904Y-108311961D02*
X125416666Y-108407200D01*
X125416666Y-108407200D02*
X125273809Y-108454819D01*
X125273809Y-108454819D02*
X125035714Y-108454819D01*
X126559523Y-108454819D02*
X125988095Y-108454819D01*
X126273809Y-108454819D02*
X126273809Y-107454819D01*
X126273809Y-107454819D02*
X126178571Y-107597676D01*
X126178571Y-107597676D02*
X126083333Y-107692914D01*
X126083333Y-107692914D02*
X125988095Y-107740533D01*
X126892857Y-107454819D02*
X127511904Y-107454819D01*
X127511904Y-107454819D02*
X127178571Y-107835771D01*
X127178571Y-107835771D02*
X127321428Y-107835771D01*
X127321428Y-107835771D02*
X127416666Y-107883390D01*
X127416666Y-107883390D02*
X127464285Y-107931009D01*
X127464285Y-107931009D02*
X127511904Y-108026247D01*
X127511904Y-108026247D02*
X127511904Y-108264342D01*
X127511904Y-108264342D02*
X127464285Y-108359580D01*
X127464285Y-108359580D02*
X127416666Y-108407200D01*
X127416666Y-108407200D02*
X127321428Y-108454819D01*
X127321428Y-108454819D02*
X127035714Y-108454819D01*
X127035714Y-108454819D02*
X126940476Y-108407200D01*
X126940476Y-108407200D02*
X126892857Y-108359580D01*
X134859580Y-116071666D02*
X134907200Y-116119285D01*
X134907200Y-116119285D02*
X134954819Y-116262142D01*
X134954819Y-116262142D02*
X134954819Y-116357380D01*
X134954819Y-116357380D02*
X134907200Y-116500237D01*
X134907200Y-116500237D02*
X134811961Y-116595475D01*
X134811961Y-116595475D02*
X134716723Y-116643094D01*
X134716723Y-116643094D02*
X134526247Y-116690713D01*
X134526247Y-116690713D02*
X134383390Y-116690713D01*
X134383390Y-116690713D02*
X134192914Y-116643094D01*
X134192914Y-116643094D02*
X134097676Y-116595475D01*
X134097676Y-116595475D02*
X134002438Y-116500237D01*
X134002438Y-116500237D02*
X133954819Y-116357380D01*
X133954819Y-116357380D02*
X133954819Y-116262142D01*
X133954819Y-116262142D02*
X134002438Y-116119285D01*
X134002438Y-116119285D02*
X134050057Y-116071666D01*
X133954819Y-115738332D02*
X133954819Y-115119285D01*
X133954819Y-115119285D02*
X134335771Y-115452618D01*
X134335771Y-115452618D02*
X134335771Y-115309761D01*
X134335771Y-115309761D02*
X134383390Y-115214523D01*
X134383390Y-115214523D02*
X134431009Y-115166904D01*
X134431009Y-115166904D02*
X134526247Y-115119285D01*
X134526247Y-115119285D02*
X134764342Y-115119285D01*
X134764342Y-115119285D02*
X134859580Y-115166904D01*
X134859580Y-115166904D02*
X134907200Y-115214523D01*
X134907200Y-115214523D02*
X134954819Y-115309761D01*
X134954819Y-115309761D02*
X134954819Y-115595475D01*
X134954819Y-115595475D02*
X134907200Y-115690713D01*
X134907200Y-115690713D02*
X134859580Y-115738332D01*
X121154761Y-118000057D02*
X121059523Y-117952438D01*
X121059523Y-117952438D02*
X120964285Y-117857200D01*
X120964285Y-117857200D02*
X120821428Y-117714342D01*
X120821428Y-117714342D02*
X120726190Y-117666723D01*
X120726190Y-117666723D02*
X120630952Y-117666723D01*
X120678571Y-117904819D02*
X120583333Y-117857200D01*
X120583333Y-117857200D02*
X120488095Y-117761961D01*
X120488095Y-117761961D02*
X120440476Y-117571485D01*
X120440476Y-117571485D02*
X120440476Y-117238152D01*
X120440476Y-117238152D02*
X120488095Y-117047676D01*
X120488095Y-117047676D02*
X120583333Y-116952438D01*
X120583333Y-116952438D02*
X120678571Y-116904819D01*
X120678571Y-116904819D02*
X120869047Y-116904819D01*
X120869047Y-116904819D02*
X120964285Y-116952438D01*
X120964285Y-116952438D02*
X121059523Y-117047676D01*
X121059523Y-117047676D02*
X121107142Y-117238152D01*
X121107142Y-117238152D02*
X121107142Y-117571485D01*
X121107142Y-117571485D02*
X121059523Y-117761961D01*
X121059523Y-117761961D02*
X120964285Y-117857200D01*
X120964285Y-117857200D02*
X120869047Y-117904819D01*
X120869047Y-117904819D02*
X120678571Y-117904819D01*
X122059523Y-117904819D02*
X121488095Y-117904819D01*
X121773809Y-117904819D02*
X121773809Y-116904819D01*
X121773809Y-116904819D02*
X121678571Y-117047676D01*
X121678571Y-117047676D02*
X121583333Y-117142914D01*
X121583333Y-117142914D02*
X121488095Y-117190533D01*
X97761905Y-76954819D02*
X97761905Y-75954819D01*
X97761905Y-75954819D02*
X98000000Y-75954819D01*
X98000000Y-75954819D02*
X98142857Y-76002438D01*
X98142857Y-76002438D02*
X98238095Y-76097676D01*
X98238095Y-76097676D02*
X98285714Y-76192914D01*
X98285714Y-76192914D02*
X98333333Y-76383390D01*
X98333333Y-76383390D02*
X98333333Y-76526247D01*
X98333333Y-76526247D02*
X98285714Y-76716723D01*
X98285714Y-76716723D02*
X98238095Y-76811961D01*
X98238095Y-76811961D02*
X98142857Y-76907200D01*
X98142857Y-76907200D02*
X98000000Y-76954819D01*
X98000000Y-76954819D02*
X97761905Y-76954819D01*
X98904762Y-76383390D02*
X98809524Y-76335771D01*
X98809524Y-76335771D02*
X98761905Y-76288152D01*
X98761905Y-76288152D02*
X98714286Y-76192914D01*
X98714286Y-76192914D02*
X98714286Y-76145295D01*
X98714286Y-76145295D02*
X98761905Y-76050057D01*
X98761905Y-76050057D02*
X98809524Y-76002438D01*
X98809524Y-76002438D02*
X98904762Y-75954819D01*
X98904762Y-75954819D02*
X99095238Y-75954819D01*
X99095238Y-75954819D02*
X99190476Y-76002438D01*
X99190476Y-76002438D02*
X99238095Y-76050057D01*
X99238095Y-76050057D02*
X99285714Y-76145295D01*
X99285714Y-76145295D02*
X99285714Y-76192914D01*
X99285714Y-76192914D02*
X99238095Y-76288152D01*
X99238095Y-76288152D02*
X99190476Y-76335771D01*
X99190476Y-76335771D02*
X99095238Y-76383390D01*
X99095238Y-76383390D02*
X98904762Y-76383390D01*
X98904762Y-76383390D02*
X98809524Y-76431009D01*
X98809524Y-76431009D02*
X98761905Y-76478628D01*
X98761905Y-76478628D02*
X98714286Y-76573866D01*
X98714286Y-76573866D02*
X98714286Y-76764342D01*
X98714286Y-76764342D02*
X98761905Y-76859580D01*
X98761905Y-76859580D02*
X98809524Y-76907200D01*
X98809524Y-76907200D02*
X98904762Y-76954819D01*
X98904762Y-76954819D02*
X99095238Y-76954819D01*
X99095238Y-76954819D02*
X99190476Y-76907200D01*
X99190476Y-76907200D02*
X99238095Y-76859580D01*
X99238095Y-76859580D02*
X99285714Y-76764342D01*
X99285714Y-76764342D02*
X99285714Y-76573866D01*
X99285714Y-76573866D02*
X99238095Y-76478628D01*
X99238095Y-76478628D02*
X99190476Y-76431009D01*
X99190476Y-76431009D02*
X99095238Y-76383390D01*
X132359580Y-105071666D02*
X132407200Y-105119285D01*
X132407200Y-105119285D02*
X132454819Y-105262142D01*
X132454819Y-105262142D02*
X132454819Y-105357380D01*
X132454819Y-105357380D02*
X132407200Y-105500237D01*
X132407200Y-105500237D02*
X132311961Y-105595475D01*
X132311961Y-105595475D02*
X132216723Y-105643094D01*
X132216723Y-105643094D02*
X132026247Y-105690713D01*
X132026247Y-105690713D02*
X131883390Y-105690713D01*
X131883390Y-105690713D02*
X131692914Y-105643094D01*
X131692914Y-105643094D02*
X131597676Y-105595475D01*
X131597676Y-105595475D02*
X131502438Y-105500237D01*
X131502438Y-105500237D02*
X131454819Y-105357380D01*
X131454819Y-105357380D02*
X131454819Y-105262142D01*
X131454819Y-105262142D02*
X131502438Y-105119285D01*
X131502438Y-105119285D02*
X131550057Y-105071666D01*
X131454819Y-104738332D02*
X131454819Y-104071666D01*
X131454819Y-104071666D02*
X132454819Y-104500237D01*
X68954819Y-68161904D02*
X69764342Y-68161904D01*
X69764342Y-68161904D02*
X69859580Y-68114285D01*
X69859580Y-68114285D02*
X69907200Y-68066666D01*
X69907200Y-68066666D02*
X69954819Y-67971428D01*
X69954819Y-67971428D02*
X69954819Y-67780952D01*
X69954819Y-67780952D02*
X69907200Y-67685714D01*
X69907200Y-67685714D02*
X69859580Y-67638095D01*
X69859580Y-67638095D02*
X69764342Y-67590476D01*
X69764342Y-67590476D02*
X68954819Y-67590476D01*
X68954819Y-67209523D02*
X68954819Y-66590476D01*
X68954819Y-66590476D02*
X69335771Y-66923809D01*
X69335771Y-66923809D02*
X69335771Y-66780952D01*
X69335771Y-66780952D02*
X69383390Y-66685714D01*
X69383390Y-66685714D02*
X69431009Y-66638095D01*
X69431009Y-66638095D02*
X69526247Y-66590476D01*
X69526247Y-66590476D02*
X69764342Y-66590476D01*
X69764342Y-66590476D02*
X69859580Y-66638095D01*
X69859580Y-66638095D02*
X69907200Y-66685714D01*
X69907200Y-66685714D02*
X69954819Y-66780952D01*
X69954819Y-66780952D02*
X69954819Y-67066666D01*
X69954819Y-67066666D02*
X69907200Y-67161904D01*
X69907200Y-67161904D02*
X69859580Y-67209523D01*
X134954819Y-92238094D02*
X133954819Y-92238094D01*
X133954819Y-92238094D02*
X133954819Y-91999999D01*
X133954819Y-91999999D02*
X134002438Y-91857142D01*
X134002438Y-91857142D02*
X134097676Y-91761904D01*
X134097676Y-91761904D02*
X134192914Y-91714285D01*
X134192914Y-91714285D02*
X134383390Y-91666666D01*
X134383390Y-91666666D02*
X134526247Y-91666666D01*
X134526247Y-91666666D02*
X134716723Y-91714285D01*
X134716723Y-91714285D02*
X134811961Y-91761904D01*
X134811961Y-91761904D02*
X134907200Y-91857142D01*
X134907200Y-91857142D02*
X134954819Y-91999999D01*
X134954819Y-91999999D02*
X134954819Y-92238094D01*
X134954819Y-90714285D02*
X134954819Y-91285713D01*
X134954819Y-90999999D02*
X133954819Y-90999999D01*
X133954819Y-90999999D02*
X134097676Y-91095237D01*
X134097676Y-91095237D02*
X134192914Y-91190475D01*
X134192914Y-91190475D02*
X134240533Y-91285713D01*
X133373333Y-117954819D02*
X132897143Y-117954819D01*
X132897143Y-117954819D02*
X132897143Y-116954819D01*
X134230476Y-117954819D02*
X133659048Y-117954819D01*
X133944762Y-117954819D02*
X133944762Y-116954819D01*
X133944762Y-116954819D02*
X133849524Y-117097676D01*
X133849524Y-117097676D02*
X133754286Y-117192914D01*
X133754286Y-117192914D02*
X133659048Y-117240533D01*
X66833333Y-113104819D02*
X66500000Y-112628628D01*
X66261905Y-113104819D02*
X66261905Y-112104819D01*
X66261905Y-112104819D02*
X66642857Y-112104819D01*
X66642857Y-112104819D02*
X66738095Y-112152438D01*
X66738095Y-112152438D02*
X66785714Y-112200057D01*
X66785714Y-112200057D02*
X66833333Y-112295295D01*
X66833333Y-112295295D02*
X66833333Y-112438152D01*
X66833333Y-112438152D02*
X66785714Y-112533390D01*
X66785714Y-112533390D02*
X66738095Y-112581009D01*
X66738095Y-112581009D02*
X66642857Y-112628628D01*
X66642857Y-112628628D02*
X66261905Y-112628628D01*
X67214286Y-112200057D02*
X67261905Y-112152438D01*
X67261905Y-112152438D02*
X67357143Y-112104819D01*
X67357143Y-112104819D02*
X67595238Y-112104819D01*
X67595238Y-112104819D02*
X67690476Y-112152438D01*
X67690476Y-112152438D02*
X67738095Y-112200057D01*
X67738095Y-112200057D02*
X67785714Y-112295295D01*
X67785714Y-112295295D02*
X67785714Y-112390533D01*
X67785714Y-112390533D02*
X67738095Y-112533390D01*
X67738095Y-112533390D02*
X67166667Y-113104819D01*
X67166667Y-113104819D02*
X67785714Y-113104819D01*
X96785714Y-67454819D02*
X96785714Y-66454819D01*
X96785714Y-66454819D02*
X97023809Y-66454819D01*
X97023809Y-66454819D02*
X97166666Y-66502438D01*
X97166666Y-66502438D02*
X97261904Y-66597676D01*
X97261904Y-66597676D02*
X97309523Y-66692914D01*
X97309523Y-66692914D02*
X97357142Y-66883390D01*
X97357142Y-66883390D02*
X97357142Y-67026247D01*
X97357142Y-67026247D02*
X97309523Y-67216723D01*
X97309523Y-67216723D02*
X97261904Y-67311961D01*
X97261904Y-67311961D02*
X97166666Y-67407200D01*
X97166666Y-67407200D02*
X97023809Y-67454819D01*
X97023809Y-67454819D02*
X96785714Y-67454819D01*
X98309523Y-67454819D02*
X97738095Y-67454819D01*
X98023809Y-67454819D02*
X98023809Y-66454819D01*
X98023809Y-66454819D02*
X97928571Y-66597676D01*
X97928571Y-66597676D02*
X97833333Y-66692914D01*
X97833333Y-66692914D02*
X97738095Y-66740533D01*
X98690476Y-66550057D02*
X98738095Y-66502438D01*
X98738095Y-66502438D02*
X98833333Y-66454819D01*
X98833333Y-66454819D02*
X99071428Y-66454819D01*
X99071428Y-66454819D02*
X99166666Y-66502438D01*
X99166666Y-66502438D02*
X99214285Y-66550057D01*
X99214285Y-66550057D02*
X99261904Y-66645295D01*
X99261904Y-66645295D02*
X99261904Y-66740533D01*
X99261904Y-66740533D02*
X99214285Y-66883390D01*
X99214285Y-66883390D02*
X98642857Y-67454819D01*
X98642857Y-67454819D02*
X99261904Y-67454819D01*
X140357142Y-109859819D02*
X140023809Y-109383628D01*
X139785714Y-109859819D02*
X139785714Y-108859819D01*
X139785714Y-108859819D02*
X140166666Y-108859819D01*
X140166666Y-108859819D02*
X140261904Y-108907438D01*
X140261904Y-108907438D02*
X140309523Y-108955057D01*
X140309523Y-108955057D02*
X140357142Y-109050295D01*
X140357142Y-109050295D02*
X140357142Y-109193152D01*
X140357142Y-109193152D02*
X140309523Y-109288390D01*
X140309523Y-109288390D02*
X140261904Y-109336009D01*
X140261904Y-109336009D02*
X140166666Y-109383628D01*
X140166666Y-109383628D02*
X139785714Y-109383628D01*
X141309523Y-109859819D02*
X140738095Y-109859819D01*
X141023809Y-109859819D02*
X141023809Y-108859819D01*
X141023809Y-108859819D02*
X140928571Y-109002676D01*
X140928571Y-109002676D02*
X140833333Y-109097914D01*
X140833333Y-109097914D02*
X140738095Y-109145533D01*
X141928571Y-108859819D02*
X142023809Y-108859819D01*
X142023809Y-108859819D02*
X142119047Y-108907438D01*
X142119047Y-108907438D02*
X142166666Y-108955057D01*
X142166666Y-108955057D02*
X142214285Y-109050295D01*
X142214285Y-109050295D02*
X142261904Y-109240771D01*
X142261904Y-109240771D02*
X142261904Y-109478866D01*
X142261904Y-109478866D02*
X142214285Y-109669342D01*
X142214285Y-109669342D02*
X142166666Y-109764580D01*
X142166666Y-109764580D02*
X142119047Y-109812200D01*
X142119047Y-109812200D02*
X142023809Y-109859819D01*
X142023809Y-109859819D02*
X141928571Y-109859819D01*
X141928571Y-109859819D02*
X141833333Y-109812200D01*
X141833333Y-109812200D02*
X141785714Y-109764580D01*
X141785714Y-109764580D02*
X141738095Y-109669342D01*
X141738095Y-109669342D02*
X141690476Y-109478866D01*
X141690476Y-109478866D02*
X141690476Y-109240771D01*
X141690476Y-109240771D02*
X141738095Y-109050295D01*
X141738095Y-109050295D02*
X141785714Y-108955057D01*
X141785714Y-108955057D02*
X141833333Y-108907438D01*
X141833333Y-108907438D02*
X141928571Y-108859819D01*
X97761905Y-81954819D02*
X97761905Y-80954819D01*
X97761905Y-80954819D02*
X98000000Y-80954819D01*
X98000000Y-80954819D02*
X98142857Y-81002438D01*
X98142857Y-81002438D02*
X98238095Y-81097676D01*
X98238095Y-81097676D02*
X98285714Y-81192914D01*
X98285714Y-81192914D02*
X98333333Y-81383390D01*
X98333333Y-81383390D02*
X98333333Y-81526247D01*
X98333333Y-81526247D02*
X98285714Y-81716723D01*
X98285714Y-81716723D02*
X98238095Y-81811961D01*
X98238095Y-81811961D02*
X98142857Y-81907200D01*
X98142857Y-81907200D02*
X98000000Y-81954819D01*
X98000000Y-81954819D02*
X97761905Y-81954819D01*
X99190476Y-80954819D02*
X99000000Y-80954819D01*
X99000000Y-80954819D02*
X98904762Y-81002438D01*
X98904762Y-81002438D02*
X98857143Y-81050057D01*
X98857143Y-81050057D02*
X98761905Y-81192914D01*
X98761905Y-81192914D02*
X98714286Y-81383390D01*
X98714286Y-81383390D02*
X98714286Y-81764342D01*
X98714286Y-81764342D02*
X98761905Y-81859580D01*
X98761905Y-81859580D02*
X98809524Y-81907200D01*
X98809524Y-81907200D02*
X98904762Y-81954819D01*
X98904762Y-81954819D02*
X99095238Y-81954819D01*
X99095238Y-81954819D02*
X99190476Y-81907200D01*
X99190476Y-81907200D02*
X99238095Y-81859580D01*
X99238095Y-81859580D02*
X99285714Y-81764342D01*
X99285714Y-81764342D02*
X99285714Y-81526247D01*
X99285714Y-81526247D02*
X99238095Y-81431009D01*
X99238095Y-81431009D02*
X99190476Y-81383390D01*
X99190476Y-81383390D02*
X99095238Y-81335771D01*
X99095238Y-81335771D02*
X98904762Y-81335771D01*
X98904762Y-81335771D02*
X98809524Y-81383390D01*
X98809524Y-81383390D02*
X98761905Y-81431009D01*
X98761905Y-81431009D02*
X98714286Y-81526247D01*
X117954819Y-84666666D02*
X117478628Y-84999999D01*
X117954819Y-85238094D02*
X116954819Y-85238094D01*
X116954819Y-85238094D02*
X116954819Y-84857142D01*
X116954819Y-84857142D02*
X117002438Y-84761904D01*
X117002438Y-84761904D02*
X117050057Y-84714285D01*
X117050057Y-84714285D02*
X117145295Y-84666666D01*
X117145295Y-84666666D02*
X117288152Y-84666666D01*
X117288152Y-84666666D02*
X117383390Y-84714285D01*
X117383390Y-84714285D02*
X117431009Y-84761904D01*
X117431009Y-84761904D02*
X117478628Y-84857142D01*
X117478628Y-84857142D02*
X117478628Y-85238094D01*
X117288152Y-83809523D02*
X117954819Y-83809523D01*
X116907200Y-84047618D02*
X117621485Y-84285713D01*
X117621485Y-84285713D02*
X117621485Y-83666666D01*
X68359580Y-91142857D02*
X68407200Y-91190476D01*
X68407200Y-91190476D02*
X68454819Y-91333333D01*
X68454819Y-91333333D02*
X68454819Y-91428571D01*
X68454819Y-91428571D02*
X68407200Y-91571428D01*
X68407200Y-91571428D02*
X68311961Y-91666666D01*
X68311961Y-91666666D02*
X68216723Y-91714285D01*
X68216723Y-91714285D02*
X68026247Y-91761904D01*
X68026247Y-91761904D02*
X67883390Y-91761904D01*
X67883390Y-91761904D02*
X67692914Y-91714285D01*
X67692914Y-91714285D02*
X67597676Y-91666666D01*
X67597676Y-91666666D02*
X67502438Y-91571428D01*
X67502438Y-91571428D02*
X67454819Y-91428571D01*
X67454819Y-91428571D02*
X67454819Y-91333333D01*
X67454819Y-91333333D02*
X67502438Y-91190476D01*
X67502438Y-91190476D02*
X67550057Y-91142857D01*
X68454819Y-90190476D02*
X68454819Y-90761904D01*
X68454819Y-90476190D02*
X67454819Y-90476190D01*
X67454819Y-90476190D02*
X67597676Y-90571428D01*
X67597676Y-90571428D02*
X67692914Y-90666666D01*
X67692914Y-90666666D02*
X67740533Y-90761904D01*
X68454819Y-89238095D02*
X68454819Y-89809523D01*
X68454819Y-89523809D02*
X67454819Y-89523809D01*
X67454819Y-89523809D02*
X67597676Y-89619047D01*
X67597676Y-89619047D02*
X67692914Y-89714285D01*
X67692914Y-89714285D02*
X67740533Y-89809523D01*
X65920476Y-75044819D02*
X65920476Y-74044819D01*
X65920476Y-74044819D02*
X66253809Y-74759104D01*
X66253809Y-74759104D02*
X66587142Y-74044819D01*
X66587142Y-74044819D02*
X66587142Y-75044819D01*
X67587142Y-75044819D02*
X67015714Y-75044819D01*
X67301428Y-75044819D02*
X67301428Y-74044819D01*
X67301428Y-74044819D02*
X67206190Y-74187676D01*
X67206190Y-74187676D02*
X67110952Y-74282914D01*
X67110952Y-74282914D02*
X67015714Y-74330533D01*
X133807090Y-93666666D02*
X133807090Y-94142856D01*
X133807090Y-94142856D02*
X132807090Y-94142856D01*
X132902328Y-93380951D02*
X132854709Y-93333332D01*
X132854709Y-93333332D02*
X132807090Y-93238094D01*
X132807090Y-93238094D02*
X132807090Y-92999999D01*
X132807090Y-92999999D02*
X132854709Y-92904761D01*
X132854709Y-92904761D02*
X132902328Y-92857142D01*
X132902328Y-92857142D02*
X132997566Y-92809523D01*
X132997566Y-92809523D02*
X133092804Y-92809523D01*
X133092804Y-92809523D02*
X133235661Y-92857142D01*
X133235661Y-92857142D02*
X133807090Y-93428570D01*
X133807090Y-93428570D02*
X133807090Y-92809523D01*
X128326905Y-104304819D02*
X128326905Y-103304819D01*
X128326905Y-103304819D02*
X128565000Y-103304819D01*
X128565000Y-103304819D02*
X128707857Y-103352438D01*
X128707857Y-103352438D02*
X128803095Y-103447676D01*
X128803095Y-103447676D02*
X128850714Y-103542914D01*
X128850714Y-103542914D02*
X128898333Y-103733390D01*
X128898333Y-103733390D02*
X128898333Y-103876247D01*
X128898333Y-103876247D02*
X128850714Y-104066723D01*
X128850714Y-104066723D02*
X128803095Y-104161961D01*
X128803095Y-104161961D02*
X128707857Y-104257200D01*
X128707857Y-104257200D02*
X128565000Y-104304819D01*
X128565000Y-104304819D02*
X128326905Y-104304819D01*
X129279286Y-103400057D02*
X129326905Y-103352438D01*
X129326905Y-103352438D02*
X129422143Y-103304819D01*
X129422143Y-103304819D02*
X129660238Y-103304819D01*
X129660238Y-103304819D02*
X129755476Y-103352438D01*
X129755476Y-103352438D02*
X129803095Y-103400057D01*
X129803095Y-103400057D02*
X129850714Y-103495295D01*
X129850714Y-103495295D02*
X129850714Y-103590533D01*
X129850714Y-103590533D02*
X129803095Y-103733390D01*
X129803095Y-103733390D02*
X129231667Y-104304819D01*
X129231667Y-104304819D02*
X129850714Y-104304819D01*
X97261905Y-74954819D02*
X97261905Y-73954819D01*
X97261905Y-73954819D02*
X97500000Y-73954819D01*
X97500000Y-73954819D02*
X97642857Y-74002438D01*
X97642857Y-74002438D02*
X97738095Y-74097676D01*
X97738095Y-74097676D02*
X97785714Y-74192914D01*
X97785714Y-74192914D02*
X97833333Y-74383390D01*
X97833333Y-74383390D02*
X97833333Y-74526247D01*
X97833333Y-74526247D02*
X97785714Y-74716723D01*
X97785714Y-74716723D02*
X97738095Y-74811961D01*
X97738095Y-74811961D02*
X97642857Y-74907200D01*
X97642857Y-74907200D02*
X97500000Y-74954819D01*
X97500000Y-74954819D02*
X97261905Y-74954819D01*
X98309524Y-74954819D02*
X98500000Y-74954819D01*
X98500000Y-74954819D02*
X98595238Y-74907200D01*
X98595238Y-74907200D02*
X98642857Y-74859580D01*
X98642857Y-74859580D02*
X98738095Y-74716723D01*
X98738095Y-74716723D02*
X98785714Y-74526247D01*
X98785714Y-74526247D02*
X98785714Y-74145295D01*
X98785714Y-74145295D02*
X98738095Y-74050057D01*
X98738095Y-74050057D02*
X98690476Y-74002438D01*
X98690476Y-74002438D02*
X98595238Y-73954819D01*
X98595238Y-73954819D02*
X98404762Y-73954819D01*
X98404762Y-73954819D02*
X98309524Y-74002438D01*
X98309524Y-74002438D02*
X98261905Y-74050057D01*
X98261905Y-74050057D02*
X98214286Y-74145295D01*
X98214286Y-74145295D02*
X98214286Y-74383390D01*
X98214286Y-74383390D02*
X98261905Y-74478628D01*
X98261905Y-74478628D02*
X98309524Y-74526247D01*
X98309524Y-74526247D02*
X98404762Y-74573866D01*
X98404762Y-74573866D02*
X98595238Y-74573866D01*
X98595238Y-74573866D02*
X98690476Y-74526247D01*
X98690476Y-74526247D02*
X98738095Y-74478628D01*
X98738095Y-74478628D02*
X98785714Y-74383390D01*
X136057090Y-82666666D02*
X135580899Y-82999999D01*
X136057090Y-83238094D02*
X135057090Y-83238094D01*
X135057090Y-83238094D02*
X135057090Y-82857142D01*
X135057090Y-82857142D02*
X135104709Y-82761904D01*
X135104709Y-82761904D02*
X135152328Y-82714285D01*
X135152328Y-82714285D02*
X135247566Y-82666666D01*
X135247566Y-82666666D02*
X135390423Y-82666666D01*
X135390423Y-82666666D02*
X135485661Y-82714285D01*
X135485661Y-82714285D02*
X135533280Y-82761904D01*
X135533280Y-82761904D02*
X135580899Y-82857142D01*
X135580899Y-82857142D02*
X135580899Y-83238094D01*
X135057090Y-81809523D02*
X135057090Y-81999999D01*
X135057090Y-81999999D02*
X135104709Y-82095237D01*
X135104709Y-82095237D02*
X135152328Y-82142856D01*
X135152328Y-82142856D02*
X135295185Y-82238094D01*
X135295185Y-82238094D02*
X135485661Y-82285713D01*
X135485661Y-82285713D02*
X135866613Y-82285713D01*
X135866613Y-82285713D02*
X135961851Y-82238094D01*
X135961851Y-82238094D02*
X136009471Y-82190475D01*
X136009471Y-82190475D02*
X136057090Y-82095237D01*
X136057090Y-82095237D02*
X136057090Y-81904761D01*
X136057090Y-81904761D02*
X136009471Y-81809523D01*
X136009471Y-81809523D02*
X135961851Y-81761904D01*
X135961851Y-81761904D02*
X135866613Y-81714285D01*
X135866613Y-81714285D02*
X135628518Y-81714285D01*
X135628518Y-81714285D02*
X135533280Y-81761904D01*
X135533280Y-81761904D02*
X135485661Y-81809523D01*
X135485661Y-81809523D02*
X135438042Y-81904761D01*
X135438042Y-81904761D02*
X135438042Y-82095237D01*
X135438042Y-82095237D02*
X135485661Y-82190475D01*
X135485661Y-82190475D02*
X135533280Y-82238094D01*
X135533280Y-82238094D02*
X135628518Y-82285713D01*
X108357142Y-76454819D02*
X108023809Y-75978628D01*
X107785714Y-76454819D02*
X107785714Y-75454819D01*
X107785714Y-75454819D02*
X108166666Y-75454819D01*
X108166666Y-75454819D02*
X108261904Y-75502438D01*
X108261904Y-75502438D02*
X108309523Y-75550057D01*
X108309523Y-75550057D02*
X108357142Y-75645295D01*
X108357142Y-75645295D02*
X108357142Y-75788152D01*
X108357142Y-75788152D02*
X108309523Y-75883390D01*
X108309523Y-75883390D02*
X108261904Y-75931009D01*
X108261904Y-75931009D02*
X108166666Y-75978628D01*
X108166666Y-75978628D02*
X107785714Y-75978628D01*
X109309523Y-76454819D02*
X108738095Y-76454819D01*
X109023809Y-76454819D02*
X109023809Y-75454819D01*
X109023809Y-75454819D02*
X108928571Y-75597676D01*
X108928571Y-75597676D02*
X108833333Y-75692914D01*
X108833333Y-75692914D02*
X108738095Y-75740533D01*
X110214285Y-75454819D02*
X109738095Y-75454819D01*
X109738095Y-75454819D02*
X109690476Y-75931009D01*
X109690476Y-75931009D02*
X109738095Y-75883390D01*
X109738095Y-75883390D02*
X109833333Y-75835771D01*
X109833333Y-75835771D02*
X110071428Y-75835771D01*
X110071428Y-75835771D02*
X110166666Y-75883390D01*
X110166666Y-75883390D02*
X110214285Y-75931009D01*
X110214285Y-75931009D02*
X110261904Y-76026247D01*
X110261904Y-76026247D02*
X110261904Y-76264342D01*
X110261904Y-76264342D02*
X110214285Y-76359580D01*
X110214285Y-76359580D02*
X110166666Y-76407200D01*
X110166666Y-76407200D02*
X110071428Y-76454819D01*
X110071428Y-76454819D02*
X109833333Y-76454819D01*
X109833333Y-76454819D02*
X109738095Y-76407200D01*
X109738095Y-76407200D02*
X109690476Y-76359580D01*
X76087142Y-78629580D02*
X76039523Y-78677200D01*
X76039523Y-78677200D02*
X75896666Y-78724819D01*
X75896666Y-78724819D02*
X75801428Y-78724819D01*
X75801428Y-78724819D02*
X75658571Y-78677200D01*
X75658571Y-78677200D02*
X75563333Y-78581961D01*
X75563333Y-78581961D02*
X75515714Y-78486723D01*
X75515714Y-78486723D02*
X75468095Y-78296247D01*
X75468095Y-78296247D02*
X75468095Y-78153390D01*
X75468095Y-78153390D02*
X75515714Y-77962914D01*
X75515714Y-77962914D02*
X75563333Y-77867676D01*
X75563333Y-77867676D02*
X75658571Y-77772438D01*
X75658571Y-77772438D02*
X75801428Y-77724819D01*
X75801428Y-77724819D02*
X75896666Y-77724819D01*
X75896666Y-77724819D02*
X76039523Y-77772438D01*
X76039523Y-77772438D02*
X76087142Y-77820057D01*
X77039523Y-78724819D02*
X76468095Y-78724819D01*
X76753809Y-78724819D02*
X76753809Y-77724819D01*
X76753809Y-77724819D02*
X76658571Y-77867676D01*
X76658571Y-77867676D02*
X76563333Y-77962914D01*
X76563333Y-77962914D02*
X76468095Y-78010533D01*
X77658571Y-77724819D02*
X77753809Y-77724819D01*
X77753809Y-77724819D02*
X77849047Y-77772438D01*
X77849047Y-77772438D02*
X77896666Y-77820057D01*
X77896666Y-77820057D02*
X77944285Y-77915295D01*
X77944285Y-77915295D02*
X77991904Y-78105771D01*
X77991904Y-78105771D02*
X77991904Y-78343866D01*
X77991904Y-78343866D02*
X77944285Y-78534342D01*
X77944285Y-78534342D02*
X77896666Y-78629580D01*
X77896666Y-78629580D02*
X77849047Y-78677200D01*
X77849047Y-78677200D02*
X77753809Y-78724819D01*
X77753809Y-78724819D02*
X77658571Y-78724819D01*
X77658571Y-78724819D02*
X77563333Y-78677200D01*
X77563333Y-78677200D02*
X77515714Y-78629580D01*
X77515714Y-78629580D02*
X77468095Y-78534342D01*
X77468095Y-78534342D02*
X77420476Y-78343866D01*
X77420476Y-78343866D02*
X77420476Y-78105771D01*
X77420476Y-78105771D02*
X77468095Y-77915295D01*
X77468095Y-77915295D02*
X77515714Y-77820057D01*
X77515714Y-77820057D02*
X77563333Y-77772438D01*
X77563333Y-77772438D02*
X77658571Y-77724819D01*
D11*
%TO.C,C6*%
X150317082Y-74075000D02*
X149067082Y-74075000D01*
X149692082Y-74700000D02*
X149692082Y-73450000D01*
X143500000Y-76830000D02*
X143500000Y-64170000D01*
X143460000Y-76830000D02*
X143460000Y-64170000D01*
X143420000Y-76830000D02*
X143420000Y-64170000D01*
X143380000Y-76829000D02*
X143380000Y-64171000D01*
X143340000Y-76828000D02*
X143340000Y-64172000D01*
X143300000Y-76827000D02*
X143300000Y-64173000D01*
X143260000Y-76826000D02*
X143260000Y-64174000D01*
X143220000Y-76824000D02*
X143220000Y-64176000D01*
X143180000Y-76822000D02*
X143180000Y-64178000D01*
X143140000Y-76820000D02*
X143140000Y-64180000D01*
X143100000Y-76818000D02*
X143100000Y-64182000D01*
X143060000Y-76815000D02*
X143060000Y-64185000D01*
X143020000Y-76812000D02*
X143020000Y-64188000D01*
X142980000Y-76809000D02*
X142980000Y-64191000D01*
X142940000Y-76806000D02*
X142940000Y-64194000D01*
X142900000Y-76802000D02*
X142900000Y-64198000D01*
X142860000Y-76798000D02*
X142860000Y-64202000D01*
X142820000Y-76794000D02*
X142820000Y-64206000D01*
X142779000Y-76790000D02*
X142779000Y-64210000D01*
X142739000Y-76785000D02*
X142739000Y-64215000D01*
X142699000Y-76780000D02*
X142699000Y-64220000D01*
X142659000Y-76775000D02*
X142659000Y-64225000D01*
X142619000Y-76769000D02*
X142619000Y-64231000D01*
X142579000Y-76764000D02*
X142579000Y-64236000D01*
X142539000Y-76758000D02*
X142539000Y-64242000D01*
X142499000Y-76752000D02*
X142499000Y-64248000D01*
X142459000Y-76745000D02*
X142459000Y-64255000D01*
X142419000Y-76738000D02*
X142419000Y-71940000D01*
X142419000Y-69060000D02*
X142419000Y-64262000D01*
X142379000Y-76731000D02*
X142379000Y-71940000D01*
X142379000Y-69060000D02*
X142379000Y-64269000D01*
X142339000Y-76724000D02*
X142339000Y-71940000D01*
X142339000Y-69060000D02*
X142339000Y-64276000D01*
X142299000Y-76716000D02*
X142299000Y-71940000D01*
X142299000Y-69060000D02*
X142299000Y-64284000D01*
X142259000Y-76709000D02*
X142259000Y-71940000D01*
X142259000Y-69060000D02*
X142259000Y-64291000D01*
X142219000Y-76701000D02*
X142219000Y-71940000D01*
X142219000Y-69060000D02*
X142219000Y-64299000D01*
X142179000Y-76692000D02*
X142179000Y-71940000D01*
X142179000Y-69060000D02*
X142179000Y-64308000D01*
X142139000Y-76684000D02*
X142139000Y-71940000D01*
X142139000Y-69060000D02*
X142139000Y-64316000D01*
X142099000Y-76675000D02*
X142099000Y-71940000D01*
X142099000Y-69060000D02*
X142099000Y-64325000D01*
X142059000Y-76666000D02*
X142059000Y-71940000D01*
X142059000Y-69060000D02*
X142059000Y-64334000D01*
X142019000Y-76656000D02*
X142019000Y-71940000D01*
X142019000Y-69060000D02*
X142019000Y-64344000D01*
X141979000Y-76646000D02*
X141979000Y-71940000D01*
X141979000Y-69060000D02*
X141979000Y-64354000D01*
X141939000Y-76637000D02*
X141939000Y-71940000D01*
X141939000Y-69060000D02*
X141939000Y-64363000D01*
X141899000Y-76626000D02*
X141899000Y-71940000D01*
X141899000Y-69060000D02*
X141899000Y-64374000D01*
X141859000Y-76616000D02*
X141859000Y-71940000D01*
X141859000Y-69060000D02*
X141859000Y-64384000D01*
X141819000Y-76605000D02*
X141819000Y-71940000D01*
X141819000Y-69060000D02*
X141819000Y-64395000D01*
X141779000Y-76594000D02*
X141779000Y-71940000D01*
X141779000Y-69060000D02*
X141779000Y-64406000D01*
X141739000Y-76583000D02*
X141739000Y-71940000D01*
X141739000Y-69060000D02*
X141739000Y-64417000D01*
X141699000Y-76571000D02*
X141699000Y-71940000D01*
X141699000Y-69060000D02*
X141699000Y-64429000D01*
X141659000Y-76559000D02*
X141659000Y-71940000D01*
X141659000Y-69060000D02*
X141659000Y-64441000D01*
X141619000Y-76547000D02*
X141619000Y-71940000D01*
X141619000Y-69060000D02*
X141619000Y-64453000D01*
X141579000Y-76534000D02*
X141579000Y-71940000D01*
X141579000Y-69060000D02*
X141579000Y-64466000D01*
X141539000Y-76521000D02*
X141539000Y-71940000D01*
X141539000Y-69060000D02*
X141539000Y-64479000D01*
X141499000Y-76508000D02*
X141499000Y-71940000D01*
X141499000Y-69060000D02*
X141499000Y-64492000D01*
X141459000Y-76495000D02*
X141459000Y-71940000D01*
X141459000Y-69060000D02*
X141459000Y-64505000D01*
X141419000Y-76481000D02*
X141419000Y-71940000D01*
X141419000Y-69060000D02*
X141419000Y-64519000D01*
X141379000Y-76467000D02*
X141379000Y-71940000D01*
X141379000Y-69060000D02*
X141379000Y-64533000D01*
X141339000Y-76453000D02*
X141339000Y-71940000D01*
X141339000Y-69060000D02*
X141339000Y-64547000D01*
X141299000Y-76439000D02*
X141299000Y-71940000D01*
X141299000Y-69060000D02*
X141299000Y-64561000D01*
X141259000Y-76424000D02*
X141259000Y-71940000D01*
X141259000Y-69060000D02*
X141259000Y-64576000D01*
X141219000Y-76408000D02*
X141219000Y-71940000D01*
X141219000Y-69060000D02*
X141219000Y-64592000D01*
X141179000Y-76393000D02*
X141179000Y-71940000D01*
X141179000Y-69060000D02*
X141179000Y-64607000D01*
X141139000Y-76377000D02*
X141139000Y-71940000D01*
X141139000Y-69060000D02*
X141139000Y-64623000D01*
X141099000Y-76361000D02*
X141099000Y-71940000D01*
X141099000Y-69060000D02*
X141099000Y-64639000D01*
X141059000Y-76345000D02*
X141059000Y-71940000D01*
X141059000Y-69060000D02*
X141059000Y-64655000D01*
X141019000Y-76328000D02*
X141019000Y-71940000D01*
X141019000Y-69060000D02*
X141019000Y-64672000D01*
X140979000Y-76311000D02*
X140979000Y-71940000D01*
X140979000Y-69060000D02*
X140979000Y-64689000D01*
X140939000Y-76293000D02*
X140939000Y-71940000D01*
X140939000Y-69060000D02*
X140939000Y-64707000D01*
X140899000Y-76276000D02*
X140899000Y-71940000D01*
X140899000Y-69060000D02*
X140899000Y-64724000D01*
X140859000Y-76258000D02*
X140859000Y-71940000D01*
X140859000Y-69060000D02*
X140859000Y-64742000D01*
X140819000Y-76239000D02*
X140819000Y-71940000D01*
X140819000Y-69060000D02*
X140819000Y-64761000D01*
X140779000Y-76221000D02*
X140779000Y-71940000D01*
X140779000Y-69060000D02*
X140779000Y-64779000D01*
X140739000Y-76202000D02*
X140739000Y-71940000D01*
X140739000Y-69060000D02*
X140739000Y-64798000D01*
X140699000Y-76182000D02*
X140699000Y-71940000D01*
X140699000Y-69060000D02*
X140699000Y-64818000D01*
X140659000Y-76162000D02*
X140659000Y-71940000D01*
X140659000Y-69060000D02*
X140659000Y-64838000D01*
X140619000Y-76142000D02*
X140619000Y-71940000D01*
X140619000Y-69060000D02*
X140619000Y-64858000D01*
X140579000Y-76122000D02*
X140579000Y-71940000D01*
X140579000Y-69060000D02*
X140579000Y-64878000D01*
X140539000Y-76101000D02*
X140539000Y-71940000D01*
X140539000Y-69060000D02*
X140539000Y-64899000D01*
X140499000Y-76080000D02*
X140499000Y-71940000D01*
X140499000Y-69060000D02*
X140499000Y-64920000D01*
X140459000Y-76058000D02*
X140459000Y-71940000D01*
X140459000Y-69060000D02*
X140459000Y-64942000D01*
X140419000Y-76036000D02*
X140419000Y-71940000D01*
X140419000Y-69060000D02*
X140419000Y-64964000D01*
X140379000Y-76014000D02*
X140379000Y-71940000D01*
X140379000Y-69060000D02*
X140379000Y-64986000D01*
X140339000Y-75991000D02*
X140339000Y-71940000D01*
X140339000Y-69060000D02*
X140339000Y-65009000D01*
X140299000Y-75968000D02*
X140299000Y-71940000D01*
X140299000Y-69060000D02*
X140299000Y-65032000D01*
X140259000Y-75945000D02*
X140259000Y-71940000D01*
X140259000Y-69060000D02*
X140259000Y-65055000D01*
X140219000Y-75921000D02*
X140219000Y-71940000D01*
X140219000Y-69060000D02*
X140219000Y-65079000D01*
X140179000Y-75897000D02*
X140179000Y-71940000D01*
X140179000Y-69060000D02*
X140179000Y-65103000D01*
X140139000Y-75872000D02*
X140139000Y-71940000D01*
X140139000Y-69060000D02*
X140139000Y-65128000D01*
X140099000Y-75847000D02*
X140099000Y-71940000D01*
X140099000Y-69060000D02*
X140099000Y-65153000D01*
X140059000Y-75822000D02*
X140059000Y-71940000D01*
X140059000Y-69060000D02*
X140059000Y-65178000D01*
X140019000Y-75796000D02*
X140019000Y-71940000D01*
X140019000Y-69060000D02*
X140019000Y-65204000D01*
X139979000Y-75770000D02*
X139979000Y-71940000D01*
X139979000Y-69060000D02*
X139979000Y-65230000D01*
X139939000Y-75743000D02*
X139939000Y-71940000D01*
X139939000Y-69060000D02*
X139939000Y-65257000D01*
X139899000Y-75716000D02*
X139899000Y-71940000D01*
X139899000Y-69060000D02*
X139899000Y-65284000D01*
X139859000Y-75688000D02*
X139859000Y-71940000D01*
X139859000Y-69060000D02*
X139859000Y-65312000D01*
X139819000Y-75660000D02*
X139819000Y-71940000D01*
X139819000Y-69060000D02*
X139819000Y-65340000D01*
X139779000Y-75631000D02*
X139779000Y-71940000D01*
X139779000Y-69060000D02*
X139779000Y-65369000D01*
X139739000Y-75602000D02*
X139739000Y-71940000D01*
X139739000Y-69060000D02*
X139739000Y-65398000D01*
X139699000Y-75573000D02*
X139699000Y-71940000D01*
X139699000Y-69060000D02*
X139699000Y-65427000D01*
X139659000Y-75543000D02*
X139659000Y-71940000D01*
X139659000Y-69060000D02*
X139659000Y-65457000D01*
X139619000Y-75512000D02*
X139619000Y-71940000D01*
X139619000Y-69060000D02*
X139619000Y-65488000D01*
X139579000Y-75482000D02*
X139579000Y-71940000D01*
X139579000Y-69060000D02*
X139579000Y-65518000D01*
X139539000Y-75450000D02*
X139539000Y-65550000D01*
X139499000Y-75418000D02*
X139499000Y-65582000D01*
X139459000Y-75385000D02*
X139459000Y-65615000D01*
X139419000Y-75352000D02*
X139419000Y-65648000D01*
X139379000Y-75319000D02*
X139379000Y-65681000D01*
X139339000Y-75285000D02*
X139339000Y-65715000D01*
X139299000Y-75250000D02*
X139299000Y-65750000D01*
X139259000Y-75214000D02*
X139259000Y-65786000D01*
X139219000Y-75178000D02*
X139219000Y-65822000D01*
X139179000Y-75142000D02*
X139179000Y-65858000D01*
X139139000Y-75105000D02*
X139139000Y-65895000D01*
X139099000Y-75067000D02*
X139099000Y-65933000D01*
X139059000Y-75028000D02*
X139059000Y-65972000D01*
X139019000Y-74989000D02*
X139019000Y-66011000D01*
X138979000Y-74949000D02*
X138979000Y-66051000D01*
X138939000Y-74908000D02*
X138939000Y-66092000D01*
X138899000Y-74867000D02*
X138899000Y-66133000D01*
X138859000Y-74825000D02*
X138859000Y-66175000D01*
X138819000Y-74782000D02*
X138819000Y-66218000D01*
X138779000Y-74738000D02*
X138779000Y-66262000D01*
X138739000Y-74694000D02*
X138739000Y-66306000D01*
X138699000Y-74648000D02*
X138699000Y-66352000D01*
X138659000Y-74602000D02*
X138659000Y-66398000D01*
X138619000Y-74555000D02*
X138619000Y-66445000D01*
X138579000Y-74507000D02*
X138579000Y-66493000D01*
X138539000Y-74457000D02*
X138539000Y-66543000D01*
X138499000Y-74407000D02*
X138499000Y-66593000D01*
X138459000Y-74356000D02*
X138459000Y-66644000D01*
X138419000Y-74304000D02*
X138419000Y-66696000D01*
X138379000Y-74250000D02*
X138379000Y-66750000D01*
X138339000Y-74196000D02*
X138339000Y-66804000D01*
X138299000Y-74140000D02*
X138299000Y-66860000D01*
X138259000Y-74083000D02*
X138259000Y-66917000D01*
X138219000Y-74024000D02*
X138219000Y-66976000D01*
X138179000Y-73964000D02*
X138179000Y-67036000D01*
X138139000Y-73902000D02*
X138139000Y-67098000D01*
X138099000Y-73839000D02*
X138099000Y-67161000D01*
X138059000Y-73775000D02*
X138059000Y-67225000D01*
X138019000Y-73708000D02*
X138019000Y-67292000D01*
X137979000Y-73640000D02*
X137979000Y-67360000D01*
X137939000Y-73569000D02*
X137939000Y-67431000D01*
X137899000Y-73496000D02*
X137899000Y-67504000D01*
X137859000Y-73421000D02*
X137859000Y-67579000D01*
X137819000Y-73344000D02*
X137819000Y-67656000D01*
X137779000Y-73264000D02*
X137779000Y-67736000D01*
X137739000Y-73181000D02*
X137739000Y-67819000D01*
X137699000Y-73094000D02*
X137699000Y-67906000D01*
X137659000Y-73004000D02*
X137659000Y-67996000D01*
X137619000Y-72910000D02*
X137619000Y-68090000D01*
X137579000Y-72812000D02*
X137579000Y-68188000D01*
X137539000Y-72709000D02*
X137539000Y-68291000D01*
X137499000Y-72600000D02*
X137499000Y-68400000D01*
X137459000Y-72484000D02*
X137459000Y-68516000D01*
X137419000Y-72361000D02*
X137419000Y-68639000D01*
X137379000Y-72228000D02*
X137379000Y-68772000D01*
X137339000Y-72083000D02*
X137339000Y-68917000D01*
X137299000Y-71922000D02*
X137299000Y-69078000D01*
X137259000Y-71741000D02*
X137259000Y-69259000D01*
X137219000Y-71528000D02*
X137219000Y-69472000D01*
X137179000Y-71257000D02*
X137179000Y-69743000D01*
X137139000Y-70817000D02*
X137139000Y-70183000D01*
X149870000Y-70500000D02*
G75*
G02*
X137130000Y-70500000I-6370000J0D01*
G01*
X137130000Y-70500000D02*
G75*
G02*
X149870000Y-70500000I6370000J0D01*
G01*
%TO.C,C5*%
X150317082Y-91075000D02*
X149067082Y-91075000D01*
X149692082Y-91700000D02*
X149692082Y-90450000D01*
X143500000Y-93830000D02*
X143500000Y-81170000D01*
X143460000Y-93830000D02*
X143460000Y-81170000D01*
X143420000Y-93830000D02*
X143420000Y-81170000D01*
X143380000Y-93829000D02*
X143380000Y-81171000D01*
X143340000Y-93828000D02*
X143340000Y-81172000D01*
X143300000Y-93827000D02*
X143300000Y-81173000D01*
X143260000Y-93826000D02*
X143260000Y-81174000D01*
X143220000Y-93824000D02*
X143220000Y-81176000D01*
X143180000Y-93822000D02*
X143180000Y-81178000D01*
X143140000Y-93820000D02*
X143140000Y-81180000D01*
X143100000Y-93818000D02*
X143100000Y-81182000D01*
X143060000Y-93815000D02*
X143060000Y-81185000D01*
X143020000Y-93812000D02*
X143020000Y-81188000D01*
X142980000Y-93809000D02*
X142980000Y-81191000D01*
X142940000Y-93806000D02*
X142940000Y-81194000D01*
X142900000Y-93802000D02*
X142900000Y-81198000D01*
X142860000Y-93798000D02*
X142860000Y-81202000D01*
X142820000Y-93794000D02*
X142820000Y-81206000D01*
X142779000Y-93790000D02*
X142779000Y-81210000D01*
X142739000Y-93785000D02*
X142739000Y-81215000D01*
X142699000Y-93780000D02*
X142699000Y-81220000D01*
X142659000Y-93775000D02*
X142659000Y-81225000D01*
X142619000Y-93769000D02*
X142619000Y-81231000D01*
X142579000Y-93764000D02*
X142579000Y-81236000D01*
X142539000Y-93758000D02*
X142539000Y-81242000D01*
X142499000Y-93752000D02*
X142499000Y-81248000D01*
X142459000Y-93745000D02*
X142459000Y-81255000D01*
X142419000Y-93738000D02*
X142419000Y-88940000D01*
X142419000Y-86060000D02*
X142419000Y-81262000D01*
X142379000Y-93731000D02*
X142379000Y-88940000D01*
X142379000Y-86060000D02*
X142379000Y-81269000D01*
X142339000Y-93724000D02*
X142339000Y-88940000D01*
X142339000Y-86060000D02*
X142339000Y-81276000D01*
X142299000Y-93716000D02*
X142299000Y-88940000D01*
X142299000Y-86060000D02*
X142299000Y-81284000D01*
X142259000Y-93709000D02*
X142259000Y-88940000D01*
X142259000Y-86060000D02*
X142259000Y-81291000D01*
X142219000Y-93701000D02*
X142219000Y-88940000D01*
X142219000Y-86060000D02*
X142219000Y-81299000D01*
X142179000Y-93692000D02*
X142179000Y-88940000D01*
X142179000Y-86060000D02*
X142179000Y-81308000D01*
X142139000Y-93684000D02*
X142139000Y-88940000D01*
X142139000Y-86060000D02*
X142139000Y-81316000D01*
X142099000Y-93675000D02*
X142099000Y-88940000D01*
X142099000Y-86060000D02*
X142099000Y-81325000D01*
X142059000Y-93666000D02*
X142059000Y-88940000D01*
X142059000Y-86060000D02*
X142059000Y-81334000D01*
X142019000Y-93656000D02*
X142019000Y-88940000D01*
X142019000Y-86060000D02*
X142019000Y-81344000D01*
X141979000Y-93646000D02*
X141979000Y-88940000D01*
X141979000Y-86060000D02*
X141979000Y-81354000D01*
X141939000Y-93637000D02*
X141939000Y-88940000D01*
X141939000Y-86060000D02*
X141939000Y-81363000D01*
X141899000Y-93626000D02*
X141899000Y-88940000D01*
X141899000Y-86060000D02*
X141899000Y-81374000D01*
X141859000Y-93616000D02*
X141859000Y-88940000D01*
X141859000Y-86060000D02*
X141859000Y-81384000D01*
X141819000Y-93605000D02*
X141819000Y-88940000D01*
X141819000Y-86060000D02*
X141819000Y-81395000D01*
X141779000Y-93594000D02*
X141779000Y-88940000D01*
X141779000Y-86060000D02*
X141779000Y-81406000D01*
X141739000Y-93583000D02*
X141739000Y-88940000D01*
X141739000Y-86060000D02*
X141739000Y-81417000D01*
X141699000Y-93571000D02*
X141699000Y-88940000D01*
X141699000Y-86060000D02*
X141699000Y-81429000D01*
X141659000Y-93559000D02*
X141659000Y-88940000D01*
X141659000Y-86060000D02*
X141659000Y-81441000D01*
X141619000Y-93547000D02*
X141619000Y-88940000D01*
X141619000Y-86060000D02*
X141619000Y-81453000D01*
X141579000Y-93534000D02*
X141579000Y-88940000D01*
X141579000Y-86060000D02*
X141579000Y-81466000D01*
X141539000Y-93521000D02*
X141539000Y-88940000D01*
X141539000Y-86060000D02*
X141539000Y-81479000D01*
X141499000Y-93508000D02*
X141499000Y-88940000D01*
X141499000Y-86060000D02*
X141499000Y-81492000D01*
X141459000Y-93495000D02*
X141459000Y-88940000D01*
X141459000Y-86060000D02*
X141459000Y-81505000D01*
X141419000Y-93481000D02*
X141419000Y-88940000D01*
X141419000Y-86060000D02*
X141419000Y-81519000D01*
X141379000Y-93467000D02*
X141379000Y-88940000D01*
X141379000Y-86060000D02*
X141379000Y-81533000D01*
X141339000Y-93453000D02*
X141339000Y-88940000D01*
X141339000Y-86060000D02*
X141339000Y-81547000D01*
X141299000Y-93439000D02*
X141299000Y-88940000D01*
X141299000Y-86060000D02*
X141299000Y-81561000D01*
X141259000Y-93424000D02*
X141259000Y-88940000D01*
X141259000Y-86060000D02*
X141259000Y-81576000D01*
X141219000Y-93408000D02*
X141219000Y-88940000D01*
X141219000Y-86060000D02*
X141219000Y-81592000D01*
X141179000Y-93393000D02*
X141179000Y-88940000D01*
X141179000Y-86060000D02*
X141179000Y-81607000D01*
X141139000Y-93377000D02*
X141139000Y-88940000D01*
X141139000Y-86060000D02*
X141139000Y-81623000D01*
X141099000Y-93361000D02*
X141099000Y-88940000D01*
X141099000Y-86060000D02*
X141099000Y-81639000D01*
X141059000Y-93345000D02*
X141059000Y-88940000D01*
X141059000Y-86060000D02*
X141059000Y-81655000D01*
X141019000Y-93328000D02*
X141019000Y-88940000D01*
X141019000Y-86060000D02*
X141019000Y-81672000D01*
X140979000Y-93311000D02*
X140979000Y-88940000D01*
X140979000Y-86060000D02*
X140979000Y-81689000D01*
X140939000Y-93293000D02*
X140939000Y-88940000D01*
X140939000Y-86060000D02*
X140939000Y-81707000D01*
X140899000Y-93276000D02*
X140899000Y-88940000D01*
X140899000Y-86060000D02*
X140899000Y-81724000D01*
X140859000Y-93258000D02*
X140859000Y-88940000D01*
X140859000Y-86060000D02*
X140859000Y-81742000D01*
X140819000Y-93239000D02*
X140819000Y-88940000D01*
X140819000Y-86060000D02*
X140819000Y-81761000D01*
X140779000Y-93221000D02*
X140779000Y-88940000D01*
X140779000Y-86060000D02*
X140779000Y-81779000D01*
X140739000Y-93202000D02*
X140739000Y-88940000D01*
X140739000Y-86060000D02*
X140739000Y-81798000D01*
X140699000Y-93182000D02*
X140699000Y-88940000D01*
X140699000Y-86060000D02*
X140699000Y-81818000D01*
X140659000Y-93162000D02*
X140659000Y-88940000D01*
X140659000Y-86060000D02*
X140659000Y-81838000D01*
X140619000Y-93142000D02*
X140619000Y-88940000D01*
X140619000Y-86060000D02*
X140619000Y-81858000D01*
X140579000Y-93122000D02*
X140579000Y-88940000D01*
X140579000Y-86060000D02*
X140579000Y-81878000D01*
X140539000Y-93101000D02*
X140539000Y-88940000D01*
X140539000Y-86060000D02*
X140539000Y-81899000D01*
X140499000Y-93080000D02*
X140499000Y-88940000D01*
X140499000Y-86060000D02*
X140499000Y-81920000D01*
X140459000Y-93058000D02*
X140459000Y-88940000D01*
X140459000Y-86060000D02*
X140459000Y-81942000D01*
X140419000Y-93036000D02*
X140419000Y-88940000D01*
X140419000Y-86060000D02*
X140419000Y-81964000D01*
X140379000Y-93014000D02*
X140379000Y-88940000D01*
X140379000Y-86060000D02*
X140379000Y-81986000D01*
X140339000Y-92991000D02*
X140339000Y-88940000D01*
X140339000Y-86060000D02*
X140339000Y-82009000D01*
X140299000Y-92968000D02*
X140299000Y-88940000D01*
X140299000Y-86060000D02*
X140299000Y-82032000D01*
X140259000Y-92945000D02*
X140259000Y-88940000D01*
X140259000Y-86060000D02*
X140259000Y-82055000D01*
X140219000Y-92921000D02*
X140219000Y-88940000D01*
X140219000Y-86060000D02*
X140219000Y-82079000D01*
X140179000Y-92897000D02*
X140179000Y-88940000D01*
X140179000Y-86060000D02*
X140179000Y-82103000D01*
X140139000Y-92872000D02*
X140139000Y-88940000D01*
X140139000Y-86060000D02*
X140139000Y-82128000D01*
X140099000Y-92847000D02*
X140099000Y-88940000D01*
X140099000Y-86060000D02*
X140099000Y-82153000D01*
X140059000Y-92822000D02*
X140059000Y-88940000D01*
X140059000Y-86060000D02*
X140059000Y-82178000D01*
X140019000Y-92796000D02*
X140019000Y-88940000D01*
X140019000Y-86060000D02*
X140019000Y-82204000D01*
X139979000Y-92770000D02*
X139979000Y-88940000D01*
X139979000Y-86060000D02*
X139979000Y-82230000D01*
X139939000Y-92743000D02*
X139939000Y-88940000D01*
X139939000Y-86060000D02*
X139939000Y-82257000D01*
X139899000Y-92716000D02*
X139899000Y-88940000D01*
X139899000Y-86060000D02*
X139899000Y-82284000D01*
X139859000Y-92688000D02*
X139859000Y-88940000D01*
X139859000Y-86060000D02*
X139859000Y-82312000D01*
X139819000Y-92660000D02*
X139819000Y-88940000D01*
X139819000Y-86060000D02*
X139819000Y-82340000D01*
X139779000Y-92631000D02*
X139779000Y-88940000D01*
X139779000Y-86060000D02*
X139779000Y-82369000D01*
X139739000Y-92602000D02*
X139739000Y-88940000D01*
X139739000Y-86060000D02*
X139739000Y-82398000D01*
X139699000Y-92573000D02*
X139699000Y-88940000D01*
X139699000Y-86060000D02*
X139699000Y-82427000D01*
X139659000Y-92543000D02*
X139659000Y-88940000D01*
X139659000Y-86060000D02*
X139659000Y-82457000D01*
X139619000Y-92512000D02*
X139619000Y-88940000D01*
X139619000Y-86060000D02*
X139619000Y-82488000D01*
X139579000Y-92482000D02*
X139579000Y-88940000D01*
X139579000Y-86060000D02*
X139579000Y-82518000D01*
X139539000Y-92450000D02*
X139539000Y-82550000D01*
X139499000Y-92418000D02*
X139499000Y-82582000D01*
X139459000Y-92385000D02*
X139459000Y-82615000D01*
X139419000Y-92352000D02*
X139419000Y-82648000D01*
X139379000Y-92319000D02*
X139379000Y-82681000D01*
X139339000Y-92285000D02*
X139339000Y-82715000D01*
X139299000Y-92250000D02*
X139299000Y-82750000D01*
X139259000Y-92214000D02*
X139259000Y-82786000D01*
X139219000Y-92178000D02*
X139219000Y-82822000D01*
X139179000Y-92142000D02*
X139179000Y-82858000D01*
X139139000Y-92105000D02*
X139139000Y-82895000D01*
X139099000Y-92067000D02*
X139099000Y-82933000D01*
X139059000Y-92028000D02*
X139059000Y-82972000D01*
X139019000Y-91989000D02*
X139019000Y-83011000D01*
X138979000Y-91949000D02*
X138979000Y-83051000D01*
X138939000Y-91908000D02*
X138939000Y-83092000D01*
X138899000Y-91867000D02*
X138899000Y-83133000D01*
X138859000Y-91825000D02*
X138859000Y-83175000D01*
X138819000Y-91782000D02*
X138819000Y-83218000D01*
X138779000Y-91738000D02*
X138779000Y-83262000D01*
X138739000Y-91694000D02*
X138739000Y-83306000D01*
X138699000Y-91648000D02*
X138699000Y-83352000D01*
X138659000Y-91602000D02*
X138659000Y-83398000D01*
X138619000Y-91555000D02*
X138619000Y-83445000D01*
X138579000Y-91507000D02*
X138579000Y-83493000D01*
X138539000Y-91457000D02*
X138539000Y-83543000D01*
X138499000Y-91407000D02*
X138499000Y-83593000D01*
X138459000Y-91356000D02*
X138459000Y-83644000D01*
X138419000Y-91304000D02*
X138419000Y-83696000D01*
X138379000Y-91250000D02*
X138379000Y-83750000D01*
X138339000Y-91196000D02*
X138339000Y-83804000D01*
X138299000Y-91140000D02*
X138299000Y-83860000D01*
X138259000Y-91083000D02*
X138259000Y-83917000D01*
X138219000Y-91024000D02*
X138219000Y-83976000D01*
X138179000Y-90964000D02*
X138179000Y-84036000D01*
X138139000Y-90902000D02*
X138139000Y-84098000D01*
X138099000Y-90839000D02*
X138099000Y-84161000D01*
X138059000Y-90775000D02*
X138059000Y-84225000D01*
X138019000Y-90708000D02*
X138019000Y-84292000D01*
X137979000Y-90640000D02*
X137979000Y-84360000D01*
X137939000Y-90569000D02*
X137939000Y-84431000D01*
X137899000Y-90496000D02*
X137899000Y-84504000D01*
X137859000Y-90421000D02*
X137859000Y-84579000D01*
X137819000Y-90344000D02*
X137819000Y-84656000D01*
X137779000Y-90264000D02*
X137779000Y-84736000D01*
X137739000Y-90181000D02*
X137739000Y-84819000D01*
X137699000Y-90094000D02*
X137699000Y-84906000D01*
X137659000Y-90004000D02*
X137659000Y-84996000D01*
X137619000Y-89910000D02*
X137619000Y-85090000D01*
X137579000Y-89812000D02*
X137579000Y-85188000D01*
X137539000Y-89709000D02*
X137539000Y-85291000D01*
X137499000Y-89600000D02*
X137499000Y-85400000D01*
X137459000Y-89484000D02*
X137459000Y-85516000D01*
X137419000Y-89361000D02*
X137419000Y-85639000D01*
X137379000Y-89228000D02*
X137379000Y-85772000D01*
X137339000Y-89083000D02*
X137339000Y-85917000D01*
X137299000Y-88922000D02*
X137299000Y-86078000D01*
X137259000Y-88741000D02*
X137259000Y-86259000D01*
X137219000Y-88528000D02*
X137219000Y-86472000D01*
X137179000Y-88257000D02*
X137179000Y-86743000D01*
X137139000Y-87817000D02*
X137139000Y-87183000D01*
X149870000Y-87500000D02*
G75*
G02*
X137130000Y-87500000I-6370000J0D01*
G01*
X137130000Y-87500000D02*
G75*
G02*
X149870000Y-87500000I6370000J0D01*
G01*
%TO.C,C4*%
X135317082Y-74075000D02*
X134067082Y-74075000D01*
X134692082Y-74700000D02*
X134692082Y-73450000D01*
X128500000Y-76830000D02*
X128500000Y-64170000D01*
X128460000Y-76830000D02*
X128460000Y-64170000D01*
X128420000Y-76830000D02*
X128420000Y-64170000D01*
X128380000Y-76829000D02*
X128380000Y-64171000D01*
X128340000Y-76828000D02*
X128340000Y-64172000D01*
X128300000Y-76827000D02*
X128300000Y-64173000D01*
X128260000Y-76826000D02*
X128260000Y-64174000D01*
X128220000Y-76824000D02*
X128220000Y-64176000D01*
X128180000Y-76822000D02*
X128180000Y-64178000D01*
X128140000Y-76820000D02*
X128140000Y-64180000D01*
X128100000Y-76818000D02*
X128100000Y-64182000D01*
X128060000Y-76815000D02*
X128060000Y-64185000D01*
X128020000Y-76812000D02*
X128020000Y-64188000D01*
X127980000Y-76809000D02*
X127980000Y-64191000D01*
X127940000Y-76806000D02*
X127940000Y-64194000D01*
X127900000Y-76802000D02*
X127900000Y-64198000D01*
X127860000Y-76798000D02*
X127860000Y-64202000D01*
X127820000Y-76794000D02*
X127820000Y-64206000D01*
X127779000Y-76790000D02*
X127779000Y-64210000D01*
X127739000Y-76785000D02*
X127739000Y-64215000D01*
X127699000Y-76780000D02*
X127699000Y-64220000D01*
X127659000Y-76775000D02*
X127659000Y-64225000D01*
X127619000Y-76769000D02*
X127619000Y-64231000D01*
X127579000Y-76764000D02*
X127579000Y-64236000D01*
X127539000Y-76758000D02*
X127539000Y-64242000D01*
X127499000Y-76752000D02*
X127499000Y-64248000D01*
X127459000Y-76745000D02*
X127459000Y-64255000D01*
X127419000Y-76738000D02*
X127419000Y-71940000D01*
X127419000Y-69060000D02*
X127419000Y-64262000D01*
X127379000Y-76731000D02*
X127379000Y-71940000D01*
X127379000Y-69060000D02*
X127379000Y-64269000D01*
X127339000Y-76724000D02*
X127339000Y-71940000D01*
X127339000Y-69060000D02*
X127339000Y-64276000D01*
X127299000Y-76716000D02*
X127299000Y-71940000D01*
X127299000Y-69060000D02*
X127299000Y-64284000D01*
X127259000Y-76709000D02*
X127259000Y-71940000D01*
X127259000Y-69060000D02*
X127259000Y-64291000D01*
X127219000Y-76701000D02*
X127219000Y-71940000D01*
X127219000Y-69060000D02*
X127219000Y-64299000D01*
X127179000Y-76692000D02*
X127179000Y-71940000D01*
X127179000Y-69060000D02*
X127179000Y-64308000D01*
X127139000Y-76684000D02*
X127139000Y-71940000D01*
X127139000Y-69060000D02*
X127139000Y-64316000D01*
X127099000Y-76675000D02*
X127099000Y-71940000D01*
X127099000Y-69060000D02*
X127099000Y-64325000D01*
X127059000Y-76666000D02*
X127059000Y-71940000D01*
X127059000Y-69060000D02*
X127059000Y-64334000D01*
X127019000Y-76656000D02*
X127019000Y-71940000D01*
X127019000Y-69060000D02*
X127019000Y-64344000D01*
X126979000Y-76646000D02*
X126979000Y-71940000D01*
X126979000Y-69060000D02*
X126979000Y-64354000D01*
X126939000Y-76637000D02*
X126939000Y-71940000D01*
X126939000Y-69060000D02*
X126939000Y-64363000D01*
X126899000Y-76626000D02*
X126899000Y-71940000D01*
X126899000Y-69060000D02*
X126899000Y-64374000D01*
X126859000Y-76616000D02*
X126859000Y-71940000D01*
X126859000Y-69060000D02*
X126859000Y-64384000D01*
X126819000Y-76605000D02*
X126819000Y-71940000D01*
X126819000Y-69060000D02*
X126819000Y-64395000D01*
X126779000Y-76594000D02*
X126779000Y-71940000D01*
X126779000Y-69060000D02*
X126779000Y-64406000D01*
X126739000Y-76583000D02*
X126739000Y-71940000D01*
X126739000Y-69060000D02*
X126739000Y-64417000D01*
X126699000Y-76571000D02*
X126699000Y-71940000D01*
X126699000Y-69060000D02*
X126699000Y-64429000D01*
X126659000Y-76559000D02*
X126659000Y-71940000D01*
X126659000Y-69060000D02*
X126659000Y-64441000D01*
X126619000Y-76547000D02*
X126619000Y-71940000D01*
X126619000Y-69060000D02*
X126619000Y-64453000D01*
X126579000Y-76534000D02*
X126579000Y-71940000D01*
X126579000Y-69060000D02*
X126579000Y-64466000D01*
X126539000Y-76521000D02*
X126539000Y-71940000D01*
X126539000Y-69060000D02*
X126539000Y-64479000D01*
X126499000Y-76508000D02*
X126499000Y-71940000D01*
X126499000Y-69060000D02*
X126499000Y-64492000D01*
X126459000Y-76495000D02*
X126459000Y-71940000D01*
X126459000Y-69060000D02*
X126459000Y-64505000D01*
X126419000Y-76481000D02*
X126419000Y-71940000D01*
X126419000Y-69060000D02*
X126419000Y-64519000D01*
X126379000Y-76467000D02*
X126379000Y-71940000D01*
X126379000Y-69060000D02*
X126379000Y-64533000D01*
X126339000Y-76453000D02*
X126339000Y-71940000D01*
X126339000Y-69060000D02*
X126339000Y-64547000D01*
X126299000Y-76439000D02*
X126299000Y-71940000D01*
X126299000Y-69060000D02*
X126299000Y-64561000D01*
X126259000Y-76424000D02*
X126259000Y-71940000D01*
X126259000Y-69060000D02*
X126259000Y-64576000D01*
X126219000Y-76408000D02*
X126219000Y-71940000D01*
X126219000Y-69060000D02*
X126219000Y-64592000D01*
X126179000Y-76393000D02*
X126179000Y-71940000D01*
X126179000Y-69060000D02*
X126179000Y-64607000D01*
X126139000Y-76377000D02*
X126139000Y-71940000D01*
X126139000Y-69060000D02*
X126139000Y-64623000D01*
X126099000Y-76361000D02*
X126099000Y-71940000D01*
X126099000Y-69060000D02*
X126099000Y-64639000D01*
X126059000Y-76345000D02*
X126059000Y-71940000D01*
X126059000Y-69060000D02*
X126059000Y-64655000D01*
X126019000Y-76328000D02*
X126019000Y-71940000D01*
X126019000Y-69060000D02*
X126019000Y-64672000D01*
X125979000Y-76311000D02*
X125979000Y-71940000D01*
X125979000Y-69060000D02*
X125979000Y-64689000D01*
X125939000Y-76293000D02*
X125939000Y-71940000D01*
X125939000Y-69060000D02*
X125939000Y-64707000D01*
X125899000Y-76276000D02*
X125899000Y-71940000D01*
X125899000Y-69060000D02*
X125899000Y-64724000D01*
X125859000Y-76258000D02*
X125859000Y-71940000D01*
X125859000Y-69060000D02*
X125859000Y-64742000D01*
X125819000Y-76239000D02*
X125819000Y-71940000D01*
X125819000Y-69060000D02*
X125819000Y-64761000D01*
X125779000Y-76221000D02*
X125779000Y-71940000D01*
X125779000Y-69060000D02*
X125779000Y-64779000D01*
X125739000Y-76202000D02*
X125739000Y-71940000D01*
X125739000Y-69060000D02*
X125739000Y-64798000D01*
X125699000Y-76182000D02*
X125699000Y-71940000D01*
X125699000Y-69060000D02*
X125699000Y-64818000D01*
X125659000Y-76162000D02*
X125659000Y-71940000D01*
X125659000Y-69060000D02*
X125659000Y-64838000D01*
X125619000Y-76142000D02*
X125619000Y-71940000D01*
X125619000Y-69060000D02*
X125619000Y-64858000D01*
X125579000Y-76122000D02*
X125579000Y-71940000D01*
X125579000Y-69060000D02*
X125579000Y-64878000D01*
X125539000Y-76101000D02*
X125539000Y-71940000D01*
X125539000Y-69060000D02*
X125539000Y-64899000D01*
X125499000Y-76080000D02*
X125499000Y-71940000D01*
X125499000Y-69060000D02*
X125499000Y-64920000D01*
X125459000Y-76058000D02*
X125459000Y-71940000D01*
X125459000Y-69060000D02*
X125459000Y-64942000D01*
X125419000Y-76036000D02*
X125419000Y-71940000D01*
X125419000Y-69060000D02*
X125419000Y-64964000D01*
X125379000Y-76014000D02*
X125379000Y-71940000D01*
X125379000Y-69060000D02*
X125379000Y-64986000D01*
X125339000Y-75991000D02*
X125339000Y-71940000D01*
X125339000Y-69060000D02*
X125339000Y-65009000D01*
X125299000Y-75968000D02*
X125299000Y-71940000D01*
X125299000Y-69060000D02*
X125299000Y-65032000D01*
X125259000Y-75945000D02*
X125259000Y-71940000D01*
X125259000Y-69060000D02*
X125259000Y-65055000D01*
X125219000Y-75921000D02*
X125219000Y-71940000D01*
X125219000Y-69060000D02*
X125219000Y-65079000D01*
X125179000Y-75897000D02*
X125179000Y-71940000D01*
X125179000Y-69060000D02*
X125179000Y-65103000D01*
X125139000Y-75872000D02*
X125139000Y-71940000D01*
X125139000Y-69060000D02*
X125139000Y-65128000D01*
X125099000Y-75847000D02*
X125099000Y-71940000D01*
X125099000Y-69060000D02*
X125099000Y-65153000D01*
X125059000Y-75822000D02*
X125059000Y-71940000D01*
X125059000Y-69060000D02*
X125059000Y-65178000D01*
X125019000Y-75796000D02*
X125019000Y-71940000D01*
X125019000Y-69060000D02*
X125019000Y-65204000D01*
X124979000Y-75770000D02*
X124979000Y-71940000D01*
X124979000Y-69060000D02*
X124979000Y-65230000D01*
X124939000Y-75743000D02*
X124939000Y-71940000D01*
X124939000Y-69060000D02*
X124939000Y-65257000D01*
X124899000Y-75716000D02*
X124899000Y-71940000D01*
X124899000Y-69060000D02*
X124899000Y-65284000D01*
X124859000Y-75688000D02*
X124859000Y-71940000D01*
X124859000Y-69060000D02*
X124859000Y-65312000D01*
X124819000Y-75660000D02*
X124819000Y-71940000D01*
X124819000Y-69060000D02*
X124819000Y-65340000D01*
X124779000Y-75631000D02*
X124779000Y-71940000D01*
X124779000Y-69060000D02*
X124779000Y-65369000D01*
X124739000Y-75602000D02*
X124739000Y-71940000D01*
X124739000Y-69060000D02*
X124739000Y-65398000D01*
X124699000Y-75573000D02*
X124699000Y-71940000D01*
X124699000Y-69060000D02*
X124699000Y-65427000D01*
X124659000Y-75543000D02*
X124659000Y-71940000D01*
X124659000Y-69060000D02*
X124659000Y-65457000D01*
X124619000Y-75512000D02*
X124619000Y-71940000D01*
X124619000Y-69060000D02*
X124619000Y-65488000D01*
X124579000Y-75482000D02*
X124579000Y-71940000D01*
X124579000Y-69060000D02*
X124579000Y-65518000D01*
X124539000Y-75450000D02*
X124539000Y-65550000D01*
X124499000Y-75418000D02*
X124499000Y-65582000D01*
X124459000Y-75385000D02*
X124459000Y-65615000D01*
X124419000Y-75352000D02*
X124419000Y-65648000D01*
X124379000Y-75319000D02*
X124379000Y-65681000D01*
X124339000Y-75285000D02*
X124339000Y-65715000D01*
X124299000Y-75250000D02*
X124299000Y-65750000D01*
X124259000Y-75214000D02*
X124259000Y-65786000D01*
X124219000Y-75178000D02*
X124219000Y-65822000D01*
X124179000Y-75142000D02*
X124179000Y-65858000D01*
X124139000Y-75105000D02*
X124139000Y-65895000D01*
X124099000Y-75067000D02*
X124099000Y-65933000D01*
X124059000Y-75028000D02*
X124059000Y-65972000D01*
X124019000Y-74989000D02*
X124019000Y-66011000D01*
X123979000Y-74949000D02*
X123979000Y-66051000D01*
X123939000Y-74908000D02*
X123939000Y-66092000D01*
X123899000Y-74867000D02*
X123899000Y-66133000D01*
X123859000Y-74825000D02*
X123859000Y-66175000D01*
X123819000Y-74782000D02*
X123819000Y-66218000D01*
X123779000Y-74738000D02*
X123779000Y-66262000D01*
X123739000Y-74694000D02*
X123739000Y-66306000D01*
X123699000Y-74648000D02*
X123699000Y-66352000D01*
X123659000Y-74602000D02*
X123659000Y-66398000D01*
X123619000Y-74555000D02*
X123619000Y-66445000D01*
X123579000Y-74507000D02*
X123579000Y-66493000D01*
X123539000Y-74457000D02*
X123539000Y-66543000D01*
X123499000Y-74407000D02*
X123499000Y-66593000D01*
X123459000Y-74356000D02*
X123459000Y-66644000D01*
X123419000Y-74304000D02*
X123419000Y-66696000D01*
X123379000Y-74250000D02*
X123379000Y-66750000D01*
X123339000Y-74196000D02*
X123339000Y-66804000D01*
X123299000Y-74140000D02*
X123299000Y-66860000D01*
X123259000Y-74083000D02*
X123259000Y-66917000D01*
X123219000Y-74024000D02*
X123219000Y-66976000D01*
X123179000Y-73964000D02*
X123179000Y-67036000D01*
X123139000Y-73902000D02*
X123139000Y-67098000D01*
X123099000Y-73839000D02*
X123099000Y-67161000D01*
X123059000Y-73775000D02*
X123059000Y-67225000D01*
X123019000Y-73708000D02*
X123019000Y-67292000D01*
X122979000Y-73640000D02*
X122979000Y-67360000D01*
X122939000Y-73569000D02*
X122939000Y-67431000D01*
X122899000Y-73496000D02*
X122899000Y-67504000D01*
X122859000Y-73421000D02*
X122859000Y-67579000D01*
X122819000Y-73344000D02*
X122819000Y-67656000D01*
X122779000Y-73264000D02*
X122779000Y-67736000D01*
X122739000Y-73181000D02*
X122739000Y-67819000D01*
X122699000Y-73094000D02*
X122699000Y-67906000D01*
X122659000Y-73004000D02*
X122659000Y-67996000D01*
X122619000Y-72910000D02*
X122619000Y-68090000D01*
X122579000Y-72812000D02*
X122579000Y-68188000D01*
X122539000Y-72709000D02*
X122539000Y-68291000D01*
X122499000Y-72600000D02*
X122499000Y-68400000D01*
X122459000Y-72484000D02*
X122459000Y-68516000D01*
X122419000Y-72361000D02*
X122419000Y-68639000D01*
X122379000Y-72228000D02*
X122379000Y-68772000D01*
X122339000Y-72083000D02*
X122339000Y-68917000D01*
X122299000Y-71922000D02*
X122299000Y-69078000D01*
X122259000Y-71741000D02*
X122259000Y-69259000D01*
X122219000Y-71528000D02*
X122219000Y-69472000D01*
X122179000Y-71257000D02*
X122179000Y-69743000D01*
X122139000Y-70817000D02*
X122139000Y-70183000D01*
X134870000Y-70500000D02*
G75*
G02*
X122130000Y-70500000I-6370000J0D01*
G01*
X122130000Y-70500000D02*
G75*
G02*
X134870000Y-70500000I6370000J0D01*
G01*
%TO.C,D11*%
X100500000Y-69960000D02*
X103360000Y-69960000D01*
X103360000Y-68040000D02*
X100500000Y-68040000D01*
X103360000Y-69960000D02*
X103360000Y-68040000D01*
%TO.C,U1*%
X74525000Y-80930000D02*
X74525000Y-82580000D01*
X74525000Y-84580000D02*
X74525000Y-86230000D01*
X74525000Y-86230000D02*
X94965000Y-86230000D01*
X94965000Y-80930000D02*
X74525000Y-80930000D01*
X94965000Y-86230000D02*
X94965000Y-80930000D01*
X74525000Y-82580000D02*
G75*
G02*
X74525000Y-84580000I0J-1000000D01*
G01*
%TO.C,R5*%
X119725207Y-80265000D02*
X120179335Y-80265000D01*
X119725207Y-81735000D02*
X120179335Y-81735000D01*
%TO.C,R12*%
X105247936Y-83265000D02*
X105702064Y-83265000D01*
X105247936Y-84735000D02*
X105702064Y-84735000D01*
%TO.C,C12*%
X108157500Y-107353752D02*
X108157500Y-106831248D01*
X109627500Y-107353752D02*
X109627500Y-106831248D01*
%TO.C,R17*%
X105247936Y-88265000D02*
X105702064Y-88265000D01*
X105247936Y-89735000D02*
X105702064Y-89735000D01*
%TO.C,R8*%
X117217271Y-88772936D02*
X117217271Y-89227064D01*
X118687271Y-88772936D02*
X118687271Y-89227064D01*
%TO.C,C9*%
X72966252Y-72855000D02*
X72443748Y-72855000D01*
X72966252Y-74325000D02*
X72443748Y-74325000D01*
%TO.C,R20*%
X105247936Y-68265000D02*
X105702064Y-68265000D01*
X105247936Y-69735000D02*
X105702064Y-69735000D01*
D12*
%TO.C,J1*%
X108527500Y-114857500D02*
X108527500Y-112407500D01*
X110552500Y-116957500D02*
X113102500Y-116957500D01*
X110702500Y-110282500D02*
X113027500Y-110282500D01*
X115252500Y-112482500D02*
X115252500Y-114657500D01*
D11*
%TO.C,R13*%
X105247936Y-80765000D02*
X105702064Y-80765000D01*
X105247936Y-82235000D02*
X105702064Y-82235000D01*
%TO.C,J3*%
X111170000Y-63670000D02*
X112500000Y-63670000D01*
X111170000Y-65000000D02*
X111170000Y-63670000D01*
X113770000Y-63670000D02*
X116370000Y-63670000D01*
X113770000Y-66330000D02*
X113770000Y-63670000D01*
X113770000Y-66330000D02*
X116370000Y-66330000D01*
X116370000Y-66330000D02*
X116370000Y-63670000D01*
%TO.C,C1*%
X141765000Y-113128752D02*
X141765000Y-112606248D01*
X143235000Y-113128752D02*
X143235000Y-112606248D01*
%TO.C,R1*%
X123227064Y-106515000D02*
X122772936Y-106515000D01*
X123227064Y-107985000D02*
X122772936Y-107985000D01*
%TO.C,R9*%
X148812936Y-108345000D02*
X149267064Y-108345000D01*
X148812936Y-109815000D02*
X149267064Y-109815000D01*
%TO.C,R21*%
X105247936Y-65765000D02*
X105702064Y-65765000D01*
X105247936Y-67235000D02*
X105702064Y-67235000D01*
%TO.C,D7*%
X100500000Y-79960000D02*
X103360000Y-79960000D01*
X103360000Y-78040000D02*
X100500000Y-78040000D01*
X103360000Y-79960000D02*
X103360000Y-78040000D01*
%TO.C,D10*%
X100500000Y-72460000D02*
X103360000Y-72460000D01*
X103360000Y-70540000D02*
X100500000Y-70540000D01*
X103360000Y-72460000D02*
X103360000Y-70540000D01*
%TO.C,C2*%
X73701248Y-113265000D02*
X74223752Y-113265000D01*
X73701248Y-114735000D02*
X74223752Y-114735000D01*
%TO.C,U5*%
X122331271Y-80175000D02*
X122331271Y-84816000D01*
X122331271Y-80175000D02*
X132572271Y-80175000D01*
X122331271Y-81685000D02*
X132572271Y-81685000D01*
X122331271Y-84816000D02*
X132572271Y-84816000D01*
X125602271Y-80175000D02*
X125602271Y-81685000D01*
X129302271Y-80175000D02*
X129302271Y-81685000D01*
X132572271Y-80175000D02*
X132572271Y-84816000D01*
%TO.C,M3*%
X65375000Y-70140000D02*
X65375000Y-62460000D01*
X65375000Y-72740000D02*
X65375000Y-71410000D01*
X66705000Y-72740000D02*
X65375000Y-72740000D01*
X68035000Y-62460000D02*
X65375000Y-62460000D01*
X68035000Y-70140000D02*
X65375000Y-70140000D01*
X68035000Y-70140000D02*
X68035000Y-62460000D01*
%TO.C,R11*%
X123267064Y-104265000D02*
X122812936Y-104265000D01*
X123267064Y-105735000D02*
X122812936Y-105735000D01*
%TO.C,R19*%
X105247936Y-70765000D02*
X105702064Y-70765000D01*
X105247936Y-72235000D02*
X105702064Y-72235000D01*
%TO.C,J2*%
X71510000Y-115670000D02*
X71510000Y-118330000D01*
X81730000Y-115670000D02*
X71510000Y-115670000D01*
X81730000Y-115670000D02*
X81730000Y-118330000D01*
X81730000Y-118330000D02*
X71510000Y-118330000D01*
X84330000Y-117000000D02*
X84330000Y-118330000D01*
X84330000Y-118330000D02*
X83000000Y-118330000D01*
%TO.C,R16*%
X105247936Y-85765000D02*
X105702064Y-85765000D01*
X105247936Y-87235000D02*
X105702064Y-87235000D01*
%TO.C,R18*%
X105247936Y-73265000D02*
X105702064Y-73265000D01*
X105247936Y-74735000D02*
X105702064Y-74735000D01*
%TO.C,M2*%
X65510000Y-82450000D02*
X72250000Y-82450000D01*
X65510000Y-88270000D02*
X65510000Y-82450000D01*
X65510000Y-88270000D02*
X72250000Y-88270000D01*
X67229000Y-88270000D02*
X67229000Y-82450000D01*
X70330000Y-88270000D02*
X70330000Y-82450000D01*
X71330000Y-88270000D02*
X71330000Y-82450000D01*
X71450000Y-88510000D02*
X72490000Y-88510000D01*
X72250000Y-88270000D02*
X72250000Y-82450000D01*
X72490000Y-88510000D02*
X72490000Y-87710000D01*
%TO.C,U4*%
X90692500Y-98192500D02*
X92992500Y-98192500D01*
X90692500Y-100292500D02*
X90692500Y-98192500D01*
X90967500Y-98467500D02*
X107217500Y-98467500D01*
X90967500Y-114717500D02*
X90967500Y-98467500D01*
X107217500Y-98467500D02*
X107217500Y-114717500D01*
X107217500Y-114717500D02*
X90967500Y-114717500D01*
%TO.C,D4*%
X100500000Y-87460000D02*
X103360000Y-87460000D01*
X103360000Y-85540000D02*
X100500000Y-85540000D01*
X103360000Y-87460000D02*
X103360000Y-85540000D01*
%TO.C,U2*%
X68390000Y-95890000D02*
X68390000Y-96840000D01*
X68390000Y-106110000D02*
X68390000Y-105160000D01*
X69340000Y-95890000D02*
X68390000Y-95890000D01*
X69340000Y-106110000D02*
X68390000Y-106110000D01*
X77660000Y-95890000D02*
X78610000Y-95890000D01*
X77660000Y-106110000D02*
X78610000Y-106110000D01*
X78610000Y-95890000D02*
X78610000Y-96840000D01*
X78610000Y-106110000D02*
X78610000Y-105160000D01*
X79565000Y-105630000D02*
X78885000Y-105630000D01*
X79225000Y-105160000D01*
X79565000Y-105630000D01*
G36*
X79565000Y-105630000D02*
G01*
X78885000Y-105630000D01*
X79225000Y-105160000D01*
X79565000Y-105630000D01*
G37*
%TO.C,R14*%
X105247936Y-78265000D02*
X105702064Y-78265000D01*
X105247936Y-79735000D02*
X105702064Y-79735000D01*
%TO.C,D3*%
X100500000Y-89960000D02*
X103360000Y-89960000D01*
X103360000Y-88040000D02*
X100500000Y-88040000D01*
X103360000Y-89960000D02*
X103360000Y-88040000D01*
%TO.C,U6*%
X140300000Y-111195000D02*
X136700000Y-111195000D01*
X138500000Y-115645000D02*
G75*
G02*
X136661522Y-111206522I0J2600000D01*
G01*
X140338478Y-111206522D02*
G75*
G02*
X138500000Y-115645001I-1838478J-1838478D01*
G01*
%TO.C,C8*%
X147225000Y-105721252D02*
X147225000Y-105198748D01*
X148695000Y-105721252D02*
X148695000Y-105198748D01*
%TO.C,U7*%
X136380000Y-108230000D02*
X136380000Y-103589000D01*
X139649000Y-108230000D02*
X139649000Y-106720000D01*
X143350000Y-108230000D02*
X143350000Y-106720000D01*
X146620000Y-103589000D02*
X136380000Y-103589000D01*
X146620000Y-106720000D02*
X136380000Y-106720000D01*
X146620000Y-108230000D02*
X136380000Y-108230000D01*
X146620000Y-108230000D02*
X146620000Y-103589000D01*
%TO.C,D5*%
X100500000Y-84960000D02*
X103360000Y-84960000D01*
X103360000Y-83040000D02*
X100500000Y-83040000D01*
X103360000Y-84960000D02*
X103360000Y-83040000D01*
%TO.C,R7*%
X120679335Y-77265000D02*
X120225207Y-77265000D01*
X120679335Y-78735000D02*
X120225207Y-78735000D01*
%TO.C,D13*%
X121365000Y-108790000D02*
X121365000Y-110710000D01*
X121365000Y-110710000D02*
X124225000Y-110710000D01*
X124225000Y-108790000D02*
X121365000Y-108790000D01*
%TO.C,C3*%
X133765000Y-113166252D02*
X133765000Y-112643748D01*
X135235000Y-113166252D02*
X135235000Y-112643748D01*
%TO.C,Q1*%
X123050000Y-112040000D02*
X119450000Y-112040000D01*
X121250000Y-116490000D02*
G75*
G02*
X119411522Y-112051522I0J2600000D01*
G01*
X123088478Y-112051522D02*
G75*
G02*
X121250000Y-116490001I-1838478J-1838478D01*
G01*
%TO.C,D8*%
X100525000Y-77460000D02*
X103385000Y-77460000D01*
X103385000Y-75540000D02*
X100525000Y-75540000D01*
X103385000Y-77460000D02*
X103385000Y-75540000D01*
%TO.C,C7*%
X134225000Y-105721252D02*
X134225000Y-105198748D01*
X135695000Y-105721252D02*
X135695000Y-105198748D01*
%TO.C,U3*%
X70500000Y-64750000D02*
X70500000Y-66400000D01*
X70500000Y-68400000D02*
X70500000Y-70050000D01*
X70500000Y-70050000D02*
X90940000Y-70050000D01*
X90940000Y-64750000D02*
X70500000Y-64750000D01*
X90940000Y-70050000D02*
X90940000Y-64750000D01*
X70500000Y-66400000D02*
G75*
G02*
X70500000Y-68400000I0J-1000000D01*
G01*
%TO.C,D1*%
X134992271Y-93525000D02*
X134992271Y-96385000D01*
X134992271Y-96385000D02*
X136912271Y-96385000D01*
X136912271Y-96385000D02*
X136912271Y-93525000D01*
%TO.C,L1*%
X124820000Y-118220000D02*
X124820000Y-111480000D01*
X130640000Y-111480000D02*
X124820000Y-111480000D01*
X130640000Y-112400000D02*
X124820000Y-112400000D01*
X130640000Y-113400000D02*
X124820000Y-113400000D01*
X130640000Y-116501000D02*
X124820000Y-116501000D01*
X130640000Y-118220000D02*
X124820000Y-118220000D01*
X130640000Y-118220000D02*
X130640000Y-111480000D01*
X130880000Y-111240000D02*
X130080000Y-111240000D01*
X130880000Y-112280000D02*
X130880000Y-111240000D01*
%TO.C,R2*%
X67227064Y-110265000D02*
X66772936Y-110265000D01*
X67227064Y-111735000D02*
X66772936Y-111735000D01*
%TO.C,D12*%
X100500000Y-67460000D02*
X103360000Y-67460000D01*
X103360000Y-65540000D02*
X100500000Y-65540000D01*
X103360000Y-67460000D02*
X103360000Y-65540000D01*
%TO.C,R10*%
X137772936Y-109170000D02*
X138227064Y-109170000D01*
X137772936Y-110640000D02*
X138227064Y-110640000D01*
%TO.C,D6*%
X100500000Y-82460000D02*
X103360000Y-82460000D01*
X103360000Y-80540000D02*
X100500000Y-80540000D01*
X103360000Y-82460000D02*
X103360000Y-80540000D01*
%TO.C,R4*%
X119717271Y-83772936D02*
X119717271Y-84227064D01*
X121187271Y-83772936D02*
X121187271Y-84227064D01*
%TO.C,C11*%
X67265000Y-93238748D02*
X67265000Y-93761252D01*
X68735000Y-93238748D02*
X68735000Y-93761252D01*
%TO.C,M1*%
X65510000Y-75450000D02*
X72250000Y-75450000D01*
X65510000Y-81270000D02*
X65510000Y-75450000D01*
X65510000Y-81270000D02*
X72250000Y-81270000D01*
X67229000Y-81270000D02*
X67229000Y-75450000D01*
X70330000Y-81270000D02*
X70330000Y-75450000D01*
X71330000Y-81270000D02*
X71330000Y-75450000D01*
X71450000Y-81510000D02*
X72490000Y-81510000D01*
X72250000Y-81270000D02*
X72250000Y-75450000D01*
X72490000Y-81510000D02*
X72490000Y-80710000D01*
%TO.C,L2*%
X119452271Y-99600000D02*
X119452271Y-87400000D01*
X122202271Y-87000000D02*
X119852271Y-87000000D01*
X122202271Y-100000000D02*
X119852271Y-100000000D01*
X129702271Y-87000000D02*
X129702271Y-86250000D01*
X132052271Y-87000000D02*
X129702271Y-87000000D01*
X132052271Y-100000000D02*
X129702271Y-100000000D01*
X132452271Y-87400000D02*
X132452271Y-99600000D01*
X119452271Y-87400000D02*
G75*
G02*
X119852271Y-87000000I399999J1D01*
G01*
X119852271Y-100000000D02*
G75*
G02*
X119452271Y-99600000I0J400000D01*
G01*
X132052271Y-87000000D02*
G75*
G02*
X132452271Y-87400000I1J-399999D01*
G01*
X132452271Y-99600000D02*
G75*
G02*
X132052271Y-100000000I-400000J0D01*
G01*
%TO.C,D2*%
X127205000Y-104540000D02*
X127205000Y-106460000D01*
X127205000Y-106460000D02*
X130065000Y-106460000D01*
X130065000Y-104540000D02*
X127205000Y-104540000D01*
%TO.C,D9*%
X100500000Y-75000000D02*
X103360000Y-75000000D01*
X103360000Y-73080000D02*
X100500000Y-73080000D01*
X103360000Y-75000000D02*
X103360000Y-73080000D01*
%TO.C,R6*%
X133217271Y-82272936D02*
X133217271Y-82727064D01*
X134687271Y-82272936D02*
X134687271Y-82727064D01*
%TO.C,R15*%
X105247936Y-75765000D02*
X105702064Y-75765000D01*
X105247936Y-77235000D02*
X105702064Y-77235000D01*
%TO.C,C10*%
X76991252Y-75855000D02*
X76468748Y-75855000D01*
X76991252Y-77325000D02*
X76468748Y-77325000D01*
%TD*%
M02*
