%TF.GenerationSoftware,KiCad,Pcbnew,8.0.3*%
%TF.CreationDate,2024-07-18T08:26:54+01:00*%
%TF.ProjectId,sub,7375622e-6b69-4636-9164-5f7063625858,rev?*%
%TF.SameCoordinates,Original*%
%TF.FileFunction,Paste,Top*%
%TF.FilePolarity,Positive*%
%FSLAX46Y46*%
G04 Gerber Fmt 4.6, Leading zero omitted, Abs format (unit mm)*
G04 Created by KiCad (PCBNEW 8.0.3) date 2024-07-18 08:26:54*
%MOMM*%
%LPD*%
G01*
G04 APERTURE LIST*
G04 Aperture macros list*
%AMRoundRect*
0 Rectangle with rounded corners*
0 $1 Rounding radius*
0 $2 $3 $4 $5 $6 $7 $8 $9 X,Y pos of 4 corners*
0 Add a 4 corners polygon primitive as box body*
4,1,4,$2,$3,$4,$5,$6,$7,$8,$9,$2,$3,0*
0 Add four circle primitives for the rounded corners*
1,1,$1+$1,$2,$3*
1,1,$1+$1,$4,$5*
1,1,$1+$1,$6,$7*
1,1,$1+$1,$8,$9*
0 Add four rect primitives between the rounded corners*
20,1,$1+$1,$2,$3,$4,$5,0*
20,1,$1+$1,$4,$5,$6,$7,0*
20,1,$1+$1,$6,$7,$8,$9,0*
20,1,$1+$1,$8,$9,$2,$3,0*%
G04 Aperture macros list end*
%ADD10RoundRect,0.250000X0.325000X0.450000X-0.325000X0.450000X-0.325000X-0.450000X0.325000X-0.450000X0*%
%ADD11RoundRect,0.250000X-0.350000X-0.450000X0.350000X-0.450000X0.350000X0.450000X-0.350000X0.450000X0*%
%ADD12RoundRect,0.250000X0.475000X-0.337500X0.475000X0.337500X-0.475000X0.337500X-0.475000X-0.337500X0*%
%ADD13RoundRect,0.250000X-0.450000X0.350000X-0.450000X-0.350000X0.450000X-0.350000X0.450000X0.350000X0*%
%ADD14RoundRect,0.250000X0.337500X0.475000X-0.337500X0.475000X-0.337500X-0.475000X0.337500X-0.475000X0*%
%ADD15RoundRect,0.250000X0.350000X0.450000X-0.350000X0.450000X-0.350000X-0.450000X0.350000X-0.450000X0*%
%ADD16RoundRect,0.250000X-0.337500X-0.475000X0.337500X-0.475000X0.337500X0.475000X-0.337500X0.475000X0*%
%ADD17RoundRect,0.075000X0.700000X0.075000X-0.700000X0.075000X-0.700000X-0.075000X0.700000X-0.075000X0*%
%ADD18RoundRect,0.075000X0.075000X0.700000X-0.075000X0.700000X-0.075000X-0.700000X0.075000X-0.700000X0*%
%ADD19RoundRect,0.250000X-0.325000X-0.450000X0.325000X-0.450000X0.325000X0.450000X-0.325000X0.450000X0*%
%ADD20RoundRect,0.250000X0.450000X-0.325000X0.450000X0.325000X-0.450000X0.325000X-0.450000X-0.325000X0*%
%ADD21RoundRect,0.250000X-0.475000X0.337500X-0.475000X-0.337500X0.475000X-0.337500X0.475000X0.337500X0*%
%ADD22R,7.000000X4.000000*%
G04 APERTURE END LIST*
D10*
%TO.C,D11*%
X102525000Y-69000000D03*
X100475000Y-69000000D03*
%TD*%
D11*
%TO.C,R5*%
X118952271Y-81000000D03*
X120952271Y-81000000D03*
%TD*%
%TO.C,R12*%
X104475000Y-84000000D03*
X106475000Y-84000000D03*
%TD*%
D12*
%TO.C,C12*%
X108892500Y-108130000D03*
X108892500Y-106055000D03*
%TD*%
D11*
%TO.C,R17*%
X104475000Y-89000000D03*
X106475000Y-89000000D03*
%TD*%
D13*
%TO.C,R8*%
X117952271Y-88000000D03*
X117952271Y-90000000D03*
%TD*%
D14*
%TO.C,C9*%
X73742500Y-73590000D03*
X71667500Y-73590000D03*
%TD*%
D11*
%TO.C,R20*%
X104475000Y-69000000D03*
X106475000Y-69000000D03*
%TD*%
%TO.C,R13*%
X104475000Y-81500000D03*
X106475000Y-81500000D03*
%TD*%
D12*
%TO.C,C1*%
X142500000Y-113905000D03*
X142500000Y-111830000D03*
%TD*%
D15*
%TO.C,R1*%
X124000000Y-107250000D03*
X122000000Y-107250000D03*
%TD*%
D11*
%TO.C,R9*%
X148040000Y-109080000D03*
X150040000Y-109080000D03*
%TD*%
%TO.C,R21*%
X104475000Y-66500000D03*
X106475000Y-66500000D03*
%TD*%
D10*
%TO.C,D7*%
X102525000Y-79000000D03*
X100475000Y-79000000D03*
%TD*%
%TO.C,D10*%
X102525000Y-71500000D03*
X100475000Y-71500000D03*
%TD*%
D16*
%TO.C,C2*%
X72925000Y-114000000D03*
X75000000Y-114000000D03*
%TD*%
D15*
%TO.C,R11*%
X124040000Y-105000000D03*
X122040000Y-105000000D03*
%TD*%
D11*
%TO.C,R19*%
X104475000Y-71500000D03*
X106475000Y-71500000D03*
%TD*%
%TO.C,R16*%
X104475000Y-86500000D03*
X106475000Y-86500000D03*
%TD*%
%TO.C,R18*%
X104475000Y-74000000D03*
X106475000Y-74000000D03*
%TD*%
D10*
%TO.C,D4*%
X102525000Y-86500000D03*
X100475000Y-86500000D03*
%TD*%
D17*
%TO.C,U2*%
X79175000Y-104750000D03*
X79175000Y-104250000D03*
X79175000Y-103750000D03*
X79175000Y-103250000D03*
X79175000Y-102750000D03*
X79175000Y-102250000D03*
X79175000Y-101750000D03*
X79175000Y-101250000D03*
X79175000Y-100750000D03*
X79175000Y-100250000D03*
X79175000Y-99750000D03*
X79175000Y-99250000D03*
X79175000Y-98750000D03*
X79175000Y-98250000D03*
X79175000Y-97750000D03*
X79175000Y-97250000D03*
D18*
X77250000Y-95325000D03*
X76750000Y-95325000D03*
X76250000Y-95325000D03*
X75750000Y-95325000D03*
X75250000Y-95325000D03*
X74750000Y-95325000D03*
X74250000Y-95325000D03*
X73750000Y-95325000D03*
X73250000Y-95325000D03*
X72750000Y-95325000D03*
X72250000Y-95325000D03*
X71750000Y-95325000D03*
X71250000Y-95325000D03*
X70750000Y-95325000D03*
X70250000Y-95325000D03*
X69750000Y-95325000D03*
D17*
X67825000Y-97250000D03*
X67825000Y-97750000D03*
X67825000Y-98250000D03*
X67825000Y-98750000D03*
X67825000Y-99250000D03*
X67825000Y-99750000D03*
X67825000Y-100250000D03*
X67825000Y-100750000D03*
X67825000Y-101250000D03*
X67825000Y-101750000D03*
X67825000Y-102250000D03*
X67825000Y-102750000D03*
X67825000Y-103250000D03*
X67825000Y-103750000D03*
X67825000Y-104250000D03*
X67825000Y-104750000D03*
D18*
X69750000Y-106675000D03*
X70250000Y-106675000D03*
X70750000Y-106675000D03*
X71250000Y-106675000D03*
X71750000Y-106675000D03*
X72250000Y-106675000D03*
X72750000Y-106675000D03*
X73250000Y-106675000D03*
X73750000Y-106675000D03*
X74250000Y-106675000D03*
X74750000Y-106675000D03*
X75250000Y-106675000D03*
X75750000Y-106675000D03*
X76250000Y-106675000D03*
X76750000Y-106675000D03*
X77250000Y-106675000D03*
%TD*%
D11*
%TO.C,R14*%
X104475000Y-79000000D03*
X106475000Y-79000000D03*
%TD*%
D10*
%TO.C,D3*%
X102525000Y-89000000D03*
X100475000Y-89000000D03*
%TD*%
D12*
%TO.C,C8*%
X147960000Y-106497500D03*
X147960000Y-104422500D03*
%TD*%
D10*
%TO.C,D5*%
X102525000Y-84000000D03*
X100475000Y-84000000D03*
%TD*%
D15*
%TO.C,R7*%
X121452271Y-78000000D03*
X119452271Y-78000000D03*
%TD*%
D19*
%TO.C,D13*%
X122200000Y-109750000D03*
X124250000Y-109750000D03*
%TD*%
D12*
%TO.C,C3*%
X134500000Y-113942500D03*
X134500000Y-111867500D03*
%TD*%
D10*
%TO.C,D8*%
X102550000Y-76500000D03*
X100500000Y-76500000D03*
%TD*%
D12*
%TO.C,C7*%
X134960000Y-106497500D03*
X134960000Y-104422500D03*
%TD*%
D20*
%TO.C,D1*%
X135952271Y-95550000D03*
X135952271Y-93500000D03*
%TD*%
D15*
%TO.C,R2*%
X68000000Y-111000000D03*
X66000000Y-111000000D03*
%TD*%
D10*
%TO.C,D12*%
X102525000Y-66500000D03*
X100475000Y-66500000D03*
%TD*%
D11*
%TO.C,R10*%
X137000000Y-109905000D03*
X139000000Y-109905000D03*
%TD*%
D10*
%TO.C,D6*%
X102525000Y-81500000D03*
X100475000Y-81500000D03*
%TD*%
D13*
%TO.C,R4*%
X120452271Y-83000000D03*
X120452271Y-85000000D03*
%TD*%
D21*
%TO.C,C11*%
X68000000Y-92462500D03*
X68000000Y-94537500D03*
%TD*%
D22*
%TO.C,L2*%
X125952271Y-88500000D03*
X125952271Y-98500000D03*
%TD*%
D19*
%TO.C,D2*%
X128040000Y-105500000D03*
X130090000Y-105500000D03*
%TD*%
D10*
%TO.C,D9*%
X102525000Y-74040000D03*
X100475000Y-74040000D03*
%TD*%
D13*
%TO.C,R6*%
X133952271Y-81500000D03*
X133952271Y-83500000D03*
%TD*%
D11*
%TO.C,R15*%
X104475000Y-76500000D03*
X106475000Y-76500000D03*
%TD*%
D14*
%TO.C,C10*%
X77767500Y-76590000D03*
X75692500Y-76590000D03*
%TD*%
M02*
