%TF.GenerationSoftware,KiCad,Pcbnew,8.0.3*%
%TF.CreationDate,2024-08-01T08:19:37+01:00*%
%TF.ProjectId,controller,636f6e74-726f-46c6-9c65-722e6b696361,rev?*%
%TF.SameCoordinates,Original*%
%TF.FileFunction,Soldermask,Bot*%
%TF.FilePolarity,Negative*%
%FSLAX46Y46*%
G04 Gerber Fmt 4.6, Leading zero omitted, Abs format (unit mm)*
G04 Created by KiCad (PCBNEW 8.0.3) date 2024-08-01 08:19:37*
%MOMM*%
%LPD*%
G01*
G04 APERTURE LIST*
%ADD10R,1.700000X1.700000*%
%ADD11O,1.700000X1.700000*%
%ADD12R,1.500000X1.300000*%
%ADD13O,1.500000X1.300000*%
%ADD14C,2.600000*%
%ADD15C,2.500000*%
%ADD16R,1.524000X1.524000*%
%ADD17C,1.524000*%
%ADD18R,1.350000X1.350000*%
%ADD19C,1.350000*%
%ADD20R,1.600000X1.600000*%
%ADD21O,1.600000X1.600000*%
%ADD22R,1.500000X1.500000*%
%ADD23C,1.600000*%
%ADD24R,1.800000X1.800000*%
%ADD25O,1.800000X1.800000*%
G04 APERTURE END LIST*
D10*
%TO.C,J1*%
X166545000Y-100215000D03*
D11*
X166545000Y-97675000D03*
X166545000Y-95135000D03*
X166545000Y-92595000D03*
X166545000Y-90055000D03*
%TD*%
D12*
%TO.C,U6*%
X160373000Y-126445000D03*
D13*
X160373000Y-128223000D03*
X160373000Y-130001000D03*
%TD*%
D14*
%TO.C,J2*%
X150152500Y-55180000D03*
X150152500Y-50100000D03*
X145072500Y-55180000D03*
X145072500Y-50100000D03*
D15*
X147512500Y-52715000D03*
%TD*%
D16*
%TO.C,U1*%
X148045000Y-126715000D03*
D17*
X148045000Y-128715000D03*
X148045000Y-130715000D03*
X148045000Y-132715000D03*
%TD*%
D18*
%TO.C,U5*%
X167252500Y-66622500D03*
D19*
X167252500Y-64622500D03*
X167252500Y-62622500D03*
X167252500Y-60622500D03*
X167252500Y-58622500D03*
X167252500Y-56622500D03*
X167252500Y-54622500D03*
X167252500Y-52622500D03*
X153652500Y-52622500D03*
X153652500Y-54622500D03*
X153652500Y-56622500D03*
X153652500Y-58622500D03*
X153652500Y-60622500D03*
X153652500Y-62622500D03*
X153652500Y-64622500D03*
X153652500Y-66622500D03*
%TD*%
D17*
%TO.C,S2*%
X129545000Y-122750000D03*
X129545000Y-135250000D03*
X124545000Y-122750000D03*
X124545000Y-135250000D03*
%TD*%
D20*
%TO.C,U9*%
X130625000Y-103715000D03*
D21*
X128085000Y-103715000D03*
X125545000Y-103715000D03*
X123005000Y-103715000D03*
X120465000Y-103715000D03*
X117925000Y-103715000D03*
X115385000Y-103715000D03*
X112845000Y-103715000D03*
X110305000Y-103715000D03*
X107765000Y-103715000D03*
X105225000Y-103715000D03*
X102685000Y-103715000D03*
X100145000Y-103715000D03*
X97605000Y-103715000D03*
X97605000Y-111335000D03*
X100145000Y-111335000D03*
X102685000Y-111335000D03*
X105225000Y-111335000D03*
X107765000Y-111335000D03*
X110305000Y-111335000D03*
X112845000Y-111335000D03*
X115385000Y-111335000D03*
X117925000Y-111335000D03*
X120465000Y-111335000D03*
X123005000Y-111335000D03*
X125545000Y-111335000D03*
X128085000Y-111335000D03*
X130625000Y-111335000D03*
%TD*%
D17*
%TO.C,U10*%
X143115000Y-76715000D03*
X140575000Y-76715000D03*
X138035000Y-76715000D03*
X135495000Y-76715000D03*
X132955000Y-76715000D03*
X130415000Y-76715000D03*
X127875000Y-76715000D03*
X125335000Y-76715000D03*
X122795000Y-76715000D03*
X120255000Y-76715000D03*
X117715000Y-76715000D03*
X115175000Y-76715000D03*
X112635000Y-76715000D03*
X110095000Y-76715000D03*
X107555000Y-76715000D03*
X105015000Y-76715000D03*
X102475000Y-76715000D03*
X99935000Y-76715000D03*
X99935000Y-91955000D03*
X102475000Y-91955000D03*
X105015000Y-91955000D03*
X107555000Y-91955000D03*
X110095000Y-91955000D03*
X112635000Y-91955000D03*
X115175000Y-91955000D03*
X117715000Y-91955000D03*
X120255000Y-91955000D03*
X122795000Y-91955000D03*
X125335000Y-91955000D03*
X127875000Y-91955000D03*
X130415000Y-91955000D03*
X132955000Y-91955000D03*
X135495000Y-91955000D03*
X138035000Y-91955000D03*
X140575000Y-91955000D03*
X143115000Y-91955000D03*
%TD*%
D22*
%TO.C,SW5*%
X137545000Y-128516000D03*
D23*
X137545000Y-133215000D03*
X137545000Y-123817000D03*
%TD*%
D24*
%TO.C,D1*%
X167000000Y-126690000D03*
D25*
X167000000Y-134310000D03*
%TD*%
D20*
%TO.C,U8*%
X130625000Y-57215000D03*
D21*
X128085000Y-57215000D03*
X125545000Y-57215000D03*
X123005000Y-57215000D03*
X120465000Y-57215000D03*
X117925000Y-57215000D03*
X115385000Y-57215000D03*
X112845000Y-57215000D03*
X110305000Y-57215000D03*
X107765000Y-57215000D03*
X105225000Y-57215000D03*
X102685000Y-57215000D03*
X100145000Y-57215000D03*
X97605000Y-57215000D03*
X97605000Y-64835000D03*
X100145000Y-64835000D03*
X102685000Y-64835000D03*
X105225000Y-64835000D03*
X107765000Y-64835000D03*
X110305000Y-64835000D03*
X112845000Y-64835000D03*
X115385000Y-64835000D03*
X117925000Y-64835000D03*
X120465000Y-64835000D03*
X123005000Y-64835000D03*
X125545000Y-64835000D03*
X128085000Y-64835000D03*
X130625000Y-64835000D03*
%TD*%
D17*
%TO.C,S3*%
X100045000Y-122500000D03*
X100045000Y-135000000D03*
X95045000Y-122500000D03*
X95045000Y-135000000D03*
%TD*%
%TO.C,S1*%
X115045000Y-122500000D03*
X115045000Y-135000000D03*
X110045000Y-122500000D03*
X110045000Y-135000000D03*
%TD*%
D10*
%TO.C,J3*%
X163000000Y-134025000D03*
D11*
X160460000Y-134025000D03*
%TD*%
M02*
