M48
; DRILL file {KiCad 8.0.3} date 2024-07-31T13:00:35+0100
; FORMAT={-:-/ absolute / inch / decimal}
; #@! TF.CreationDate,2024-07-31T13:00:35+01:00
; #@! TF.GenerationSoftware,Kicad,Pcbnew,8.0.3
; #@! TF.FileFunction,Plated,1,2,PTH
FMAT,2
INCH
; #@! TA.AperFunction,Plated,PTH,ViaDrill
T1C0.0118
; #@! TA.AperFunction,Plated,PTH,ViaDrill
T2C0.0197
; #@! TA.AperFunction,Plated,PTH,ComponentDrill
T3C0.0295
; #@! TA.AperFunction,Plated,PTH,ComponentDrill
T4C0.0300
; #@! TA.AperFunction,Plated,PTH,ComponentDrill
T5C0.0315
; #@! TA.AperFunction,Plated,PTH,ComponentDrill
T6C0.0354
; #@! TA.AperFunction,Plated,PTH,ComponentDrill
T7C0.0394
; #@! TA.AperFunction,Plated,PTH,ComponentDrill
T8C0.0591
; #@! TA.AperFunction,Plated,PTH,ComponentDrill
T9C0.0630
%
G90
G05
T1
X3.622Y-2.1063
X3.622Y-2.3425
X3.622Y-2.5984
X3.622Y-2.7756
X3.622Y-3.0512
X3.6417Y-4.6654
X3.6417Y-4.7441
X3.6417Y-4.8819
X3.6417Y-5.0591
X3.6417Y-5.2953
X3.6614Y-3.2677
X3.6614Y-3.4252
X3.7402Y-1.9488
X3.7598Y-2.126
X3.7992Y-2.8346
X3.8189Y-2.6378
X3.8189Y-3.0906
X3.8189Y-3.2874
X3.8189Y-3.6614
X3.8189Y-3.8386
X3.8189Y-3.9961
X3.8189Y-4.1929
X3.8189Y-4.311
X3.8386Y-2.3425
X3.8386Y-2.4606
X3.8386Y-4.8622
X3.8386Y-5.0197
X3.8386Y-5.1575
X3.8386Y-5.2756
X3.8976Y-4.4685
X3.9173Y-3.189
X3.9173Y-3.9764
X3.9173Y-4.1929
X3.9173Y-4.311
X3.937Y-3.3858
X3.937Y-3.7402
X3.9567Y-2.3425
X3.9567Y-3.3071
X3.9764Y-2.6575
X3.9764Y-2.815
X3.9764Y-3.5433
X3.9961Y-3.878
X3.9961Y-4.9803
X3.9961Y-5.0984
X3.9961Y-5.2362
X4.0157Y-2.4803
X4.0354Y-1.9488
X4.0354Y-2.126
X4.0354Y-4.2913
X4.0569Y-3.099
X4.0748Y-4.1535
X4.0748Y-4.4685
X4.0748Y-4.8622
X4.0766Y-3.7093
X4.1339Y-3.8189
X4.1339Y-3.9764
X4.1339Y-4.311
X4.1339Y-5.0
X4.1356Y-3.2959
X4.1535Y-2.1654
X4.1535Y-2.6575
X4.1535Y-2.815
X4.1535Y-4.1535
X4.1535Y-4.8819
X4.1553Y-2.9415
X4.1732Y-3.5433
X4.1831Y-3.0807
X4.1929Y-1.9882
X4.1929Y-4.4685
X4.2126Y-2.3425
X4.2126Y-2.4803
X4.2126Y-4.311
X4.252Y-4.8622
X4.252Y-5.0
X4.252Y-5.0984
X4.252Y-5.2657
X4.2717Y-2.0472
X4.2913Y-3.1693
X4.2931Y-3.414
X4.311Y-3.5433
X4.311Y-4.311
X4.3307Y-2.6575
X4.3307Y-2.815
X4.3504Y-2.3425
X4.3504Y-2.4803
X4.3504Y-3.0906
X4.3817Y-3.8963
X4.3898Y-3.9764
X4.3898Y-4.1732
X4.3898Y-4.4685
X4.3915Y-2.9415
X4.3915Y-3.2762
X4.4291Y-4.8622
X4.4291Y-5.0
X4.4291Y-5.1575
X4.4291Y-5.2657
X4.4488Y-2.0276
X4.4506Y-3.788
X4.4685Y-2.3425
X4.4685Y-2.4803
X4.4703Y-3.2087
X4.5079Y-2.8346
X4.5079Y-3.9764
X4.5079Y-4.5079
X4.5276Y-2.0472
X4.5276Y-3.7795
X4.5293Y-3.4337
X4.5293Y-3.5518
X4.5472Y-4.1732
X4.5472Y-4.311
X4.5571Y-4.5965
X4.5768Y-3.2087
X4.5866Y-2.0276
X4.6063Y-3.1102
X4.6063Y-3.9173
X4.6063Y-3.9764
X4.6063Y-4.5079
X4.6063Y-5.0197
X4.6063Y-5.1575
X4.6063Y-5.2756
X4.626Y-2.3228
X4.626Y-2.4606
X4.626Y-3.8189
X4.626Y-4.8622
X4.6278Y-3.3549
X4.6376Y-3.8569
X4.6399Y-2.0456
X4.6457Y-3.5433
X4.6654Y-2.7756
X4.6949Y-4.4291
X4.7146Y-3.8878
X4.7244Y-3.3858
X4.7244Y-3.5236
X4.7244Y-4.1732
X4.7244Y-4.311
X4.7262Y-2.41
X4.7441Y-2.4606
X4.7441Y-2.8543
X4.7441Y-3.1102
X4.7459Y-3.8608
X4.7539Y-2.7657
X4.7638Y-2.0079
X4.7638Y-3.2677
X4.8031Y-4.5079
X4.8049Y-3.9652
X4.813Y-3.7992
X4.813Y-4.872
X4.8228Y-3.4055
X4.8228Y-3.5433
X4.8228Y-5.0197
X4.8228Y-5.1575
X4.8228Y-5.2953
X4.8425Y-2.3228
X4.8425Y-2.4606
X4.8425Y-2.8543
X4.8425Y-3.8681
X4.8622Y-2.7756
X4.8622Y-3.189
X4.8622Y-4.1732
X4.8622Y-4.311
X4.896Y-2.2003
X4.8995Y-4.4488
X4.9213Y-2.8346
X4.9213Y-3.1102
X4.9213Y-3.3858
X4.9213Y-3.5236
X4.9409Y-2.3228
X4.9409Y-2.4606
X4.9606Y-2.7756
X4.9606Y-3.7402
X4.9624Y-3.8667
X4.9803Y-4.1732
X4.9803Y-4.311
X5.0Y-4.4488
X5.0Y-4.5079
X5.0Y-5.0197
X5.0Y-5.1575
X5.0Y-5.2953
X5.0018Y-3.9567
X5.0197Y-2.815
X5.0197Y-3.2283
X5.0197Y-4.8622
X5.0394Y-2.3228
X5.0394Y-2.4606
X5.0394Y-3.1102
X5.0394Y-3.3858
X5.0394Y-3.5236
X5.0411Y-3.7289
X5.0591Y-3.8386
X5.0984Y-2.5984
X5.0984Y-2.6772
X5.0984Y-4.4291
X5.0984Y-4.5079
X5.1181Y-3.9567
X5.1378Y-4.1732
X5.1378Y-4.311
X5.1575Y-2.4409
X5.1575Y-3.1102
X5.1575Y-3.2283
X5.1575Y-3.3858
X5.1575Y-3.5236
X5.1772Y-3.7795
X5.1772Y-4.9409
X5.1772Y-5.1378
X5.1772Y-5.2559
X5.1969Y-4.4291
X5.2165Y-5.3543
X5.2362Y-3.1299
X5.2362Y-4.5276
X5.238Y-4.4573
X5.2559Y-2.2244
X5.2756Y-2.3425
X5.2756Y-2.5
X5.2756Y-2.5984
X5.2756Y-4.9803
X5.2953Y-3.3858
X5.2953Y-3.7795
X5.2953Y-4.2717
X5.297Y-2.2722
X5.315Y-3.9567
X5.315Y-4.1142
X5.3167Y-2.6463
X5.3346Y-3.0906
X5.3346Y-3.2283
X5.3346Y-4.4882
X5.3346Y-4.8622
X5.3937Y-3.6811
X5.4134Y-2.9528
X5.4134Y-4.9606
X5.4134Y-5.1575
X5.4134Y-5.315
X5.4331Y-3.189
X5.4331Y-3.5433
X5.4528Y-1.9488
X5.4528Y-2.4409
X5.4528Y-2.6575
X5.4626Y-3.3465
X5.4724Y-2.2244
X5.4724Y-2.9134
X5.4724Y-3.9567
X5.4724Y-4.1142
X5.4724Y-4.2717
X5.4921Y-3.0906
X5.4921Y-3.7008
X5.4921Y-4.4882
X5.5118Y-3.8386
X5.5315Y-3.2677
X5.5315Y-3.4449
X5.5512Y-2.8937
X5.5807Y-4.3799
X5.5807Y-4.4193
X5.5906Y-2.3622
X5.5906Y-4.2618
X5.5906Y-4.5472
X5.6102Y-1.9685
X5.6102Y-2.0866
X5.6102Y-4.2323
X5.6102Y-4.8524
X5.6102Y-5.2067
X5.6299Y-2.6181
X5.6299Y-3.7205
X5.6299Y-4.9409
X5.6299Y-5.1181
X5.6299Y-5.315
X5.6496Y-3.8386
X5.6496Y-4.2224
X5.6496Y-4.4094
X5.6575Y-4.4734
X5.6693Y-2.7559
X5.6693Y-3.0906
X5.6693Y-3.2677
X5.6693Y-3.4449
X5.689Y-3.563
X5.6988Y-4.5374
X5.7087Y-4.8524
X5.7185Y-4.9803
X5.7283Y-4.252
X5.7283Y-4.3898
X5.7283Y-5.0394
X5.7302Y-4.2908
X5.7382Y-4.2126
X5.748Y-4.3254
X5.748Y-4.4488
X5.748Y-5.2362
X5.7579Y-5.0689
X5.7677Y-3.8386
X5.7677Y-5.0984
X5.7776Y-2.4016
X5.7776Y-3.9173
X5.7874Y-2.3031
X5.7874Y-4.0748
X5.7874Y-4.6457
X5.7874Y-4.8524
X5.7972Y-4.4685
X5.8071Y-1.9488
X5.8071Y-2.185
X5.8268Y-2.5295
X5.8268Y-5.3346
X5.8522Y-4.2523
X5.8563Y-4.3012
X5.8661Y-2.6378
X5.8661Y-2.7953
X5.876Y-4.5472
X5.8858Y-4.3504
X5.8957Y-4.1535
X5.8957Y-4.252
X5.8957Y-4.9508
X5.8957Y-5.0098
X5.8957Y-5.0591
X5.8957Y-5.0984
X5.8957Y-5.187
X5.9252Y-4.1142
X5.9449Y-4.4291
X5.9547Y-2.313
X5.9547Y-4.1535
X5.9547Y-4.311
X5.9646Y-2.0276
X5.9646Y-2.1063
X5.9663Y-4.536
X5.9886Y-4.5583
X6.0039Y-5.2165
X6.0039Y-5.315
X6.0236Y-5.0
X6.0276Y-4.2362
X6.0335Y-4.311
X6.0335Y-4.4193
X6.063Y-1.9488
X6.063Y-4.1142
X6.0827Y-4.9016
X6.1024Y-5.3346
X6.122Y-4.8031
X6.1319Y-4.6063
X6.1376Y-4.0859
X6.1417Y-2.3425
X6.1417Y-3.6614
X6.1417Y-3.8386
X6.1417Y-4.1339
X6.1417Y-4.1693
X6.1417Y-4.3898
X6.1417Y-4.5472
X6.1567Y-3.0465
X6.1614Y-2.1063
X6.1614Y-2.2047
X6.1614Y-2.4803
X6.1614Y-3.3071
X6.1614Y-3.4646
X6.1614Y-4.2913
X6.1614Y-5.0886
X6.1772Y-4.4291
X6.1811Y-3.9567
X6.1811Y-4.1043
X6.1829Y-4.3686
X6.2402Y-3.0906
X6.2402Y-5.0591
X6.2992Y-2.1063
X6.2992Y-2.2047
X6.2992Y-2.3425
X6.2992Y-5.1969
X6.3189Y-1.9488
X6.3189Y-2.9331
X6.3189Y-3.7992
X6.3386Y-4.0945
X6.3386Y-4.8622
X6.3484Y-4.2224
X6.3484Y-4.3307
X6.3583Y-4.7244
X6.378Y-4.1535
X6.3976Y-3.937
X6.4173Y-3.0906
X6.4173Y-3.3071
X6.4173Y-3.4646
X6.4173Y-4.4882
X6.4173Y-4.6457
X6.437Y-2.1063
X6.437Y-2.2047
X6.4567Y-2.7953
X6.4567Y-3.7402
X6.4567Y-5.1772
X6.4764Y-4.2717
X6.4961Y-2.6378
X6.5551Y-5.1772
X6.5748Y-1.9488
X6.5748Y-4.4882
X6.5748Y-4.6654
X6.5748Y-4.8622
X6.5945Y-3.0906
X6.5945Y-3.3071
X6.5945Y-3.4646
X6.5945Y-4.1142
X6.6142Y-2.7953
X6.6142Y-2.9528
X6.6142Y-4.2717
X6.6142Y-5.1772
T2
X4.3701Y-3.7992
T3
X6.3065Y-4.9781
X6.3065Y-5.0281
X6.3065Y-5.0781
T4
X3.7419Y-4.8228
X3.7419Y-5.315
X3.9344Y-3.0203
X3.9344Y-3.6203
X3.9388Y-4.8228
X3.9388Y-5.315
X4.0344Y-3.0203
X4.0344Y-3.6203
X4.1344Y-3.0203
X4.1344Y-3.6203
X4.2344Y-3.0203
X4.2344Y-3.6203
X4.3325Y-4.8228
X4.3325Y-5.315
X4.3344Y-3.0203
X4.3344Y-3.6203
X4.4344Y-3.0203
X4.4344Y-3.6203
X4.5293Y-4.8228
X4.5293Y-5.315
X4.5344Y-3.0203
X4.5344Y-3.6203
X4.6344Y-3.0203
X4.6344Y-3.6203
X4.7344Y-3.0203
X4.7344Y-3.6203
X4.8344Y-3.0203
X4.8344Y-3.6203
X4.9033Y-4.8327
X4.9033Y-5.3248
X4.9344Y-3.0203
X4.9344Y-3.6203
X5.0344Y-3.0203
X5.0344Y-3.6203
X5.1002Y-4.8327
X5.1002Y-5.3248
X5.1344Y-3.0203
X5.1344Y-3.6203
X5.2344Y-3.0203
X5.2344Y-3.6203
X5.3344Y-3.0203
X5.3344Y-3.6203
X5.4344Y-3.0203
X5.4344Y-3.6203
X5.5344Y-3.0203
X5.5344Y-3.6203
X5.6344Y-3.0203
X5.6344Y-3.6203
X5.8285Y-4.9888
X5.8285Y-5.0675
X5.8285Y-5.1463
X5.8285Y-5.225
T5
X3.8427Y-2.2526
X3.8427Y-2.5526
X3.8427Y-4.0833
X3.8427Y-4.3833
X3.9427Y-2.2526
X3.9427Y-2.5526
X3.9427Y-4.0833
X3.9427Y-4.3833
X4.0427Y-2.2526
X4.0427Y-2.5526
X4.0427Y-4.0833
X4.0427Y-4.3833
X4.1427Y-2.2526
X4.1427Y-2.5526
X4.1427Y-4.0833
X4.1427Y-4.3833
X4.2427Y-2.2526
X4.2427Y-2.5526
X4.2427Y-4.0833
X4.2427Y-4.3833
X4.3427Y-2.2526
X4.3427Y-2.5526
X4.3427Y-4.0833
X4.3427Y-4.3833
X4.4427Y-2.2526
X4.4427Y-2.5526
X4.4427Y-4.0833
X4.4427Y-4.3833
X4.5427Y-2.2526
X4.5427Y-2.5526
X4.5427Y-4.0833
X4.5427Y-4.3833
X4.6427Y-2.2526
X4.6427Y-2.5526
X4.6427Y-4.0833
X4.6427Y-4.3833
X4.7427Y-2.2526
X4.7427Y-2.5526
X4.7427Y-4.0833
X4.7427Y-4.3833
X4.8427Y-2.2526
X4.8427Y-2.5526
X4.8427Y-4.0833
X4.8427Y-4.3833
X4.9427Y-2.2526
X4.9427Y-2.5526
X4.9427Y-4.0833
X4.9427Y-4.3833
X5.0427Y-2.2526
X5.0427Y-2.5526
X5.0427Y-4.0833
X5.0427Y-4.3833
X5.1427Y-2.2526
X5.1427Y-2.5526
X5.1427Y-4.0833
X5.1427Y-4.3833
X5.4152Y-4.8747
X5.4152Y-5.0597
X5.4152Y-5.2447
X6.0493Y-2.0718
X6.0493Y-2.1505
X6.0493Y-2.2292
X6.0493Y-2.308
X6.0493Y-2.3867
X6.0493Y-2.4655
X6.0493Y-2.5442
X6.0493Y-2.6229
X6.5847Y-2.0718
X6.5847Y-2.1505
X6.5847Y-2.2292
X6.5847Y-2.308
X6.5847Y-2.3867
X6.5847Y-2.4655
X6.5847Y-2.5442
X6.5847Y-2.6229
T6
X6.5748Y-4.9878
X6.5748Y-5.2878
T7
X6.3173Y-5.2766
X6.4173Y-5.2766
X6.5569Y-3.5455
X6.5569Y-3.6455
X6.5569Y-3.7455
X6.5569Y-3.8455
X6.5569Y-3.9455
T8
X5.8076Y-2.0754
T9
X5.7115Y-1.9724
X5.7115Y-2.1724
X5.9115Y-1.9724
X5.9115Y-2.1724
M30
