%TF.GenerationSoftware,KiCad,Pcbnew,8.0.3*%
%TF.CreationDate,2024-07-31T08:37:56+01:00*%
%TF.ProjectId,controller,636f6e74-726f-46c6-9c65-722e6b696361,rev?*%
%TF.SameCoordinates,Original*%
%TF.FileFunction,Soldermask,Top*%
%TF.FilePolarity,Negative*%
%FSLAX46Y46*%
G04 Gerber Fmt 4.6, Leading zero omitted, Abs format (unit mm)*
G04 Created by KiCad (PCBNEW 8.0.3) date 2024-07-31 08:37:56*
%MOMM*%
%LPD*%
G01*
G04 APERTURE LIST*
G04 Aperture macros list*
%AMRoundRect*
0 Rectangle with rounded corners*
0 $1 Rounding radius*
0 $2 $3 $4 $5 $6 $7 $8 $9 X,Y pos of 4 corners*
0 Add a 4 corners polygon primitive as box body*
4,1,4,$2,$3,$4,$5,$6,$7,$8,$9,$2,$3,0*
0 Add four circle primitives for the rounded corners*
1,1,$1+$1,$2,$3*
1,1,$1+$1,$4,$5*
1,1,$1+$1,$6,$7*
1,1,$1+$1,$8,$9*
0 Add four rect primitives between the rounded corners*
20,1,$1+$1,$2,$3,$4,$5,0*
20,1,$1+$1,$4,$5,$6,$7,0*
20,1,$1+$1,$6,$7,$8,$9,0*
20,1,$1+$1,$8,$9,$2,$3,0*%
G04 Aperture macros list end*
%ADD10RoundRect,0.250000X0.450000X-0.350000X0.450000X0.350000X-0.450000X0.350000X-0.450000X-0.350000X0*%
%ADD11R,1.700000X1.700000*%
%ADD12O,1.700000X1.700000*%
%ADD13RoundRect,0.250000X-0.450000X0.350000X-0.450000X-0.350000X0.450000X-0.350000X0.450000X0.350000X0*%
%ADD14RoundRect,0.250000X0.450000X-0.325000X0.450000X0.325000X-0.450000X0.325000X-0.450000X-0.325000X0*%
%ADD15RoundRect,0.250000X-0.337500X-0.475000X0.337500X-0.475000X0.337500X0.475000X-0.337500X0.475000X0*%
%ADD16RoundRect,0.250000X-0.475000X0.337500X-0.475000X-0.337500X0.475000X-0.337500X0.475000X0.337500X0*%
%ADD17RoundRect,0.250000X0.337500X0.475000X-0.337500X0.475000X-0.337500X-0.475000X0.337500X-0.475000X0*%
%ADD18R,1.500000X1.050000*%
%ADD19O,1.500000X1.050000*%
%ADD20C,2.600000*%
%ADD21C,2.500000*%
%ADD22RoundRect,0.250000X0.475000X-0.337500X0.475000X0.337500X-0.475000X0.337500X-0.475000X-0.337500X0*%
%ADD23R,1.524000X1.524000*%
%ADD24C,1.524000*%
%ADD25RoundRect,0.250000X-0.450000X0.325000X-0.450000X-0.325000X0.450000X-0.325000X0.450000X0.325000X0*%
%ADD26R,1.350000X1.350000*%
%ADD27C,1.350000*%
%ADD28R,1.600000X1.600000*%
%ADD29O,1.600000X1.600000*%
%ADD30RoundRect,0.075000X-0.700000X-0.075000X0.700000X-0.075000X0.700000X0.075000X-0.700000X0.075000X0*%
%ADD31RoundRect,0.075000X-0.075000X-0.700000X0.075000X-0.700000X0.075000X0.700000X-0.075000X0.700000X0*%
%ADD32R,1.500000X1.500000*%
%ADD33C,1.600000*%
%ADD34R,1.800000X1.800000*%
%ADD35O,1.800000X1.800000*%
G04 APERTURE END LIST*
D10*
%TO.C,R33*%
X113265000Y-115515000D03*
X113265000Y-113515000D03*
%TD*%
D11*
%TO.C,J1*%
X166545000Y-100215000D03*
D12*
X166545000Y-97675000D03*
X166545000Y-95135000D03*
X166545000Y-92595000D03*
X166545000Y-90055000D03*
%TD*%
D10*
%TO.C,R7*%
X140545000Y-126215000D03*
X140545000Y-124215000D03*
%TD*%
D13*
%TO.C,R35*%
X115665000Y-99715000D03*
X115665000Y-101715000D03*
%TD*%
D14*
%TO.C,D6*%
X140545000Y-122265000D03*
X140545000Y-120215000D03*
%TD*%
D15*
%TO.C,C10*%
X148925000Y-60750000D03*
X151000000Y-60750000D03*
%TD*%
D13*
%TO.C,R14*%
X120725000Y-67015000D03*
X120725000Y-69015000D03*
%TD*%
D15*
%TO.C,C7*%
X142425000Y-109715000D03*
X144500000Y-109715000D03*
%TD*%
D16*
%TO.C,C2*%
X157185000Y-130870000D03*
X157185000Y-132945000D03*
%TD*%
D17*
%TO.C,C5*%
X160620000Y-114715000D03*
X158545000Y-114715000D03*
%TD*%
D18*
%TO.C,U6*%
X160185000Y-126445000D03*
D19*
X160185000Y-127715000D03*
X160185000Y-128985000D03*
%TD*%
D10*
%TO.C,R27*%
X128265000Y-115515000D03*
X128265000Y-113515000D03*
%TD*%
D13*
%TO.C,R16*%
X115725000Y-67015000D03*
X115725000Y-69015000D03*
%TD*%
D20*
%TO.C,J2*%
X150152500Y-55180000D03*
X150152500Y-50100000D03*
X145072500Y-55180000D03*
X145072500Y-50100000D03*
D21*
X147512500Y-52715000D03*
%TD*%
D13*
%TO.C,R36*%
X118265000Y-99715000D03*
X118265000Y-101715000D03*
%TD*%
D22*
%TO.C,C8*%
X151045000Y-118752500D03*
X151045000Y-116677500D03*
%TD*%
D10*
%TO.C,R32*%
X115665000Y-115515000D03*
X115665000Y-113515000D03*
%TD*%
%TO.C,R31*%
X118265000Y-115515000D03*
X118265000Y-113515000D03*
%TD*%
D23*
%TO.C,U1*%
X148045000Y-126715000D03*
D24*
X148045000Y-128715000D03*
X148045000Y-130715000D03*
X148045000Y-132715000D03*
%TD*%
D13*
%TO.C,R41*%
X131265000Y-99715000D03*
X131265000Y-101715000D03*
%TD*%
%TO.C,R15*%
X118225000Y-67015000D03*
X118225000Y-69015000D03*
%TD*%
D16*
%TO.C,C4*%
X159545000Y-100640000D03*
X159545000Y-102715000D03*
%TD*%
D25*
%TO.C,D4*%
X105045000Y-132665000D03*
X105045000Y-134715000D03*
%TD*%
D10*
%TO.C,R26*%
X130665000Y-115515000D03*
X130665000Y-113515000D03*
%TD*%
D25*
%TO.C,D5*%
X140545000Y-132966000D03*
X140545000Y-135016000D03*
%TD*%
D13*
%TO.C,R10*%
X130725000Y-67015000D03*
X130725000Y-69015000D03*
%TD*%
D10*
%TO.C,R3*%
X119795000Y-130715000D03*
X119795000Y-128715000D03*
%TD*%
D26*
%TO.C,U5*%
X167252500Y-66622500D03*
D27*
X167252500Y-64622500D03*
X167252500Y-62622500D03*
X167252500Y-60622500D03*
X167252500Y-58622500D03*
X167252500Y-56622500D03*
X167252500Y-54622500D03*
X167252500Y-52622500D03*
X153652500Y-52622500D03*
X153652500Y-54622500D03*
X153652500Y-56622500D03*
X153652500Y-58622500D03*
X153652500Y-60622500D03*
X153652500Y-62622500D03*
X153652500Y-64622500D03*
X153652500Y-66622500D03*
%TD*%
D13*
%TO.C,R6*%
X140545000Y-129016000D03*
X140545000Y-131016000D03*
%TD*%
D24*
%TO.C,S2*%
X129545000Y-122750000D03*
X129545000Y-135250000D03*
X124545000Y-122750000D03*
X124545000Y-135250000D03*
%TD*%
D16*
%TO.C,C3*%
X157185000Y-125445000D03*
X157185000Y-127520000D03*
%TD*%
D10*
%TO.C,R19*%
X115725000Y-55215000D03*
X115725000Y-53215000D03*
%TD*%
%TO.C,R25*%
X130725000Y-55215000D03*
X130725000Y-53215000D03*
%TD*%
D28*
%TO.C,U9*%
X130625000Y-103715000D03*
D29*
X128085000Y-103715000D03*
X125545000Y-103715000D03*
X123005000Y-103715000D03*
X120465000Y-103715000D03*
X117925000Y-103715000D03*
X115385000Y-103715000D03*
X112845000Y-103715000D03*
X110305000Y-103715000D03*
X107765000Y-103715000D03*
X105225000Y-103715000D03*
X102685000Y-103715000D03*
X100145000Y-103715000D03*
X97605000Y-103715000D03*
X97605000Y-111335000D03*
X100145000Y-111335000D03*
X102685000Y-111335000D03*
X105225000Y-111335000D03*
X107765000Y-111335000D03*
X110305000Y-111335000D03*
X112845000Y-111335000D03*
X115385000Y-111335000D03*
X117925000Y-111335000D03*
X120465000Y-111335000D03*
X123005000Y-111335000D03*
X125545000Y-111335000D03*
X128085000Y-111335000D03*
X130625000Y-111335000D03*
%TD*%
D25*
%TO.C,D3*%
X134545000Y-132690000D03*
X134545000Y-134740000D03*
%TD*%
D15*
%TO.C,C9*%
X142425000Y-105215000D03*
X144500000Y-105215000D03*
%TD*%
D13*
%TO.C,R12*%
X125725000Y-67015000D03*
X125725000Y-69015000D03*
%TD*%
D10*
%TO.C,R22*%
X123225000Y-55215000D03*
X123225000Y-53215000D03*
%TD*%
D13*
%TO.C,R37*%
X120765000Y-99715000D03*
X120765000Y-101715000D03*
%TD*%
D10*
%TO.C,R23*%
X125725000Y-55215000D03*
X125725000Y-53215000D03*
%TD*%
%TO.C,R4*%
X134545000Y-130740000D03*
X134545000Y-128740000D03*
%TD*%
D30*
%TO.C,U4*%
X147370000Y-104465000D03*
X147370000Y-104965000D03*
X147370000Y-105465000D03*
X147370000Y-105965000D03*
X147370000Y-106465000D03*
X147370000Y-106965000D03*
X147370000Y-107465000D03*
X147370000Y-107965000D03*
X147370000Y-108465000D03*
X147370000Y-108965000D03*
X147370000Y-109465000D03*
X147370000Y-109965000D03*
X147370000Y-110465000D03*
X147370000Y-110965000D03*
X147370000Y-111465000D03*
X147370000Y-111965000D03*
D31*
X149295000Y-113890000D03*
X149795000Y-113890000D03*
X150295000Y-113890000D03*
X150795000Y-113890000D03*
X151295000Y-113890000D03*
X151795000Y-113890000D03*
X152295000Y-113890000D03*
X152795000Y-113890000D03*
X153295000Y-113890000D03*
X153795000Y-113890000D03*
X154295000Y-113890000D03*
X154795000Y-113890000D03*
X155295000Y-113890000D03*
X155795000Y-113890000D03*
X156295000Y-113890000D03*
X156795000Y-113890000D03*
D30*
X158720000Y-111965000D03*
X158720000Y-111465000D03*
X158720000Y-110965000D03*
X158720000Y-110465000D03*
X158720000Y-109965000D03*
X158720000Y-109465000D03*
X158720000Y-108965000D03*
X158720000Y-108465000D03*
X158720000Y-107965000D03*
X158720000Y-107465000D03*
X158720000Y-106965000D03*
X158720000Y-106465000D03*
X158720000Y-105965000D03*
X158720000Y-105465000D03*
X158720000Y-104965000D03*
X158720000Y-104465000D03*
D31*
X156795000Y-102540000D03*
X156295000Y-102540000D03*
X155795000Y-102540000D03*
X155295000Y-102540000D03*
X154795000Y-102540000D03*
X154295000Y-102540000D03*
X153795000Y-102540000D03*
X153295000Y-102540000D03*
X152795000Y-102540000D03*
X152295000Y-102540000D03*
X151795000Y-102540000D03*
X151295000Y-102540000D03*
X150795000Y-102540000D03*
X150295000Y-102540000D03*
X149795000Y-102540000D03*
X149295000Y-102540000D03*
%TD*%
D24*
%TO.C,U10*%
X143115000Y-76715000D03*
X140575000Y-76715000D03*
X138035000Y-76715000D03*
X135495000Y-76715000D03*
X132955000Y-76715000D03*
X130415000Y-76715000D03*
X127875000Y-76715000D03*
X125335000Y-76715000D03*
X122795000Y-76715000D03*
X120255000Y-76715000D03*
X117715000Y-76715000D03*
X115175000Y-76715000D03*
X112635000Y-76715000D03*
X110095000Y-76715000D03*
X107555000Y-76715000D03*
X105015000Y-76715000D03*
X102475000Y-76715000D03*
X99935000Y-76715000D03*
X99935000Y-91955000D03*
X102475000Y-91955000D03*
X105015000Y-91955000D03*
X107555000Y-91955000D03*
X110095000Y-91955000D03*
X112635000Y-91955000D03*
X115175000Y-91955000D03*
X117715000Y-91955000D03*
X120255000Y-91955000D03*
X122795000Y-91955000D03*
X125335000Y-91955000D03*
X127875000Y-91955000D03*
X130415000Y-91955000D03*
X132955000Y-91955000D03*
X135495000Y-91955000D03*
X138035000Y-91955000D03*
X140575000Y-91955000D03*
X143115000Y-91955000D03*
%TD*%
D13*
%TO.C,R40*%
X128665000Y-99715000D03*
X128665000Y-101715000D03*
%TD*%
D10*
%TO.C,R5*%
X105045000Y-130715000D03*
X105045000Y-128715000D03*
%TD*%
%TO.C,R21*%
X120725000Y-55215000D03*
X120725000Y-53215000D03*
%TD*%
D13*
%TO.C,R34*%
X113265000Y-99715000D03*
X113265000Y-101715000D03*
%TD*%
D32*
%TO.C,SW5*%
X137545000Y-128516000D03*
D33*
X137545000Y-133215000D03*
X137545000Y-123817000D03*
%TD*%
D10*
%TO.C,R9*%
X150545000Y-100215000D03*
X150545000Y-98215000D03*
%TD*%
D13*
%TO.C,R13*%
X123125000Y-67015000D03*
X123125000Y-69015000D03*
%TD*%
D34*
%TO.C,D1*%
X167000000Y-126690000D03*
D35*
X167000000Y-134310000D03*
%TD*%
D10*
%TO.C,R2*%
X123265000Y-115515000D03*
X123265000Y-113515000D03*
%TD*%
D15*
%TO.C,C12*%
X107470000Y-100715000D03*
X109545000Y-100715000D03*
%TD*%
D10*
%TO.C,R1*%
X125765000Y-115515000D03*
X125765000Y-113515000D03*
%TD*%
%TO.C,R30*%
X120665000Y-115515000D03*
X120665000Y-113515000D03*
%TD*%
%TO.C,R24*%
X128225000Y-55215000D03*
X128225000Y-53215000D03*
%TD*%
D13*
%TO.C,R17*%
X113225000Y-67015000D03*
X113225000Y-69015000D03*
%TD*%
D28*
%TO.C,U8*%
X130625000Y-57215000D03*
D29*
X128085000Y-57215000D03*
X125545000Y-57215000D03*
X123005000Y-57215000D03*
X120465000Y-57215000D03*
X117925000Y-57215000D03*
X115385000Y-57215000D03*
X112845000Y-57215000D03*
X110305000Y-57215000D03*
X107765000Y-57215000D03*
X105225000Y-57215000D03*
X102685000Y-57215000D03*
X100145000Y-57215000D03*
X97605000Y-57215000D03*
X97605000Y-64835000D03*
X100145000Y-64835000D03*
X102685000Y-64835000D03*
X105225000Y-64835000D03*
X107765000Y-64835000D03*
X110305000Y-64835000D03*
X112845000Y-64835000D03*
X115385000Y-64835000D03*
X117925000Y-64835000D03*
X120465000Y-64835000D03*
X123005000Y-64835000D03*
X125545000Y-64835000D03*
X128085000Y-64835000D03*
X130625000Y-64835000D03*
%TD*%
D25*
%TO.C,D2*%
X119795000Y-132665000D03*
X119795000Y-134715000D03*
%TD*%
D24*
%TO.C,S3*%
X100045000Y-122500000D03*
X100045000Y-135000000D03*
X95045000Y-122500000D03*
X95045000Y-135000000D03*
%TD*%
D10*
%TO.C,R18*%
X113125000Y-55215000D03*
X113125000Y-53215000D03*
%TD*%
D24*
%TO.C,S1*%
X115045000Y-122500000D03*
X115045000Y-135000000D03*
X110045000Y-122500000D03*
X110045000Y-135000000D03*
%TD*%
D10*
%TO.C,R20*%
X118125000Y-55215000D03*
X118125000Y-53215000D03*
%TD*%
D13*
%TO.C,R38*%
X123265000Y-99715000D03*
X123265000Y-101715000D03*
%TD*%
D15*
%TO.C,C6*%
X145470000Y-101715000D03*
X147545000Y-101715000D03*
%TD*%
D13*
%TO.C,R11*%
X128125000Y-67015000D03*
X128125000Y-69015000D03*
%TD*%
D11*
%TO.C,J3*%
X163000000Y-134025000D03*
D12*
X160460000Y-134025000D03*
%TD*%
D13*
%TO.C,R39*%
X125765000Y-99715000D03*
X125765000Y-101715000D03*
%TD*%
D16*
%TO.C,C14*%
X110045000Y-52715000D03*
X110045000Y-54790000D03*
%TD*%
%TO.C,C1*%
X163545000Y-90140000D03*
X163545000Y-92215000D03*
%TD*%
M02*
