%TF.GenerationSoftware,KiCad,Pcbnew,8.0.3*%
%TF.CreationDate,2024-08-01T08:22:56+01:00*%
%TF.ProjectId,controller,636f6e74-726f-46c6-9c65-722e6b696361,rev?*%
%TF.SameCoordinates,Original*%
%TF.FileFunction,Copper,L2,Bot*%
%TF.FilePolarity,Positive*%
%FSLAX46Y46*%
G04 Gerber Fmt 4.6, Leading zero omitted, Abs format (unit mm)*
G04 Created by KiCad (PCBNEW 8.0.3) date 2024-08-01 08:22:56*
%MOMM*%
%LPD*%
G01*
G04 APERTURE LIST*
%TA.AperFunction,ComponentPad*%
%ADD10R,1.600000X1.600000*%
%TD*%
%TA.AperFunction,ComponentPad*%
%ADD11O,1.600000X1.600000*%
%TD*%
%TA.AperFunction,ComponentPad*%
%ADD12C,2.600000*%
%TD*%
%TA.AperFunction,ComponentPad*%
%ADD13C,2.500000*%
%TD*%
%TA.AperFunction,ComponentPad*%
%ADD14C,1.600000*%
%TD*%
%TA.AperFunction,ComponentPad*%
%ADD15R,1.700000X1.700000*%
%TD*%
%TA.AperFunction,ComponentPad*%
%ADD16O,1.700000X1.700000*%
%TD*%
%TA.AperFunction,ComponentPad*%
%ADD17R,1.800000X1.400000*%
%TD*%
%TA.AperFunction,ComponentPad*%
%ADD18O,1.800000X1.400000*%
%TD*%
%TA.AperFunction,ComponentPad*%
%ADD19R,2.000000X2.000000*%
%TD*%
%TA.AperFunction,ComponentPad*%
%ADD20C,2.000000*%
%TD*%
%TA.AperFunction,ComponentPad*%
%ADD21R,1.350000X1.350000*%
%TD*%
%TA.AperFunction,ComponentPad*%
%ADD22C,1.350000*%
%TD*%
%TA.AperFunction,ComponentPad*%
%ADD23R,1.800000X1.800000*%
%TD*%
%TA.AperFunction,ComponentPad*%
%ADD24O,1.800000X1.800000*%
%TD*%
%TA.AperFunction,ComponentPad*%
%ADD25R,1.500000X1.300000*%
%TD*%
%TA.AperFunction,ComponentPad*%
%ADD26O,1.500000X1.300000*%
%TD*%
%TA.AperFunction,ComponentPad*%
%ADD27R,2.000000X1.905000*%
%TD*%
%TA.AperFunction,ComponentPad*%
%ADD28O,2.000000X1.905000*%
%TD*%
%TA.AperFunction,ComponentPad*%
%ADD29R,2.400000X2.400000*%
%TD*%
%TA.AperFunction,ComponentPad*%
%ADD30C,2.400000*%
%TD*%
%TA.AperFunction,ViaPad*%
%ADD31C,0.600000*%
%TD*%
%TA.AperFunction,ViaPad*%
%ADD32C,1.000000*%
%TD*%
%TA.AperFunction,Conductor*%
%ADD33C,0.200000*%
%TD*%
%TA.AperFunction,Conductor*%
%ADD34C,0.500000*%
%TD*%
G04 APERTURE END LIST*
D10*
%TO.P,U1,1,EN1\u002C2*%
%TO.N,DC_MOTOR_EN1_2*%
X74970000Y-75845000D03*
D11*
%TO.P,U1,2,1A*%
%TO.N,DC_MOTOR1*%
X77510000Y-75845000D03*
%TO.P,U1,3,1Y*%
%TO.N,Net-(M2-+)*%
X80050000Y-75845000D03*
%TO.P,U1,4,GND*%
%TO.N,GND*%
X82590000Y-75845000D03*
%TO.P,U1,5,GND*%
X85130000Y-75845000D03*
%TO.P,U1,6,2Y*%
%TO.N,Net-(M2--)*%
X87670000Y-75845000D03*
%TO.P,U1,7,2A*%
%TO.N,DC_MOTOR2*%
X90210000Y-75845000D03*
%TO.P,U1,8,VCC2*%
%TO.N,+BATT*%
X92750000Y-75845000D03*
%TO.P,U1,9,EN3\u002C4*%
%TO.N,DC_MOTOR_EN3_4*%
X92750000Y-68225000D03*
%TO.P,U1,10,3A*%
%TO.N,DC_MOTOR3*%
X90210000Y-68225000D03*
%TO.P,U1,11,3Y*%
%TO.N,Net-(M1-+)*%
X87670000Y-68225000D03*
%TO.P,U1,12,GND*%
%TO.N,GND*%
X85130000Y-68225000D03*
%TO.P,U1,13,GND*%
X82590000Y-68225000D03*
%TO.P,U1,14,4Y*%
%TO.N,Net-(M1--)*%
X80050000Y-68225000D03*
%TO.P,U1,15,4A*%
%TO.N,DC_MOTOR4*%
X77510000Y-68225000D03*
%TO.P,U1,16,VCC1*%
%TO.N,+6V*%
X74970000Y-68225000D03*
%TD*%
D12*
%TO.P,J1,1*%
%TO.N,GND*%
X127670000Y-110535000D03*
X127670000Y-115615000D03*
X132750000Y-110535000D03*
X132750000Y-115615000D03*
D13*
%TO.P,J1,2*%
%TO.N,Net-(U4-ANT)*%
X130310000Y-113000000D03*
%TD*%
D10*
%TO.P,C4,1*%
%TO.N,Net-(C4-Pad1)*%
X125500000Y-79426041D03*
D14*
%TO.P,C4,2*%
%TO.N,Net-(U5-COMPENSATION)*%
X125500000Y-77426041D03*
%TD*%
D15*
%TO.P,J3,1,+*%
%TO.N,Net-(D14-A)*%
X124750000Y-63475000D03*
D16*
%TO.P,J3,2,-*%
%TO.N,GND*%
X127290000Y-63475000D03*
%TD*%
D17*
%TO.P,U5,1,FEEDBACK*%
%TO.N,Net-(U5-FEEDBACK)*%
X131945000Y-85549811D03*
D18*
%TO.P,U5,2,OUTPUT*%
%TO.N,Net-(D1-K)*%
X131945000Y-83649811D03*
%TO.P,U5,3,GND*%
%TO.N,GND*%
X131945000Y-81749811D03*
%TO.P,U5,4,INPUT*%
%TO.N,Net-(U5-INPUT)*%
X131945000Y-79849811D03*
%TO.P,U5,5,COMPENSATION*%
%TO.N,Net-(U5-COMPENSATION)*%
X131945000Y-77949811D03*
%TD*%
D15*
%TO.P,M3,1*%
%TO.N,Net-(U3-1Y)*%
X65880000Y-88685000D03*
D16*
%TO.P,M3,2,-*%
%TO.N,Net-(M3--)*%
X65880000Y-86145000D03*
%TO.P,M3,3*%
%TO.N,Net-(U3-3Y)*%
X65880000Y-83605000D03*
%TO.P,M3,4*%
%TO.N,Net-(U3-4Y)*%
X65880000Y-81065000D03*
%TD*%
D10*
%TO.P,C6,1*%
%TO.N,Net-(U5-INPUT)*%
X128000000Y-73000000D03*
D14*
%TO.P,C6,2*%
%TO.N,GND*%
X128000000Y-69500000D03*
%TD*%
D15*
%TO.P,J2,1,Pin_1*%
%TO.N,+3V3*%
X101040000Y-117525000D03*
D16*
%TO.P,J2,2,Pin_2*%
%TO.N,/mcu/SWCLK*%
X98500000Y-117525000D03*
%TO.P,J2,3,Pin_3*%
%TO.N,/mcu/SWDIO*%
X95960000Y-117525000D03*
%TO.P,J2,4,Pin_4*%
%TO.N,/mcu/RESET*%
X93420000Y-117525000D03*
%TO.P,J2,5,Pin_5*%
%TO.N,GND*%
X90880000Y-117525000D03*
%TD*%
D10*
%TO.P,C19,1*%
%TO.N,+BATT*%
X94380000Y-88174657D03*
D14*
%TO.P,C19,2*%
%TO.N,GND*%
X94380000Y-86174657D03*
%TD*%
D19*
%TO.P,M2,1,+*%
%TO.N,Net-(M2-+)*%
X67845000Y-75085000D03*
D20*
%TO.P,M2,2,-*%
%TO.N,Net-(M2--)*%
X67845000Y-72545000D03*
%TD*%
D21*
%TO.P,U4,1,GND*%
%TO.N,GND*%
X149750000Y-99400000D03*
D22*
%TO.P,U4,2,MISO*%
%TO.N,MISO*%
X147750000Y-99400000D03*
%TO.P,U4,3,MOSI*%
%TO.N,MOSI*%
X145750000Y-99400000D03*
%TO.P,U4,4,SCK*%
%TO.N,SCK*%
X143750000Y-99400000D03*
%TO.P,U4,5,NSS*%
%TO.N,NSS*%
X141750000Y-99400000D03*
%TO.P,U4,6,RESET*%
%TO.N,RESET_RADIO*%
X139750000Y-99400000D03*
%TO.P,U4,7,DIO5*%
%TO.N,unconnected-(U4-DIO5-Pad7)*%
X137750000Y-99400000D03*
%TO.P,U4,8,GND*%
%TO.N,GND*%
X135750000Y-99400000D03*
%TO.P,U4,9,ANT*%
%TO.N,Net-(U4-ANT)*%
X135750000Y-113000000D03*
%TO.P,U4,10,GND*%
%TO.N,GND*%
X137750000Y-113000000D03*
%TO.P,U4,11,DIO3*%
%TO.N,unconnected-(U4-DIO3-Pad11)*%
X139750000Y-113000000D03*
%TO.P,U4,12,DIO4*%
%TO.N,unconnected-(U4-DIO4-Pad12)*%
X141750000Y-113000000D03*
%TO.P,U4,13,3.3V*%
%TO.N,+3V3*%
X143750000Y-113000000D03*
%TO.P,U4,14,DIO0*%
%TO.N,RADIO_DONE*%
X145750000Y-113000000D03*
%TO.P,U4,15,DIO1*%
%TO.N,unconnected-(U4-DIO1-Pad15)*%
X147750000Y-113000000D03*
%TO.P,U4,16,DIO2*%
%TO.N,unconnected-(U4-DIO2-Pad16)*%
X149750000Y-113000000D03*
%TD*%
D23*
%TO.P,D14,1,K*%
%TO.N,+BATT*%
X121000000Y-73000000D03*
D24*
%TO.P,D14,2,A*%
%TO.N,Net-(D14-A)*%
X121000000Y-65380000D03*
%TD*%
D25*
%TO.P,U6,1,VO*%
%TO.N,+3V3*%
X126472000Y-89446041D03*
D26*
%TO.P,U6,2,GND*%
%TO.N,GND*%
X126472000Y-91224041D03*
%TO.P,U6,3,VI*%
%TO.N,+6V*%
X126472000Y-93002041D03*
%TD*%
D27*
%TO.P,U7,1,IN*%
%TO.N,Net-(U7-IN)*%
X120055000Y-84886041D03*
D28*
%TO.P,U7,2,GND*%
%TO.N,GND*%
X120055000Y-87426041D03*
%TO.P,U7,3,OUT*%
%TO.N,Net-(U7-OUT)*%
X120055000Y-89966041D03*
%TD*%
D23*
%TO.P,D13,1,K*%
%TO.N,+6V*%
X75000000Y-118000000D03*
D24*
%TO.P,D13,2,A*%
%TO.N,Net-(D13-A)*%
X75000000Y-110380000D03*
%TD*%
D25*
%TO.P,Q1,1,D*%
%TO.N,Net-(Q1-D)*%
X68500000Y-105325000D03*
D26*
%TO.P,Q1,2,G*%
%TO.N,Net-(Q1-G)*%
X68500000Y-103547000D03*
%TO.P,Q1,3,S*%
%TO.N,GND*%
X68500000Y-101769000D03*
%TD*%
D10*
%TO.P,U3,1,EN1\u002C2*%
%TO.N,+6V*%
X69710000Y-88485000D03*
D11*
%TO.P,U3,2,1A*%
%TO.N,STEPPER1*%
X72250000Y-88485000D03*
%TO.P,U3,3,1Y*%
%TO.N,Net-(U3-1Y)*%
X74790000Y-88485000D03*
%TO.P,U3,4,GND*%
%TO.N,GND*%
X77330000Y-88485000D03*
%TO.P,U3,5,GND*%
X79870000Y-88485000D03*
%TO.P,U3,6,2Y*%
%TO.N,Net-(M3--)*%
X82410000Y-88485000D03*
%TO.P,U3,7,2A*%
%TO.N,STEPPER2*%
X84950000Y-88485000D03*
%TO.P,U3,8,VCC2*%
%TO.N,+BATT*%
X87490000Y-88485000D03*
%TO.P,U3,9,EN3\u002C4*%
%TO.N,+6V*%
X87490000Y-80865000D03*
%TO.P,U3,10,3A*%
%TO.N,STEPPER3*%
X84950000Y-80865000D03*
%TO.P,U3,11,3Y*%
%TO.N,Net-(U3-3Y)*%
X82410000Y-80865000D03*
%TO.P,U3,12,GND*%
%TO.N,GND*%
X79870000Y-80865000D03*
%TO.P,U3,13,GND*%
X77330000Y-80865000D03*
%TO.P,U3,14,4Y*%
%TO.N,Net-(U3-4Y)*%
X74790000Y-80865000D03*
%TO.P,U3,15,4A*%
%TO.N,STEPPER4*%
X72250000Y-80865000D03*
%TO.P,U3,16,VCC1*%
%TO.N,+6V*%
X69710000Y-80865000D03*
%TD*%
D29*
%TO.P,C5,1*%
%TO.N,Net-(C5-Pad1)*%
X142000000Y-74500000D03*
D30*
%TO.P,C5,2*%
%TO.N,GND*%
X142000000Y-67000000D03*
%TD*%
D19*
%TO.P,L1,1,-*%
%TO.N,+6V*%
X69350000Y-111540000D03*
D20*
%TO.P,L1,2,+*%
%TO.N,Net-(D13-A)*%
X69350000Y-109000000D03*
%TD*%
D19*
%TO.P,M1,1,+*%
%TO.N,Net-(M1-+)*%
X67845000Y-68085000D03*
D20*
%TO.P,M1,2,-*%
%TO.N,Net-(M1--)*%
X67845000Y-65545000D03*
%TD*%
D10*
%TO.P,C20,1*%
%TO.N,+BATT*%
X97095000Y-71000113D03*
D14*
%TO.P,C20,2*%
%TO.N,GND*%
X97095000Y-69000113D03*
%TD*%
D31*
%TO.N,/mcu/RESET*%
X102500000Y-107400000D03*
%TO.N,GND*%
X81000000Y-106500000D03*
X124750000Y-92000000D03*
X117750000Y-72000000D03*
X134500000Y-87000000D03*
X67750000Y-70250000D03*
X78500000Y-87000000D03*
X105750000Y-100250000D03*
X70500000Y-75750000D03*
X142000000Y-84000000D03*
X116000000Y-112500000D03*
X120000000Y-117500000D03*
X119750000Y-106500000D03*
X133250000Y-66000000D03*
X133250000Y-99500000D03*
X116750000Y-96750000D03*
X84000000Y-109000000D03*
X147000000Y-115000000D03*
X72000000Y-77500000D03*
X72000000Y-91500000D03*
X114000000Y-111500000D03*
X79500000Y-62000000D03*
X89000000Y-95250000D03*
X101000000Y-112500000D03*
X81500000Y-109750000D03*
X125500000Y-117500000D03*
X146750000Y-110500000D03*
X144500000Y-86000000D03*
X64000000Y-73750000D03*
X93000000Y-71250000D03*
X149500000Y-63000000D03*
X102500000Y-112500000D03*
X121500000Y-62500000D03*
X89000000Y-71250000D03*
X88500000Y-85750000D03*
X138000000Y-93500000D03*
X129250000Y-97250000D03*
X116500000Y-109750000D03*
X81500000Y-77250000D03*
X112000000Y-99500000D03*
X88750000Y-118750000D03*
X105500000Y-118500000D03*
X107250000Y-99000000D03*
X107250000Y-116250000D03*
X104250000Y-116500000D03*
X64000000Y-62000000D03*
X139000000Y-104250000D03*
X98000000Y-62000000D03*
X112000000Y-107500000D03*
X78500000Y-105000000D03*
X108500000Y-89500000D03*
X92500000Y-83000000D03*
X125500000Y-114250000D03*
X145000000Y-81000000D03*
X69750000Y-85000000D03*
X129500000Y-75750000D03*
X109000000Y-96750000D03*
X134500000Y-72500000D03*
X140000000Y-64000000D03*
X106250000Y-114250000D03*
X68000000Y-96500000D03*
X123250000Y-78750000D03*
X86250000Y-77250000D03*
X135000000Y-116000000D03*
X143000000Y-105000000D03*
X121000000Y-68000000D03*
X146500000Y-63750000D03*
X140750000Y-62750000D03*
X75000000Y-112500000D03*
X78500000Y-82500000D03*
X129500000Y-83500000D03*
X137000000Y-76500000D03*
X72250000Y-107750000D03*
X136000000Y-101250000D03*
X70250000Y-65250000D03*
X72500000Y-68250000D03*
X150250000Y-78000000D03*
X116250000Y-101500000D03*
X88500000Y-83000000D03*
X90500000Y-62000000D03*
X113250000Y-62000000D03*
X125500000Y-70000000D03*
X109750000Y-99500000D03*
X127250000Y-66000000D03*
X146250000Y-104250000D03*
X147000000Y-73500000D03*
X85000000Y-111000000D03*
X125500000Y-102250000D03*
X64500000Y-114500000D03*
X105250000Y-73500000D03*
X94750000Y-119000000D03*
X133000000Y-62500000D03*
X142250000Y-115500000D03*
X65250000Y-78250000D03*
X142750000Y-89500000D03*
X123000000Y-102250000D03*
X112500000Y-74750000D03*
X134250000Y-114000000D03*
X78500000Y-89750000D03*
X94500000Y-114750000D03*
X90500000Y-66000000D03*
X121000000Y-100500000D03*
X112250000Y-112250000D03*
X110750000Y-118750000D03*
X151000000Y-83000000D03*
X80000000Y-118500000D03*
X105500000Y-62000000D03*
X98750000Y-100000000D03*
X90500000Y-112500000D03*
X123500000Y-93750000D03*
X77000000Y-103000000D03*
X144500000Y-77750000D03*
X128750000Y-89500000D03*
X87500000Y-108000000D03*
X82750000Y-86000000D03*
X122250000Y-119000000D03*
X105250000Y-94000000D03*
X95500000Y-107250000D03*
X150250000Y-104250000D03*
X130750000Y-106750000D03*
X88500000Y-116000000D03*
X64750000Y-118750000D03*
X105500000Y-96250000D03*
X72500000Y-86500000D03*
X95000000Y-83500000D03*
X134400000Y-91500000D03*
X82000000Y-66000000D03*
X123000000Y-83000000D03*
X98250000Y-96250000D03*
X82500000Y-102000000D03*
X93000000Y-100000000D03*
X78000000Y-97500000D03*
X150000000Y-118000000D03*
X108500000Y-81750000D03*
X123250000Y-98750000D03*
X146750000Y-108000000D03*
X125500000Y-83000000D03*
X74500000Y-99250000D03*
X86500000Y-95250000D03*
X84250000Y-74250000D03*
X138000000Y-64000000D03*
X139000000Y-84000000D03*
X129500000Y-87500000D03*
X112500000Y-85750000D03*
X112250000Y-93250000D03*
X136750000Y-107000000D03*
X66250000Y-106000000D03*
X112250000Y-96750000D03*
X85500000Y-116000000D03*
X137000000Y-66000000D03*
X129000000Y-92750000D03*
X112500000Y-105750000D03*
X99250000Y-69250000D03*
X123000000Y-88750000D03*
X74750000Y-86500000D03*
X81750000Y-94000000D03*
X74000000Y-62000000D03*
X70000000Y-115500000D03*
X66250000Y-104000000D03*
X75250000Y-83000000D03*
X144500000Y-71500000D03*
X83750000Y-77250000D03*
X81000000Y-84500000D03*
X102750000Y-100250000D03*
X86250000Y-85750000D03*
X86250000Y-83000000D03*
X81250000Y-89750000D03*
X112500000Y-81500000D03*
X67750000Y-80000000D03*
X125500000Y-99250000D03*
X106250000Y-104000000D03*
X80500000Y-73750000D03*
X64500000Y-110250000D03*
X150000000Y-110750000D03*
X123000000Y-85500000D03*
X98250000Y-94250000D03*
X87500000Y-113000000D03*
X93000000Y-94000000D03*
X108500000Y-85750000D03*
X131000000Y-111000000D03*
X108750000Y-110250000D03*
X99250000Y-110750000D03*
X93000000Y-96250000D03*
X130512500Y-70369000D03*
X84500000Y-118500000D03*
X102250000Y-76000000D03*
X102750000Y-116500000D03*
X137750000Y-110250000D03*
X117000000Y-85500000D03*
X103000000Y-102750000D03*
X139750000Y-78250000D03*
X99250000Y-75750000D03*
X108750000Y-108000000D03*
X74750000Y-94250000D03*
X68250000Y-62000000D03*
X83500000Y-70250000D03*
X139500000Y-115500000D03*
X93000000Y-73500000D03*
X65500000Y-116500000D03*
X113000000Y-117500000D03*
X151000000Y-96000000D03*
X72500000Y-110000000D03*
X112500000Y-89500000D03*
X86750000Y-66000000D03*
X66000000Y-92500000D03*
X142000000Y-81500000D03*
X108750000Y-105500000D03*
X142500000Y-93500000D03*
X81000000Y-115500000D03*
X141500000Y-64000000D03*
X150500000Y-108000000D03*
X69750000Y-118500000D03*
X138000000Y-72500000D03*
X81000000Y-70250000D03*
X77250000Y-65750000D03*
X89000000Y-73500000D03*
X110500000Y-77500000D03*
X91000000Y-105250000D03*
X116250000Y-117000000D03*
X116250000Y-100000000D03*
X97750000Y-108500000D03*
X71750000Y-96500000D03*
X124750000Y-70750000D03*
X149500000Y-67000000D03*
X116500000Y-105250000D03*
X146000000Y-66000000D03*
X99000000Y-102500000D03*
X134000000Y-81000000D03*
X64000000Y-66750000D03*
X114000000Y-118750000D03*
X134250000Y-112000000D03*
X118000000Y-64000000D03*
X117000000Y-81750000D03*
X70000000Y-101000000D03*
X68750000Y-107000000D03*
X117250000Y-91000000D03*
X66500000Y-101250000D03*
X64000000Y-70250000D03*
X107750000Y-119000000D03*
X69750000Y-86500000D03*
X122000000Y-114250000D03*
X82750000Y-83250000D03*
X81000000Y-112500000D03*
X117250000Y-75250000D03*
X84750000Y-62000000D03*
X129500000Y-80500000D03*
X75000000Y-116000000D03*
D32*
%TO.N,+3V3*%
X118750000Y-100500000D03*
X119750000Y-114750000D03*
X139750000Y-118750000D03*
X121250000Y-106000000D03*
X103750000Y-112250000D03*
X104750000Y-106250000D03*
D31*
%TO.N,/mcu/SWDIO*%
X113810661Y-108810661D03*
%TO.N,/mcu/SWCLK*%
X113500000Y-107000000D03*
%TO.N,DC_MOTOR2*%
X89174265Y-99825735D03*
%TO.N,DC_MOTOR_EN1_2*%
X110500000Y-108000000D03*
X108000000Y-77000000D03*
%TO.N,DC_MOTOR3*%
X87000000Y-101500000D03*
%TO.N,DC_MOTOR4*%
X85000000Y-103000000D03*
D32*
%TO.N,+BATT*%
X108500000Y-79500000D03*
D31*
%TO.N,DC_MOTOR_EN3_4*%
X115000000Y-108500000D03*
X107250000Y-72025000D03*
%TO.N,DC_MOTOR1*%
X97500000Y-111174265D03*
%TO.N,NSS*%
X132750000Y-105000000D03*
%TO.N,STEPPER4*%
X92750000Y-106750000D03*
%TO.N,STEPPER1*%
X89600000Y-104000000D03*
%TO.N,MOSI*%
X121203524Y-108546476D03*
%TO.N,STEPPER3*%
X96250000Y-105750000D03*
%TO.N,RESET_RADIO*%
X114500000Y-110000000D03*
%TO.N,STEPPER2*%
X97282843Y-104717157D03*
%TO.N,ELECTROMAGNET*%
X92000000Y-98250000D03*
X108500000Y-98250000D03*
%TD*%
D33*
%TO.N,/mcu/RESET*%
X102500000Y-108445000D02*
X93420000Y-117525000D01*
X102500000Y-107400000D02*
X102500000Y-108445000D01*
D34*
%TO.N,+3V3*%
X120453524Y-114046476D02*
X119750000Y-114750000D01*
X104750000Y-106250000D02*
X103750000Y-107250000D01*
X118750000Y-95926041D02*
X118750000Y-100500000D01*
X139750000Y-118750000D02*
X123750000Y-118750000D01*
X125250000Y-89426041D02*
X118750000Y-95926041D01*
X101040000Y-115020661D02*
X103750000Y-112310661D01*
X103750000Y-112310661D02*
X103750000Y-112250000D01*
X121250000Y-106000000D02*
X120453524Y-106796476D01*
X120453524Y-106796476D02*
X120453524Y-114046476D01*
X123750000Y-118750000D02*
X119750000Y-114750000D01*
X101040000Y-117525000D02*
X101040000Y-115020661D01*
X103750000Y-107250000D02*
X103750000Y-112250000D01*
X126500000Y-89426041D02*
X125250000Y-89426041D01*
D33*
%TO.N,/mcu/SWDIO*%
X113810661Y-108810661D02*
X111150000Y-111471322D01*
X111150000Y-114600000D02*
X106350000Y-119400000D01*
X106350000Y-119400000D02*
X97835000Y-119400000D01*
X97835000Y-119400000D02*
X95960000Y-117525000D01*
X111150000Y-111471322D02*
X111150000Y-114600000D01*
%TO.N,/mcu/SWCLK*%
X99975000Y-119000000D02*
X98500000Y-117525000D01*
X106850000Y-114748529D02*
X102598529Y-119000000D01*
X102598529Y-119000000D02*
X99975000Y-119000000D01*
X106850000Y-113650000D02*
X106850000Y-114748529D01*
X113500000Y-107000000D02*
X106850000Y-113650000D01*
%TO.N,DC_MOTOR2*%
X90210000Y-92790000D02*
X90210000Y-75845000D01*
X89174265Y-99825735D02*
X90500000Y-98500000D01*
X90500000Y-98500000D02*
X90500000Y-93080000D01*
X90500000Y-93080000D02*
X90210000Y-92790000D01*
%TO.N,DC_MOTOR_EN1_2*%
X110500000Y-79500000D02*
X108000000Y-77000000D01*
X110500000Y-108000000D02*
X110500000Y-79500000D01*
%TO.N,DC_MOTOR3*%
X87214365Y-69325000D02*
X89110000Y-69325000D01*
X81150000Y-76300635D02*
X81150000Y-75389365D01*
X89110000Y-69325000D02*
X90210000Y-68225000D01*
X81150000Y-75389365D02*
X87214365Y-69325000D01*
X87000000Y-101500000D02*
X76000000Y-90500000D01*
X76000000Y-80539365D02*
X79594365Y-76945000D01*
X76000000Y-90500000D02*
X76000000Y-80539365D01*
X79594365Y-76945000D02*
X80505635Y-76945000D01*
X80505635Y-76945000D02*
X81150000Y-76300635D01*
%TO.N,DC_MOTOR4*%
X78750000Y-76160635D02*
X78750000Y-69465000D01*
X73350000Y-81320635D02*
X73350000Y-79649682D01*
X73999682Y-79000000D02*
X75910635Y-79000000D01*
X73350000Y-79649682D02*
X73999682Y-79000000D01*
X78750000Y-69465000D02*
X77510000Y-68225000D01*
X71150000Y-83520635D02*
X73350000Y-81320635D01*
X85000000Y-103000000D02*
X71150000Y-89150000D01*
X71150000Y-89150000D02*
X71150000Y-83520635D01*
X75910635Y-79000000D02*
X78750000Y-76160635D01*
D34*
%TO.N,+BATT*%
X108500000Y-79500000D02*
X100000113Y-71000113D01*
X105777328Y-76777329D02*
X94380000Y-88174657D01*
X100000113Y-71000113D02*
X97095000Y-71000113D01*
X108500000Y-79500000D02*
X105777328Y-76777329D01*
D33*
%TO.N,DC_MOTOR_EN3_4*%
X115000000Y-108500000D02*
X115000000Y-79775000D01*
X115000000Y-79775000D02*
X107250000Y-72025000D01*
%TO.N,DC_MOTOR1*%
X88674265Y-111174265D02*
X68000000Y-90500000D01*
X73779683Y-77500000D02*
X75855000Y-77500000D01*
X68000000Y-84250000D02*
X71150000Y-81100000D01*
X71150000Y-80129683D02*
X73779683Y-77500000D01*
X97500000Y-111174265D02*
X88674265Y-111174265D01*
X71150000Y-81100000D02*
X71150000Y-80129683D01*
X68000000Y-90500000D02*
X68000000Y-84250000D01*
X75855000Y-77500000D02*
X77510000Y-75845000D01*
%TO.N,NSS*%
X132750000Y-105000000D02*
X136250000Y-105000000D01*
X136250000Y-105000000D02*
X141850000Y-99400000D01*
%TO.N,STEPPER4*%
X68610000Y-84505000D02*
X72250000Y-80865000D01*
X92750000Y-106750000D02*
X85775000Y-106750000D01*
X85775000Y-106750000D02*
X68610000Y-89585000D01*
X68610000Y-89585000D02*
X68610000Y-84505000D01*
%TO.N,STEPPER1*%
X73585000Y-89585000D02*
X73350000Y-89585000D01*
X73350000Y-89585000D02*
X72250000Y-88485000D01*
X88000000Y-104000000D02*
X73585000Y-89585000D01*
X89600000Y-104000000D02*
X88000000Y-104000000D01*
%TO.N,MOSI*%
X124000000Y-105750000D02*
X139625000Y-105750000D01*
X139625000Y-105750000D02*
X145750000Y-99625000D01*
X145750000Y-99625000D02*
X145750000Y-99400000D01*
X121203524Y-108546476D02*
X124000000Y-105750000D01*
%TO.N,STEPPER3*%
X84500000Y-81315000D02*
X84950000Y-80865000D01*
X92750000Y-105750000D02*
X83850000Y-96850000D01*
X96250000Y-105750000D02*
X92750000Y-105750000D01*
X84500000Y-87379365D02*
X84500000Y-81315000D01*
X83850000Y-88029365D02*
X84500000Y-87379365D01*
X83850000Y-96850000D02*
X83850000Y-88029365D01*
%TO.N,RESET_RADIO*%
X114500000Y-110000000D02*
X120500000Y-104000000D01*
X135150000Y-104000000D02*
X139750000Y-99400000D01*
X120500000Y-104000000D02*
X135150000Y-104000000D01*
%TO.N,STEPPER2*%
X97282843Y-104717157D02*
X93217157Y-104717157D01*
X84950000Y-96450000D02*
X84950000Y-88485000D01*
X93217157Y-104717157D02*
X84950000Y-96450000D01*
%TO.N,ELECTROMAGNET*%
X108500000Y-98250000D02*
X92000000Y-98250000D01*
%TD*%
%TA.AperFunction,Conductor*%
%TO.N,GND*%
G36*
X151443039Y-61519685D02*
G01*
X151488794Y-61572489D01*
X151500000Y-61624000D01*
X151500000Y-119376000D01*
X151480315Y-119443039D01*
X151427511Y-119488794D01*
X151376000Y-119500000D01*
X140689967Y-119500000D01*
X140622928Y-119480315D01*
X140577173Y-119427511D01*
X140567229Y-119358353D01*
X140584052Y-119314452D01*
X140583039Y-119313911D01*
X140678811Y-119134733D01*
X140678811Y-119134732D01*
X140678814Y-119134727D01*
X140736024Y-118946132D01*
X140755341Y-118750000D01*
X140736024Y-118553868D01*
X140678814Y-118365273D01*
X140678811Y-118365269D01*
X140678811Y-118365266D01*
X140585913Y-118191467D01*
X140585909Y-118191460D01*
X140460883Y-118039116D01*
X140308539Y-117914090D01*
X140308532Y-117914086D01*
X140134733Y-117821188D01*
X140134727Y-117821186D01*
X139946132Y-117763976D01*
X139946129Y-117763975D01*
X139750000Y-117744659D01*
X139553870Y-117763975D01*
X139365266Y-117821188D01*
X139191467Y-117914086D01*
X139191460Y-117914090D01*
X139121687Y-117971353D01*
X139057377Y-117998666D01*
X139043022Y-117999500D01*
X124112229Y-117999500D01*
X124045190Y-117979815D01*
X124024548Y-117963181D01*
X120899048Y-114837680D01*
X120865563Y-114776357D01*
X120870547Y-114706665D01*
X120899045Y-114662320D01*
X121036475Y-114524892D01*
X121118608Y-114401971D01*
X121175182Y-114265389D01*
X121192904Y-114176296D01*
X121204024Y-114120396D01*
X121204024Y-110534995D01*
X125864953Y-110534995D01*
X125864953Y-110535004D01*
X125885113Y-110804026D01*
X125885113Y-110804028D01*
X125945142Y-111067033D01*
X125945148Y-111067052D01*
X126043709Y-111318181D01*
X126043708Y-111318181D01*
X126178602Y-111551822D01*
X126232294Y-111619151D01*
X126954152Y-110897292D01*
X126961049Y-110913942D01*
X127048599Y-111044970D01*
X127160030Y-111156401D01*
X127291058Y-111243951D01*
X127307705Y-111250846D01*
X126584848Y-111973702D01*
X126767483Y-112098220D01*
X126767485Y-112098221D01*
X127010539Y-112215269D01*
X127010537Y-112215269D01*
X127268337Y-112294790D01*
X127268343Y-112294792D01*
X127535101Y-112334999D01*
X127535110Y-112335000D01*
X127804890Y-112335000D01*
X127804898Y-112334999D01*
X128071656Y-112294792D01*
X128071662Y-112294790D01*
X128329458Y-112215270D01*
X128547927Y-112110061D01*
X128616869Y-112098709D01*
X128681003Y-112126431D01*
X128719969Y-112184426D01*
X128721394Y-112254281D01*
X128717158Y-112267081D01*
X128632583Y-112482578D01*
X128632578Y-112482590D01*
X128632576Y-112482597D01*
X128574197Y-112738374D01*
X128574196Y-112738379D01*
X128554592Y-112999995D01*
X128554592Y-113000004D01*
X128574196Y-113261620D01*
X128574197Y-113261625D01*
X128574197Y-113261629D01*
X128574198Y-113261630D01*
X128578684Y-113281284D01*
X128632576Y-113517402D01*
X128632582Y-113517421D01*
X128728432Y-113761643D01*
X128834256Y-113944937D01*
X128850729Y-114012837D01*
X128827876Y-114078864D01*
X128772955Y-114122055D01*
X128703402Y-114128696D01*
X128657017Y-114109390D01*
X128572526Y-114051784D01*
X128572516Y-114051778D01*
X128329460Y-113934730D01*
X128329462Y-113934730D01*
X128071662Y-113855209D01*
X128071656Y-113855207D01*
X127804898Y-113815000D01*
X127535101Y-113815000D01*
X127268343Y-113855207D01*
X127268337Y-113855209D01*
X127010538Y-113934730D01*
X126767485Y-114051778D01*
X126767476Y-114051783D01*
X126584848Y-114176296D01*
X127307705Y-114899153D01*
X127291058Y-114906049D01*
X127160030Y-114993599D01*
X127048599Y-115105030D01*
X126961049Y-115236058D01*
X126954153Y-115252706D01*
X126232295Y-114530848D01*
X126178600Y-114598180D01*
X126043709Y-114831818D01*
X125945148Y-115082947D01*
X125945142Y-115082966D01*
X125885113Y-115345971D01*
X125885113Y-115345973D01*
X125864953Y-115614995D01*
X125864953Y-115615004D01*
X125885113Y-115884026D01*
X125885113Y-115884028D01*
X125945142Y-116147033D01*
X125945148Y-116147052D01*
X126043709Y-116398181D01*
X126043708Y-116398181D01*
X126178602Y-116631822D01*
X126232294Y-116699151D01*
X126954152Y-115977292D01*
X126961049Y-115993942D01*
X127048599Y-116124970D01*
X127160030Y-116236401D01*
X127291058Y-116323951D01*
X127307705Y-116330846D01*
X126584848Y-117053702D01*
X126767483Y-117178220D01*
X126767485Y-117178221D01*
X127010539Y-117295269D01*
X127010537Y-117295269D01*
X127268337Y-117374790D01*
X127268343Y-117374792D01*
X127535101Y-117414999D01*
X127535110Y-117415000D01*
X127804890Y-117415000D01*
X127804898Y-117414999D01*
X128071656Y-117374792D01*
X128071662Y-117374790D01*
X128329461Y-117295269D01*
X128572521Y-117178218D01*
X128755150Y-117053702D01*
X128032294Y-116330846D01*
X128048942Y-116323951D01*
X128179970Y-116236401D01*
X128291401Y-116124970D01*
X128378951Y-115993942D01*
X128385846Y-115977294D01*
X129107703Y-116699151D01*
X129107704Y-116699150D01*
X129161393Y-116631828D01*
X129161400Y-116631817D01*
X129296290Y-116398181D01*
X129394851Y-116147052D01*
X129394857Y-116147033D01*
X129454886Y-115884028D01*
X129454886Y-115884026D01*
X129475047Y-115615004D01*
X129475047Y-115614995D01*
X129454886Y-115345973D01*
X129454886Y-115345971D01*
X129394857Y-115082966D01*
X129394851Y-115082947D01*
X129296290Y-114831818D01*
X129296291Y-114831818D01*
X129182961Y-114635527D01*
X129166488Y-114567627D01*
X129189340Y-114501600D01*
X129244261Y-114458410D01*
X129313815Y-114451768D01*
X129360197Y-114471071D01*
X129432296Y-114520228D01*
X129432301Y-114520230D01*
X129432302Y-114520231D01*
X129432303Y-114520232D01*
X129502150Y-114553868D01*
X129668673Y-114634061D01*
X129668674Y-114634061D01*
X129668677Y-114634063D01*
X129919385Y-114711396D01*
X130178818Y-114750500D01*
X130441182Y-114750500D01*
X130700615Y-114711396D01*
X130951323Y-114634063D01*
X130986056Y-114617336D01*
X131054994Y-114605985D01*
X131119128Y-114633706D01*
X131158094Y-114691701D01*
X131159520Y-114761556D01*
X131147243Y-114791056D01*
X131123708Y-114831820D01*
X131025148Y-115082947D01*
X131025142Y-115082966D01*
X130965113Y-115345971D01*
X130965113Y-115345973D01*
X130944953Y-115614995D01*
X130944953Y-115615004D01*
X130965113Y-115884026D01*
X130965113Y-115884028D01*
X131025142Y-116147033D01*
X131025148Y-116147052D01*
X131123709Y-116398181D01*
X131123708Y-116398181D01*
X131258602Y-116631822D01*
X131312294Y-116699151D01*
X132034152Y-115977293D01*
X132041049Y-115993942D01*
X132128599Y-116124970D01*
X132240030Y-116236401D01*
X132371058Y-116323951D01*
X132387705Y-116330846D01*
X131664848Y-117053702D01*
X131847483Y-117178220D01*
X131847485Y-117178221D01*
X132090539Y-117295269D01*
X132090537Y-117295269D01*
X132348337Y-117374790D01*
X132348343Y-117374792D01*
X132615101Y-117414999D01*
X132615110Y-117415000D01*
X132884890Y-117415000D01*
X132884898Y-117414999D01*
X133151656Y-117374792D01*
X133151662Y-117374790D01*
X133409461Y-117295269D01*
X133652521Y-117178218D01*
X133835150Y-117053702D01*
X133112294Y-116330846D01*
X133128942Y-116323951D01*
X133259970Y-116236401D01*
X133371401Y-116124970D01*
X133458951Y-115993942D01*
X133465846Y-115977294D01*
X134187703Y-116699151D01*
X134187704Y-116699150D01*
X134241393Y-116631828D01*
X134241400Y-116631817D01*
X134376290Y-116398181D01*
X134474851Y-116147052D01*
X134474857Y-116147033D01*
X134534886Y-115884028D01*
X134534886Y-115884026D01*
X134555047Y-115615004D01*
X134555047Y-115614995D01*
X134534886Y-115345973D01*
X134534886Y-115345971D01*
X134474857Y-115082966D01*
X134474851Y-115082947D01*
X134376290Y-114831818D01*
X134376291Y-114831818D01*
X134241397Y-114598177D01*
X134187704Y-114530847D01*
X133465846Y-115252705D01*
X133458951Y-115236058D01*
X133371401Y-115105030D01*
X133259970Y-114993599D01*
X133128942Y-114906049D01*
X133112293Y-114899153D01*
X133835150Y-114176296D01*
X133652517Y-114051779D01*
X133652516Y-114051778D01*
X133409460Y-113934730D01*
X133409462Y-113934730D01*
X133151662Y-113855209D01*
X133151656Y-113855207D01*
X132884898Y-113815000D01*
X132615101Y-113815000D01*
X132348343Y-113855207D01*
X132348337Y-113855209D01*
X132090544Y-113934728D01*
X132038711Y-113959690D01*
X131969769Y-113971041D01*
X131905635Y-113943318D01*
X131866670Y-113885323D01*
X131865245Y-113815468D01*
X131877522Y-113785970D01*
X131891568Y-113761643D01*
X131987420Y-113517416D01*
X132045802Y-113261630D01*
X132047721Y-113236024D01*
X132065408Y-113000004D01*
X132065408Y-112999999D01*
X134569464Y-112999999D01*
X134569464Y-113000000D01*
X134589564Y-113216918D01*
X134589564Y-113216920D01*
X134589565Y-113216923D01*
X134649183Y-113426459D01*
X134649184Y-113426462D01*
X134746288Y-113621472D01*
X134870508Y-113785967D01*
X134877574Y-113795323D01*
X134905947Y-113821188D01*
X135038568Y-113942088D01*
X135038575Y-113942092D01*
X135038576Y-113942093D01*
X135223786Y-114056770D01*
X135223792Y-114056773D01*
X135246664Y-114065633D01*
X135426931Y-114135470D01*
X135641074Y-114175500D01*
X135641076Y-114175500D01*
X135858924Y-114175500D01*
X135858926Y-114175500D01*
X136073069Y-114135470D01*
X136276210Y-114056772D01*
X136461432Y-113942088D01*
X136622427Y-113795322D01*
X136702006Y-113689940D01*
X136719443Y-113677001D01*
X137350000Y-113046445D01*
X137350000Y-113052661D01*
X137377259Y-113154394D01*
X137429920Y-113245606D01*
X137504394Y-113320080D01*
X137595606Y-113372741D01*
X137697339Y-113400000D01*
X137703553Y-113400000D01*
X137114833Y-113988719D01*
X137114833Y-113988720D01*
X137224010Y-114056321D01*
X137224014Y-114056323D01*
X137427060Y-114134983D01*
X137427070Y-114134986D01*
X137641122Y-114175000D01*
X137858878Y-114175000D01*
X138072929Y-114134986D01*
X138072939Y-114134983D01*
X138275976Y-114056326D01*
X138275989Y-114056320D01*
X138385165Y-113988719D01*
X137796448Y-113400000D01*
X137802661Y-113400000D01*
X137904394Y-113372741D01*
X137995606Y-113320080D01*
X138070080Y-113245606D01*
X138122741Y-113154394D01*
X138150000Y-113052661D01*
X138150000Y-113046446D01*
X138764793Y-113661239D01*
X138797993Y-113689941D01*
X138870508Y-113785967D01*
X138877574Y-113795323D01*
X138905947Y-113821188D01*
X139038568Y-113942088D01*
X139038575Y-113942092D01*
X139038576Y-113942093D01*
X139223786Y-114056770D01*
X139223792Y-114056773D01*
X139246664Y-114065633D01*
X139426931Y-114135470D01*
X139641074Y-114175500D01*
X139641076Y-114175500D01*
X139858924Y-114175500D01*
X139858926Y-114175500D01*
X140073069Y-114135470D01*
X140276210Y-114056772D01*
X140461432Y-113942088D01*
X140622427Y-113795322D01*
X140651047Y-113757422D01*
X140707153Y-113715787D01*
X140776865Y-113711094D01*
X140838048Y-113744836D01*
X140848946Y-113757414D01*
X140877573Y-113795322D01*
X140877576Y-113795325D01*
X140877578Y-113795327D01*
X140943264Y-113855207D01*
X141038568Y-113942088D01*
X141038575Y-113942092D01*
X141038576Y-113942093D01*
X141223786Y-114056770D01*
X141223792Y-114056773D01*
X141246664Y-114065633D01*
X141426931Y-114135470D01*
X141641074Y-114175500D01*
X141641076Y-114175500D01*
X141858924Y-114175500D01*
X141858926Y-114175500D01*
X142073069Y-114135470D01*
X142276210Y-114056772D01*
X142461432Y-113942088D01*
X142622427Y-113795322D01*
X142651047Y-113757422D01*
X142707153Y-113715787D01*
X142776865Y-113711094D01*
X142838048Y-113744836D01*
X142848946Y-113757414D01*
X142877573Y-113795322D01*
X142877576Y-113795325D01*
X142877578Y-113795327D01*
X142943264Y-113855207D01*
X143038568Y-113942088D01*
X143038575Y-113942092D01*
X143038576Y-113942093D01*
X143223786Y-114056770D01*
X143223792Y-114056773D01*
X143246664Y-114065633D01*
X143426931Y-114135470D01*
X143641074Y-114175500D01*
X143641076Y-114175500D01*
X143858924Y-114175500D01*
X143858926Y-114175500D01*
X144073069Y-114135470D01*
X144276210Y-114056772D01*
X144461432Y-113942088D01*
X144622427Y-113795322D01*
X144651047Y-113757422D01*
X144707153Y-113715787D01*
X144776865Y-113711094D01*
X144838048Y-113744836D01*
X144848946Y-113757414D01*
X144877573Y-113795322D01*
X144877576Y-113795325D01*
X144877578Y-113795327D01*
X144943264Y-113855207D01*
X145038568Y-113942088D01*
X145038575Y-113942092D01*
X145038576Y-113942093D01*
X145223786Y-114056770D01*
X145223792Y-114056773D01*
X145246664Y-114065633D01*
X145426931Y-114135470D01*
X145641074Y-114175500D01*
X145641076Y-114175500D01*
X145858924Y-114175500D01*
X145858926Y-114175500D01*
X146073069Y-114135470D01*
X146276210Y-114056772D01*
X146461432Y-113942088D01*
X146622427Y-113795322D01*
X146651047Y-113757422D01*
X146707153Y-113715787D01*
X146776865Y-113711094D01*
X146838048Y-113744836D01*
X146848946Y-113757414D01*
X146877573Y-113795322D01*
X146877576Y-113795325D01*
X146877578Y-113795327D01*
X146943264Y-113855207D01*
X147038568Y-113942088D01*
X147038575Y-113942092D01*
X147038576Y-113942093D01*
X147223786Y-114056770D01*
X147223792Y-114056773D01*
X147246664Y-114065633D01*
X147426931Y-114135470D01*
X147641074Y-114175500D01*
X147641076Y-114175500D01*
X147858924Y-114175500D01*
X147858926Y-114175500D01*
X148073069Y-114135470D01*
X148276210Y-114056772D01*
X148461432Y-113942088D01*
X148622427Y-113795322D01*
X148651047Y-113757422D01*
X148707153Y-113715787D01*
X148776865Y-113711094D01*
X148838048Y-113744836D01*
X148848946Y-113757414D01*
X148877573Y-113795322D01*
X148877576Y-113795325D01*
X148877578Y-113795327D01*
X148943264Y-113855207D01*
X149038568Y-113942088D01*
X149038575Y-113942092D01*
X149038576Y-113942093D01*
X149223786Y-114056770D01*
X149223792Y-114056773D01*
X149246664Y-114065633D01*
X149426931Y-114135470D01*
X149641074Y-114175500D01*
X149641076Y-114175500D01*
X149858924Y-114175500D01*
X149858926Y-114175500D01*
X150073069Y-114135470D01*
X150276210Y-114056772D01*
X150461432Y-113942088D01*
X150622427Y-113795322D01*
X150753712Y-113621472D01*
X150850817Y-113426459D01*
X150910435Y-113216923D01*
X150930536Y-113000000D01*
X150929034Y-112983796D01*
X150912794Y-112808538D01*
X150910435Y-112783077D01*
X150850817Y-112573541D01*
X150753712Y-112378528D01*
X150622427Y-112204678D01*
X150461432Y-112057912D01*
X150461428Y-112057909D01*
X150461423Y-112057906D01*
X150276213Y-111943229D01*
X150276207Y-111943226D01*
X150168878Y-111901647D01*
X150073069Y-111864530D01*
X149858926Y-111824500D01*
X149641074Y-111824500D01*
X149426931Y-111864530D01*
X149383669Y-111881290D01*
X149223792Y-111943226D01*
X149223786Y-111943229D01*
X149038576Y-112057906D01*
X149038566Y-112057913D01*
X148877573Y-112204676D01*
X148848953Y-112242576D01*
X148792844Y-112284211D01*
X148723132Y-112288902D01*
X148661950Y-112255159D01*
X148651047Y-112242576D01*
X148622426Y-112204676D01*
X148461433Y-112057913D01*
X148461423Y-112057906D01*
X148276213Y-111943229D01*
X148276207Y-111943226D01*
X148168878Y-111901647D01*
X148073069Y-111864530D01*
X147858926Y-111824500D01*
X147641074Y-111824500D01*
X147426931Y-111864530D01*
X147383669Y-111881290D01*
X147223792Y-111943226D01*
X147223786Y-111943229D01*
X147038576Y-112057906D01*
X147038566Y-112057913D01*
X146877573Y-112204676D01*
X146848953Y-112242576D01*
X146792844Y-112284211D01*
X146723132Y-112288902D01*
X146661950Y-112255159D01*
X146651047Y-112242576D01*
X146622426Y-112204676D01*
X146461433Y-112057913D01*
X146461423Y-112057906D01*
X146276213Y-111943229D01*
X146276207Y-111943226D01*
X146168878Y-111901647D01*
X146073069Y-111864530D01*
X145858926Y-111824500D01*
X145641074Y-111824500D01*
X145426931Y-111864530D01*
X145383669Y-111881290D01*
X145223792Y-111943226D01*
X145223786Y-111943229D01*
X145038576Y-112057906D01*
X145038566Y-112057913D01*
X144877573Y-112204676D01*
X144848953Y-112242576D01*
X144792844Y-112284211D01*
X144723132Y-112288902D01*
X144661950Y-112255159D01*
X144651047Y-112242576D01*
X144622426Y-112204676D01*
X144461433Y-112057913D01*
X144461423Y-112057906D01*
X144276213Y-111943229D01*
X144276207Y-111943226D01*
X144168878Y-111901647D01*
X144073069Y-111864530D01*
X143858926Y-111824500D01*
X143641074Y-111824500D01*
X143426931Y-111864530D01*
X143383669Y-111881290D01*
X143223792Y-111943226D01*
X143223786Y-111943229D01*
X143038576Y-112057906D01*
X143038566Y-112057913D01*
X142877573Y-112204676D01*
X142848953Y-112242576D01*
X142792844Y-112284211D01*
X142723132Y-112288902D01*
X142661950Y-112255159D01*
X142651047Y-112242576D01*
X142622426Y-112204676D01*
X142461433Y-112057913D01*
X142461423Y-112057906D01*
X142276213Y-111943229D01*
X142276207Y-111943226D01*
X142168878Y-111901647D01*
X142073069Y-111864530D01*
X141858926Y-111824500D01*
X141641074Y-111824500D01*
X141426931Y-111864530D01*
X141383669Y-111881290D01*
X141223792Y-111943226D01*
X141223786Y-111943229D01*
X141038576Y-112057906D01*
X141038566Y-112057913D01*
X140877573Y-112204676D01*
X140848953Y-112242576D01*
X140792844Y-112284211D01*
X140723132Y-112288902D01*
X140661950Y-112255159D01*
X140651047Y-112242576D01*
X140622426Y-112204676D01*
X140461433Y-112057913D01*
X140461423Y-112057906D01*
X140276213Y-111943229D01*
X140276207Y-111943226D01*
X140168878Y-111901647D01*
X140073069Y-111864530D01*
X139858926Y-111824500D01*
X139641074Y-111824500D01*
X139426931Y-111864530D01*
X139383669Y-111881290D01*
X139223792Y-111943226D01*
X139223786Y-111943229D01*
X139038576Y-112057906D01*
X139038566Y-112057913D01*
X138877574Y-112204676D01*
X138797994Y-112310057D01*
X138780556Y-112322996D01*
X138150000Y-112953552D01*
X138150000Y-112947339D01*
X138122741Y-112845606D01*
X138070080Y-112754394D01*
X137995606Y-112679920D01*
X137904394Y-112627259D01*
X137802661Y-112600000D01*
X137796447Y-112600000D01*
X138385166Y-112011279D01*
X138275987Y-111943677D01*
X138275985Y-111943676D01*
X138072939Y-111865016D01*
X138072929Y-111865013D01*
X137858878Y-111825000D01*
X137641122Y-111825000D01*
X137427070Y-111865013D01*
X137427069Y-111865013D01*
X137224016Y-111943676D01*
X137224015Y-111943676D01*
X137114832Y-112011279D01*
X137703554Y-112600000D01*
X137697339Y-112600000D01*
X137595606Y-112627259D01*
X137504394Y-112679920D01*
X137429920Y-112754394D01*
X137377259Y-112845606D01*
X137350000Y-112947339D01*
X137350000Y-112953554D01*
X136735242Y-112338796D01*
X136702005Y-112310056D01*
X136622428Y-112204679D01*
X136622426Y-112204677D01*
X136461433Y-112057913D01*
X136461423Y-112057906D01*
X136276213Y-111943229D01*
X136276207Y-111943226D01*
X136168878Y-111901647D01*
X136073069Y-111864530D01*
X135858926Y-111824500D01*
X135641074Y-111824500D01*
X135426931Y-111864530D01*
X135383669Y-111881290D01*
X135223792Y-111943226D01*
X135223786Y-111943229D01*
X135038576Y-112057906D01*
X135038566Y-112057913D01*
X134877574Y-112204676D01*
X134746288Y-112378527D01*
X134649184Y-112573537D01*
X134589564Y-112783081D01*
X134569464Y-112999999D01*
X132065408Y-112999999D01*
X132065408Y-112999995D01*
X132045803Y-112738379D01*
X132045802Y-112738374D01*
X132045802Y-112738370D01*
X131987420Y-112482584D01*
X131947923Y-112381949D01*
X131941755Y-112312353D01*
X131974193Y-112250470D01*
X132034938Y-112215947D01*
X132099902Y-112218157D01*
X132348337Y-112294790D01*
X132348343Y-112294792D01*
X132615101Y-112334999D01*
X132615110Y-112335000D01*
X132884890Y-112335000D01*
X132884898Y-112334999D01*
X133151656Y-112294792D01*
X133151662Y-112294790D01*
X133409461Y-112215269D01*
X133652521Y-112098218D01*
X133835150Y-111973702D01*
X133112294Y-111250846D01*
X133128942Y-111243951D01*
X133259970Y-111156401D01*
X133371401Y-111044970D01*
X133458951Y-110913942D01*
X133465846Y-110897294D01*
X134187703Y-111619151D01*
X134187704Y-111619150D01*
X134241393Y-111551828D01*
X134241400Y-111551817D01*
X134376290Y-111318181D01*
X134474851Y-111067052D01*
X134474857Y-111067033D01*
X134534886Y-110804028D01*
X134534886Y-110804026D01*
X134555047Y-110535004D01*
X134555047Y-110534995D01*
X134534886Y-110265973D01*
X134534886Y-110265971D01*
X134474857Y-110002966D01*
X134474851Y-110002947D01*
X134376290Y-109751818D01*
X134376291Y-109751818D01*
X134241397Y-109518177D01*
X134187704Y-109450847D01*
X133465846Y-110172705D01*
X133458951Y-110156058D01*
X133371401Y-110025030D01*
X133259970Y-109913599D01*
X133128942Y-109826049D01*
X133112294Y-109819153D01*
X133835150Y-109096296D01*
X133652517Y-108971779D01*
X133652516Y-108971778D01*
X133409460Y-108854730D01*
X133409462Y-108854730D01*
X133151662Y-108775209D01*
X133151656Y-108775207D01*
X132884898Y-108735000D01*
X132615101Y-108735000D01*
X132348343Y-108775207D01*
X132348337Y-108775209D01*
X132090538Y-108854730D01*
X131847485Y-108971778D01*
X131847476Y-108971783D01*
X131664848Y-109096296D01*
X132387705Y-109819153D01*
X132371058Y-109826049D01*
X132240030Y-109913599D01*
X132128599Y-110025030D01*
X132041049Y-110156058D01*
X132034153Y-110172706D01*
X131312295Y-109450848D01*
X131258600Y-109518180D01*
X131123709Y-109751818D01*
X131025148Y-110002947D01*
X131025142Y-110002966D01*
X130965113Y-110265971D01*
X130965113Y-110265973D01*
X130944953Y-110534995D01*
X130944953Y-110535004D01*
X130965113Y-110804026D01*
X130965113Y-110804028D01*
X131025142Y-111067033D01*
X131025148Y-111067052D01*
X131074706Y-111193324D01*
X131080875Y-111262921D01*
X131048437Y-111324804D01*
X130987692Y-111359327D01*
X130922729Y-111357117D01*
X130817973Y-111324804D01*
X130700623Y-111288606D01*
X130700619Y-111288605D01*
X130700615Y-111288604D01*
X130575823Y-111269794D01*
X130441187Y-111249500D01*
X130441182Y-111249500D01*
X130178818Y-111249500D01*
X130178812Y-111249500D01*
X130017247Y-111273853D01*
X129919385Y-111288604D01*
X129919382Y-111288605D01*
X129919376Y-111288606D01*
X129668673Y-111365938D01*
X129471052Y-111461107D01*
X129402111Y-111472459D01*
X129337976Y-111444736D01*
X129299011Y-111386741D01*
X129297586Y-111316886D01*
X129301823Y-111304085D01*
X129394851Y-111067052D01*
X129394857Y-111067033D01*
X129454886Y-110804028D01*
X129454886Y-110804026D01*
X129475047Y-110535004D01*
X129475047Y-110534995D01*
X129454886Y-110265973D01*
X129454886Y-110265971D01*
X129394857Y-110002966D01*
X129394851Y-110002947D01*
X129296290Y-109751818D01*
X129296291Y-109751818D01*
X129161397Y-109518177D01*
X129107704Y-109450847D01*
X128385846Y-110172705D01*
X128378951Y-110156058D01*
X128291401Y-110025030D01*
X128179970Y-109913599D01*
X128048942Y-109826049D01*
X128032294Y-109819153D01*
X128755150Y-109096296D01*
X128572517Y-108971779D01*
X128572516Y-108971778D01*
X128329460Y-108854730D01*
X128329462Y-108854730D01*
X128071662Y-108775209D01*
X128071656Y-108775207D01*
X127804898Y-108735000D01*
X127535101Y-108735000D01*
X127268343Y-108775207D01*
X127268337Y-108775209D01*
X127010538Y-108854730D01*
X126767485Y-108971778D01*
X126767476Y-108971783D01*
X126584848Y-109096296D01*
X127307705Y-109819153D01*
X127291058Y-109826049D01*
X127160030Y-109913599D01*
X127048599Y-110025030D01*
X126961049Y-110156058D01*
X126954153Y-110172706D01*
X126232295Y-109450848D01*
X126178600Y-109518180D01*
X126043709Y-109751818D01*
X125945148Y-110002947D01*
X125945142Y-110002966D01*
X125885113Y-110265971D01*
X125885113Y-110265973D01*
X125864953Y-110534995D01*
X121204024Y-110534995D01*
X121204024Y-109462797D01*
X121223709Y-109395758D01*
X121276513Y-109350003D01*
X121314136Y-109339577D01*
X121382779Y-109331844D01*
X121553046Y-109272265D01*
X121705786Y-109176292D01*
X121833340Y-109048738D01*
X121929313Y-108895998D01*
X121988892Y-108725731D01*
X121998685Y-108638805D01*
X122025750Y-108574394D01*
X122034214Y-108565019D01*
X124212416Y-106386819D01*
X124273739Y-106353334D01*
X124300097Y-106350500D01*
X139538331Y-106350500D01*
X139538347Y-106350501D01*
X139545943Y-106350501D01*
X139704054Y-106350501D01*
X139704057Y-106350501D01*
X139856785Y-106309577D01*
X139918040Y-106274211D01*
X139993716Y-106230520D01*
X140105520Y-106118716D01*
X140105520Y-106118714D01*
X140115724Y-106108511D01*
X140115727Y-106108506D01*
X145612416Y-100611819D01*
X145673739Y-100578334D01*
X145700097Y-100575500D01*
X145858924Y-100575500D01*
X145858926Y-100575500D01*
X146073069Y-100535470D01*
X146276210Y-100456772D01*
X146461432Y-100342088D01*
X146622427Y-100195322D01*
X146651047Y-100157422D01*
X146707153Y-100115787D01*
X146776865Y-100111094D01*
X146838048Y-100144836D01*
X146848946Y-100157414D01*
X146877573Y-100195322D01*
X147038568Y-100342088D01*
X147038575Y-100342092D01*
X147038576Y-100342093D01*
X147223786Y-100456770D01*
X147223792Y-100456773D01*
X147246664Y-100465633D01*
X147426931Y-100535470D01*
X147641074Y-100575500D01*
X147641076Y-100575500D01*
X147858924Y-100575500D01*
X147858926Y-100575500D01*
X148073069Y-100535470D01*
X148276210Y-100456772D01*
X148461432Y-100342088D01*
X148472779Y-100331743D01*
X148535579Y-100301125D01*
X148604966Y-100309319D01*
X148655585Y-100349067D01*
X148717809Y-100432187D01*
X148717812Y-100432190D01*
X148832906Y-100518350D01*
X148832913Y-100518354D01*
X148967620Y-100568596D01*
X148967627Y-100568598D01*
X149027155Y-100574999D01*
X149027172Y-100575000D01*
X149500000Y-100575000D01*
X149500000Y-99715686D01*
X149504394Y-99720080D01*
X149595606Y-99772741D01*
X149697339Y-99800000D01*
X149802661Y-99800000D01*
X149904394Y-99772741D01*
X149995606Y-99720080D01*
X150000000Y-99715686D01*
X150000000Y-100575000D01*
X150472828Y-100575000D01*
X150472844Y-100574999D01*
X150532372Y-100568598D01*
X150532379Y-100568596D01*
X150667086Y-100518354D01*
X150667093Y-100518350D01*
X150782187Y-100432190D01*
X150782190Y-100432187D01*
X150868350Y-100317093D01*
X150868354Y-100317086D01*
X150918596Y-100182379D01*
X150918598Y-100182372D01*
X150924999Y-100122844D01*
X150925000Y-100122827D01*
X150925000Y-99650000D01*
X150065686Y-99650000D01*
X150070080Y-99645606D01*
X150122741Y-99554394D01*
X150150000Y-99452661D01*
X150150000Y-99347339D01*
X150122741Y-99245606D01*
X150070080Y-99154394D01*
X150065686Y-99150000D01*
X150925000Y-99150000D01*
X150925000Y-98677172D01*
X150924999Y-98677155D01*
X150918598Y-98617627D01*
X150918596Y-98617620D01*
X150868354Y-98482913D01*
X150868350Y-98482906D01*
X150782190Y-98367812D01*
X150782187Y-98367809D01*
X150667093Y-98281649D01*
X150667086Y-98281645D01*
X150532379Y-98231403D01*
X150532372Y-98231401D01*
X150472844Y-98225000D01*
X150000000Y-98225000D01*
X150000000Y-99084314D01*
X149995606Y-99079920D01*
X149904394Y-99027259D01*
X149802661Y-99000000D01*
X149697339Y-99000000D01*
X149595606Y-99027259D01*
X149504394Y-99079920D01*
X149500000Y-99084314D01*
X149500000Y-98225000D01*
X149027155Y-98225000D01*
X148967627Y-98231401D01*
X148967620Y-98231403D01*
X148832913Y-98281645D01*
X148832906Y-98281649D01*
X148717812Y-98367809D01*
X148655585Y-98450933D01*
X148599651Y-98492803D01*
X148529959Y-98497787D01*
X148472781Y-98468258D01*
X148461432Y-98457912D01*
X148461429Y-98457910D01*
X148461428Y-98457909D01*
X148276213Y-98343229D01*
X148276207Y-98343226D01*
X148191113Y-98310260D01*
X148073069Y-98264530D01*
X147858926Y-98224500D01*
X147641074Y-98224500D01*
X147426931Y-98264530D01*
X147425677Y-98265016D01*
X147223792Y-98343226D01*
X147223786Y-98343229D01*
X147038576Y-98457906D01*
X147038566Y-98457913D01*
X146877573Y-98604676D01*
X146848953Y-98642576D01*
X146792844Y-98684211D01*
X146723132Y-98688902D01*
X146661950Y-98655159D01*
X146651047Y-98642576D01*
X146622426Y-98604676D01*
X146461433Y-98457913D01*
X146461423Y-98457906D01*
X146276213Y-98343229D01*
X146276207Y-98343226D01*
X146191113Y-98310260D01*
X146073069Y-98264530D01*
X145858926Y-98224500D01*
X145641074Y-98224500D01*
X145426931Y-98264530D01*
X145425677Y-98265016D01*
X145223792Y-98343226D01*
X145223786Y-98343229D01*
X145038576Y-98457906D01*
X145038566Y-98457913D01*
X144877573Y-98604676D01*
X144848953Y-98642576D01*
X144792844Y-98684211D01*
X144723132Y-98688902D01*
X144661950Y-98655159D01*
X144651047Y-98642576D01*
X144622426Y-98604676D01*
X144461433Y-98457913D01*
X144461423Y-98457906D01*
X144276213Y-98343229D01*
X144276207Y-98343226D01*
X144191113Y-98310260D01*
X144073069Y-98264530D01*
X143858926Y-98224500D01*
X143641074Y-98224500D01*
X143426931Y-98264530D01*
X143425677Y-98265016D01*
X143223792Y-98343226D01*
X143223786Y-98343229D01*
X143038576Y-98457906D01*
X143038566Y-98457913D01*
X142877573Y-98604676D01*
X142848953Y-98642576D01*
X142792844Y-98684211D01*
X142723132Y-98688902D01*
X142661950Y-98655159D01*
X142651047Y-98642576D01*
X142622426Y-98604676D01*
X142461433Y-98457913D01*
X142461423Y-98457906D01*
X142276213Y-98343229D01*
X142276207Y-98343226D01*
X142191113Y-98310260D01*
X142073069Y-98264530D01*
X141858926Y-98224500D01*
X141641074Y-98224500D01*
X141426931Y-98264530D01*
X141425677Y-98265016D01*
X141223792Y-98343226D01*
X141223786Y-98343229D01*
X141038576Y-98457906D01*
X141038566Y-98457913D01*
X140877573Y-98604676D01*
X140848953Y-98642576D01*
X140792844Y-98684211D01*
X140723132Y-98688902D01*
X140661950Y-98655159D01*
X140651047Y-98642576D01*
X140622426Y-98604676D01*
X140461433Y-98457913D01*
X140461423Y-98457906D01*
X140276213Y-98343229D01*
X140276207Y-98343226D01*
X140191113Y-98310260D01*
X140073069Y-98264530D01*
X139858926Y-98224500D01*
X139641074Y-98224500D01*
X139426931Y-98264530D01*
X139425677Y-98265016D01*
X139223792Y-98343226D01*
X139223786Y-98343229D01*
X139038576Y-98457906D01*
X139038566Y-98457913D01*
X138877573Y-98604676D01*
X138848953Y-98642576D01*
X138792844Y-98684211D01*
X138723132Y-98688902D01*
X138661950Y-98655159D01*
X138651047Y-98642576D01*
X138622426Y-98604676D01*
X138461433Y-98457913D01*
X138461423Y-98457906D01*
X138276213Y-98343229D01*
X138276207Y-98343226D01*
X138191113Y-98310260D01*
X138073069Y-98264530D01*
X137858926Y-98224500D01*
X137641074Y-98224500D01*
X137426931Y-98264530D01*
X137425677Y-98265016D01*
X137223792Y-98343226D01*
X137223786Y-98343229D01*
X137038576Y-98457906D01*
X137038566Y-98457913D01*
X136877574Y-98604676D01*
X136797994Y-98710057D01*
X136780556Y-98722996D01*
X136150000Y-99353552D01*
X136150000Y-99347339D01*
X136122741Y-99245606D01*
X136070080Y-99154394D01*
X135995606Y-99079920D01*
X135904394Y-99027259D01*
X135802661Y-99000000D01*
X135796447Y-99000000D01*
X136385166Y-98411279D01*
X136275987Y-98343677D01*
X136275985Y-98343676D01*
X136072939Y-98265016D01*
X136072929Y-98265013D01*
X135858878Y-98225000D01*
X135641122Y-98225000D01*
X135427070Y-98265013D01*
X135427069Y-98265013D01*
X135224016Y-98343676D01*
X135224015Y-98343676D01*
X135114832Y-98411279D01*
X135703554Y-99000000D01*
X135697339Y-99000000D01*
X135595606Y-99027259D01*
X135504394Y-99079920D01*
X135429920Y-99154394D01*
X135377259Y-99245606D01*
X135350000Y-99347339D01*
X135350000Y-99353553D01*
X134758987Y-98762540D01*
X134746719Y-98778785D01*
X134746711Y-98778798D01*
X134649655Y-98973712D01*
X134649650Y-98973725D01*
X134590057Y-99183169D01*
X134569966Y-99399999D01*
X134569966Y-99400000D01*
X134590057Y-99616830D01*
X134649650Y-99826274D01*
X134649655Y-99826287D01*
X134746711Y-100021202D01*
X134746713Y-100021204D01*
X134758987Y-100037457D01*
X135350000Y-99446445D01*
X135350000Y-99452661D01*
X135377259Y-99554394D01*
X135429920Y-99645606D01*
X135504394Y-99720080D01*
X135595606Y-99772741D01*
X135697339Y-99800000D01*
X135703553Y-99800000D01*
X135114833Y-100388719D01*
X135114833Y-100388720D01*
X135224010Y-100456321D01*
X135224014Y-100456323D01*
X135427060Y-100534983D01*
X135427070Y-100534986D01*
X135641122Y-100575000D01*
X135858878Y-100575000D01*
X136072929Y-100534986D01*
X136072939Y-100534983D01*
X136275976Y-100456326D01*
X136275989Y-100456320D01*
X136385165Y-100388719D01*
X135796448Y-99800000D01*
X135802661Y-99800000D01*
X135904394Y-99772741D01*
X135995606Y-99720080D01*
X136070080Y-99645606D01*
X136122741Y-99554394D01*
X136150000Y-99452661D01*
X136150000Y-99446446D01*
X136764793Y-100061239D01*
X136797993Y-100089941D01*
X136877573Y-100195322D01*
X137038568Y-100342088D01*
X137038575Y-100342092D01*
X137038576Y-100342093D01*
X137223786Y-100456770D01*
X137223792Y-100456773D01*
X137252159Y-100467762D01*
X137426931Y-100535470D01*
X137480767Y-100545533D01*
X137543046Y-100577199D01*
X137578320Y-100637511D01*
X137575387Y-100707319D01*
X137545662Y-100755102D01*
X134937584Y-103363181D01*
X134876261Y-103396666D01*
X134849903Y-103399500D01*
X120420940Y-103399500D01*
X120380019Y-103410464D01*
X120380019Y-103410465D01*
X120342751Y-103420451D01*
X120268214Y-103440423D01*
X120268209Y-103440426D01*
X120131290Y-103519475D01*
X120131282Y-103519481D01*
X115812181Y-107838583D01*
X115750858Y-107872068D01*
X115681166Y-107867084D01*
X115625233Y-107825212D01*
X115600816Y-107759748D01*
X115600500Y-107750902D01*
X115600500Y-100500000D01*
X117744659Y-100500000D01*
X117763975Y-100696129D01*
X117770351Y-100717147D01*
X117789630Y-100780703D01*
X117821188Y-100884733D01*
X117914086Y-101058532D01*
X117914090Y-101058539D01*
X118039116Y-101210883D01*
X118191460Y-101335909D01*
X118191467Y-101335913D01*
X118365266Y-101428811D01*
X118365269Y-101428811D01*
X118365273Y-101428814D01*
X118553868Y-101486024D01*
X118750000Y-101505341D01*
X118946132Y-101486024D01*
X119134727Y-101428814D01*
X119152048Y-101419556D01*
X119308532Y-101335913D01*
X119308538Y-101335910D01*
X119460883Y-101210883D01*
X119585910Y-101058538D01*
X119678814Y-100884727D01*
X119736024Y-100696132D01*
X119755341Y-100500000D01*
X119736024Y-100303868D01*
X119678814Y-100115273D01*
X119678811Y-100115269D01*
X119678811Y-100115266D01*
X119585913Y-99941467D01*
X119585911Y-99941465D01*
X119585910Y-99941462D01*
X119566711Y-99918068D01*
X119528647Y-99871686D01*
X119501334Y-99807376D01*
X119500500Y-99793021D01*
X119500500Y-96288269D01*
X119520185Y-96221230D01*
X119536814Y-96200593D01*
X125117748Y-90619658D01*
X125179069Y-90586175D01*
X125248761Y-90591159D01*
X125304694Y-90633031D01*
X125329111Y-90698495D01*
X125315913Y-90763634D01*
X125306253Y-90782592D01*
X125306250Y-90782599D01*
X125250318Y-90954745D01*
X125250315Y-90954755D01*
X125247261Y-90974041D01*
X126191670Y-90974041D01*
X126171925Y-90993786D01*
X126122556Y-91079296D01*
X126097000Y-91174671D01*
X126097000Y-91273411D01*
X126122556Y-91368786D01*
X126171925Y-91454296D01*
X126191670Y-91474041D01*
X125247261Y-91474041D01*
X125250315Y-91493326D01*
X125250318Y-91493336D01*
X125306250Y-91665482D01*
X125306252Y-91665488D01*
X125388434Y-91826775D01*
X125494823Y-91973210D01*
X125546618Y-92025005D01*
X125580103Y-92086328D01*
X125575119Y-92156020D01*
X125546620Y-92200366D01*
X125494440Y-92252546D01*
X125388006Y-92399043D01*
X125305788Y-92560401D01*
X125305787Y-92560404D01*
X125249829Y-92732630D01*
X125221500Y-92911489D01*
X125221500Y-93092592D01*
X125249829Y-93271451D01*
X125305787Y-93443677D01*
X125305788Y-93443680D01*
X125388006Y-93605038D01*
X125494441Y-93751535D01*
X125494445Y-93751540D01*
X125622500Y-93879595D01*
X125622505Y-93879599D01*
X125750287Y-93972437D01*
X125769006Y-93986037D01*
X125874484Y-94039781D01*
X125930360Y-94068252D01*
X125930363Y-94068253D01*
X126016476Y-94096232D01*
X126102591Y-94124212D01*
X126185429Y-94137332D01*
X126281449Y-94152541D01*
X126281454Y-94152541D01*
X126662551Y-94152541D01*
X126749259Y-94138806D01*
X126841409Y-94124212D01*
X127013639Y-94068252D01*
X127174994Y-93986037D01*
X127321501Y-93879594D01*
X127449553Y-93751542D01*
X127555996Y-93605035D01*
X127638211Y-93443680D01*
X127694171Y-93271450D01*
X127712027Y-93158714D01*
X127722500Y-93092592D01*
X127722500Y-92911489D01*
X127696394Y-92746668D01*
X127694171Y-92732632D01*
X127650908Y-92599480D01*
X127638212Y-92560404D01*
X127638211Y-92560401D01*
X127602290Y-92489903D01*
X127555996Y-92399047D01*
X127542396Y-92380328D01*
X127449558Y-92252546D01*
X127449554Y-92252541D01*
X127397381Y-92200368D01*
X127363896Y-92139045D01*
X127368880Y-92069353D01*
X127397381Y-92025006D01*
X127449172Y-91973214D01*
X127449176Y-91973210D01*
X127555565Y-91826775D01*
X127637747Y-91665488D01*
X127637749Y-91665482D01*
X127693681Y-91493336D01*
X127693684Y-91493326D01*
X127696739Y-91474041D01*
X126752330Y-91474041D01*
X126772075Y-91454296D01*
X126821444Y-91368786D01*
X126847000Y-91273411D01*
X126847000Y-91174671D01*
X126821444Y-91079296D01*
X126772075Y-90993786D01*
X126752330Y-90974041D01*
X127696739Y-90974041D01*
X127693684Y-90954755D01*
X127693681Y-90954745D01*
X127637749Y-90782599D01*
X127637747Y-90782593D01*
X127555563Y-90621301D01*
X127553022Y-90617154D01*
X127554470Y-90616266D01*
X127533458Y-90557408D01*
X127549273Y-90489351D01*
X127574301Y-90460877D01*
X127573278Y-90459854D01*
X127579538Y-90453592D01*
X127579546Y-90453587D01*
X127665796Y-90338372D01*
X127716091Y-90203524D01*
X127722500Y-90143914D01*
X127722499Y-88748169D01*
X127716091Y-88688558D01*
X127711725Y-88676853D01*
X127665797Y-88553712D01*
X127665793Y-88553705D01*
X127579547Y-88438496D01*
X127579544Y-88438493D01*
X127464335Y-88352247D01*
X127464328Y-88352243D01*
X127329482Y-88301949D01*
X127329483Y-88301949D01*
X127269883Y-88295542D01*
X127269881Y-88295541D01*
X127269873Y-88295541D01*
X127269864Y-88295541D01*
X125674129Y-88295541D01*
X125674123Y-88295542D01*
X125614516Y-88301949D01*
X125479671Y-88352243D01*
X125479664Y-88352247D01*
X125364455Y-88438493D01*
X125364452Y-88438496D01*
X125278206Y-88553705D01*
X125278203Y-88553710D01*
X125261472Y-88598570D01*
X125219600Y-88654503D01*
X125169482Y-88676853D01*
X125031092Y-88704381D01*
X125031082Y-88704384D01*
X124894511Y-88760953D01*
X124894498Y-88760960D01*
X124771584Y-88843089D01*
X124771580Y-88843092D01*
X118167050Y-95447621D01*
X118167044Y-95447629D01*
X118117812Y-95521309D01*
X118117813Y-95521310D01*
X118084921Y-95570537D01*
X118084914Y-95570549D01*
X118028342Y-95707127D01*
X118028340Y-95707133D01*
X117999500Y-95852120D01*
X117999500Y-99793021D01*
X117979815Y-99860060D01*
X117971353Y-99871686D01*
X117914091Y-99941460D01*
X117914086Y-99941467D01*
X117821188Y-100115266D01*
X117763975Y-100303870D01*
X117744659Y-100500000D01*
X115600500Y-100500000D01*
X115600500Y-83885676D01*
X118554500Y-83885676D01*
X118554500Y-85886411D01*
X118554501Y-85886417D01*
X118560908Y-85946024D01*
X118611202Y-86080869D01*
X118611206Y-86080876D01*
X118697452Y-86196085D01*
X118697455Y-86196088D01*
X118812664Y-86282334D01*
X118812667Y-86282336D01*
X118812668Y-86282336D01*
X118812669Y-86282337D01*
X118841025Y-86292913D01*
X118896958Y-86334783D01*
X118921376Y-86400247D01*
X118906525Y-86468520D01*
X118898010Y-86481980D01*
X118765213Y-86664760D01*
X118661417Y-86868470D01*
X118590765Y-87085912D01*
X118576491Y-87176041D01*
X119564252Y-87176041D01*
X119542482Y-87213749D01*
X119505000Y-87353632D01*
X119505000Y-87498450D01*
X119542482Y-87638333D01*
X119564252Y-87676041D01*
X118576491Y-87676041D01*
X118590765Y-87766169D01*
X118661417Y-87983611D01*
X118765211Y-88187317D01*
X118899597Y-88372283D01*
X119061257Y-88533943D01*
X119061263Y-88533948D01*
X119145863Y-88595413D01*
X119188529Y-88650742D01*
X119194508Y-88720356D01*
X119161903Y-88782151D01*
X119145864Y-88796048D01*
X119060940Y-88857750D01*
X119060931Y-88857757D01*
X118899216Y-89019472D01*
X118899216Y-89019473D01*
X118899214Y-89019475D01*
X118855870Y-89079133D01*
X118764783Y-89204502D01*
X118660950Y-89408285D01*
X118590278Y-89625791D01*
X118590278Y-89625794D01*
X118566793Y-89774075D01*
X118554500Y-89851687D01*
X118554500Y-90080395D01*
X118564559Y-90143905D01*
X118590278Y-90306287D01*
X118590278Y-90306290D01*
X118660950Y-90523796D01*
X118716608Y-90633031D01*
X118764783Y-90727579D01*
X118899214Y-90912607D01*
X119060934Y-91074327D01*
X119245962Y-91208758D01*
X119372851Y-91273411D01*
X119449744Y-91312590D01*
X119667251Y-91383262D01*
X119667252Y-91383262D01*
X119667255Y-91383263D01*
X119893146Y-91419041D01*
X119893147Y-91419041D01*
X120216853Y-91419041D01*
X120216854Y-91419041D01*
X120442745Y-91383263D01*
X120442748Y-91383262D01*
X120442749Y-91383262D01*
X120660255Y-91312590D01*
X120660255Y-91312589D01*
X120660258Y-91312589D01*
X120864038Y-91208758D01*
X121049066Y-91074327D01*
X121210786Y-90912607D01*
X121345217Y-90727579D01*
X121449048Y-90523799D01*
X121484936Y-90413348D01*
X121519721Y-90306290D01*
X121519721Y-90306289D01*
X121519722Y-90306286D01*
X121555500Y-90080395D01*
X121555500Y-89851687D01*
X121519722Y-89625796D01*
X121519721Y-89625792D01*
X121519721Y-89625791D01*
X121449049Y-89408285D01*
X121410282Y-89332201D01*
X121345217Y-89204503D01*
X121210786Y-89019475D01*
X121049066Y-88857755D01*
X120964134Y-88796048D01*
X120921470Y-88740719D01*
X120915491Y-88671105D01*
X120948097Y-88609310D01*
X120964137Y-88595412D01*
X121048739Y-88533946D01*
X121210402Y-88372283D01*
X121344788Y-88187317D01*
X121448582Y-87983611D01*
X121519234Y-87766169D01*
X121533509Y-87676041D01*
X120545748Y-87676041D01*
X120567518Y-87638333D01*
X120605000Y-87498450D01*
X120605000Y-87353632D01*
X120567518Y-87213749D01*
X120545748Y-87176041D01*
X121533509Y-87176041D01*
X121519234Y-87085912D01*
X121448582Y-86868470D01*
X121344788Y-86664764D01*
X121211988Y-86481981D01*
X121188508Y-86416174D01*
X121204333Y-86348120D01*
X121254439Y-86299425D01*
X121268966Y-86292916D01*
X121297331Y-86282337D01*
X121412546Y-86196087D01*
X121498796Y-86080872D01*
X121549091Y-85946024D01*
X121555500Y-85886414D01*
X121555499Y-83885669D01*
X121549091Y-83826058D01*
X121547104Y-83820731D01*
X121498797Y-83691212D01*
X121498793Y-83691205D01*
X121412547Y-83575996D01*
X121412544Y-83575993D01*
X121297335Y-83489747D01*
X121297328Y-83489743D01*
X121162482Y-83439449D01*
X121162483Y-83439449D01*
X121102883Y-83433042D01*
X121102881Y-83433041D01*
X121102873Y-83433041D01*
X121102864Y-83433041D01*
X119007129Y-83433041D01*
X119007123Y-83433042D01*
X118947516Y-83439449D01*
X118812671Y-83489743D01*
X118812664Y-83489747D01*
X118697455Y-83575993D01*
X118697452Y-83575996D01*
X118611206Y-83691205D01*
X118611202Y-83691212D01*
X118560908Y-83826058D01*
X118554501Y-83885657D01*
X118554501Y-83885664D01*
X118554500Y-83885676D01*
X115600500Y-83885676D01*
X115600500Y-79695945D01*
X115600500Y-79695943D01*
X115585044Y-79638261D01*
X115559577Y-79543215D01*
X115491950Y-79426082D01*
X115491950Y-79426081D01*
X115480523Y-79406289D01*
X115480522Y-79406288D01*
X115480520Y-79406284D01*
X115368716Y-79294480D01*
X115368715Y-79294479D01*
X115364385Y-79290149D01*
X115364374Y-79290139D01*
X113500274Y-77426039D01*
X124194532Y-77426039D01*
X124194532Y-77426042D01*
X124214364Y-77652727D01*
X124214366Y-77652738D01*
X124273258Y-77872529D01*
X124273260Y-77872533D01*
X124273261Y-77872537D01*
X124282753Y-77892892D01*
X124369431Y-78078774D01*
X124369433Y-78078778D01*
X124378409Y-78091596D01*
X124400737Y-78157802D01*
X124383727Y-78225569D01*
X124351150Y-78261983D01*
X124342462Y-78268487D01*
X124342451Y-78268498D01*
X124256206Y-78383705D01*
X124256202Y-78383712D01*
X124205908Y-78518558D01*
X124199501Y-78578157D01*
X124199501Y-78578164D01*
X124199500Y-78578176D01*
X124199500Y-80273911D01*
X124199501Y-80273917D01*
X124205908Y-80333524D01*
X124256202Y-80468369D01*
X124256206Y-80468376D01*
X124342452Y-80583585D01*
X124342455Y-80583588D01*
X124457664Y-80669834D01*
X124457671Y-80669838D01*
X124592517Y-80720132D01*
X124592516Y-80720132D01*
X124599444Y-80720876D01*
X124652127Y-80726541D01*
X126347872Y-80726540D01*
X126407483Y-80720132D01*
X126542331Y-80669837D01*
X126657546Y-80583587D01*
X126743796Y-80468372D01*
X126794091Y-80333524D01*
X126800500Y-80273914D01*
X126800499Y-78578169D01*
X126794091Y-78518558D01*
X126775741Y-78469360D01*
X126743797Y-78383712D01*
X126743793Y-78383705D01*
X126657548Y-78268498D01*
X126657546Y-78268495D01*
X126657544Y-78268493D01*
X126657542Y-78268491D01*
X126648852Y-78261986D01*
X126606981Y-78206051D01*
X126601998Y-78136359D01*
X126621593Y-78091592D01*
X126622235Y-78090675D01*
X126630568Y-78078775D01*
X126726739Y-77872537D01*
X126731351Y-77855324D01*
X130544500Y-77855324D01*
X130544500Y-78044297D01*
X130574059Y-78230929D01*
X130632454Y-78410647D01*
X130687438Y-78518558D01*
X130718240Y-78579010D01*
X130829310Y-78731884D01*
X130829312Y-78731886D01*
X130909556Y-78812130D01*
X130943041Y-78873453D01*
X130938057Y-78943145D01*
X130909556Y-78987492D01*
X130829312Y-79067735D01*
X130829312Y-79067736D01*
X130829310Y-79067738D01*
X130783141Y-79131284D01*
X130718240Y-79220611D01*
X130632454Y-79388974D01*
X130574059Y-79568692D01*
X130544500Y-79755324D01*
X130544500Y-79944297D01*
X130574059Y-80130929D01*
X130632454Y-80310647D01*
X130712818Y-80468369D01*
X130718240Y-80479010D01*
X130829310Y-80631884D01*
X130829312Y-80631886D01*
X130909909Y-80712483D01*
X130943394Y-80773806D01*
X130938410Y-80843498D01*
X130909909Y-80887845D01*
X130829689Y-80968064D01*
X130829685Y-80968069D01*
X130718670Y-81120870D01*
X130632914Y-81289173D01*
X130574548Y-81468808D01*
X130569638Y-81499811D01*
X131511988Y-81499811D01*
X131479075Y-81556818D01*
X131445000Y-81683985D01*
X131445000Y-81815637D01*
X131479075Y-81942804D01*
X131511988Y-81999811D01*
X130569638Y-81999811D01*
X130574548Y-82030813D01*
X130632914Y-82210448D01*
X130718670Y-82378751D01*
X130829685Y-82531552D01*
X130829689Y-82531557D01*
X130909909Y-82611777D01*
X130943394Y-82673100D01*
X130938410Y-82742792D01*
X130909909Y-82787139D01*
X130829312Y-82867735D01*
X130829312Y-82867736D01*
X130829310Y-82867738D01*
X130786131Y-82927169D01*
X130718240Y-83020611D01*
X130632454Y-83188974D01*
X130574059Y-83368692D01*
X130544500Y-83555324D01*
X130544500Y-83744297D01*
X130574059Y-83930929D01*
X130632454Y-84110647D01*
X130663177Y-84170943D01*
X130718240Y-84279010D01*
X130735897Y-84303313D01*
X130735899Y-84303315D01*
X130759379Y-84369121D01*
X130743554Y-84437175D01*
X130709893Y-84475467D01*
X130687452Y-84492266D01*
X130601206Y-84607475D01*
X130601202Y-84607482D01*
X130550908Y-84742328D01*
X130546962Y-84779035D01*
X130544501Y-84801934D01*
X130544500Y-84801946D01*
X130544500Y-86297681D01*
X130544501Y-86297687D01*
X130550908Y-86357294D01*
X130601202Y-86492139D01*
X130601206Y-86492146D01*
X130687452Y-86607355D01*
X130687455Y-86607358D01*
X130802664Y-86693604D01*
X130802671Y-86693608D01*
X130937517Y-86743902D01*
X130937516Y-86743902D01*
X130944444Y-86744646D01*
X130997127Y-86750311D01*
X132892872Y-86750310D01*
X132952483Y-86743902D01*
X133087331Y-86693607D01*
X133202546Y-86607357D01*
X133288796Y-86492142D01*
X133339091Y-86357294D01*
X133345500Y-86297684D01*
X133345499Y-84801939D01*
X133339091Y-84742328D01*
X133288796Y-84607480D01*
X133288795Y-84607479D01*
X133288793Y-84607475D01*
X133202548Y-84492267D01*
X133202546Y-84492266D01*
X133202546Y-84492265D01*
X133180105Y-84475466D01*
X133138236Y-84419534D01*
X133133252Y-84349843D01*
X133154101Y-84303314D01*
X133171760Y-84279010D01*
X133257547Y-84110643D01*
X133315940Y-83930929D01*
X133323108Y-83885670D01*
X133345500Y-83744297D01*
X133345500Y-83555324D01*
X133315940Y-83368692D01*
X133257545Y-83188974D01*
X133171759Y-83020611D01*
X133060690Y-82867738D01*
X132980091Y-82787139D01*
X132946606Y-82725816D01*
X132951590Y-82656124D01*
X132980091Y-82611777D01*
X133060310Y-82531557D01*
X133060314Y-82531552D01*
X133171329Y-82378751D01*
X133257085Y-82210448D01*
X133315451Y-82030813D01*
X133320362Y-81999811D01*
X132378012Y-81999811D01*
X132410925Y-81942804D01*
X132445000Y-81815637D01*
X132445000Y-81683985D01*
X132410925Y-81556818D01*
X132378012Y-81499811D01*
X133320362Y-81499811D01*
X133315451Y-81468808D01*
X133257085Y-81289173D01*
X133171329Y-81120870D01*
X133060314Y-80968069D01*
X133060310Y-80968064D01*
X132980091Y-80887845D01*
X132946606Y-80826522D01*
X132951590Y-80756830D01*
X132980091Y-80712483D01*
X132981968Y-80710606D01*
X133060690Y-80631884D01*
X133171760Y-80479010D01*
X133257547Y-80310643D01*
X133315940Y-80130929D01*
X133324783Y-80075097D01*
X133345500Y-79944297D01*
X133345500Y-79755324D01*
X133315940Y-79568692D01*
X133288846Y-79485308D01*
X133257547Y-79388979D01*
X133257545Y-79388976D01*
X133257545Y-79388974D01*
X133212290Y-79300158D01*
X133171760Y-79220612D01*
X133060690Y-79067738D01*
X132980444Y-78987492D01*
X132946959Y-78926169D01*
X132951943Y-78856477D01*
X132980444Y-78812130D01*
X133060690Y-78731884D01*
X133171760Y-78579010D01*
X133257547Y-78410643D01*
X133315940Y-78230929D01*
X133327522Y-78157802D01*
X133345500Y-78044297D01*
X133345500Y-77855324D01*
X133315940Y-77668692D01*
X133262615Y-77504577D01*
X133257547Y-77488979D01*
X133257545Y-77488976D01*
X133257545Y-77488974D01*
X133171759Y-77320611D01*
X133060690Y-77167738D01*
X132927073Y-77034121D01*
X132774199Y-76923051D01*
X132749498Y-76910465D01*
X132605836Y-76837265D01*
X132426118Y-76778870D01*
X132239486Y-76749311D01*
X132239481Y-76749311D01*
X131650519Y-76749311D01*
X131650514Y-76749311D01*
X131463881Y-76778870D01*
X131284163Y-76837265D01*
X131115800Y-76923051D01*
X131044115Y-76975134D01*
X130962927Y-77034121D01*
X130962925Y-77034123D01*
X130962924Y-77034123D01*
X130829312Y-77167735D01*
X130829312Y-77167736D01*
X130829310Y-77167738D01*
X130806348Y-77199343D01*
X130718240Y-77320611D01*
X130632454Y-77488974D01*
X130574059Y-77668692D01*
X130544500Y-77855324D01*
X126731351Y-77855324D01*
X126785635Y-77652733D01*
X126805468Y-77426041D01*
X126805422Y-77425520D01*
X126795641Y-77313716D01*
X126785635Y-77199349D01*
X126737440Y-77019481D01*
X126726741Y-76979552D01*
X126726738Y-76979543D01*
X126708496Y-76940423D01*
X126630568Y-76773307D01*
X126500047Y-76586902D01*
X126500045Y-76586899D01*
X126339141Y-76425995D01*
X126152734Y-76295473D01*
X126152732Y-76295472D01*
X125946497Y-76199302D01*
X125946488Y-76199299D01*
X125726697Y-76140407D01*
X125726693Y-76140406D01*
X125726692Y-76140406D01*
X125726691Y-76140405D01*
X125726686Y-76140405D01*
X125500002Y-76120573D01*
X125499998Y-76120573D01*
X125273313Y-76140405D01*
X125273302Y-76140407D01*
X125053511Y-76199299D01*
X125053502Y-76199302D01*
X124847267Y-76295472D01*
X124847265Y-76295473D01*
X124660858Y-76425995D01*
X124499954Y-76586899D01*
X124369432Y-76773306D01*
X124369431Y-76773308D01*
X124273261Y-76979543D01*
X124273258Y-76979552D01*
X124214366Y-77199343D01*
X124214364Y-77199354D01*
X124194532Y-77426039D01*
X113500274Y-77426039D01*
X108126370Y-72052135D01*
X119599500Y-72052135D01*
X119599500Y-73947870D01*
X119599501Y-73947876D01*
X119605908Y-74007483D01*
X119656202Y-74142328D01*
X119656206Y-74142335D01*
X119742452Y-74257544D01*
X119742455Y-74257547D01*
X119857664Y-74343793D01*
X119857671Y-74343797D01*
X119992517Y-74394091D01*
X119992516Y-74394091D01*
X119999444Y-74394835D01*
X120052127Y-74400500D01*
X121947872Y-74400499D01*
X122007483Y-74394091D01*
X122142331Y-74343796D01*
X122257546Y-74257546D01*
X122343796Y-74142331D01*
X122394091Y-74007483D01*
X122400500Y-73947873D01*
X122400499Y-72152135D01*
X126699500Y-72152135D01*
X126699500Y-73847870D01*
X126699501Y-73847876D01*
X126705908Y-73907483D01*
X126756202Y-74042328D01*
X126756206Y-74042335D01*
X126842452Y-74157544D01*
X126842455Y-74157547D01*
X126957664Y-74243793D01*
X126957671Y-74243797D01*
X127092517Y-74294091D01*
X127092516Y-74294091D01*
X127099444Y-74294835D01*
X127152127Y-74300500D01*
X128847872Y-74300499D01*
X128907483Y-74294091D01*
X129042331Y-74243796D01*
X129157546Y-74157546D01*
X129243796Y-74042331D01*
X129294091Y-73907483D01*
X129300500Y-73847873D01*
X129300500Y-73252135D01*
X140299500Y-73252135D01*
X140299500Y-75747870D01*
X140299501Y-75747876D01*
X140305908Y-75807483D01*
X140356202Y-75942328D01*
X140356206Y-75942335D01*
X140442452Y-76057544D01*
X140442455Y-76057547D01*
X140557664Y-76143793D01*
X140557671Y-76143797D01*
X140692517Y-76194091D01*
X140692516Y-76194091D01*
X140699444Y-76194835D01*
X140752127Y-76200500D01*
X143247872Y-76200499D01*
X143307483Y-76194091D01*
X143442331Y-76143796D01*
X143557546Y-76057546D01*
X143643796Y-75942331D01*
X143694091Y-75807483D01*
X143700500Y-75747873D01*
X143700499Y-73252128D01*
X143694091Y-73192517D01*
X143643796Y-73057669D01*
X143643795Y-73057668D01*
X143643793Y-73057664D01*
X143557547Y-72942455D01*
X143557544Y-72942452D01*
X143442335Y-72856206D01*
X143442328Y-72856202D01*
X143307482Y-72805908D01*
X143307483Y-72805908D01*
X143247883Y-72799501D01*
X143247881Y-72799500D01*
X143247873Y-72799500D01*
X143247864Y-72799500D01*
X140752129Y-72799500D01*
X140752123Y-72799501D01*
X140692516Y-72805908D01*
X140557671Y-72856202D01*
X140557664Y-72856206D01*
X140442455Y-72942452D01*
X140442452Y-72942455D01*
X140356206Y-73057664D01*
X140356202Y-73057671D01*
X140305908Y-73192517D01*
X140299501Y-73252116D01*
X140299501Y-73252123D01*
X140299500Y-73252135D01*
X129300500Y-73252135D01*
X129300499Y-72152128D01*
X129294091Y-72092517D01*
X129280515Y-72056119D01*
X129243797Y-71957671D01*
X129243793Y-71957664D01*
X129157547Y-71842455D01*
X129157544Y-71842452D01*
X129042335Y-71756206D01*
X129042328Y-71756202D01*
X128907482Y-71705908D01*
X128907483Y-71705908D01*
X128847883Y-71699501D01*
X128847881Y-71699500D01*
X128847873Y-71699500D01*
X128847864Y-71699500D01*
X127152129Y-71699500D01*
X127152123Y-71699501D01*
X127092516Y-71705908D01*
X126957671Y-71756202D01*
X126957664Y-71756206D01*
X126842455Y-71842452D01*
X126842452Y-71842455D01*
X126756206Y-71957664D01*
X126756202Y-71957671D01*
X126705908Y-72092517D01*
X126699501Y-72152116D01*
X126699501Y-72152123D01*
X126699500Y-72152135D01*
X122400499Y-72152135D01*
X122400499Y-72052128D01*
X122394091Y-71992517D01*
X122381094Y-71957671D01*
X122343797Y-71857671D01*
X122343793Y-71857664D01*
X122257547Y-71742455D01*
X122257544Y-71742452D01*
X122142335Y-71656206D01*
X122142328Y-71656202D01*
X122007482Y-71605908D01*
X122007483Y-71605908D01*
X121947883Y-71599501D01*
X121947881Y-71599500D01*
X121947873Y-71599500D01*
X121947864Y-71599500D01*
X120052129Y-71599500D01*
X120052123Y-71599501D01*
X119992516Y-71605908D01*
X119857671Y-71656202D01*
X119857664Y-71656206D01*
X119742455Y-71742452D01*
X119742452Y-71742455D01*
X119656206Y-71857664D01*
X119656202Y-71857671D01*
X119605908Y-71992517D01*
X119599501Y-72052116D01*
X119599501Y-72052123D01*
X119599500Y-72052135D01*
X108126370Y-72052135D01*
X108080700Y-72006465D01*
X108047215Y-71945142D01*
X108045163Y-71932686D01*
X108035368Y-71845745D01*
X107975789Y-71675478D01*
X107879816Y-71522738D01*
X107752262Y-71395184D01*
X107599523Y-71299211D01*
X107429254Y-71239631D01*
X107429249Y-71239630D01*
X107250004Y-71219435D01*
X107249996Y-71219435D01*
X107070750Y-71239630D01*
X107070745Y-71239631D01*
X106900476Y-71299211D01*
X106747737Y-71395184D01*
X106620184Y-71522737D01*
X106524211Y-71675476D01*
X106464631Y-71845745D01*
X106464630Y-71845750D01*
X106444435Y-72024996D01*
X106444435Y-72025003D01*
X106464630Y-72204249D01*
X106464631Y-72204254D01*
X106524211Y-72374523D01*
X106620184Y-72527262D01*
X106747738Y-72654816D01*
X106900478Y-72750789D01*
X107070745Y-72810368D01*
X107157669Y-72820161D01*
X107222080Y-72847226D01*
X107231465Y-72855700D01*
X114363181Y-79987416D01*
X114396666Y-80048739D01*
X114399500Y-80075097D01*
X114399500Y-106496523D01*
X114379815Y-106563562D01*
X114327011Y-106609317D01*
X114257853Y-106619261D01*
X114194297Y-106590236D01*
X114170507Y-106562496D01*
X114129817Y-106497739D01*
X114002262Y-106370184D01*
X113849523Y-106274211D01*
X113679254Y-106214631D01*
X113679249Y-106214630D01*
X113500004Y-106194435D01*
X113499996Y-106194435D01*
X113320750Y-106214630D01*
X113320745Y-106214631D01*
X113150476Y-106274211D01*
X112997737Y-106370184D01*
X112870184Y-106497737D01*
X112774210Y-106650478D01*
X112714630Y-106820750D01*
X112704837Y-106907668D01*
X112677770Y-106972082D01*
X112669298Y-106981465D01*
X111512310Y-108138453D01*
X111450987Y-108171938D01*
X111381295Y-108166954D01*
X111325362Y-108125082D01*
X111300945Y-108059618D01*
X111301409Y-108036888D01*
X111305565Y-108000002D01*
X111305565Y-107999996D01*
X111285369Y-107820750D01*
X111285368Y-107820745D01*
X111256948Y-107739526D01*
X111225789Y-107650478D01*
X111129816Y-107497738D01*
X111129814Y-107497736D01*
X111129813Y-107497734D01*
X111127550Y-107494896D01*
X111126659Y-107492715D01*
X111126111Y-107491842D01*
X111126264Y-107491745D01*
X111101144Y-107430209D01*
X111100500Y-107417587D01*
X111100500Y-79589059D01*
X111100501Y-79589046D01*
X111100501Y-79420945D01*
X111100501Y-79420943D01*
X111059577Y-79268215D01*
X111027138Y-79212029D01*
X110980520Y-79131284D01*
X110868716Y-79019480D01*
X110868715Y-79019479D01*
X110864385Y-79015149D01*
X110864374Y-79015139D01*
X108830700Y-76981465D01*
X108797215Y-76920142D01*
X108795163Y-76907686D01*
X108785368Y-76820745D01*
X108725789Y-76650478D01*
X108629816Y-76497738D01*
X108502262Y-76370184D01*
X108497117Y-76366951D01*
X108349523Y-76274211D01*
X108179254Y-76214631D01*
X108179249Y-76214630D01*
X108000004Y-76194435D01*
X107999996Y-76194435D01*
X107820750Y-76214630D01*
X107820745Y-76214631D01*
X107650476Y-76274211D01*
X107497737Y-76370184D01*
X107370184Y-76497737D01*
X107274211Y-76650476D01*
X107214631Y-76820745D01*
X107214631Y-76820748D01*
X107209788Y-76863725D01*
X107182720Y-76928138D01*
X107125124Y-76967692D01*
X107055287Y-76969829D01*
X106998887Y-76937520D01*
X100478534Y-70417165D01*
X100478527Y-70417159D01*
X100404842Y-70367925D01*
X100404842Y-70367926D01*
X100355604Y-70335026D01*
X100219030Y-70278456D01*
X100219020Y-70278453D01*
X100074033Y-70249613D01*
X100074031Y-70249613D01*
X98517351Y-70249613D01*
X98450312Y-70229928D01*
X98404557Y-70177124D01*
X98394061Y-70138865D01*
X98389091Y-70092629D01*
X98338797Y-69957784D01*
X98338793Y-69957777D01*
X98252547Y-69842569D01*
X98252548Y-69842569D01*
X98252546Y-69842567D01*
X98243449Y-69835757D01*
X98201581Y-69779823D01*
X98196599Y-69710131D01*
X98216191Y-69665366D01*
X98225134Y-69652594D01*
X98296291Y-69499997D01*
X126695034Y-69499997D01*
X126695034Y-69500002D01*
X126714858Y-69726599D01*
X126714860Y-69726610D01*
X126773730Y-69946317D01*
X126773735Y-69946331D01*
X126869863Y-70152478D01*
X126920974Y-70225472D01*
X127600000Y-69546446D01*
X127600000Y-69552661D01*
X127627259Y-69654394D01*
X127679920Y-69745606D01*
X127754394Y-69820080D01*
X127845606Y-69872741D01*
X127947339Y-69900000D01*
X127953553Y-69900000D01*
X127274526Y-70579025D01*
X127347513Y-70630132D01*
X127347521Y-70630136D01*
X127553668Y-70726264D01*
X127553682Y-70726269D01*
X127773389Y-70785139D01*
X127773400Y-70785141D01*
X127999998Y-70804966D01*
X128000002Y-70804966D01*
X128226599Y-70785141D01*
X128226610Y-70785139D01*
X128446317Y-70726269D01*
X128446331Y-70726264D01*
X128652478Y-70630136D01*
X128725471Y-70579024D01*
X128046447Y-69900000D01*
X128052661Y-69900000D01*
X128154394Y-69872741D01*
X128245606Y-69820080D01*
X128320080Y-69745606D01*
X128372741Y-69654394D01*
X128400000Y-69552661D01*
X128400000Y-69546447D01*
X129079024Y-70225471D01*
X129130136Y-70152478D01*
X129226264Y-69946331D01*
X129226269Y-69946317D01*
X129285139Y-69726610D01*
X129285141Y-69726599D01*
X129304966Y-69500002D01*
X129304966Y-69499997D01*
X129285141Y-69273400D01*
X129285139Y-69273389D01*
X129226269Y-69053682D01*
X129226264Y-69053668D01*
X129130136Y-68847521D01*
X129130132Y-68847513D01*
X129079025Y-68774526D01*
X128400000Y-69453551D01*
X128400000Y-69447339D01*
X128372741Y-69345606D01*
X128320080Y-69254394D01*
X128245606Y-69179920D01*
X128154394Y-69127259D01*
X128052661Y-69100000D01*
X128046448Y-69100000D01*
X128725472Y-68420974D01*
X128652478Y-68369863D01*
X128446331Y-68273735D01*
X128446317Y-68273730D01*
X128226610Y-68214860D01*
X128226599Y-68214858D01*
X128000002Y-68195034D01*
X127999998Y-68195034D01*
X127773400Y-68214858D01*
X127773389Y-68214860D01*
X127553682Y-68273730D01*
X127553673Y-68273734D01*
X127347516Y-68369866D01*
X127347512Y-68369868D01*
X127274526Y-68420973D01*
X127274526Y-68420974D01*
X127953553Y-69100000D01*
X127947339Y-69100000D01*
X127845606Y-69127259D01*
X127754394Y-69179920D01*
X127679920Y-69254394D01*
X127627259Y-69345606D01*
X127600000Y-69447339D01*
X127600000Y-69453552D01*
X126920974Y-68774526D01*
X126920973Y-68774526D01*
X126869868Y-68847512D01*
X126869866Y-68847516D01*
X126773734Y-69053673D01*
X126773730Y-69053682D01*
X126714860Y-69273389D01*
X126714858Y-69273400D01*
X126695034Y-69499997D01*
X98296291Y-69499997D01*
X98321265Y-69446439D01*
X98321269Y-69446430D01*
X98380139Y-69226723D01*
X98380141Y-69226712D01*
X98399966Y-69000115D01*
X98399966Y-69000110D01*
X98380141Y-68773513D01*
X98380139Y-68773502D01*
X98321269Y-68553795D01*
X98321264Y-68553781D01*
X98225136Y-68347634D01*
X98225132Y-68347626D01*
X98174025Y-68274639D01*
X97495000Y-68953664D01*
X97495000Y-68947452D01*
X97467741Y-68845719D01*
X97415080Y-68754507D01*
X97340606Y-68680033D01*
X97249394Y-68627372D01*
X97147661Y-68600113D01*
X97141448Y-68600113D01*
X97820472Y-67921087D01*
X97747478Y-67869976D01*
X97541331Y-67773848D01*
X97541317Y-67773843D01*
X97321610Y-67714973D01*
X97321599Y-67714971D01*
X97095002Y-67695147D01*
X97094998Y-67695147D01*
X96868400Y-67714971D01*
X96868389Y-67714973D01*
X96648682Y-67773843D01*
X96648673Y-67773847D01*
X96442516Y-67869979D01*
X96442512Y-67869981D01*
X96369526Y-67921086D01*
X96369526Y-67921087D01*
X97048553Y-68600113D01*
X97042339Y-68600113D01*
X96940606Y-68627372D01*
X96849394Y-68680033D01*
X96774920Y-68754507D01*
X96722259Y-68845719D01*
X96695000Y-68947452D01*
X96695000Y-68953665D01*
X96015974Y-68274639D01*
X96015973Y-68274639D01*
X95964868Y-68347625D01*
X95964866Y-68347629D01*
X95868734Y-68553786D01*
X95868730Y-68553795D01*
X95809860Y-68773502D01*
X95809858Y-68773513D01*
X95790034Y-69000110D01*
X95790034Y-69000115D01*
X95809858Y-69226712D01*
X95809860Y-69226723D01*
X95868730Y-69446430D01*
X95868734Y-69446439D01*
X95964865Y-69652594D01*
X95964868Y-69652598D01*
X95973812Y-69665373D01*
X95996138Y-69731580D01*
X95979125Y-69799347D01*
X95946549Y-69835758D01*
X95937456Y-69842565D01*
X95937451Y-69842570D01*
X95851206Y-69957777D01*
X95851202Y-69957784D01*
X95800908Y-70092630D01*
X95794501Y-70152229D01*
X95794500Y-70152248D01*
X95794500Y-71847983D01*
X95794501Y-71847989D01*
X95800908Y-71907596D01*
X95851202Y-72042441D01*
X95851206Y-72042448D01*
X95937452Y-72157657D01*
X95937455Y-72157660D01*
X96052664Y-72243906D01*
X96052671Y-72243910D01*
X96187517Y-72294204D01*
X96187516Y-72294204D01*
X96194444Y-72294948D01*
X96247127Y-72300613D01*
X97942872Y-72300612D01*
X98002483Y-72294204D01*
X98137331Y-72243909D01*
X98252546Y-72157659D01*
X98338796Y-72042444D01*
X98389091Y-71907596D01*
X98394062Y-71861355D01*
X98420799Y-71796807D01*
X98478191Y-71756959D01*
X98517351Y-71750613D01*
X99637883Y-71750613D01*
X99704922Y-71770298D01*
X99725564Y-71786932D01*
X104628278Y-76689646D01*
X104661763Y-76750969D01*
X104656779Y-76820661D01*
X104628278Y-76865008D01*
X95781953Y-85711333D01*
X95720630Y-85744818D01*
X95650938Y-85739834D01*
X95595005Y-85697962D01*
X95581890Y-85676056D01*
X95510136Y-85522178D01*
X95510132Y-85522170D01*
X95459025Y-85449183D01*
X94780000Y-86128208D01*
X94780000Y-86121996D01*
X94752741Y-86020263D01*
X94700080Y-85929051D01*
X94625606Y-85854577D01*
X94534394Y-85801916D01*
X94432661Y-85774657D01*
X94426448Y-85774657D01*
X95105472Y-85095631D01*
X95032478Y-85044520D01*
X94826331Y-84948392D01*
X94826317Y-84948387D01*
X94606610Y-84889517D01*
X94606599Y-84889515D01*
X94380002Y-84869691D01*
X94379998Y-84869691D01*
X94153400Y-84889515D01*
X94153389Y-84889517D01*
X93933682Y-84948387D01*
X93933673Y-84948391D01*
X93727516Y-85044523D01*
X93727512Y-85044525D01*
X93654526Y-85095630D01*
X93654526Y-85095631D01*
X94333553Y-85774657D01*
X94327339Y-85774657D01*
X94225606Y-85801916D01*
X94134394Y-85854577D01*
X94059920Y-85929051D01*
X94007259Y-86020263D01*
X93980000Y-86121996D01*
X93980000Y-86128209D01*
X93300974Y-85449183D01*
X93300973Y-85449183D01*
X93249868Y-85522169D01*
X93249866Y-85522173D01*
X93153734Y-85728330D01*
X93153730Y-85728339D01*
X93094860Y-85948046D01*
X93094858Y-85948057D01*
X93075034Y-86174654D01*
X93075034Y-86174659D01*
X93094858Y-86401256D01*
X93094860Y-86401267D01*
X93153730Y-86620974D01*
X93153734Y-86620983D01*
X93249865Y-86827138D01*
X93249868Y-86827142D01*
X93258812Y-86839917D01*
X93281138Y-86906124D01*
X93264125Y-86973891D01*
X93231549Y-87010302D01*
X93222456Y-87017109D01*
X93222451Y-87017114D01*
X93136206Y-87132321D01*
X93136202Y-87132328D01*
X93085908Y-87267174D01*
X93079501Y-87326773D01*
X93079500Y-87326792D01*
X93079500Y-89022527D01*
X93079501Y-89022533D01*
X93085908Y-89082140D01*
X93136202Y-89216985D01*
X93136206Y-89216992D01*
X93222452Y-89332201D01*
X93222455Y-89332204D01*
X93337664Y-89418450D01*
X93337671Y-89418454D01*
X93472517Y-89468748D01*
X93472516Y-89468748D01*
X93479444Y-89469492D01*
X93532127Y-89475157D01*
X95227872Y-89475156D01*
X95287483Y-89468748D01*
X95422331Y-89418453D01*
X95537546Y-89332203D01*
X95623796Y-89216988D01*
X95674091Y-89082140D01*
X95680500Y-89022530D01*
X95680499Y-87986885D01*
X95700183Y-87919847D01*
X95716813Y-87899210D01*
X105689647Y-77926377D01*
X105750970Y-77892892D01*
X105820662Y-77897876D01*
X105865009Y-77926377D01*
X107469405Y-79530773D01*
X107502890Y-79592096D01*
X107505127Y-79606298D01*
X107513975Y-79696129D01*
X107513976Y-79696132D01*
X107542783Y-79791097D01*
X107571188Y-79884733D01*
X107664086Y-80058532D01*
X107664090Y-80058539D01*
X107789116Y-80210883D01*
X107941460Y-80335909D01*
X107941467Y-80335913D01*
X108115266Y-80428811D01*
X108115269Y-80428811D01*
X108115273Y-80428814D01*
X108303868Y-80486024D01*
X108500000Y-80505341D01*
X108696132Y-80486024D01*
X108884727Y-80428814D01*
X108904020Y-80418502D01*
X108971632Y-80382362D01*
X109058538Y-80335910D01*
X109210883Y-80210883D01*
X109335910Y-80058538D01*
X109428814Y-79884727D01*
X109486024Y-79696132D01*
X109492682Y-79628528D01*
X109518842Y-79563741D01*
X109575877Y-79523382D01*
X109645677Y-79520265D01*
X109703766Y-79553001D01*
X109863181Y-79712416D01*
X109896666Y-79773739D01*
X109899500Y-79800097D01*
X109899500Y-107417587D01*
X109879815Y-107484626D01*
X109872450Y-107494896D01*
X109870186Y-107497734D01*
X109774211Y-107650476D01*
X109714631Y-107820745D01*
X109714630Y-107820750D01*
X109694435Y-107999996D01*
X109694435Y-108000003D01*
X109714630Y-108179249D01*
X109714631Y-108179254D01*
X109774211Y-108349523D01*
X109844345Y-108461139D01*
X109870184Y-108502262D01*
X109997738Y-108629816D01*
X110088080Y-108686582D01*
X110150385Y-108725731D01*
X110150478Y-108725789D01*
X110252377Y-108761445D01*
X110320745Y-108785368D01*
X110320750Y-108785369D01*
X110499996Y-108805565D01*
X110500000Y-108805565D01*
X110500003Y-108805565D01*
X110536888Y-108801409D01*
X110605710Y-108813463D01*
X110657090Y-108860812D01*
X110674714Y-108928423D01*
X110652988Y-108994829D01*
X110638453Y-109012310D01*
X108548160Y-111102604D01*
X106481286Y-113169478D01*
X106481284Y-113169480D01*
X106433846Y-113216918D01*
X106369479Y-113281284D01*
X106360997Y-113295977D01*
X106360996Y-113295978D01*
X106290424Y-113418211D01*
X106290423Y-113418215D01*
X106249499Y-113570943D01*
X106249499Y-113570945D01*
X106249499Y-113739046D01*
X106249500Y-113739059D01*
X106249500Y-114448431D01*
X106229815Y-114515470D01*
X106213181Y-114536112D01*
X102602180Y-118147113D01*
X102540857Y-118180598D01*
X102471165Y-118175614D01*
X102415232Y-118133742D01*
X102390815Y-118068278D01*
X102390499Y-118059432D01*
X102390499Y-116627129D01*
X102390498Y-116627123D01*
X102384091Y-116567516D01*
X102333797Y-116432671D01*
X102333793Y-116432664D01*
X102247547Y-116317455D01*
X102247544Y-116317452D01*
X102132335Y-116231206D01*
X102132328Y-116231202D01*
X101997482Y-116180908D01*
X101997483Y-116180908D01*
X101937883Y-116174501D01*
X101937881Y-116174500D01*
X101937873Y-116174500D01*
X101937865Y-116174500D01*
X101914500Y-116174500D01*
X101847461Y-116154815D01*
X101801706Y-116102011D01*
X101790500Y-116050500D01*
X101790500Y-115382890D01*
X101810185Y-115315851D01*
X101826814Y-115295214D01*
X103848064Y-113273963D01*
X103909385Y-113240480D01*
X103923586Y-113238244D01*
X103946132Y-113236024D01*
X104134727Y-113178814D01*
X104152194Y-113169478D01*
X104308532Y-113085913D01*
X104308538Y-113085910D01*
X104460883Y-112960883D01*
X104585910Y-112808538D01*
X104678814Y-112634727D01*
X104736024Y-112446132D01*
X104755341Y-112250000D01*
X104736024Y-112053868D01*
X104678814Y-111865273D01*
X104678811Y-111865269D01*
X104678811Y-111865266D01*
X104585913Y-111691467D01*
X104585911Y-111691465D01*
X104585910Y-111691462D01*
X104565781Y-111666935D01*
X104528647Y-111621686D01*
X104501334Y-111557376D01*
X104500500Y-111543021D01*
X104500500Y-107612229D01*
X104520185Y-107545190D01*
X104536819Y-107524548D01*
X104655143Y-107406224D01*
X104780775Y-107280591D01*
X104842096Y-107247108D01*
X104856295Y-107244871D01*
X104946132Y-107236024D01*
X105134727Y-107178814D01*
X105308538Y-107085910D01*
X105460883Y-106960883D01*
X105585910Y-106808538D01*
X105678814Y-106634727D01*
X105736024Y-106446132D01*
X105755341Y-106250000D01*
X105736024Y-106053868D01*
X105678814Y-105865273D01*
X105678811Y-105865269D01*
X105678811Y-105865266D01*
X105585913Y-105691467D01*
X105585909Y-105691460D01*
X105460883Y-105539116D01*
X105308539Y-105414090D01*
X105308532Y-105414086D01*
X105134733Y-105321188D01*
X105134727Y-105321186D01*
X105008997Y-105283046D01*
X104946129Y-105263975D01*
X104750000Y-105244659D01*
X104553870Y-105263975D01*
X104365266Y-105321188D01*
X104191467Y-105414086D01*
X104191460Y-105414090D01*
X104039116Y-105539116D01*
X103914090Y-105691460D01*
X103914086Y-105691467D01*
X103821188Y-105865266D01*
X103763975Y-106053870D01*
X103755127Y-106143700D01*
X103728965Y-106208487D01*
X103719405Y-106219225D01*
X103173035Y-106765595D01*
X103111712Y-106799080D01*
X103042020Y-106794096D01*
X103009013Y-106772883D01*
X103007705Y-106774525D01*
X103002262Y-106770184D01*
X102849523Y-106674211D01*
X102679254Y-106614631D01*
X102679249Y-106614630D01*
X102500004Y-106594435D01*
X102499996Y-106594435D01*
X102320750Y-106614630D01*
X102320745Y-106614631D01*
X102150476Y-106674211D01*
X101997737Y-106770184D01*
X101870184Y-106897737D01*
X101774211Y-107050476D01*
X101714631Y-107220745D01*
X101714630Y-107220750D01*
X101694435Y-107399996D01*
X101694435Y-107400003D01*
X101714630Y-107579249D01*
X101714631Y-107579254D01*
X101774211Y-107749523D01*
X101870185Y-107902263D01*
X101872445Y-107905097D01*
X101873334Y-107907275D01*
X101873889Y-107908158D01*
X101873734Y-107908255D01*
X101898855Y-107969783D01*
X101899500Y-107982412D01*
X101899500Y-108144902D01*
X101879815Y-108211941D01*
X101863181Y-108232583D01*
X98418700Y-111677064D01*
X98357377Y-111710549D01*
X98287685Y-111705565D01*
X98231752Y-111663693D01*
X98207335Y-111598229D01*
X98222187Y-111529956D01*
X98225722Y-111523928D01*
X98225786Y-111523794D01*
X98225787Y-111523788D01*
X98225789Y-111523787D01*
X98285368Y-111353520D01*
X98288604Y-111324804D01*
X98305565Y-111174266D01*
X98305565Y-111174261D01*
X98285369Y-110995015D01*
X98285368Y-110995010D01*
X98225788Y-110824741D01*
X98129815Y-110672002D01*
X98002262Y-110544449D01*
X97849523Y-110448476D01*
X97679254Y-110388896D01*
X97679249Y-110388895D01*
X97500004Y-110368700D01*
X97499996Y-110368700D01*
X97320750Y-110388895D01*
X97320745Y-110388896D01*
X97150476Y-110448476D01*
X96997736Y-110544450D01*
X96994903Y-110546710D01*
X96992724Y-110547599D01*
X96991842Y-110548154D01*
X96991744Y-110547999D01*
X96930217Y-110573120D01*
X96917588Y-110573765D01*
X88974362Y-110573765D01*
X88907323Y-110554080D01*
X88886681Y-110537446D01*
X85911416Y-107562181D01*
X85877931Y-107500858D01*
X85882915Y-107431166D01*
X85924787Y-107375233D01*
X85990251Y-107350816D01*
X85999097Y-107350500D01*
X92167588Y-107350500D01*
X92234627Y-107370185D01*
X92244903Y-107377555D01*
X92247736Y-107379814D01*
X92247738Y-107379816D01*
X92327938Y-107430209D01*
X92387015Y-107467330D01*
X92400478Y-107475789D01*
X92522665Y-107518544D01*
X92570745Y-107535368D01*
X92570750Y-107535369D01*
X92749996Y-107555565D01*
X92750000Y-107555565D01*
X92750004Y-107555565D01*
X92929249Y-107535369D01*
X92929252Y-107535368D01*
X92929255Y-107535368D01*
X93099522Y-107475789D01*
X93252262Y-107379816D01*
X93379816Y-107252262D01*
X93475789Y-107099522D01*
X93535368Y-106929255D01*
X93535418Y-106928814D01*
X93555565Y-106750003D01*
X93555565Y-106749996D01*
X93535369Y-106570750D01*
X93535366Y-106570737D01*
X93516022Y-106515455D01*
X93512460Y-106445676D01*
X93547188Y-106385049D01*
X93609182Y-106352821D01*
X93633063Y-106350500D01*
X95667588Y-106350500D01*
X95734627Y-106370185D01*
X95744903Y-106377555D01*
X95747736Y-106379814D01*
X95747738Y-106379816D01*
X95853279Y-106446132D01*
X95900014Y-106475498D01*
X95900478Y-106475789D01*
X95987471Y-106506229D01*
X96070745Y-106535368D01*
X96070750Y-106535369D01*
X96249996Y-106555565D01*
X96250000Y-106555565D01*
X96250004Y-106555565D01*
X96429249Y-106535369D01*
X96429252Y-106535368D01*
X96429255Y-106535368D01*
X96599522Y-106475789D01*
X96752262Y-106379816D01*
X96879816Y-106252262D01*
X96975789Y-106099522D01*
X97035368Y-105929255D01*
X97042578Y-105865266D01*
X97055565Y-105750003D01*
X97055565Y-105749997D01*
X97044115Y-105648376D01*
X97056169Y-105579554D01*
X97103518Y-105528174D01*
X97171129Y-105510550D01*
X97181219Y-105511272D01*
X97282840Y-105522722D01*
X97282843Y-105522722D01*
X97282847Y-105522722D01*
X97462092Y-105502526D01*
X97462095Y-105502525D01*
X97462098Y-105502525D01*
X97632365Y-105442946D01*
X97785105Y-105346973D01*
X97912659Y-105219419D01*
X98008632Y-105066679D01*
X98068211Y-104896412D01*
X98076737Y-104820745D01*
X98088408Y-104717160D01*
X98088408Y-104717153D01*
X98068212Y-104537907D01*
X98068211Y-104537902D01*
X98055740Y-104502262D01*
X98008632Y-104367635D01*
X98005833Y-104363181D01*
X97939651Y-104257853D01*
X97912659Y-104214895D01*
X97785105Y-104087341D01*
X97773960Y-104080338D01*
X97632366Y-103991368D01*
X97462097Y-103931788D01*
X97462092Y-103931787D01*
X97282847Y-103911592D01*
X97282839Y-103911592D01*
X97103593Y-103931787D01*
X97103588Y-103931788D01*
X96933319Y-103991368D01*
X96780579Y-104087342D01*
X96777746Y-104089602D01*
X96775567Y-104090491D01*
X96774685Y-104091046D01*
X96774587Y-104090891D01*
X96713060Y-104116012D01*
X96700431Y-104116657D01*
X93517255Y-104116657D01*
X93450216Y-104096972D01*
X93429574Y-104080338D01*
X91634604Y-102285368D01*
X89825055Y-100475820D01*
X89791571Y-100414498D01*
X89796555Y-100344806D01*
X89807744Y-100322168D01*
X89900053Y-100175260D01*
X89921043Y-100115273D01*
X89959633Y-100004990D01*
X89969426Y-99918064D01*
X89996491Y-99853653D01*
X90004955Y-99844278D01*
X90858506Y-98990728D01*
X90858511Y-98990724D01*
X90868714Y-98980520D01*
X90868716Y-98980520D01*
X90980520Y-98868716D01*
X91059577Y-98731784D01*
X91075028Y-98674118D01*
X91111391Y-98614460D01*
X91174238Y-98583930D01*
X91243614Y-98592224D01*
X91297492Y-98636709D01*
X91299795Y-98640240D01*
X91370182Y-98752260D01*
X91370184Y-98752262D01*
X91497738Y-98879816D01*
X91650478Y-98975789D01*
X91793158Y-99025715D01*
X91820745Y-99035368D01*
X91820750Y-99035369D01*
X91999996Y-99055565D01*
X92000000Y-99055565D01*
X92000004Y-99055565D01*
X92179249Y-99035369D01*
X92179252Y-99035368D01*
X92179255Y-99035368D01*
X92349522Y-98975789D01*
X92502262Y-98879816D01*
X92502267Y-98879810D01*
X92505097Y-98877555D01*
X92507275Y-98876665D01*
X92508158Y-98876111D01*
X92508255Y-98876265D01*
X92569783Y-98851145D01*
X92582412Y-98850500D01*
X107917588Y-98850500D01*
X107984627Y-98870185D01*
X107994903Y-98877555D01*
X107997736Y-98879814D01*
X107997738Y-98879816D01*
X108150478Y-98975789D01*
X108293158Y-99025715D01*
X108320745Y-99035368D01*
X108320750Y-99035369D01*
X108499996Y-99055565D01*
X108500000Y-99055565D01*
X108500004Y-99055565D01*
X108679249Y-99035369D01*
X108679252Y-99035368D01*
X108679255Y-99035368D01*
X108849522Y-98975789D01*
X109002262Y-98879816D01*
X109129816Y-98752262D01*
X109225789Y-98599522D01*
X109285368Y-98429255D01*
X109286305Y-98420943D01*
X109305565Y-98250003D01*
X109305565Y-98249996D01*
X109285369Y-98070750D01*
X109285368Y-98070745D01*
X109225788Y-97900476D01*
X109170506Y-97812496D01*
X109129816Y-97747738D01*
X109002262Y-97620184D01*
X108849523Y-97524211D01*
X108679254Y-97464631D01*
X108679249Y-97464630D01*
X108500004Y-97444435D01*
X108499996Y-97444435D01*
X108320750Y-97464630D01*
X108320745Y-97464631D01*
X108150476Y-97524211D01*
X107997736Y-97620185D01*
X107994903Y-97622445D01*
X107992724Y-97623334D01*
X107991842Y-97623889D01*
X107991744Y-97623734D01*
X107930217Y-97648855D01*
X107917588Y-97649500D01*
X92582412Y-97649500D01*
X92515373Y-97629815D01*
X92505097Y-97622445D01*
X92502263Y-97620185D01*
X92502262Y-97620184D01*
X92445496Y-97584515D01*
X92349523Y-97524211D01*
X92179254Y-97464631D01*
X92179249Y-97464630D01*
X92000004Y-97444435D01*
X91999996Y-97444435D01*
X91820750Y-97464630D01*
X91820745Y-97464631D01*
X91650476Y-97524211D01*
X91497737Y-97620184D01*
X91370182Y-97747739D01*
X91329493Y-97812496D01*
X91277158Y-97858787D01*
X91208105Y-97869434D01*
X91144257Y-97841059D01*
X91105885Y-97782669D01*
X91100500Y-97746523D01*
X91100500Y-93169059D01*
X91100501Y-93169046D01*
X91100501Y-93000945D01*
X91100501Y-93000943D01*
X91059577Y-92848215D01*
X91000948Y-92746667D01*
X90980520Y-92711284D01*
X90868716Y-92599480D01*
X90868715Y-92599479D01*
X90864385Y-92595149D01*
X90864374Y-92595139D01*
X90846819Y-92577584D01*
X90813334Y-92516261D01*
X90810500Y-92489903D01*
X90810500Y-77076692D01*
X90830185Y-77009653D01*
X90863374Y-76975119D01*
X91049139Y-76845047D01*
X91210047Y-76684139D01*
X91340568Y-76497734D01*
X91367618Y-76439724D01*
X91413790Y-76387285D01*
X91480983Y-76368133D01*
X91547865Y-76388348D01*
X91592381Y-76439724D01*
X91593697Y-76442546D01*
X91619429Y-76497728D01*
X91619432Y-76497734D01*
X91749954Y-76684141D01*
X91910858Y-76845045D01*
X91957693Y-76877839D01*
X92097266Y-76975568D01*
X92303504Y-77071739D01*
X92523308Y-77130635D01*
X92685230Y-77144801D01*
X92749998Y-77150468D01*
X92750000Y-77150468D01*
X92750002Y-77150468D01*
X92806673Y-77145509D01*
X92976692Y-77130635D01*
X93196496Y-77071739D01*
X93402734Y-76975568D01*
X93589139Y-76845047D01*
X93750047Y-76684139D01*
X93880568Y-76497734D01*
X93976739Y-76291496D01*
X94035635Y-76071692D01*
X94055468Y-75845000D01*
X94035635Y-75618308D01*
X93976739Y-75398504D01*
X93880568Y-75192266D01*
X93750047Y-75005861D01*
X93750045Y-75005858D01*
X93589141Y-74844954D01*
X93402734Y-74714432D01*
X93402732Y-74714431D01*
X93196497Y-74618261D01*
X93196488Y-74618258D01*
X92976697Y-74559366D01*
X92976693Y-74559365D01*
X92976692Y-74559365D01*
X92976691Y-74559364D01*
X92976686Y-74559364D01*
X92750002Y-74539532D01*
X92749998Y-74539532D01*
X92523313Y-74559364D01*
X92523302Y-74559366D01*
X92303511Y-74618258D01*
X92303502Y-74618261D01*
X92097267Y-74714431D01*
X92097265Y-74714432D01*
X91910858Y-74844954D01*
X91749954Y-75005858D01*
X91619432Y-75192265D01*
X91619431Y-75192267D01*
X91592382Y-75250275D01*
X91546209Y-75302714D01*
X91479016Y-75321866D01*
X91412135Y-75301650D01*
X91367618Y-75250275D01*
X91340686Y-75192520D01*
X91340568Y-75192266D01*
X91210047Y-75005861D01*
X91210045Y-75005858D01*
X91049141Y-74844954D01*
X90862734Y-74714432D01*
X90862732Y-74714431D01*
X90656497Y-74618261D01*
X90656488Y-74618258D01*
X90436697Y-74559366D01*
X90436693Y-74559365D01*
X90436692Y-74559365D01*
X90436691Y-74559364D01*
X90436686Y-74559364D01*
X90210002Y-74539532D01*
X90209998Y-74539532D01*
X89983313Y-74559364D01*
X89983302Y-74559366D01*
X89763511Y-74618258D01*
X89763502Y-74618261D01*
X89557267Y-74714431D01*
X89557265Y-74714432D01*
X89370858Y-74844954D01*
X89209954Y-75005858D01*
X89079432Y-75192265D01*
X89079431Y-75192267D01*
X89052382Y-75250275D01*
X89006209Y-75302714D01*
X88939016Y-75321866D01*
X88872135Y-75301650D01*
X88827618Y-75250275D01*
X88800686Y-75192520D01*
X88800568Y-75192266D01*
X88670047Y-75005861D01*
X88670045Y-75005858D01*
X88509141Y-74844954D01*
X88322734Y-74714432D01*
X88322732Y-74714431D01*
X88116497Y-74618261D01*
X88116488Y-74618258D01*
X87896697Y-74559366D01*
X87896693Y-74559365D01*
X87896692Y-74559365D01*
X87896691Y-74559364D01*
X87896686Y-74559364D01*
X87670002Y-74539532D01*
X87669998Y-74539532D01*
X87443313Y-74559364D01*
X87443302Y-74559366D01*
X87223511Y-74618258D01*
X87223502Y-74618261D01*
X87017267Y-74714431D01*
X87017265Y-74714432D01*
X86830858Y-74844954D01*
X86669954Y-75005858D01*
X86539433Y-75192264D01*
X86539432Y-75192266D01*
X86539315Y-75192518D01*
X86512106Y-75250867D01*
X86465933Y-75303306D01*
X86398739Y-75322457D01*
X86331858Y-75302241D01*
X86287342Y-75250865D01*
X86260135Y-75192520D01*
X86260134Y-75192518D01*
X86129657Y-75006179D01*
X85968820Y-74845342D01*
X85782482Y-74714865D01*
X85576328Y-74618734D01*
X85380000Y-74566127D01*
X85380000Y-75529314D01*
X85375606Y-75524920D01*
X85284394Y-75472259D01*
X85182661Y-75445000D01*
X85077339Y-75445000D01*
X84975606Y-75472259D01*
X84884394Y-75524920D01*
X84880000Y-75529314D01*
X84880000Y-74566127D01*
X84683671Y-74618734D01*
X84477517Y-74714865D01*
X84291179Y-74845342D01*
X84130342Y-75006179D01*
X83999865Y-75192517D01*
X83972382Y-75251457D01*
X83926210Y-75303896D01*
X83859016Y-75323048D01*
X83792135Y-75302832D01*
X83747618Y-75251457D01*
X83720134Y-75192517D01*
X83589657Y-75006179D01*
X83428820Y-74845342D01*
X83242482Y-74714865D01*
X83036324Y-74618732D01*
X83033620Y-74618008D01*
X83032563Y-74617363D01*
X83031242Y-74616883D01*
X83031338Y-74616617D01*
X82973962Y-74581638D01*
X82943439Y-74518788D01*
X82951740Y-74449413D01*
X82978038Y-74410561D01*
X87426781Y-69961819D01*
X87488104Y-69928334D01*
X87514462Y-69925500D01*
X89023331Y-69925500D01*
X89023347Y-69925501D01*
X89030943Y-69925501D01*
X89189054Y-69925501D01*
X89189057Y-69925501D01*
X89341785Y-69884577D01*
X89414548Y-69842567D01*
X89478716Y-69805520D01*
X89590520Y-69693716D01*
X89590520Y-69693714D01*
X89600724Y-69683511D01*
X89600728Y-69683506D01*
X89767294Y-69516939D01*
X89828615Y-69483456D01*
X89887066Y-69484847D01*
X89893273Y-69486510D01*
X89983308Y-69510635D01*
X90145230Y-69524801D01*
X90209998Y-69530468D01*
X90210000Y-69530468D01*
X90210002Y-69530468D01*
X90266673Y-69525509D01*
X90436692Y-69510635D01*
X90656496Y-69451739D01*
X90862734Y-69355568D01*
X91049139Y-69225047D01*
X91210047Y-69064139D01*
X91340568Y-68877734D01*
X91367618Y-68819724D01*
X91413790Y-68767285D01*
X91480983Y-68748133D01*
X91547865Y-68768348D01*
X91592382Y-68819725D01*
X91619429Y-68877728D01*
X91619432Y-68877734D01*
X91749954Y-69064141D01*
X91910858Y-69225045D01*
X91940384Y-69245719D01*
X92097266Y-69355568D01*
X92303504Y-69451739D01*
X92523308Y-69510635D01*
X92685230Y-69524801D01*
X92749998Y-69530468D01*
X92750000Y-69530468D01*
X92750002Y-69530468D01*
X92806673Y-69525509D01*
X92976692Y-69510635D01*
X93196496Y-69451739D01*
X93402734Y-69355568D01*
X93589139Y-69225047D01*
X93750047Y-69064139D01*
X93880568Y-68877734D01*
X93976739Y-68671496D01*
X94035635Y-68451692D01*
X94055468Y-68225000D01*
X94035635Y-67998308D01*
X93976739Y-67778504D01*
X93880568Y-67572266D01*
X93750047Y-67385861D01*
X93750045Y-67385858D01*
X93589141Y-67224954D01*
X93402734Y-67094432D01*
X93402732Y-67094431D01*
X93200216Y-66999995D01*
X140295233Y-66999995D01*
X140295233Y-67000004D01*
X140314273Y-67254079D01*
X140370968Y-67502477D01*
X140370973Y-67502494D01*
X140464058Y-67739671D01*
X140464057Y-67739671D01*
X140591454Y-67960327D01*
X140591461Y-67960338D01*
X140633452Y-68012991D01*
X140633453Y-68012992D01*
X141435387Y-67211058D01*
X141440889Y-67231591D01*
X141519881Y-67368408D01*
X141631592Y-67480119D01*
X141768409Y-67559111D01*
X141788940Y-67564612D01*
X140986813Y-68366738D01*
X141147616Y-68476371D01*
X141147624Y-68476376D01*
X141377176Y-68586921D01*
X141377174Y-68586921D01*
X141620652Y-68662024D01*
X141620658Y-68662026D01*
X141872595Y-68699999D01*
X141872604Y-68700000D01*
X142127396Y-68700000D01*
X142127404Y-68699999D01*
X142379341Y-68662026D01*
X142379347Y-68662024D01*
X142622824Y-68586921D01*
X142852376Y-68476376D01*
X142852377Y-68476375D01*
X143013185Y-68366738D01*
X142211060Y-67564612D01*
X142231591Y-67559111D01*
X142368408Y-67480119D01*
X142480119Y-67368408D01*
X142559111Y-67231591D01*
X142564612Y-67211059D01*
X143366544Y-68012992D01*
X143366546Y-68012991D01*
X143408544Y-67960330D01*
X143535941Y-67739671D01*
X143629026Y-67502494D01*
X143629031Y-67502477D01*
X143685726Y-67254079D01*
X143704767Y-67000004D01*
X143704767Y-66999995D01*
X143685726Y-66745920D01*
X143629031Y-66497522D01*
X143629026Y-66497505D01*
X143535941Y-66260328D01*
X143535942Y-66260328D01*
X143408545Y-66039672D01*
X143366545Y-65987006D01*
X142564612Y-66788939D01*
X142559111Y-66768409D01*
X142480119Y-66631592D01*
X142368408Y-66519881D01*
X142231591Y-66440889D01*
X142211059Y-66435387D01*
X143013185Y-65633260D01*
X142852384Y-65523628D01*
X142852376Y-65523623D01*
X142622823Y-65413078D01*
X142622825Y-65413078D01*
X142379347Y-65337975D01*
X142379341Y-65337973D01*
X142127404Y-65300000D01*
X141872595Y-65300000D01*
X141620658Y-65337973D01*
X141620652Y-65337975D01*
X141377175Y-65413078D01*
X141147622Y-65523625D01*
X141147609Y-65523632D01*
X140986813Y-65633259D01*
X141788941Y-66435387D01*
X141768409Y-66440889D01*
X141631592Y-66519881D01*
X141519881Y-66631592D01*
X141440889Y-66768409D01*
X141435387Y-66788940D01*
X140633452Y-65987006D01*
X140591457Y-66039667D01*
X140464058Y-66260328D01*
X140370973Y-66497505D01*
X140370968Y-66497522D01*
X140314273Y-66745920D01*
X140295233Y-66999995D01*
X93200216Y-66999995D01*
X93196497Y-66998261D01*
X93196488Y-66998258D01*
X92976697Y-66939366D01*
X92976693Y-66939365D01*
X92976692Y-66939365D01*
X92976691Y-66939364D01*
X92976686Y-66939364D01*
X92750002Y-66919532D01*
X92749998Y-66919532D01*
X92523313Y-66939364D01*
X92523302Y-66939366D01*
X92303511Y-66998258D01*
X92303502Y-66998261D01*
X92097267Y-67094431D01*
X92097265Y-67094432D01*
X91910858Y-67224954D01*
X91749954Y-67385858D01*
X91619432Y-67572265D01*
X91619431Y-67572267D01*
X91592382Y-67630275D01*
X91546209Y-67682714D01*
X91479016Y-67701866D01*
X91412135Y-67681650D01*
X91367618Y-67630275D01*
X91340568Y-67572266D01*
X91210047Y-67385861D01*
X91210045Y-67385858D01*
X91049141Y-67224954D01*
X90862734Y-67094432D01*
X90862732Y-67094431D01*
X90656497Y-66998261D01*
X90656488Y-66998258D01*
X90436697Y-66939366D01*
X90436693Y-66939365D01*
X90436692Y-66939365D01*
X90436691Y-66939364D01*
X90436686Y-66939364D01*
X90210002Y-66919532D01*
X90209998Y-66919532D01*
X89983313Y-66939364D01*
X89983302Y-66939366D01*
X89763511Y-66998258D01*
X89763502Y-66998261D01*
X89557267Y-67094431D01*
X89557265Y-67094432D01*
X89370858Y-67224954D01*
X89209954Y-67385858D01*
X89079432Y-67572265D01*
X89079431Y-67572267D01*
X89052382Y-67630275D01*
X89006209Y-67682714D01*
X88939016Y-67701866D01*
X88872135Y-67681650D01*
X88827618Y-67630275D01*
X88800568Y-67572266D01*
X88670047Y-67385861D01*
X88670045Y-67385858D01*
X88509141Y-67224954D01*
X88322734Y-67094432D01*
X88322732Y-67094431D01*
X88116497Y-66998261D01*
X88116488Y-66998258D01*
X87896697Y-66939366D01*
X87896693Y-66939365D01*
X87896692Y-66939365D01*
X87896691Y-66939364D01*
X87896686Y-66939364D01*
X87670002Y-66919532D01*
X87669998Y-66919532D01*
X87443313Y-66939364D01*
X87443302Y-66939366D01*
X87223511Y-66998258D01*
X87223502Y-66998261D01*
X87017267Y-67094431D01*
X87017265Y-67094432D01*
X86830858Y-67224954D01*
X86669954Y-67385858D01*
X86603953Y-67480119D01*
X86539432Y-67572266D01*
X86526500Y-67600000D01*
X86512106Y-67630867D01*
X86465933Y-67683306D01*
X86398739Y-67702457D01*
X86331858Y-67682241D01*
X86287342Y-67630865D01*
X86260135Y-67572520D01*
X86260134Y-67572518D01*
X86129657Y-67386179D01*
X85968820Y-67225342D01*
X85782482Y-67094865D01*
X85576328Y-66998734D01*
X85380000Y-66946127D01*
X85380000Y-67909314D01*
X85375606Y-67904920D01*
X85284394Y-67852259D01*
X85182661Y-67825000D01*
X85077339Y-67825000D01*
X84975606Y-67852259D01*
X84884394Y-67904920D01*
X84880000Y-67909314D01*
X84880000Y-66946127D01*
X84683671Y-66998734D01*
X84477517Y-67094865D01*
X84291179Y-67225342D01*
X84130342Y-67386179D01*
X83999865Y-67572517D01*
X83972382Y-67631457D01*
X83926210Y-67683896D01*
X83859016Y-67703048D01*
X83792135Y-67682832D01*
X83747618Y-67631457D01*
X83720134Y-67572517D01*
X83589657Y-67386179D01*
X83428820Y-67225342D01*
X83242482Y-67094865D01*
X83036328Y-66998734D01*
X82840000Y-66946127D01*
X82840000Y-67909314D01*
X82835606Y-67904920D01*
X82744394Y-67852259D01*
X82642661Y-67825000D01*
X82537339Y-67825000D01*
X82435606Y-67852259D01*
X82344394Y-67904920D01*
X82340000Y-67909314D01*
X82340000Y-66946127D01*
X82143671Y-66998734D01*
X81937517Y-67094865D01*
X81751179Y-67225342D01*
X81590342Y-67386179D01*
X81459867Y-67572515D01*
X81432657Y-67630867D01*
X81386484Y-67683306D01*
X81319290Y-67702457D01*
X81252409Y-67682241D01*
X81207893Y-67630865D01*
X81193500Y-67600000D01*
X81180568Y-67572266D01*
X81050047Y-67385861D01*
X81050045Y-67385858D01*
X80889141Y-67224954D01*
X80702734Y-67094432D01*
X80702732Y-67094431D01*
X80496497Y-66998261D01*
X80496488Y-66998258D01*
X80276697Y-66939366D01*
X80276693Y-66939365D01*
X80276692Y-66939365D01*
X80276691Y-66939364D01*
X80276686Y-66939364D01*
X80050002Y-66919532D01*
X80049998Y-66919532D01*
X79823313Y-66939364D01*
X79823302Y-66939366D01*
X79603511Y-66998258D01*
X79603502Y-66998261D01*
X79397267Y-67094431D01*
X79397265Y-67094432D01*
X79210858Y-67224954D01*
X79049954Y-67385858D01*
X78919432Y-67572265D01*
X78919431Y-67572267D01*
X78892382Y-67630275D01*
X78846209Y-67682714D01*
X78779016Y-67701866D01*
X78712135Y-67681650D01*
X78667618Y-67630275D01*
X78640568Y-67572266D01*
X78510047Y-67385861D01*
X78510045Y-67385858D01*
X78349141Y-67224954D01*
X78162734Y-67094432D01*
X78162732Y-67094431D01*
X77956497Y-66998261D01*
X77956488Y-66998258D01*
X77736697Y-66939366D01*
X77736693Y-66939365D01*
X77736692Y-66939365D01*
X77736691Y-66939364D01*
X77736686Y-66939364D01*
X77510002Y-66919532D01*
X77509998Y-66919532D01*
X77283313Y-66939364D01*
X77283302Y-66939366D01*
X77063511Y-66998258D01*
X77063502Y-66998261D01*
X76857267Y-67094431D01*
X76857265Y-67094432D01*
X76670858Y-67224954D01*
X76509954Y-67385858D01*
X76379432Y-67572265D01*
X76379431Y-67572267D01*
X76352382Y-67630275D01*
X76306209Y-67682714D01*
X76239016Y-67701866D01*
X76172135Y-67681650D01*
X76127618Y-67630275D01*
X76100568Y-67572266D01*
X75970047Y-67385861D01*
X75970045Y-67385858D01*
X75809141Y-67224954D01*
X75622734Y-67094432D01*
X75622732Y-67094431D01*
X75416497Y-66998261D01*
X75416488Y-66998258D01*
X75196697Y-66939366D01*
X75196693Y-66939365D01*
X75196692Y-66939365D01*
X75196691Y-66939364D01*
X75196686Y-66939364D01*
X74970002Y-66919532D01*
X74969998Y-66919532D01*
X74743313Y-66939364D01*
X74743302Y-66939366D01*
X74523511Y-66998258D01*
X74523502Y-66998261D01*
X74317267Y-67094431D01*
X74317265Y-67094432D01*
X74130858Y-67224954D01*
X73969954Y-67385858D01*
X73839432Y-67572265D01*
X73839431Y-67572267D01*
X73743261Y-67778502D01*
X73743258Y-67778511D01*
X73684366Y-67998302D01*
X73684364Y-67998313D01*
X73664532Y-68224998D01*
X73664532Y-68225001D01*
X73684364Y-68451686D01*
X73684366Y-68451697D01*
X73743258Y-68671488D01*
X73743261Y-68671497D01*
X73839431Y-68877732D01*
X73839432Y-68877734D01*
X73969954Y-69064141D01*
X74130858Y-69225045D01*
X74160384Y-69245719D01*
X74317266Y-69355568D01*
X74523504Y-69451739D01*
X74743308Y-69510635D01*
X74905230Y-69524801D01*
X74969998Y-69530468D01*
X74970000Y-69530468D01*
X74970002Y-69530468D01*
X75026673Y-69525509D01*
X75196692Y-69510635D01*
X75416496Y-69451739D01*
X75622734Y-69355568D01*
X75809139Y-69225047D01*
X75970047Y-69064139D01*
X76100568Y-68877734D01*
X76127618Y-68819724D01*
X76173790Y-68767285D01*
X76240983Y-68748133D01*
X76307865Y-68768348D01*
X76352382Y-68819725D01*
X76379429Y-68877728D01*
X76379432Y-68877734D01*
X76509954Y-69064141D01*
X76670858Y-69225045D01*
X76700384Y-69245719D01*
X76857266Y-69355568D01*
X77063504Y-69451739D01*
X77283308Y-69510635D01*
X77445230Y-69524801D01*
X77509998Y-69530468D01*
X77510000Y-69530468D01*
X77510002Y-69530468D01*
X77566673Y-69525509D01*
X77736692Y-69510635D01*
X77832932Y-69484847D01*
X77902781Y-69486510D01*
X77952706Y-69516941D01*
X78113181Y-69677416D01*
X78146666Y-69738739D01*
X78149500Y-69765097D01*
X78149500Y-74513619D01*
X78129815Y-74580658D01*
X78077011Y-74626413D01*
X78007853Y-74636357D01*
X77973097Y-74626002D01*
X77956498Y-74618262D01*
X77956488Y-74618258D01*
X77736697Y-74559366D01*
X77736693Y-74559365D01*
X77736692Y-74559365D01*
X77736691Y-74559364D01*
X77736686Y-74559364D01*
X77510002Y-74539532D01*
X77509998Y-74539532D01*
X77283313Y-74559364D01*
X77283302Y-74559366D01*
X77063511Y-74618258D01*
X77063502Y-74618261D01*
X76857267Y-74714431D01*
X76857265Y-74714432D01*
X76670858Y-74844954D01*
X76509954Y-75005858D01*
X76492725Y-75030464D01*
X76438147Y-75074088D01*
X76368648Y-75081280D01*
X76306294Y-75049757D01*
X76270882Y-74989526D01*
X76267861Y-74972591D01*
X76264091Y-74937516D01*
X76213797Y-74802671D01*
X76213793Y-74802664D01*
X76127547Y-74687455D01*
X76127544Y-74687452D01*
X76012335Y-74601206D01*
X76012328Y-74601202D01*
X75877482Y-74550908D01*
X75877483Y-74550908D01*
X75817883Y-74544501D01*
X75817881Y-74544500D01*
X75817873Y-74544500D01*
X75817864Y-74544500D01*
X74122129Y-74544500D01*
X74122123Y-74544501D01*
X74062516Y-74550908D01*
X73927671Y-74601202D01*
X73927664Y-74601206D01*
X73812455Y-74687452D01*
X73812452Y-74687455D01*
X73726206Y-74802664D01*
X73726202Y-74802671D01*
X73675908Y-74937517D01*
X73669501Y-74997116D01*
X73669500Y-74997135D01*
X73669500Y-76692870D01*
X73669501Y-76692876D01*
X73675909Y-76752485D01*
X73680338Y-76764360D01*
X73685322Y-76834052D01*
X73651836Y-76895375D01*
X73596252Y-76927466D01*
X73547901Y-76940422D01*
X73547892Y-76940426D01*
X73410973Y-77019475D01*
X73410965Y-77019481D01*
X70669480Y-79760966D01*
X70659744Y-79777831D01*
X70609176Y-79826046D01*
X70540569Y-79839268D01*
X70481235Y-79817406D01*
X70400629Y-79760966D01*
X70362734Y-79734432D01*
X70353095Y-79729937D01*
X70156497Y-79638261D01*
X70156488Y-79638258D01*
X69936697Y-79579366D01*
X69936693Y-79579365D01*
X69936692Y-79579365D01*
X69936691Y-79579364D01*
X69936686Y-79579364D01*
X69710002Y-79559532D01*
X69709998Y-79559532D01*
X69483313Y-79579364D01*
X69483302Y-79579366D01*
X69263511Y-79638258D01*
X69263502Y-79638261D01*
X69057267Y-79734431D01*
X69057265Y-79734432D01*
X68870858Y-79864954D01*
X68709954Y-80025858D01*
X68579432Y-80212265D01*
X68579431Y-80212267D01*
X68483261Y-80418502D01*
X68483258Y-80418511D01*
X68424366Y-80638302D01*
X68424364Y-80638313D01*
X68404532Y-80864998D01*
X68404532Y-80865001D01*
X68424364Y-81091686D01*
X68424366Y-81091697D01*
X68483258Y-81311488D01*
X68483261Y-81311497D01*
X68579431Y-81517732D01*
X68579432Y-81517734D01*
X68709954Y-81704141D01*
X68870858Y-81865045D01*
X68870861Y-81865047D01*
X69057266Y-81995568D01*
X69134050Y-82031373D01*
X69186489Y-82077546D01*
X69205641Y-82144739D01*
X69185425Y-82211620D01*
X69169326Y-82231436D01*
X67631286Y-83769478D01*
X67519481Y-83881282D01*
X67519475Y-83881290D01*
X67482450Y-83945421D01*
X67482450Y-83945423D01*
X67440423Y-84018214D01*
X67440423Y-84018215D01*
X67399499Y-84170943D01*
X67399499Y-84170945D01*
X67399499Y-84339046D01*
X67399500Y-84339059D01*
X67399500Y-85656042D01*
X67379815Y-85723081D01*
X67327011Y-85768836D01*
X67257853Y-85778780D01*
X67194297Y-85749755D01*
X67156523Y-85690977D01*
X67155725Y-85688137D01*
X67153903Y-85681337D01*
X67054035Y-85467171D01*
X66918495Y-85273599D01*
X66918494Y-85273597D01*
X66751402Y-85106506D01*
X66751396Y-85106501D01*
X66565842Y-84976575D01*
X66522217Y-84921998D01*
X66515023Y-84852500D01*
X66546546Y-84790145D01*
X66565842Y-84773425D01*
X66610254Y-84742327D01*
X66751401Y-84643495D01*
X66918495Y-84476401D01*
X67054035Y-84282830D01*
X67153903Y-84068663D01*
X67215063Y-83840408D01*
X67235659Y-83605000D01*
X67215063Y-83369592D01*
X67153903Y-83141337D01*
X67054035Y-82927171D01*
X67012419Y-82867736D01*
X66918494Y-82733597D01*
X66751402Y-82566506D01*
X66751396Y-82566501D01*
X66565842Y-82436575D01*
X66522217Y-82381998D01*
X66515023Y-82312500D01*
X66546546Y-82250145D01*
X66565842Y-82233425D01*
X66636294Y-82184094D01*
X66751401Y-82103495D01*
X66918495Y-81936401D01*
X67054035Y-81742830D01*
X67153903Y-81528663D01*
X67215063Y-81300408D01*
X67235659Y-81065000D01*
X67215063Y-80829592D01*
X67163808Y-80638302D01*
X67153905Y-80601344D01*
X67153904Y-80601343D01*
X67153903Y-80601337D01*
X67054035Y-80387171D01*
X67022313Y-80341866D01*
X66918494Y-80193597D01*
X66751402Y-80026506D01*
X66751395Y-80026501D01*
X66557834Y-79890967D01*
X66557830Y-79890965D01*
X66502047Y-79864953D01*
X66343663Y-79791097D01*
X66343659Y-79791096D01*
X66343655Y-79791094D01*
X66115413Y-79729938D01*
X66115403Y-79729936D01*
X65880001Y-79709341D01*
X65879999Y-79709341D01*
X65644596Y-79729936D01*
X65644586Y-79729938D01*
X65416344Y-79791094D01*
X65416335Y-79791098D01*
X65202171Y-79890964D01*
X65202169Y-79890965D01*
X65008597Y-80026505D01*
X64841505Y-80193597D01*
X64705965Y-80387169D01*
X64705964Y-80387171D01*
X64606098Y-80601335D01*
X64606094Y-80601344D01*
X64544938Y-80829586D01*
X64544936Y-80829596D01*
X64524341Y-81064999D01*
X64524341Y-81065000D01*
X64544936Y-81300403D01*
X64544938Y-81300413D01*
X64606094Y-81528655D01*
X64606096Y-81528659D01*
X64606097Y-81528663D01*
X64678525Y-81683985D01*
X64705965Y-81742830D01*
X64705967Y-81742834D01*
X64841501Y-81936395D01*
X64841506Y-81936402D01*
X65008597Y-82103493D01*
X65008603Y-82103498D01*
X65194158Y-82233425D01*
X65237783Y-82288002D01*
X65244977Y-82357500D01*
X65213454Y-82419855D01*
X65194158Y-82436575D01*
X65008597Y-82566505D01*
X64841505Y-82733597D01*
X64705965Y-82927169D01*
X64705964Y-82927171D01*
X64606098Y-83141335D01*
X64606094Y-83141344D01*
X64544938Y-83369586D01*
X64544936Y-83369596D01*
X64524341Y-83604999D01*
X64524341Y-83605000D01*
X64544936Y-83840403D01*
X64544938Y-83840413D01*
X64606094Y-84068655D01*
X64606096Y-84068659D01*
X64606097Y-84068663D01*
X64625673Y-84110643D01*
X64705965Y-84282830D01*
X64705967Y-84282834D01*
X64841501Y-84476395D01*
X64841506Y-84476402D01*
X65008597Y-84643493D01*
X65008603Y-84643498D01*
X65194158Y-84773425D01*
X65237783Y-84828002D01*
X65244977Y-84897500D01*
X65213454Y-84959855D01*
X65194158Y-84976575D01*
X65008597Y-85106505D01*
X64841505Y-85273597D01*
X64705965Y-85467169D01*
X64705964Y-85467171D01*
X64606098Y-85681335D01*
X64606094Y-85681344D01*
X64544938Y-85909586D01*
X64544936Y-85909596D01*
X64524341Y-86144999D01*
X64524341Y-86145000D01*
X64544936Y-86380403D01*
X64544938Y-86380413D01*
X64606094Y-86608655D01*
X64606096Y-86608659D01*
X64606097Y-86608663D01*
X64645706Y-86693604D01*
X64705965Y-86822830D01*
X64705967Y-86822834D01*
X64746392Y-86880566D01*
X64841501Y-87016396D01*
X64841506Y-87016402D01*
X64963430Y-87138326D01*
X64996915Y-87199649D01*
X64991931Y-87269341D01*
X64950059Y-87325274D01*
X64919083Y-87342189D01*
X64787669Y-87391203D01*
X64787664Y-87391206D01*
X64672455Y-87477452D01*
X64672452Y-87477455D01*
X64586206Y-87592664D01*
X64586202Y-87592671D01*
X64535908Y-87727517D01*
X64529501Y-87787116D01*
X64529500Y-87787135D01*
X64529500Y-89582870D01*
X64529501Y-89582876D01*
X64535908Y-89642483D01*
X64586202Y-89777328D01*
X64586206Y-89777335D01*
X64672452Y-89892544D01*
X64672455Y-89892547D01*
X64787664Y-89978793D01*
X64787671Y-89978797D01*
X64922517Y-90029091D01*
X64922516Y-90029091D01*
X64929444Y-90029835D01*
X64982127Y-90035500D01*
X66777872Y-90035499D01*
X66837483Y-90029091D01*
X66972331Y-89978796D01*
X67087546Y-89892546D01*
X67173796Y-89777331D01*
X67173796Y-89777329D01*
X67176233Y-89774075D01*
X67232167Y-89732204D01*
X67301859Y-89727220D01*
X67363182Y-89760705D01*
X67396666Y-89822029D01*
X67399500Y-89848386D01*
X67399500Y-90413330D01*
X67399499Y-90413348D01*
X67399499Y-90579054D01*
X67399498Y-90579054D01*
X67440423Y-90731785D01*
X67469358Y-90781900D01*
X67469359Y-90781904D01*
X67469360Y-90781904D01*
X67519479Y-90868714D01*
X67519481Y-90868717D01*
X67638349Y-90987585D01*
X67638355Y-90987590D01*
X88189404Y-111538639D01*
X88189414Y-111538650D01*
X88193744Y-111542980D01*
X88193745Y-111542981D01*
X88305549Y-111654785D01*
X88369076Y-111691462D01*
X88442480Y-111733842D01*
X88595208Y-111774766D01*
X88595211Y-111774766D01*
X88760918Y-111774766D01*
X88760934Y-111774765D01*
X96917588Y-111774765D01*
X96984627Y-111794450D01*
X96994903Y-111801820D01*
X96997736Y-111804079D01*
X96997738Y-111804081D01*
X97111270Y-111875417D01*
X97145671Y-111897034D01*
X97150478Y-111900054D01*
X97307242Y-111954908D01*
X97320745Y-111959633D01*
X97320750Y-111959634D01*
X97499996Y-111979830D01*
X97500000Y-111979830D01*
X97500004Y-111979830D01*
X97679249Y-111959634D01*
X97679252Y-111959633D01*
X97679255Y-111959633D01*
X97849522Y-111900054D01*
X97849523Y-111900052D01*
X97849529Y-111900051D01*
X97855795Y-111897034D01*
X97856380Y-111898249D01*
X97916363Y-111881290D01*
X97983201Y-111901647D01*
X98028423Y-111954908D01*
X98037671Y-112024163D01*
X98008009Y-112087424D01*
X98002798Y-112092965D01*
X93903530Y-116192233D01*
X93842207Y-116225718D01*
X93783756Y-116224327D01*
X93655413Y-116189938D01*
X93655403Y-116189936D01*
X93420001Y-116169341D01*
X93419999Y-116169341D01*
X93184596Y-116189936D01*
X93184586Y-116189938D01*
X92956344Y-116251094D01*
X92956335Y-116251098D01*
X92742171Y-116350964D01*
X92742169Y-116350965D01*
X92548597Y-116486505D01*
X92381508Y-116653594D01*
X92251269Y-116839595D01*
X92196692Y-116883219D01*
X92127193Y-116890412D01*
X92064839Y-116858890D01*
X92048119Y-116839594D01*
X91918113Y-116653926D01*
X91918108Y-116653920D01*
X91751082Y-116486894D01*
X91557578Y-116351399D01*
X91343492Y-116251570D01*
X91343486Y-116251567D01*
X91130000Y-116194364D01*
X91130000Y-117091988D01*
X91072993Y-117059075D01*
X90945826Y-117025000D01*
X90814174Y-117025000D01*
X90687007Y-117059075D01*
X90630000Y-117091988D01*
X90630000Y-116194364D01*
X90629999Y-116194364D01*
X90416513Y-116251567D01*
X90416507Y-116251570D01*
X90202422Y-116351399D01*
X90202420Y-116351400D01*
X90008926Y-116486886D01*
X90008920Y-116486891D01*
X89841891Y-116653920D01*
X89841886Y-116653926D01*
X89706400Y-116847420D01*
X89706399Y-116847422D01*
X89606570Y-117061507D01*
X89606567Y-117061513D01*
X89549364Y-117274999D01*
X89549364Y-117275000D01*
X90446988Y-117275000D01*
X90414075Y-117332007D01*
X90380000Y-117459174D01*
X90380000Y-117590826D01*
X90414075Y-117717993D01*
X90446988Y-117775000D01*
X89549364Y-117775000D01*
X89606567Y-117988486D01*
X89606570Y-117988492D01*
X89706399Y-118202578D01*
X89841894Y-118396082D01*
X90008917Y-118563105D01*
X90202421Y-118698600D01*
X90416507Y-118798429D01*
X90416516Y-118798433D01*
X90630000Y-118855634D01*
X90630000Y-117958012D01*
X90687007Y-117990925D01*
X90814174Y-118025000D01*
X90945826Y-118025000D01*
X91072993Y-117990925D01*
X91130000Y-117958012D01*
X91130000Y-118855633D01*
X91343483Y-118798433D01*
X91343492Y-118798429D01*
X91557578Y-118698600D01*
X91751082Y-118563105D01*
X91918105Y-118396082D01*
X92048119Y-118210405D01*
X92102696Y-118166781D01*
X92172195Y-118159588D01*
X92234549Y-118191110D01*
X92251269Y-118210405D01*
X92381505Y-118396401D01*
X92548599Y-118563495D01*
X92592589Y-118594297D01*
X92742165Y-118699032D01*
X92742167Y-118699033D01*
X92742170Y-118699035D01*
X92956337Y-118798903D01*
X93184592Y-118860063D01*
X93372918Y-118876539D01*
X93419999Y-118880659D01*
X93420000Y-118880659D01*
X93420001Y-118880659D01*
X93459234Y-118877226D01*
X93655408Y-118860063D01*
X93883663Y-118798903D01*
X94097830Y-118699035D01*
X94291401Y-118563495D01*
X94458495Y-118396401D01*
X94588425Y-118210842D01*
X94643002Y-118167217D01*
X94712500Y-118160023D01*
X94774855Y-118191546D01*
X94791575Y-118210842D01*
X94921281Y-118396082D01*
X94921505Y-118396401D01*
X95088599Y-118563495D01*
X95132589Y-118594297D01*
X95282165Y-118699032D01*
X95282167Y-118699033D01*
X95282170Y-118699035D01*
X95496337Y-118798903D01*
X95724592Y-118860063D01*
X95912918Y-118876539D01*
X95959999Y-118880659D01*
X95960000Y-118880659D01*
X95960001Y-118880659D01*
X95999234Y-118877226D01*
X96195408Y-118860063D01*
X96323757Y-118825672D01*
X96393606Y-118827335D01*
X96443531Y-118857766D01*
X96874084Y-119288319D01*
X96907569Y-119349642D01*
X96902585Y-119419334D01*
X96860713Y-119475267D01*
X96795249Y-119499684D01*
X96786403Y-119500000D01*
X76306226Y-119500000D01*
X76239187Y-119480315D01*
X76193432Y-119427511D01*
X76183488Y-119358353D01*
X76212513Y-119294797D01*
X76231914Y-119276734D01*
X76257546Y-119257546D01*
X76343796Y-119142331D01*
X76394091Y-119007483D01*
X76400500Y-118947873D01*
X76400499Y-117052128D01*
X76394091Y-116992517D01*
X76356008Y-116890412D01*
X76343797Y-116857671D01*
X76343793Y-116857664D01*
X76257547Y-116742455D01*
X76257544Y-116742452D01*
X76142335Y-116656206D01*
X76142328Y-116656202D01*
X76007482Y-116605908D01*
X76007483Y-116605908D01*
X75947883Y-116599501D01*
X75947881Y-116599500D01*
X75947873Y-116599500D01*
X75947864Y-116599500D01*
X74052129Y-116599500D01*
X74052123Y-116599501D01*
X73992516Y-116605908D01*
X73857671Y-116656202D01*
X73857664Y-116656206D01*
X73742455Y-116742452D01*
X73742452Y-116742455D01*
X73656206Y-116857664D01*
X73656202Y-116857671D01*
X73605908Y-116992517D01*
X73599501Y-117052116D01*
X73599501Y-117052123D01*
X73599500Y-117052135D01*
X73599500Y-118947870D01*
X73599501Y-118947876D01*
X73605908Y-119007483D01*
X73656202Y-119142328D01*
X73656206Y-119142335D01*
X73742452Y-119257544D01*
X73742453Y-119257544D01*
X73742454Y-119257546D01*
X73768086Y-119276734D01*
X73809956Y-119332668D01*
X73814940Y-119402360D01*
X73781454Y-119463682D01*
X73720131Y-119497167D01*
X73693774Y-119500000D01*
X63624000Y-119500000D01*
X63556961Y-119480315D01*
X63511206Y-119427511D01*
X63500000Y-119376000D01*
X63500000Y-108999994D01*
X67844357Y-108999994D01*
X67844357Y-109000005D01*
X67864890Y-109247812D01*
X67864892Y-109247824D01*
X67925936Y-109488881D01*
X68023434Y-109711151D01*
X68025827Y-109716607D01*
X68156742Y-109916988D01*
X68176929Y-109983877D01*
X68157749Y-110051063D01*
X68112367Y-110093637D01*
X68107670Y-110096201D01*
X67992455Y-110182452D01*
X67992452Y-110182455D01*
X67906206Y-110297664D01*
X67906202Y-110297671D01*
X67855908Y-110432517D01*
X67849501Y-110492116D01*
X67849501Y-110492123D01*
X67849500Y-110492135D01*
X67849500Y-112587870D01*
X67849501Y-112587876D01*
X67855908Y-112647483D01*
X67906202Y-112782328D01*
X67906206Y-112782335D01*
X67992452Y-112897544D01*
X67992455Y-112897547D01*
X68107664Y-112983793D01*
X68107671Y-112983797D01*
X68242517Y-113034091D01*
X68242516Y-113034091D01*
X68249444Y-113034835D01*
X68302127Y-113040500D01*
X70397872Y-113040499D01*
X70457483Y-113034091D01*
X70592331Y-112983796D01*
X70707546Y-112897546D01*
X70793796Y-112782331D01*
X70844091Y-112647483D01*
X70850500Y-112587873D01*
X70850499Y-110492128D01*
X70844091Y-110432517D01*
X70827821Y-110388896D01*
X70824500Y-110379993D01*
X73594700Y-110379993D01*
X73594700Y-110380006D01*
X73613864Y-110611297D01*
X73613866Y-110611308D01*
X73670842Y-110836300D01*
X73764075Y-111048848D01*
X73891016Y-111243147D01*
X73891019Y-111243151D01*
X73891021Y-111243153D01*
X74048216Y-111413913D01*
X74048219Y-111413915D01*
X74048222Y-111413918D01*
X74231365Y-111556464D01*
X74231371Y-111556468D01*
X74231374Y-111556470D01*
X74435497Y-111666936D01*
X74544565Y-111704379D01*
X74655015Y-111742297D01*
X74655017Y-111742297D01*
X74655019Y-111742298D01*
X74883951Y-111780500D01*
X74883952Y-111780500D01*
X75116048Y-111780500D01*
X75116049Y-111780500D01*
X75344981Y-111742298D01*
X75564503Y-111666936D01*
X75768626Y-111556470D01*
X75785906Y-111543021D01*
X75912182Y-111444736D01*
X75951784Y-111413913D01*
X76108979Y-111243153D01*
X76111342Y-111239537D01*
X76200802Y-111102607D01*
X76235924Y-111048849D01*
X76329157Y-110836300D01*
X76386134Y-110611305D01*
X76391413Y-110547599D01*
X76405300Y-110380006D01*
X76405300Y-110379993D01*
X76386135Y-110148702D01*
X76386133Y-110148691D01*
X76329157Y-109923699D01*
X76235924Y-109711151D01*
X76108983Y-109516852D01*
X76108980Y-109516849D01*
X76108979Y-109516847D01*
X75951784Y-109346087D01*
X75951779Y-109346083D01*
X75951777Y-109346081D01*
X75768634Y-109203535D01*
X75768628Y-109203531D01*
X75564504Y-109093064D01*
X75564495Y-109093061D01*
X75344984Y-109017702D01*
X75173282Y-108989050D01*
X75116049Y-108979500D01*
X74883951Y-108979500D01*
X74838164Y-108987140D01*
X74655015Y-109017702D01*
X74435504Y-109093061D01*
X74435495Y-109093064D01*
X74231371Y-109203531D01*
X74231365Y-109203535D01*
X74048222Y-109346081D01*
X74048219Y-109346084D01*
X74048216Y-109346086D01*
X74048216Y-109346087D01*
X74002491Y-109395758D01*
X73891016Y-109516852D01*
X73764075Y-109711151D01*
X73670842Y-109923699D01*
X73613866Y-110148691D01*
X73613864Y-110148702D01*
X73594700Y-110379993D01*
X70824500Y-110379993D01*
X70793797Y-110297671D01*
X70793793Y-110297664D01*
X70707547Y-110182455D01*
X70707544Y-110182452D01*
X70592332Y-110096204D01*
X70587635Y-110093639D01*
X70538232Y-110044232D01*
X70523382Y-109975958D01*
X70543257Y-109916989D01*
X70674173Y-109716607D01*
X70774063Y-109488881D01*
X70835108Y-109247821D01*
X70848579Y-109085250D01*
X70855643Y-109000005D01*
X70855643Y-108999994D01*
X70835109Y-108752187D01*
X70835107Y-108752175D01*
X70774063Y-108511118D01*
X70674173Y-108283393D01*
X70538166Y-108075217D01*
X70516557Y-108051744D01*
X70369744Y-107892262D01*
X70173509Y-107739526D01*
X70173507Y-107739525D01*
X70173506Y-107739524D01*
X69954811Y-107621172D01*
X69954802Y-107621169D01*
X69719616Y-107540429D01*
X69474335Y-107499500D01*
X69225665Y-107499500D01*
X68980383Y-107540429D01*
X68745197Y-107621169D01*
X68745188Y-107621172D01*
X68526493Y-107739524D01*
X68330257Y-107892261D01*
X68161833Y-108075217D01*
X68025826Y-108283393D01*
X67925936Y-108511118D01*
X67864892Y-108752175D01*
X67864890Y-108752187D01*
X67844357Y-108999994D01*
X63500000Y-108999994D01*
X63500000Y-103456448D01*
X67249500Y-103456448D01*
X67249500Y-103637551D01*
X67277829Y-103816410D01*
X67333787Y-103988636D01*
X67333788Y-103988639D01*
X67416008Y-104150002D01*
X67418550Y-104154150D01*
X67417113Y-104155029D01*
X67438140Y-104213939D01*
X67422322Y-104281994D01*
X67397633Y-104310085D01*
X67398728Y-104311180D01*
X67392451Y-104317457D01*
X67306206Y-104432664D01*
X67306202Y-104432671D01*
X67255908Y-104567517D01*
X67252058Y-104603334D01*
X67249501Y-104627123D01*
X67249500Y-104627135D01*
X67249500Y-106022870D01*
X67249501Y-106022876D01*
X67255908Y-106082483D01*
X67306202Y-106217328D01*
X67306206Y-106217335D01*
X67392452Y-106332544D01*
X67392455Y-106332547D01*
X67507664Y-106418793D01*
X67507671Y-106418797D01*
X67642517Y-106469091D01*
X67642516Y-106469091D01*
X67649444Y-106469835D01*
X67702127Y-106475500D01*
X69297872Y-106475499D01*
X69357483Y-106469091D01*
X69492331Y-106418796D01*
X69607546Y-106332546D01*
X69693796Y-106217331D01*
X69744091Y-106082483D01*
X69750500Y-106022873D01*
X69750499Y-104627128D01*
X69744091Y-104567517D01*
X69741129Y-104559576D01*
X69693797Y-104432671D01*
X69693793Y-104432664D01*
X69628506Y-104345453D01*
X69607546Y-104317454D01*
X69607542Y-104317451D01*
X69601272Y-104311180D01*
X69603129Y-104309322D01*
X69569475Y-104264367D01*
X69564489Y-104194675D01*
X69582397Y-104154730D01*
X69581450Y-104154150D01*
X69583991Y-104150002D01*
X69583992Y-104149998D01*
X69583996Y-104149994D01*
X69666211Y-103988639D01*
X69722171Y-103816409D01*
X69736765Y-103724259D01*
X69750500Y-103637551D01*
X69750500Y-103456448D01*
X69723166Y-103283875D01*
X69722171Y-103277591D01*
X69690218Y-103179249D01*
X69666212Y-103105363D01*
X69666211Y-103105360D01*
X69637603Y-103049215D01*
X69583996Y-102944006D01*
X69524085Y-102861545D01*
X69477558Y-102797505D01*
X69477554Y-102797500D01*
X69425381Y-102745327D01*
X69391896Y-102684004D01*
X69396880Y-102614312D01*
X69425381Y-102569965D01*
X69477172Y-102518173D01*
X69477176Y-102518169D01*
X69583565Y-102371734D01*
X69665747Y-102210447D01*
X69665749Y-102210441D01*
X69721681Y-102038295D01*
X69721684Y-102038285D01*
X69724739Y-102019000D01*
X68780330Y-102019000D01*
X68800075Y-101999255D01*
X68849444Y-101913745D01*
X68875000Y-101818370D01*
X68875000Y-101719630D01*
X68849444Y-101624255D01*
X68800075Y-101538745D01*
X68780330Y-101519000D01*
X69724739Y-101519000D01*
X69721684Y-101499714D01*
X69721681Y-101499704D01*
X69665749Y-101327558D01*
X69665747Y-101327552D01*
X69583565Y-101166265D01*
X69477176Y-101019830D01*
X69349169Y-100891823D01*
X69202734Y-100785434D01*
X69041447Y-100703252D01*
X69041444Y-100703251D01*
X68869294Y-100647317D01*
X68750000Y-100628422D01*
X68750000Y-101488670D01*
X68730255Y-101468925D01*
X68644745Y-101419556D01*
X68549370Y-101394000D01*
X68450630Y-101394000D01*
X68355255Y-101419556D01*
X68269745Y-101468925D01*
X68250000Y-101488670D01*
X68250000Y-100628422D01*
X68249999Y-100628422D01*
X68130705Y-100647317D01*
X67958555Y-100703251D01*
X67958552Y-100703252D01*
X67797265Y-100785434D01*
X67650830Y-100891823D01*
X67522823Y-101019830D01*
X67416434Y-101166265D01*
X67334252Y-101327552D01*
X67334250Y-101327558D01*
X67278318Y-101499704D01*
X67278315Y-101499714D01*
X67275261Y-101519000D01*
X68219670Y-101519000D01*
X68199925Y-101538745D01*
X68150556Y-101624255D01*
X68125000Y-101719630D01*
X68125000Y-101818370D01*
X68150556Y-101913745D01*
X68199925Y-101999255D01*
X68219670Y-102019000D01*
X67275261Y-102019000D01*
X67278315Y-102038285D01*
X67278318Y-102038295D01*
X67334250Y-102210441D01*
X67334252Y-102210447D01*
X67416434Y-102371734D01*
X67522823Y-102518169D01*
X67574618Y-102569964D01*
X67608103Y-102631287D01*
X67603119Y-102700979D01*
X67574620Y-102745325D01*
X67522440Y-102797505D01*
X67416006Y-102944002D01*
X67333788Y-103105360D01*
X67333787Y-103105363D01*
X67277829Y-103277589D01*
X67249500Y-103456448D01*
X63500000Y-103456448D01*
X63500000Y-72544994D01*
X66339357Y-72544994D01*
X66339357Y-72545005D01*
X66359890Y-72792812D01*
X66359892Y-72792824D01*
X66420936Y-73033881D01*
X66516672Y-73252135D01*
X66520827Y-73261607D01*
X66651742Y-73461988D01*
X66671929Y-73528877D01*
X66652749Y-73596063D01*
X66607367Y-73638637D01*
X66602670Y-73641201D01*
X66487455Y-73727452D01*
X66487452Y-73727455D01*
X66401206Y-73842664D01*
X66401202Y-73842671D01*
X66350908Y-73977517D01*
X66347687Y-74007482D01*
X66344501Y-74037123D01*
X66344500Y-74037135D01*
X66344500Y-76132870D01*
X66344501Y-76132876D01*
X66350908Y-76192483D01*
X66401202Y-76327328D01*
X66401206Y-76327335D01*
X66487452Y-76442544D01*
X66487455Y-76442547D01*
X66602664Y-76528793D01*
X66602671Y-76528797D01*
X66737517Y-76579091D01*
X66737516Y-76579091D01*
X66744444Y-76579835D01*
X66797127Y-76585500D01*
X68892872Y-76585499D01*
X68952483Y-76579091D01*
X69087331Y-76528796D01*
X69202546Y-76442546D01*
X69288796Y-76327331D01*
X69339091Y-76192483D01*
X69345500Y-76132873D01*
X69345499Y-74037128D01*
X69339091Y-73977517D01*
X69328038Y-73947883D01*
X69288797Y-73842671D01*
X69288793Y-73842664D01*
X69202547Y-73727455D01*
X69202544Y-73727452D01*
X69087332Y-73641204D01*
X69082635Y-73638639D01*
X69033232Y-73589232D01*
X69018382Y-73520958D01*
X69038257Y-73461989D01*
X69169173Y-73261607D01*
X69269063Y-73033881D01*
X69330108Y-72792821D01*
X69333591Y-72750789D01*
X69350643Y-72545005D01*
X69350643Y-72544994D01*
X69330109Y-72297187D01*
X69330107Y-72297175D01*
X69269063Y-72056118D01*
X69169173Y-71828393D01*
X69033166Y-71620217D01*
X68943429Y-71522737D01*
X68864744Y-71437262D01*
X68668509Y-71284526D01*
X68668507Y-71284525D01*
X68668506Y-71284524D01*
X68449811Y-71166172D01*
X68449802Y-71166169D01*
X68214616Y-71085429D01*
X67969335Y-71044500D01*
X67720665Y-71044500D01*
X67475383Y-71085429D01*
X67240197Y-71166169D01*
X67240188Y-71166172D01*
X67021493Y-71284524D01*
X66825257Y-71437261D01*
X66656833Y-71620217D01*
X66520826Y-71828393D01*
X66420936Y-72056118D01*
X66359892Y-72297175D01*
X66359890Y-72297187D01*
X66339357Y-72544994D01*
X63500000Y-72544994D01*
X63500000Y-65544994D01*
X66339357Y-65544994D01*
X66339357Y-65545005D01*
X66359890Y-65792812D01*
X66359892Y-65792824D01*
X66420936Y-66033881D01*
X66512732Y-66243153D01*
X66520827Y-66261607D01*
X66651742Y-66461988D01*
X66671929Y-66528877D01*
X66652749Y-66596063D01*
X66607367Y-66638637D01*
X66602670Y-66641201D01*
X66487455Y-66727452D01*
X66487452Y-66727455D01*
X66401206Y-66842664D01*
X66401202Y-66842671D01*
X66350908Y-66977517D01*
X66348491Y-67000004D01*
X66344501Y-67037123D01*
X66344500Y-67037135D01*
X66344500Y-69132870D01*
X66344501Y-69132876D01*
X66350908Y-69192483D01*
X66401202Y-69327328D01*
X66401206Y-69327335D01*
X66487452Y-69442544D01*
X66487455Y-69442547D01*
X66602664Y-69528793D01*
X66602671Y-69528797D01*
X66737517Y-69579091D01*
X66737516Y-69579091D01*
X66744444Y-69579835D01*
X66797127Y-69585500D01*
X68892872Y-69585499D01*
X68952483Y-69579091D01*
X69087331Y-69528796D01*
X69202546Y-69442546D01*
X69288796Y-69327331D01*
X69339091Y-69192483D01*
X69345500Y-69132873D01*
X69345499Y-67037128D01*
X69339091Y-66977517D01*
X69327383Y-66946127D01*
X69288797Y-66842671D01*
X69288793Y-66842664D01*
X69202547Y-66727455D01*
X69202544Y-66727452D01*
X69087332Y-66641204D01*
X69082635Y-66638639D01*
X69033232Y-66589232D01*
X69018382Y-66520958D01*
X69038257Y-66461989D01*
X69169173Y-66261607D01*
X69269063Y-66033881D01*
X69330108Y-65792821D01*
X69345149Y-65611305D01*
X69350643Y-65545005D01*
X69350643Y-65544994D01*
X69336971Y-65379993D01*
X119594700Y-65379993D01*
X119594700Y-65380006D01*
X119613864Y-65611297D01*
X119613866Y-65611308D01*
X119670842Y-65836300D01*
X119764075Y-66048848D01*
X119891016Y-66243147D01*
X119891019Y-66243151D01*
X119891021Y-66243153D01*
X120048216Y-66413913D01*
X120048219Y-66413915D01*
X120048222Y-66413918D01*
X120231365Y-66556464D01*
X120231371Y-66556468D01*
X120231374Y-66556470D01*
X120435497Y-66666936D01*
X120549487Y-66706068D01*
X120655015Y-66742297D01*
X120655017Y-66742297D01*
X120655019Y-66742298D01*
X120883951Y-66780500D01*
X120883952Y-66780500D01*
X121116048Y-66780500D01*
X121116049Y-66780500D01*
X121344981Y-66742298D01*
X121564503Y-66666936D01*
X121768626Y-66556470D01*
X121951784Y-66413913D01*
X122108979Y-66243153D01*
X122235924Y-66048849D01*
X122329157Y-65836300D01*
X122386134Y-65611305D01*
X122393399Y-65523628D01*
X122405300Y-65380006D01*
X122405300Y-65379993D01*
X122386135Y-65148702D01*
X122386133Y-65148691D01*
X122329157Y-64923699D01*
X122235924Y-64711151D01*
X122108983Y-64516852D01*
X122108980Y-64516849D01*
X122108979Y-64516847D01*
X121951784Y-64346087D01*
X121951778Y-64346082D01*
X121951777Y-64346081D01*
X121768634Y-64203535D01*
X121768628Y-64203531D01*
X121564504Y-64093064D01*
X121564495Y-64093061D01*
X121344984Y-64017702D01*
X121173282Y-63989050D01*
X121116049Y-63979500D01*
X120883951Y-63979500D01*
X120838164Y-63987140D01*
X120655015Y-64017702D01*
X120435504Y-64093061D01*
X120435495Y-64093064D01*
X120231371Y-64203531D01*
X120231365Y-64203535D01*
X120048222Y-64346081D01*
X120048219Y-64346084D01*
X119891016Y-64516852D01*
X119764075Y-64711151D01*
X119670842Y-64923699D01*
X119613866Y-65148691D01*
X119613864Y-65148702D01*
X119594700Y-65379993D01*
X69336971Y-65379993D01*
X69330109Y-65297187D01*
X69330107Y-65297175D01*
X69269063Y-65056118D01*
X69169173Y-64828393D01*
X69033166Y-64620217D01*
X69011557Y-64596744D01*
X68864744Y-64437262D01*
X68668509Y-64284526D01*
X68668507Y-64284525D01*
X68668506Y-64284524D01*
X68449811Y-64166172D01*
X68449802Y-64166169D01*
X68214616Y-64085429D01*
X67969335Y-64044500D01*
X67720665Y-64044500D01*
X67475383Y-64085429D01*
X67240197Y-64166169D01*
X67240188Y-64166172D01*
X67021493Y-64284524D01*
X66825257Y-64437261D01*
X66656833Y-64620217D01*
X66520826Y-64828393D01*
X66420936Y-65056118D01*
X66359892Y-65297175D01*
X66359890Y-65297187D01*
X66339357Y-65544994D01*
X63500000Y-65544994D01*
X63500000Y-62577135D01*
X123399500Y-62577135D01*
X123399500Y-64372870D01*
X123399501Y-64372876D01*
X123405908Y-64432483D01*
X123456202Y-64567328D01*
X123456206Y-64567335D01*
X123542452Y-64682544D01*
X123542455Y-64682547D01*
X123657664Y-64768793D01*
X123657671Y-64768797D01*
X123792517Y-64819091D01*
X123792516Y-64819091D01*
X123799444Y-64819835D01*
X123852127Y-64825500D01*
X125647872Y-64825499D01*
X125707483Y-64819091D01*
X125842331Y-64768796D01*
X125957546Y-64682546D01*
X126043796Y-64567331D01*
X126093002Y-64435401D01*
X126134872Y-64379468D01*
X126200337Y-64355050D01*
X126268610Y-64369901D01*
X126296865Y-64391053D01*
X126418917Y-64513105D01*
X126612421Y-64648600D01*
X126826507Y-64748429D01*
X126826516Y-64748433D01*
X127040000Y-64805634D01*
X127040000Y-63908012D01*
X127097007Y-63940925D01*
X127224174Y-63975000D01*
X127355826Y-63975000D01*
X127482993Y-63940925D01*
X127540000Y-63908012D01*
X127540000Y-64805633D01*
X127753483Y-64748433D01*
X127753492Y-64748429D01*
X127967578Y-64648600D01*
X128161082Y-64513105D01*
X128328105Y-64346082D01*
X128463600Y-64152578D01*
X128563429Y-63938492D01*
X128563432Y-63938486D01*
X128620636Y-63725000D01*
X127723012Y-63725000D01*
X127755925Y-63667993D01*
X127790000Y-63540826D01*
X127790000Y-63409174D01*
X127755925Y-63282007D01*
X127723012Y-63225000D01*
X128620636Y-63225000D01*
X128620635Y-63224999D01*
X128563432Y-63011513D01*
X128563429Y-63011507D01*
X128463600Y-62797422D01*
X128463599Y-62797420D01*
X128328113Y-62603926D01*
X128328108Y-62603920D01*
X128161082Y-62436894D01*
X127967578Y-62301399D01*
X127753492Y-62201570D01*
X127753486Y-62201567D01*
X127540000Y-62144364D01*
X127540000Y-63041988D01*
X127482993Y-63009075D01*
X127355826Y-62975000D01*
X127224174Y-62975000D01*
X127097007Y-63009075D01*
X127040000Y-63041988D01*
X127040000Y-62144364D01*
X127039999Y-62144364D01*
X126826513Y-62201567D01*
X126826507Y-62201570D01*
X126612422Y-62301399D01*
X126612420Y-62301400D01*
X126418926Y-62436886D01*
X126296865Y-62558947D01*
X126235542Y-62592431D01*
X126165850Y-62587447D01*
X126109917Y-62545575D01*
X126093002Y-62514598D01*
X126043797Y-62382671D01*
X126043793Y-62382664D01*
X125957547Y-62267455D01*
X125957544Y-62267452D01*
X125842335Y-62181206D01*
X125842328Y-62181202D01*
X125707482Y-62130908D01*
X125707483Y-62130908D01*
X125647883Y-62124501D01*
X125647881Y-62124500D01*
X125647873Y-62124500D01*
X125647864Y-62124500D01*
X123852129Y-62124500D01*
X123852123Y-62124501D01*
X123792516Y-62130908D01*
X123657671Y-62181202D01*
X123657664Y-62181206D01*
X123542455Y-62267452D01*
X123542452Y-62267455D01*
X123456206Y-62382664D01*
X123456202Y-62382671D01*
X123405908Y-62517517D01*
X123399501Y-62577116D01*
X123399500Y-62577135D01*
X63500000Y-62577135D01*
X63500000Y-61624000D01*
X63519685Y-61556961D01*
X63572489Y-61511206D01*
X63624000Y-61500000D01*
X151376000Y-61500000D01*
X151443039Y-61519685D01*
G37*
%TD.AperFunction*%
%TA.AperFunction,Conductor*%
G36*
X131933976Y-104620185D02*
G01*
X131979731Y-104672989D01*
X131989675Y-104742147D01*
X131983978Y-104765455D01*
X131964633Y-104820737D01*
X131964630Y-104820750D01*
X131944435Y-104999996D01*
X131944435Y-104999998D01*
X131945744Y-105011614D01*
X131933691Y-105080436D01*
X131886343Y-105131816D01*
X131822524Y-105149500D01*
X124079057Y-105149500D01*
X123920942Y-105149500D01*
X123768215Y-105190423D01*
X123768214Y-105190423D01*
X123768212Y-105190424D01*
X123768209Y-105190425D01*
X123733066Y-105210716D01*
X123733064Y-105210717D01*
X123631290Y-105269475D01*
X123631282Y-105269481D01*
X123519478Y-105381286D01*
X122381163Y-106519600D01*
X122319840Y-106553085D01*
X122250148Y-106548101D01*
X122194215Y-106506229D01*
X122169798Y-106440765D01*
X122177896Y-106390814D01*
X122177045Y-106390556D01*
X122178812Y-106384730D01*
X122178814Y-106384727D01*
X122236024Y-106196132D01*
X122255341Y-106000000D01*
X122236024Y-105803868D01*
X122178814Y-105615273D01*
X122178811Y-105615269D01*
X122178811Y-105615266D01*
X122085913Y-105441467D01*
X122085909Y-105441460D01*
X121960883Y-105289116D01*
X121808539Y-105164090D01*
X121808532Y-105164086D01*
X121634733Y-105071188D01*
X121634727Y-105071186D01*
X121446132Y-105013976D01*
X121446129Y-105013975D01*
X121250000Y-104994659D01*
X121053870Y-105013975D01*
X120865266Y-105071188D01*
X120691467Y-105164086D01*
X120691460Y-105164090D01*
X120539116Y-105289116D01*
X120414090Y-105441460D01*
X120414086Y-105441467D01*
X120321188Y-105615266D01*
X120263975Y-105803870D01*
X120255127Y-105893700D01*
X120228965Y-105958487D01*
X120219405Y-105969225D01*
X119870571Y-106318060D01*
X119870569Y-106318062D01*
X119849253Y-106349966D01*
X119840748Y-106362696D01*
X119824630Y-106386819D01*
X119788438Y-106440983D01*
X119731867Y-106577558D01*
X119731864Y-106577568D01*
X119703024Y-106722555D01*
X119703024Y-113636897D01*
X119683339Y-113703936D01*
X119630535Y-113749691D01*
X119591181Y-113760300D01*
X119553870Y-113763975D01*
X119365266Y-113821188D01*
X119191467Y-113914086D01*
X119191460Y-113914090D01*
X119039116Y-114039116D01*
X118914090Y-114191460D01*
X118914086Y-114191467D01*
X118821188Y-114365266D01*
X118763975Y-114553870D01*
X118744659Y-114750000D01*
X118763975Y-114946129D01*
X118763976Y-114946132D01*
X118812177Y-115105030D01*
X118821188Y-115134733D01*
X118914086Y-115308532D01*
X118914090Y-115308539D01*
X119039116Y-115460883D01*
X119191460Y-115585909D01*
X119191467Y-115585913D01*
X119365266Y-115678811D01*
X119365269Y-115678811D01*
X119365273Y-115678814D01*
X119553868Y-115736024D01*
X119643697Y-115744871D01*
X119708485Y-115771031D01*
X119719225Y-115780593D01*
X123226951Y-119288319D01*
X123260436Y-119349642D01*
X123255452Y-119419334D01*
X123213580Y-119475267D01*
X123148116Y-119499684D01*
X123139270Y-119500000D01*
X107398596Y-119500000D01*
X107331557Y-119480315D01*
X107285802Y-119427511D01*
X107275858Y-119358353D01*
X107304883Y-119294797D01*
X107310915Y-119288319D01*
X109381241Y-117217993D01*
X111518713Y-115080521D01*
X111518716Y-115080520D01*
X111630520Y-114968716D01*
X111680639Y-114881904D01*
X111709577Y-114831785D01*
X111750500Y-114679057D01*
X111750500Y-114520943D01*
X111750500Y-111771418D01*
X111770185Y-111704379D01*
X111786814Y-111683742D01*
X113489694Y-109980861D01*
X113551015Y-109947378D01*
X113620707Y-109952362D01*
X113676640Y-109994234D01*
X113700593Y-110054660D01*
X113714630Y-110179250D01*
X113714631Y-110179254D01*
X113774211Y-110349523D01*
X113826360Y-110432517D01*
X113870184Y-110502262D01*
X113997738Y-110629816D01*
X114150478Y-110725789D01*
X114272113Y-110768351D01*
X114320745Y-110785368D01*
X114320750Y-110785369D01*
X114499996Y-110805565D01*
X114500000Y-110805565D01*
X114500004Y-110805565D01*
X114679249Y-110785369D01*
X114679252Y-110785368D01*
X114679255Y-110785368D01*
X114849522Y-110725789D01*
X115002262Y-110629816D01*
X115129816Y-110502262D01*
X115225789Y-110349522D01*
X115285368Y-110179255D01*
X115295161Y-110092329D01*
X115322226Y-110027918D01*
X115330690Y-110018543D01*
X120712416Y-104636819D01*
X120773739Y-104603334D01*
X120800097Y-104600500D01*
X131866937Y-104600500D01*
X131933976Y-104620185D01*
G37*
%TD.AperFunction*%
%TA.AperFunction,Conductor*%
G36*
X112944771Y-108506976D02*
G01*
X113000704Y-108548848D01*
X113025121Y-108614312D01*
X113024657Y-108637042D01*
X113015498Y-108718329D01*
X112988431Y-108782743D01*
X112979959Y-108792126D01*
X110781286Y-110990800D01*
X110669481Y-111102604D01*
X110669480Y-111102606D01*
X110628108Y-111174265D01*
X110590423Y-111239537D01*
X110549499Y-111392265D01*
X110549499Y-111392267D01*
X110549499Y-111560368D01*
X110549500Y-111560381D01*
X110549500Y-114299903D01*
X110529815Y-114366942D01*
X110513181Y-114387584D01*
X106137584Y-118763181D01*
X106076261Y-118796666D01*
X106049903Y-118799500D01*
X103947626Y-118799500D01*
X103880587Y-118779815D01*
X103834832Y-118727011D01*
X103824888Y-118657853D01*
X103853913Y-118594297D01*
X103859945Y-118587819D01*
X104687356Y-117760408D01*
X107218713Y-115229050D01*
X107218716Y-115229049D01*
X107330520Y-115117245D01*
X107380639Y-115030433D01*
X107409577Y-114980314D01*
X107450501Y-114827586D01*
X107450501Y-114669472D01*
X107450501Y-114661877D01*
X107450500Y-114661859D01*
X107450500Y-113950096D01*
X107470185Y-113883057D01*
X107486814Y-113862420D01*
X112813758Y-108535475D01*
X112875079Y-108501992D01*
X112944771Y-108506976D01*
G37*
%TD.AperFunction*%
%TA.AperFunction,Conductor*%
G36*
X102918834Y-108977914D02*
G01*
X102974767Y-109019786D01*
X102999184Y-109085250D01*
X102999500Y-109094096D01*
X102999500Y-111543021D01*
X102979815Y-111610060D01*
X102971353Y-111621686D01*
X102914091Y-111691460D01*
X102914086Y-111691467D01*
X102821188Y-111865266D01*
X102763975Y-112053870D01*
X102748501Y-112210985D01*
X102722340Y-112275773D01*
X102712779Y-112286512D01*
X100457049Y-114542243D01*
X100457045Y-114542247D01*
X100430526Y-114581939D01*
X100430525Y-114581941D01*
X100374914Y-114665168D01*
X100318343Y-114801743D01*
X100318340Y-114801753D01*
X100289500Y-114946740D01*
X100289500Y-116050500D01*
X100269815Y-116117539D01*
X100217011Y-116163294D01*
X100165505Y-116174500D01*
X100142132Y-116174500D01*
X100142123Y-116174501D01*
X100082516Y-116180908D01*
X99947671Y-116231202D01*
X99947664Y-116231206D01*
X99832455Y-116317452D01*
X99832452Y-116317455D01*
X99746206Y-116432664D01*
X99746203Y-116432669D01*
X99697189Y-116564083D01*
X99655317Y-116620016D01*
X99589853Y-116644433D01*
X99521580Y-116629581D01*
X99493326Y-116608430D01*
X99371402Y-116486506D01*
X99371395Y-116486501D01*
X99177834Y-116350967D01*
X99177830Y-116350965D01*
X99119898Y-116323951D01*
X98963663Y-116251097D01*
X98963659Y-116251096D01*
X98963655Y-116251094D01*
X98735413Y-116189938D01*
X98735403Y-116189936D01*
X98500001Y-116169341D01*
X98499999Y-116169341D01*
X98264596Y-116189936D01*
X98264586Y-116189938D01*
X98036344Y-116251094D01*
X98036335Y-116251098D01*
X97822171Y-116350964D01*
X97822169Y-116350965D01*
X97628597Y-116486505D01*
X97461505Y-116653597D01*
X97331575Y-116839158D01*
X97276998Y-116882783D01*
X97207500Y-116889977D01*
X97145145Y-116858454D01*
X97128425Y-116839158D01*
X96998494Y-116653597D01*
X96831402Y-116486506D01*
X96831395Y-116486501D01*
X96637834Y-116350967D01*
X96637830Y-116350965D01*
X96579898Y-116323951D01*
X96423663Y-116251097D01*
X96423659Y-116251096D01*
X96423655Y-116251094D01*
X96195413Y-116189938D01*
X96195403Y-116189936D01*
X95960001Y-116169341D01*
X95959998Y-116169341D01*
X95932153Y-116171777D01*
X95863653Y-116158010D01*
X95813470Y-116109395D01*
X95797537Y-116041366D01*
X95820913Y-115975523D01*
X95833659Y-115960574D01*
X102787819Y-109006415D01*
X102849142Y-108972930D01*
X102918834Y-108977914D01*
G37*
%TD.AperFunction*%
%TA.AperFunction,Conductor*%
G36*
X70886881Y-89737903D02*
G01*
X70900262Y-89749497D01*
X84169298Y-103018533D01*
X84202783Y-103079856D01*
X84204837Y-103092330D01*
X84214630Y-103179249D01*
X84274210Y-103349521D01*
X84305209Y-103398855D01*
X84370184Y-103502262D01*
X84497738Y-103629816D01*
X84650478Y-103725789D01*
X84820745Y-103785368D01*
X84820750Y-103785369D01*
X84999996Y-103805565D01*
X85000000Y-103805565D01*
X85000004Y-103805565D01*
X85179249Y-103785369D01*
X85179252Y-103785368D01*
X85179255Y-103785368D01*
X85349522Y-103725789D01*
X85502262Y-103629816D01*
X85629816Y-103502262D01*
X85725789Y-103349522D01*
X85785368Y-103179255D01*
X85795162Y-103092330D01*
X85805565Y-103000003D01*
X85805565Y-102999996D01*
X85801409Y-102963109D01*
X85813464Y-102894287D01*
X85860813Y-102842908D01*
X85928423Y-102825284D01*
X85994829Y-102847011D01*
X86012304Y-102861540D01*
X87631284Y-104480520D01*
X87631286Y-104480521D01*
X87631290Y-104480524D01*
X87730673Y-104537902D01*
X87768216Y-104559577D01*
X87920943Y-104600501D01*
X87920945Y-104600501D01*
X88086654Y-104600501D01*
X88086670Y-104600500D01*
X89017588Y-104600500D01*
X89084627Y-104620185D01*
X89094903Y-104627555D01*
X89097736Y-104629814D01*
X89097738Y-104629816D01*
X89250478Y-104725789D01*
X89363837Y-104765455D01*
X89420745Y-104785368D01*
X89420750Y-104785369D01*
X89599996Y-104805565D01*
X89600000Y-104805565D01*
X89600004Y-104805565D01*
X89779249Y-104785369D01*
X89779252Y-104785368D01*
X89779255Y-104785368D01*
X89949522Y-104725789D01*
X90102262Y-104629816D01*
X90229816Y-104502262D01*
X90310398Y-104374015D01*
X90362732Y-104327726D01*
X90431785Y-104317077D01*
X90495633Y-104345453D01*
X90503072Y-104352308D01*
X92088583Y-105937819D01*
X92122068Y-105999142D01*
X92117084Y-106068834D01*
X92075212Y-106124767D01*
X92009748Y-106149184D01*
X92000902Y-106149500D01*
X86075098Y-106149500D01*
X86008059Y-106129815D01*
X85987417Y-106113181D01*
X69871415Y-89997180D01*
X69837930Y-89935857D01*
X69842914Y-89866165D01*
X69884786Y-89810232D01*
X69950250Y-89785815D01*
X69959096Y-89785499D01*
X70557871Y-89785499D01*
X70557872Y-89785499D01*
X70617483Y-89779091D01*
X70752331Y-89728796D01*
X70752340Y-89728788D01*
X70753142Y-89728352D01*
X70754055Y-89728153D01*
X70760641Y-89725697D01*
X70760993Y-89726643D01*
X70821414Y-89713493D01*
X70886881Y-89737903D01*
G37*
%TD.AperFunction*%
%TA.AperFunction,Conductor*%
G36*
X142838048Y-100144836D02*
G01*
X142848946Y-100157414D01*
X142877573Y-100195322D01*
X143038568Y-100342088D01*
X143038575Y-100342092D01*
X143038576Y-100342093D01*
X143223786Y-100456770D01*
X143223792Y-100456773D01*
X143246664Y-100465633D01*
X143426931Y-100535470D01*
X143641074Y-100575500D01*
X143641076Y-100575500D01*
X143650902Y-100575500D01*
X143717941Y-100595185D01*
X143763696Y-100647989D01*
X143773640Y-100717147D01*
X143744615Y-100780703D01*
X143738583Y-100787181D01*
X139412584Y-105113181D01*
X139351261Y-105146666D01*
X139324903Y-105149500D01*
X137249097Y-105149500D01*
X137182058Y-105129815D01*
X137136303Y-105077011D01*
X137126359Y-105007853D01*
X137155384Y-104944297D01*
X137161416Y-104937819D01*
X138187643Y-103911592D01*
X141495998Y-100603235D01*
X141557319Y-100569752D01*
X141606462Y-100569030D01*
X141641074Y-100575500D01*
X141641075Y-100575500D01*
X141858924Y-100575500D01*
X141858926Y-100575500D01*
X142073069Y-100535470D01*
X142276210Y-100456772D01*
X142461432Y-100342088D01*
X142622427Y-100195322D01*
X142651047Y-100157422D01*
X142707153Y-100115787D01*
X142776865Y-100111094D01*
X142838048Y-100144836D01*
G37*
%TD.AperFunction*%
%TA.AperFunction,Conductor*%
G36*
X85380000Y-77123872D02*
G01*
X85576317Y-77071269D01*
X85576326Y-77071265D01*
X85782482Y-76975134D01*
X85968820Y-76844657D01*
X86129657Y-76683820D01*
X86260132Y-76497484D01*
X86287341Y-76439134D01*
X86333513Y-76386695D01*
X86400707Y-76367542D01*
X86467588Y-76387757D01*
X86512105Y-76439132D01*
X86513697Y-76442546D01*
X86539431Y-76497732D01*
X86539432Y-76497734D01*
X86669954Y-76684141D01*
X86830858Y-76845045D01*
X86877693Y-76877839D01*
X87017266Y-76975568D01*
X87223504Y-77071739D01*
X87443308Y-77130635D01*
X87605230Y-77144801D01*
X87669998Y-77150468D01*
X87670000Y-77150468D01*
X87670002Y-77150468D01*
X87726673Y-77145509D01*
X87896692Y-77130635D01*
X88116496Y-77071739D01*
X88322734Y-76975568D01*
X88509139Y-76845047D01*
X88670047Y-76684139D01*
X88800568Y-76497734D01*
X88827618Y-76439724D01*
X88873790Y-76387285D01*
X88940983Y-76368133D01*
X89007865Y-76388348D01*
X89052381Y-76439724D01*
X89053697Y-76442546D01*
X89079429Y-76497728D01*
X89079432Y-76497734D01*
X89209954Y-76684141D01*
X89370858Y-76845045D01*
X89370861Y-76845047D01*
X89556624Y-76975118D01*
X89600248Y-77029693D01*
X89609500Y-77076692D01*
X89609500Y-92703330D01*
X89609499Y-92703348D01*
X89609499Y-92869054D01*
X89609498Y-92869054D01*
X89650423Y-93021785D01*
X89679358Y-93071900D01*
X89679359Y-93071904D01*
X89679360Y-93071904D01*
X89729479Y-93158714D01*
X89729481Y-93158717D01*
X89848349Y-93277585D01*
X89848355Y-93277590D01*
X89863181Y-93292416D01*
X89896666Y-93353739D01*
X89899500Y-93380097D01*
X89899500Y-98199902D01*
X89879815Y-98266941D01*
X89863181Y-98287583D01*
X89155730Y-98995033D01*
X89094407Y-99028518D01*
X89081933Y-99030572D01*
X88995015Y-99040365D01*
X88824742Y-99099945D01*
X88677831Y-99192256D01*
X88610594Y-99211256D01*
X88543759Y-99190888D01*
X88524178Y-99174943D01*
X85586819Y-96237583D01*
X85553334Y-96176260D01*
X85550500Y-96149902D01*
X85550500Y-89716692D01*
X85570185Y-89649653D01*
X85603374Y-89615119D01*
X85789139Y-89485047D01*
X85950047Y-89324139D01*
X86080568Y-89137734D01*
X86107618Y-89079724D01*
X86153790Y-89027285D01*
X86220983Y-89008133D01*
X86287865Y-89028348D01*
X86332381Y-89079724D01*
X86333508Y-89082140D01*
X86359429Y-89137728D01*
X86359432Y-89137734D01*
X86489954Y-89324141D01*
X86650858Y-89485045D01*
X86650861Y-89485047D01*
X86837266Y-89615568D01*
X87043504Y-89711739D01*
X87043509Y-89711740D01*
X87043511Y-89711741D01*
X87095596Y-89725697D01*
X87263308Y-89770635D01*
X87425230Y-89784801D01*
X87489998Y-89790468D01*
X87490000Y-89790468D01*
X87490002Y-89790468D01*
X87546807Y-89785498D01*
X87716692Y-89770635D01*
X87936496Y-89711739D01*
X88142734Y-89615568D01*
X88329139Y-89485047D01*
X88490047Y-89324139D01*
X88620568Y-89137734D01*
X88716739Y-88931496D01*
X88775635Y-88711692D01*
X88795468Y-88485000D01*
X88775635Y-88258308D01*
X88716739Y-88038504D01*
X88620568Y-87832266D01*
X88490047Y-87645861D01*
X88490045Y-87645858D01*
X88329141Y-87484954D01*
X88142734Y-87354432D01*
X88142732Y-87354431D01*
X87936497Y-87258261D01*
X87936488Y-87258258D01*
X87716697Y-87199366D01*
X87716693Y-87199365D01*
X87716692Y-87199365D01*
X87716691Y-87199364D01*
X87716686Y-87199364D01*
X87490002Y-87179532D01*
X87489998Y-87179532D01*
X87263313Y-87199364D01*
X87263302Y-87199366D01*
X87043511Y-87258258D01*
X87043502Y-87258261D01*
X86837267Y-87354431D01*
X86837265Y-87354432D01*
X86650858Y-87484954D01*
X86489954Y-87645858D01*
X86359432Y-87832265D01*
X86359431Y-87832267D01*
X86332382Y-87890275D01*
X86286209Y-87942714D01*
X86219016Y-87961866D01*
X86152135Y-87941650D01*
X86107618Y-87890275D01*
X86080686Y-87832520D01*
X86080568Y-87832266D01*
X85950047Y-87645861D01*
X85950045Y-87645858D01*
X85789141Y-87484954D01*
X85602734Y-87354432D01*
X85602732Y-87354431D01*
X85396497Y-87258261D01*
X85396491Y-87258259D01*
X85192406Y-87203575D01*
X85132746Y-87167210D01*
X85102217Y-87104363D01*
X85100500Y-87083800D01*
X85100500Y-82266199D01*
X85120185Y-82199160D01*
X85172989Y-82153405D01*
X85192404Y-82146424D01*
X85396496Y-82091739D01*
X85602734Y-81995568D01*
X85789139Y-81865047D01*
X85950047Y-81704139D01*
X86080568Y-81517734D01*
X86107618Y-81459724D01*
X86153790Y-81407285D01*
X86220983Y-81388133D01*
X86287865Y-81408348D01*
X86332382Y-81459725D01*
X86359429Y-81517728D01*
X86359432Y-81517734D01*
X86489954Y-81704141D01*
X86650858Y-81865045D01*
X86650861Y-81865047D01*
X86837266Y-81995568D01*
X87043504Y-82091739D01*
X87043509Y-82091740D01*
X87043511Y-82091741D01*
X87079403Y-82101358D01*
X87263308Y-82150635D01*
X87425230Y-82164801D01*
X87489998Y-82170468D01*
X87490000Y-82170468D01*
X87490002Y-82170468D01*
X87546673Y-82165509D01*
X87716692Y-82150635D01*
X87936496Y-82091739D01*
X88142734Y-81995568D01*
X88329139Y-81865047D01*
X88490047Y-81704139D01*
X88620568Y-81517734D01*
X88716739Y-81311496D01*
X88775635Y-81091692D01*
X88795468Y-80865000D01*
X88775635Y-80638308D01*
X88716739Y-80418504D01*
X88620568Y-80212266D01*
X88512928Y-80058539D01*
X88490045Y-80025858D01*
X88329141Y-79864954D01*
X88142734Y-79734432D01*
X88142732Y-79734431D01*
X87936497Y-79638261D01*
X87936488Y-79638258D01*
X87716697Y-79579366D01*
X87716693Y-79579365D01*
X87716692Y-79579365D01*
X87716691Y-79579364D01*
X87716686Y-79579364D01*
X87490002Y-79559532D01*
X87489998Y-79559532D01*
X87263313Y-79579364D01*
X87263302Y-79579366D01*
X87043511Y-79638258D01*
X87043502Y-79638261D01*
X86837267Y-79734431D01*
X86837265Y-79734432D01*
X86650858Y-79864954D01*
X86489954Y-80025858D01*
X86359432Y-80212265D01*
X86359431Y-80212267D01*
X86332382Y-80270275D01*
X86286209Y-80322714D01*
X86219016Y-80341866D01*
X86152135Y-80321650D01*
X86107618Y-80270275D01*
X86080686Y-80212520D01*
X86080568Y-80212266D01*
X85972928Y-80058539D01*
X85950045Y-80025858D01*
X85789141Y-79864954D01*
X85602734Y-79734432D01*
X85602732Y-79734431D01*
X85396497Y-79638261D01*
X85396488Y-79638258D01*
X85176697Y-79579366D01*
X85176693Y-79579365D01*
X85176692Y-79579365D01*
X85176691Y-79579364D01*
X85176686Y-79579364D01*
X84950002Y-79559532D01*
X84949998Y-79559532D01*
X84723313Y-79579364D01*
X84723302Y-79579366D01*
X84503511Y-79638258D01*
X84503502Y-79638261D01*
X84297267Y-79734431D01*
X84297265Y-79734432D01*
X84110858Y-79864954D01*
X83949954Y-80025858D01*
X83819432Y-80212265D01*
X83819431Y-80212267D01*
X83792382Y-80270275D01*
X83746209Y-80322714D01*
X83679016Y-80341866D01*
X83612135Y-80321650D01*
X83567618Y-80270275D01*
X83540686Y-80212520D01*
X83540568Y-80212266D01*
X83432928Y-80058539D01*
X83410045Y-80025858D01*
X83249141Y-79864954D01*
X83062734Y-79734432D01*
X83062732Y-79734431D01*
X82856497Y-79638261D01*
X82856488Y-79638258D01*
X82636697Y-79579366D01*
X82636693Y-79579365D01*
X82636692Y-79579365D01*
X82636691Y-79579364D01*
X82636686Y-79579364D01*
X82410002Y-79559532D01*
X82409998Y-79559532D01*
X82183313Y-79579364D01*
X82183302Y-79579366D01*
X81963511Y-79638258D01*
X81963502Y-79638261D01*
X81757267Y-79734431D01*
X81757265Y-79734432D01*
X81570858Y-79864954D01*
X81409954Y-80025858D01*
X81280400Y-80210883D01*
X81279432Y-80212266D01*
X81279315Y-80212518D01*
X81252106Y-80270867D01*
X81205933Y-80323306D01*
X81138739Y-80342457D01*
X81071858Y-80322241D01*
X81027342Y-80270865D01*
X81000135Y-80212520D01*
X81000134Y-80212518D01*
X80869657Y-80026179D01*
X80708820Y-79865342D01*
X80522482Y-79734865D01*
X80316328Y-79638734D01*
X80120000Y-79586127D01*
X80120000Y-80549314D01*
X80115606Y-80544920D01*
X80024394Y-80492259D01*
X79922661Y-80465000D01*
X79817339Y-80465000D01*
X79715606Y-80492259D01*
X79624394Y-80544920D01*
X79620000Y-80549314D01*
X79620000Y-79586127D01*
X79423671Y-79638734D01*
X79217517Y-79734865D01*
X79031179Y-79865342D01*
X78870342Y-80026179D01*
X78739865Y-80212517D01*
X78712382Y-80271457D01*
X78666210Y-80323896D01*
X78599016Y-80343048D01*
X78532135Y-80322832D01*
X78487618Y-80271457D01*
X78460134Y-80212517D01*
X78329657Y-80026179D01*
X78168820Y-79865342D01*
X77982482Y-79734865D01*
X77918778Y-79705160D01*
X77866339Y-79658988D01*
X77847187Y-79591794D01*
X77867403Y-79524913D01*
X77883495Y-79505104D01*
X79806782Y-77581819D01*
X79868105Y-77548334D01*
X79894463Y-77545500D01*
X80418966Y-77545500D01*
X80418982Y-77545501D01*
X80426578Y-77545501D01*
X80584689Y-77545501D01*
X80584692Y-77545501D01*
X80737420Y-77504577D01*
X80787539Y-77475639D01*
X80874351Y-77425520D01*
X80986155Y-77313716D01*
X80986155Y-77313714D01*
X80996363Y-77303507D01*
X80996364Y-77303504D01*
X81515519Y-76784350D01*
X81576837Y-76750869D01*
X81646529Y-76755853D01*
X81690876Y-76784354D01*
X81751179Y-76844657D01*
X81937517Y-76975134D01*
X82143673Y-77071265D01*
X82143682Y-77071269D01*
X82339999Y-77123872D01*
X82340000Y-77123871D01*
X82340000Y-76160686D01*
X82344394Y-76165080D01*
X82435606Y-76217741D01*
X82537339Y-76245000D01*
X82642661Y-76245000D01*
X82744394Y-76217741D01*
X82835606Y-76165080D01*
X82840000Y-76160686D01*
X82840000Y-77123872D01*
X83036317Y-77071269D01*
X83036326Y-77071265D01*
X83242482Y-76975134D01*
X83428820Y-76844657D01*
X83589657Y-76683820D01*
X83720134Y-76497481D01*
X83720135Y-76497479D01*
X83747618Y-76438543D01*
X83793790Y-76386103D01*
X83860983Y-76366951D01*
X83927864Y-76387166D01*
X83972382Y-76438543D01*
X83999864Y-76497479D01*
X83999865Y-76497481D01*
X84130342Y-76683820D01*
X84291179Y-76844657D01*
X84477517Y-76975134D01*
X84683673Y-77071265D01*
X84683682Y-77071269D01*
X84879999Y-77123872D01*
X84880000Y-77123871D01*
X84880000Y-76160686D01*
X84884394Y-76165080D01*
X84975606Y-76217741D01*
X85077339Y-76245000D01*
X85182661Y-76245000D01*
X85284394Y-76217741D01*
X85375606Y-76165080D01*
X85380000Y-76160686D01*
X85380000Y-77123872D01*
G37*
%TD.AperFunction*%
%TA.AperFunction,Conductor*%
G36*
X80120000Y-89763872D02*
G01*
X80316317Y-89711269D01*
X80316326Y-89711265D01*
X80522482Y-89615134D01*
X80708820Y-89484657D01*
X80869657Y-89323820D01*
X81000132Y-89137484D01*
X81027341Y-89079134D01*
X81073513Y-89026695D01*
X81140707Y-89007542D01*
X81207588Y-89027757D01*
X81252105Y-89079132D01*
X81253508Y-89082140D01*
X81279431Y-89137732D01*
X81279432Y-89137734D01*
X81409954Y-89324141D01*
X81570858Y-89485045D01*
X81570861Y-89485047D01*
X81757266Y-89615568D01*
X81963504Y-89711739D01*
X81963509Y-89711740D01*
X81963511Y-89711741D01*
X82015596Y-89725697D01*
X82183308Y-89770635D01*
X82345230Y-89784801D01*
X82409998Y-89790468D01*
X82410000Y-89790468D01*
X82410002Y-89790468D01*
X82466807Y-89785498D01*
X82636692Y-89770635D01*
X82856496Y-89711739D01*
X83062734Y-89615568D01*
X83062746Y-89615559D01*
X83063492Y-89615130D01*
X83063868Y-89615038D01*
X83067640Y-89613280D01*
X83067993Y-89614037D01*
X83131391Y-89598652D01*
X83197419Y-89621499D01*
X83240614Y-89676417D01*
X83249500Y-89722512D01*
X83249500Y-96600903D01*
X83229815Y-96667942D01*
X83177011Y-96713697D01*
X83107853Y-96723641D01*
X83044297Y-96694616D01*
X83037819Y-96688584D01*
X76636819Y-90287584D01*
X76603334Y-90226261D01*
X76600500Y-90199903D01*
X76600500Y-89773861D01*
X76620185Y-89706822D01*
X76672989Y-89661067D01*
X76742147Y-89651123D01*
X76776905Y-89661479D01*
X76883673Y-89711265D01*
X76883682Y-89711269D01*
X77079999Y-89763872D01*
X77080000Y-89763871D01*
X77080000Y-88800686D01*
X77084394Y-88805080D01*
X77175606Y-88857741D01*
X77277339Y-88885000D01*
X77382661Y-88885000D01*
X77484394Y-88857741D01*
X77575606Y-88805080D01*
X77580000Y-88800686D01*
X77580000Y-89763872D01*
X77776317Y-89711269D01*
X77776326Y-89711265D01*
X77982482Y-89615134D01*
X78168820Y-89484657D01*
X78329657Y-89323820D01*
X78460134Y-89137481D01*
X78460135Y-89137479D01*
X78487618Y-89078543D01*
X78533790Y-89026103D01*
X78600983Y-89006951D01*
X78667864Y-89027166D01*
X78712382Y-89078543D01*
X78739864Y-89137479D01*
X78739865Y-89137481D01*
X78870342Y-89323820D01*
X79031179Y-89484657D01*
X79217517Y-89615134D01*
X79423673Y-89711265D01*
X79423682Y-89711269D01*
X79619999Y-89763872D01*
X79620000Y-89763871D01*
X79620000Y-88800686D01*
X79624394Y-88805080D01*
X79715606Y-88857741D01*
X79817339Y-88885000D01*
X79922661Y-88885000D01*
X80024394Y-88857741D01*
X80115606Y-88805080D01*
X80120000Y-88800686D01*
X80120000Y-89763872D01*
G37*
%TD.AperFunction*%
%TA.AperFunction,Conductor*%
G36*
X79549920Y-88239394D02*
G01*
X79497259Y-88330606D01*
X79470000Y-88432339D01*
X79470000Y-88537661D01*
X79497259Y-88639394D01*
X79549920Y-88730606D01*
X79554314Y-88735000D01*
X77645686Y-88735000D01*
X77650080Y-88730606D01*
X77702741Y-88639394D01*
X77730000Y-88537661D01*
X77730000Y-88432339D01*
X77702741Y-88330606D01*
X77650080Y-88239394D01*
X77645686Y-88235000D01*
X79554314Y-88235000D01*
X79549920Y-88239394D01*
G37*
%TD.AperFunction*%
%TA.AperFunction,Conductor*%
G36*
X80120000Y-82143872D02*
G01*
X80316317Y-82091269D01*
X80316326Y-82091265D01*
X80522482Y-81995134D01*
X80708820Y-81864657D01*
X80869657Y-81703820D01*
X81000132Y-81517484D01*
X81027341Y-81459134D01*
X81073513Y-81406695D01*
X81140707Y-81387542D01*
X81207588Y-81407757D01*
X81252105Y-81459132D01*
X81256617Y-81468808D01*
X81279431Y-81517732D01*
X81279432Y-81517734D01*
X81409954Y-81704141D01*
X81570858Y-81865045D01*
X81570861Y-81865047D01*
X81757266Y-81995568D01*
X81963504Y-82091739D01*
X81963509Y-82091740D01*
X81963511Y-82091741D01*
X81999403Y-82101358D01*
X82183308Y-82150635D01*
X82345230Y-82164801D01*
X82409998Y-82170468D01*
X82410000Y-82170468D01*
X82410002Y-82170468D01*
X82466673Y-82165509D01*
X82636692Y-82150635D01*
X82856496Y-82091739D01*
X83062734Y-81995568D01*
X83249139Y-81865047D01*
X83410047Y-81704139D01*
X83540568Y-81517734D01*
X83567619Y-81459721D01*
X83613788Y-81407287D01*
X83680982Y-81388134D01*
X83747863Y-81408349D01*
X83792381Y-81459724D01*
X83819433Y-81517737D01*
X83877074Y-81600055D01*
X83899402Y-81666261D01*
X83899500Y-81671179D01*
X83899500Y-87079267D01*
X83879815Y-87146306D01*
X83863181Y-87166948D01*
X83484838Y-87545290D01*
X83423515Y-87578775D01*
X83353823Y-87573791D01*
X83309477Y-87545291D01*
X83249139Y-87484953D01*
X83249138Y-87484952D01*
X83249137Y-87484951D01*
X83062734Y-87354432D01*
X83062732Y-87354431D01*
X82856497Y-87258261D01*
X82856488Y-87258258D01*
X82636697Y-87199366D01*
X82636693Y-87199365D01*
X82636692Y-87199365D01*
X82636691Y-87199364D01*
X82636686Y-87199364D01*
X82410002Y-87179532D01*
X82409998Y-87179532D01*
X82183313Y-87199364D01*
X82183302Y-87199366D01*
X81963511Y-87258258D01*
X81963502Y-87258261D01*
X81757267Y-87354431D01*
X81757265Y-87354432D01*
X81570858Y-87484954D01*
X81409954Y-87645858D01*
X81279433Y-87832264D01*
X81279432Y-87832266D01*
X81279315Y-87832518D01*
X81252106Y-87890867D01*
X81205933Y-87943306D01*
X81138739Y-87962457D01*
X81071858Y-87942241D01*
X81027342Y-87890865D01*
X81000135Y-87832520D01*
X81000134Y-87832518D01*
X80869657Y-87646179D01*
X80708820Y-87485342D01*
X80522482Y-87354865D01*
X80316328Y-87258734D01*
X80120000Y-87206127D01*
X80120000Y-88169314D01*
X80115606Y-88164920D01*
X80024394Y-88112259D01*
X79922661Y-88085000D01*
X79817339Y-88085000D01*
X79715606Y-88112259D01*
X79624394Y-88164920D01*
X79620000Y-88169314D01*
X79620000Y-87206127D01*
X79423671Y-87258734D01*
X79217517Y-87354865D01*
X79031179Y-87485342D01*
X78870342Y-87646179D01*
X78739865Y-87832517D01*
X78712382Y-87891457D01*
X78666210Y-87943896D01*
X78599016Y-87963048D01*
X78532135Y-87942832D01*
X78487618Y-87891457D01*
X78460134Y-87832517D01*
X78329657Y-87646179D01*
X78168820Y-87485342D01*
X77982482Y-87354865D01*
X77776328Y-87258734D01*
X77580000Y-87206127D01*
X77580000Y-88169314D01*
X77575606Y-88164920D01*
X77484394Y-88112259D01*
X77382661Y-88085000D01*
X77277339Y-88085000D01*
X77175606Y-88112259D01*
X77084394Y-88164920D01*
X77080000Y-88169314D01*
X77080000Y-87206127D01*
X76883669Y-87258735D01*
X76776904Y-87308520D01*
X76707826Y-87319012D01*
X76644043Y-87290492D01*
X76605804Y-87232015D01*
X76600500Y-87196138D01*
X76600500Y-82153861D01*
X76620185Y-82086822D01*
X76672989Y-82041067D01*
X76742147Y-82031123D01*
X76776905Y-82041479D01*
X76883673Y-82091265D01*
X76883682Y-82091269D01*
X77079999Y-82143872D01*
X77080000Y-82143871D01*
X77080000Y-81180686D01*
X77084394Y-81185080D01*
X77175606Y-81237741D01*
X77277339Y-81265000D01*
X77382661Y-81265000D01*
X77484394Y-81237741D01*
X77575606Y-81185080D01*
X77580000Y-81180686D01*
X77580000Y-82143872D01*
X77776317Y-82091269D01*
X77776326Y-82091265D01*
X77982482Y-81995134D01*
X78168820Y-81864657D01*
X78329657Y-81703820D01*
X78460134Y-81517481D01*
X78460135Y-81517479D01*
X78487618Y-81458543D01*
X78533790Y-81406103D01*
X78600983Y-81386951D01*
X78667864Y-81407166D01*
X78712382Y-81458543D01*
X78739864Y-81517479D01*
X78739865Y-81517481D01*
X78870342Y-81703820D01*
X79031179Y-81864657D01*
X79217517Y-81995134D01*
X79423673Y-82091265D01*
X79423682Y-82091269D01*
X79619999Y-82143872D01*
X79620000Y-82143871D01*
X79620000Y-81180686D01*
X79624394Y-81185080D01*
X79715606Y-81237741D01*
X79817339Y-81265000D01*
X79922661Y-81265000D01*
X80024394Y-81237741D01*
X80115606Y-81185080D01*
X80120000Y-81180686D01*
X80120000Y-82143872D01*
G37*
%TD.AperFunction*%
%TA.AperFunction,Conductor*%
G36*
X73846167Y-81776206D02*
G01*
X73890523Y-81804710D01*
X73950858Y-81865045D01*
X73950861Y-81865047D01*
X74137266Y-81995568D01*
X74343504Y-82091739D01*
X74343509Y-82091740D01*
X74343511Y-82091741D01*
X74379403Y-82101358D01*
X74563308Y-82150635D01*
X74725230Y-82164801D01*
X74789998Y-82170468D01*
X74790000Y-82170468D01*
X74790002Y-82170468D01*
X74846673Y-82165509D01*
X75016692Y-82150635D01*
X75192622Y-82103495D01*
X75241726Y-82090338D01*
X75242277Y-82092397D01*
X75302808Y-82088545D01*
X75363866Y-82122510D01*
X75396869Y-82184094D01*
X75399500Y-82209501D01*
X75399500Y-87140498D01*
X75379815Y-87207537D01*
X75327011Y-87253292D01*
X75257853Y-87263236D01*
X75241844Y-87259220D01*
X75241726Y-87259662D01*
X75016697Y-87199366D01*
X75016693Y-87199365D01*
X75016692Y-87199365D01*
X75016691Y-87199364D01*
X75016686Y-87199364D01*
X74790002Y-87179532D01*
X74789998Y-87179532D01*
X74563313Y-87199364D01*
X74563302Y-87199366D01*
X74343511Y-87258258D01*
X74343502Y-87258261D01*
X74137267Y-87354431D01*
X74137265Y-87354432D01*
X73950858Y-87484954D01*
X73789954Y-87645858D01*
X73659432Y-87832265D01*
X73659431Y-87832267D01*
X73632382Y-87890275D01*
X73586209Y-87942714D01*
X73519016Y-87961866D01*
X73452135Y-87941650D01*
X73407618Y-87890275D01*
X73380686Y-87832520D01*
X73380568Y-87832266D01*
X73250047Y-87645861D01*
X73250045Y-87645858D01*
X73089141Y-87484954D01*
X72902734Y-87354432D01*
X72902732Y-87354431D01*
X72696497Y-87258261D01*
X72696488Y-87258258D01*
X72476697Y-87199366D01*
X72476693Y-87199365D01*
X72476692Y-87199365D01*
X72476691Y-87199364D01*
X72476686Y-87199364D01*
X72250002Y-87179532D01*
X72249998Y-87179532D01*
X72023313Y-87199364D01*
X72023302Y-87199366D01*
X71906593Y-87230638D01*
X71836743Y-87228975D01*
X71778881Y-87189812D01*
X71751377Y-87125583D01*
X71750500Y-87110863D01*
X71750500Y-83820731D01*
X71770185Y-83753692D01*
X71786814Y-83733055D01*
X73708505Y-81811363D01*
X73708510Y-81811360D01*
X73715154Y-81804716D01*
X73725782Y-81798911D01*
X73740727Y-81788140D01*
X73740735Y-81788136D01*
X73741759Y-81790185D01*
X73776475Y-81771227D01*
X73846167Y-81776206D01*
G37*
%TD.AperFunction*%
%TA.AperFunction,Conductor*%
G36*
X70468834Y-83597914D02*
G01*
X70524767Y-83639786D01*
X70549184Y-83705250D01*
X70549500Y-83714096D01*
X70549500Y-87060500D01*
X70529815Y-87127539D01*
X70477011Y-87173294D01*
X70425500Y-87184500D01*
X69334500Y-87184500D01*
X69267461Y-87164815D01*
X69221706Y-87112011D01*
X69210500Y-87060500D01*
X69210500Y-84805096D01*
X69230185Y-84738057D01*
X69246814Y-84717420D01*
X70337819Y-83626414D01*
X70399142Y-83592930D01*
X70468834Y-83597914D01*
G37*
%TD.AperFunction*%
%TA.AperFunction,Conductor*%
G36*
X79549920Y-80619394D02*
G01*
X79497259Y-80710606D01*
X79470000Y-80812339D01*
X79470000Y-80917661D01*
X79497259Y-81019394D01*
X79549920Y-81110606D01*
X79554314Y-81115000D01*
X77645686Y-81115000D01*
X77650080Y-81110606D01*
X77702741Y-81019394D01*
X77730000Y-80917661D01*
X77730000Y-80812339D01*
X77702741Y-80710606D01*
X77650080Y-80619394D01*
X77645686Y-80615000D01*
X79554314Y-80615000D01*
X79549920Y-80619394D01*
G37*
%TD.AperFunction*%
%TA.AperFunction,Conductor*%
G36*
X84809920Y-75599394D02*
G01*
X84757259Y-75690606D01*
X84730000Y-75792339D01*
X84730000Y-75897661D01*
X84757259Y-75999394D01*
X84809920Y-76090606D01*
X84814314Y-76095000D01*
X82905686Y-76095000D01*
X82910080Y-76090606D01*
X82962741Y-75999394D01*
X82990000Y-75897661D01*
X82990000Y-75792339D01*
X82962741Y-75690606D01*
X82910080Y-75599394D01*
X82905686Y-75595000D01*
X84814314Y-75595000D01*
X84809920Y-75599394D01*
G37*
%TD.AperFunction*%
%TA.AperFunction,Conductor*%
G36*
X85380000Y-69503872D02*
G01*
X85576317Y-69451269D01*
X85576326Y-69451265D01*
X85782482Y-69355134D01*
X85968820Y-69224657D01*
X86129657Y-69063820D01*
X86260132Y-68877484D01*
X86287341Y-68819134D01*
X86333513Y-68766695D01*
X86400707Y-68747542D01*
X86467588Y-68767757D01*
X86512105Y-68819132D01*
X86539432Y-68877734D01*
X86539433Y-68877736D01*
X86539434Y-68877737D01*
X86592168Y-68953050D01*
X86614495Y-69019256D01*
X86597485Y-69087023D01*
X86578274Y-69111854D01*
X80936854Y-74753274D01*
X80875531Y-74786759D01*
X80805839Y-74781775D01*
X80778050Y-74767168D01*
X80749499Y-74747177D01*
X80747227Y-74745585D01*
X80702737Y-74714434D01*
X80702736Y-74714433D01*
X80702734Y-74714432D01*
X80535303Y-74636357D01*
X80496497Y-74618261D01*
X80496488Y-74618258D01*
X80276697Y-74559366D01*
X80276693Y-74559365D01*
X80276692Y-74559365D01*
X80276691Y-74559364D01*
X80276686Y-74559364D01*
X80050002Y-74539532D01*
X80049998Y-74539532D01*
X79823313Y-74559364D01*
X79823302Y-74559366D01*
X79603511Y-74618258D01*
X79603504Y-74618260D01*
X79603504Y-74618261D01*
X79586022Y-74626413D01*
X79526905Y-74653980D01*
X79457827Y-74664472D01*
X79394043Y-74635952D01*
X79355804Y-74577476D01*
X79350500Y-74541598D01*
X79350500Y-69554059D01*
X79350501Y-69554046D01*
X79350501Y-69528402D01*
X79370186Y-69461363D01*
X79422990Y-69415608D01*
X79492148Y-69405664D01*
X79526902Y-69416019D01*
X79603504Y-69451739D01*
X79823308Y-69510635D01*
X79985230Y-69524801D01*
X80049998Y-69530468D01*
X80050000Y-69530468D01*
X80050002Y-69530468D01*
X80106673Y-69525509D01*
X80276692Y-69510635D01*
X80496496Y-69451739D01*
X80702734Y-69355568D01*
X80889139Y-69225047D01*
X81050047Y-69064139D01*
X81180568Y-68877734D01*
X81207895Y-68819129D01*
X81254064Y-68766695D01*
X81321257Y-68747542D01*
X81388139Y-68767757D01*
X81432657Y-68819133D01*
X81459865Y-68877482D01*
X81590342Y-69063820D01*
X81751179Y-69224657D01*
X81937517Y-69355134D01*
X82143673Y-69451265D01*
X82143682Y-69451269D01*
X82339999Y-69503872D01*
X82340000Y-69503871D01*
X82340000Y-68540686D01*
X82344394Y-68545080D01*
X82435606Y-68597741D01*
X82537339Y-68625000D01*
X82642661Y-68625000D01*
X82744394Y-68597741D01*
X82835606Y-68545080D01*
X82840000Y-68540686D01*
X82840000Y-69503872D01*
X83036317Y-69451269D01*
X83036326Y-69451265D01*
X83242482Y-69355134D01*
X83428820Y-69224657D01*
X83589657Y-69063820D01*
X83720134Y-68877481D01*
X83720135Y-68877479D01*
X83747618Y-68818543D01*
X83793790Y-68766103D01*
X83860983Y-68746951D01*
X83927864Y-68767166D01*
X83972382Y-68818543D01*
X83999864Y-68877479D01*
X83999865Y-68877481D01*
X84130342Y-69063820D01*
X84291179Y-69224657D01*
X84477517Y-69355134D01*
X84683673Y-69451265D01*
X84683682Y-69451269D01*
X84879999Y-69503872D01*
X84880000Y-69503871D01*
X84880000Y-68540686D01*
X84884394Y-68545080D01*
X84975606Y-68597741D01*
X85077339Y-68625000D01*
X85182661Y-68625000D01*
X85284394Y-68597741D01*
X85375606Y-68545080D01*
X85380000Y-68540686D01*
X85380000Y-69503872D01*
G37*
%TD.AperFunction*%
%TA.AperFunction,Conductor*%
G36*
X84809920Y-67979394D02*
G01*
X84757259Y-68070606D01*
X84730000Y-68172339D01*
X84730000Y-68277661D01*
X84757259Y-68379394D01*
X84809920Y-68470606D01*
X84814314Y-68475000D01*
X82905686Y-68475000D01*
X82910080Y-68470606D01*
X82962741Y-68379394D01*
X82990000Y-68277661D01*
X82990000Y-68172339D01*
X82962741Y-68070606D01*
X82910080Y-67979394D01*
X82905686Y-67975000D01*
X84814314Y-67975000D01*
X84809920Y-67979394D01*
G37*
%TD.AperFunction*%
%TD*%
M02*
