%TF.GenerationSoftware,KiCad,Pcbnew,8.0.3*%
%TF.CreationDate,2024-07-31T08:23:15+01:00*%
%TF.ProjectId,controller,636f6e74-726f-46c6-9c65-722e6b696361,rev?*%
%TF.SameCoordinates,Original*%
%TF.FileFunction,Soldermask,Top*%
%TF.FilePolarity,Negative*%
%FSLAX46Y46*%
G04 Gerber Fmt 4.6, Leading zero omitted, Abs format (unit mm)*
G04 Created by KiCad (PCBNEW 8.0.3) date 2024-07-31 08:23:15*
%MOMM*%
%LPD*%
G01*
G04 APERTURE LIST*
G04 Aperture macros list*
%AMRoundRect*
0 Rectangle with rounded corners*
0 $1 Rounding radius*
0 $2 $3 $4 $5 $6 $7 $8 $9 X,Y pos of 4 corners*
0 Add a 4 corners polygon primitive as box body*
4,1,4,$2,$3,$4,$5,$6,$7,$8,$9,$2,$3,0*
0 Add four circle primitives for the rounded corners*
1,1,$1+$1,$2,$3*
1,1,$1+$1,$4,$5*
1,1,$1+$1,$6,$7*
1,1,$1+$1,$8,$9*
0 Add four rect primitives between the rounded corners*
20,1,$1+$1,$2,$3,$4,$5,0*
20,1,$1+$1,$4,$5,$6,$7,0*
20,1,$1+$1,$6,$7,$8,$9,0*
20,1,$1+$1,$8,$9,$2,$3,0*%
G04 Aperture macros list end*
%ADD10RoundRect,0.250000X0.325000X0.450000X-0.325000X0.450000X-0.325000X-0.450000X0.325000X-0.450000X0*%
%ADD11R,1.600000X1.600000*%
%ADD12O,1.600000X1.600000*%
%ADD13RoundRect,0.250000X-0.350000X-0.450000X0.350000X-0.450000X0.350000X0.450000X-0.350000X0.450000X0*%
%ADD14RoundRect,0.250000X0.450000X-0.350000X0.450000X0.350000X-0.450000X0.350000X-0.450000X-0.350000X0*%
%ADD15RoundRect,0.250000X-0.337500X-0.475000X0.337500X-0.475000X0.337500X0.475000X-0.337500X0.475000X0*%
%ADD16RoundRect,0.250000X0.350000X0.450000X-0.350000X0.450000X-0.350000X-0.450000X0.350000X-0.450000X0*%
%ADD17RoundRect,0.250000X0.475000X-0.337500X0.475000X0.337500X-0.475000X0.337500X-0.475000X-0.337500X0*%
%ADD18C,2.600000*%
%ADD19C,2.500000*%
%ADD20C,1.600000*%
%ADD21R,1.700000X1.700000*%
%ADD22O,1.700000X1.700000*%
%ADD23RoundRect,0.250000X0.337500X0.475000X-0.337500X0.475000X-0.337500X-0.475000X0.337500X-0.475000X0*%
%ADD24RoundRect,0.250000X-0.450000X0.325000X-0.450000X-0.325000X0.450000X-0.325000X0.450000X0.325000X0*%
%ADD25RoundRect,0.250000X-0.475000X0.337500X-0.475000X-0.337500X0.475000X-0.337500X0.475000X0.337500X0*%
%ADD26R,1.800000X1.275000*%
%ADD27O,1.800000X1.275000*%
%ADD28R,2.000000X2.000000*%
%ADD29C,2.000000*%
%ADD30R,1.350000X1.350000*%
%ADD31C,1.350000*%
%ADD32RoundRect,0.075000X-0.700000X-0.075000X0.700000X-0.075000X0.700000X0.075000X-0.700000X0.075000X0*%
%ADD33RoundRect,0.075000X-0.075000X-0.700000X0.075000X-0.700000X0.075000X0.700000X-0.075000X0.700000X0*%
%ADD34R,1.800000X1.800000*%
%ADD35O,1.800000X1.800000*%
%ADD36R,1.500000X1.050000*%
%ADD37O,1.500000X1.050000*%
%ADD38RoundRect,0.250000X-0.450000X0.350000X-0.450000X-0.350000X0.450000X-0.350000X0.450000X0.350000X0*%
%ADD39R,2.000000X1.905000*%
%ADD40O,2.000000X1.905000*%
%ADD41RoundRect,0.250000X0.800000X-0.450000X0.800000X0.450000X-0.800000X0.450000X-0.800000X-0.450000X0*%
%ADD42R,2.400000X2.400000*%
%ADD43C,2.400000*%
%ADD44R,4.000000X7.000000*%
G04 APERTURE END LIST*
D10*
%TO.C,D11*%
X101700000Y-83525000D03*
X99650000Y-83525000D03*
%TD*%
D11*
%TO.C,U1*%
X74970000Y-75845000D03*
D12*
X77510000Y-75845000D03*
X80050000Y-75845000D03*
X82590000Y-75845000D03*
X85130000Y-75845000D03*
X87670000Y-75845000D03*
X90210000Y-75845000D03*
X92750000Y-75845000D03*
X92750000Y-68225000D03*
X90210000Y-68225000D03*
X87670000Y-68225000D03*
X85130000Y-68225000D03*
X82590000Y-68225000D03*
X80050000Y-68225000D03*
X77510000Y-68225000D03*
X74970000Y-68225000D03*
%TD*%
D13*
%TO.C,R5*%
X131000000Y-91426041D03*
X133000000Y-91426041D03*
%TD*%
D14*
%TO.C,R12*%
X115000000Y-66000000D03*
X115000000Y-64000000D03*
%TD*%
D15*
%TO.C,C15*%
X67342500Y-78174657D03*
X69417500Y-78174657D03*
%TD*%
%TO.C,C12*%
X102773529Y-104500000D03*
X104848529Y-104500000D03*
%TD*%
D14*
%TO.C,R17*%
X113000000Y-66000000D03*
X113000000Y-64000000D03*
%TD*%
D16*
%TO.C,R8*%
X133000000Y-95000000D03*
X131000000Y-95000000D03*
%TD*%
D17*
%TO.C,C9*%
X109348529Y-119075000D03*
X109348529Y-117000000D03*
%TD*%
D13*
%TO.C,R20*%
X103650000Y-83525000D03*
X105650000Y-83525000D03*
%TD*%
D18*
%TO.C,J1*%
X127670000Y-110535000D03*
X127670000Y-115615000D03*
X132750000Y-110535000D03*
X132750000Y-115615000D03*
D19*
X130310000Y-113000000D03*
%TD*%
D16*
%TO.C,R24*%
X102000000Y-73000000D03*
X100000000Y-73000000D03*
%TD*%
D11*
%TO.C,C4*%
X125500000Y-79426041D03*
D20*
X125500000Y-77426041D03*
%TD*%
D16*
%TO.C,R3*%
X69000000Y-99765000D03*
X67000000Y-99765000D03*
%TD*%
D14*
%TO.C,R13*%
X107000000Y-66050000D03*
X107000000Y-64050000D03*
%TD*%
D21*
%TO.C,J3*%
X124750000Y-63475000D03*
D22*
X127290000Y-63475000D03*
%TD*%
D23*
%TO.C,C1*%
X127360000Y-86696041D03*
X125285000Y-86696041D03*
%TD*%
D14*
%TO.C,R1*%
X72000000Y-105765000D03*
X72000000Y-103765000D03*
%TD*%
D23*
%TO.C,C21*%
X146445000Y-117792500D03*
X144370000Y-117792500D03*
%TD*%
D14*
%TO.C,R9*%
X119500000Y-77426041D03*
X119500000Y-75426041D03*
%TD*%
D13*
%TO.C,R21*%
X103700000Y-81000000D03*
X105700000Y-81000000D03*
%TD*%
D24*
%TO.C,D7*%
X105000000Y-68000000D03*
X105000000Y-70050000D03*
%TD*%
D10*
%TO.C,D10*%
X101700000Y-86025000D03*
X99650000Y-86025000D03*
%TD*%
D15*
%TO.C,C2*%
X90965000Y-114500000D03*
X93040000Y-114500000D03*
%TD*%
D25*
%TO.C,C18*%
X90380000Y-86674657D03*
X90380000Y-88749657D03*
%TD*%
D26*
%TO.C,U5*%
X131945000Y-85549811D03*
D27*
X131945000Y-83849811D03*
X131945000Y-82149811D03*
X131945000Y-80449811D03*
X131945000Y-78749811D03*
%TD*%
D21*
%TO.C,M3*%
X65880000Y-88685000D03*
D22*
X65880000Y-86145000D03*
X65880000Y-83605000D03*
X65880000Y-81065000D03*
%TD*%
D14*
%TO.C,R11*%
X74500000Y-105765000D03*
X74500000Y-103765000D03*
%TD*%
D11*
%TO.C,C6*%
X128000000Y-73000000D03*
D20*
X128000000Y-69500000D03*
%TD*%
D13*
%TO.C,R19*%
X103650000Y-86025000D03*
X105650000Y-86025000D03*
%TD*%
D21*
%TO.C,J2*%
X101040000Y-117525000D03*
D22*
X98500000Y-117525000D03*
X95960000Y-117525000D03*
X93420000Y-117525000D03*
X90880000Y-117525000D03*
%TD*%
D11*
%TO.C,C19*%
X94380000Y-88174657D03*
D20*
X94380000Y-86174657D03*
%TD*%
D16*
%TO.C,R22*%
X73500000Y-101265000D03*
X71500000Y-101265000D03*
%TD*%
D14*
%TO.C,R16*%
X111000000Y-66000000D03*
X111000000Y-64000000D03*
%TD*%
D13*
%TO.C,R18*%
X103650000Y-88525000D03*
X105650000Y-88525000D03*
%TD*%
D25*
%TO.C,C13*%
X107348529Y-100425000D03*
X107348529Y-102500000D03*
%TD*%
D28*
%TO.C,M2*%
X67845000Y-75085000D03*
D29*
X67845000Y-72545000D03*
%TD*%
D30*
%TO.C,U4*%
X149750000Y-99400000D03*
D31*
X147750000Y-99400000D03*
X145750000Y-99400000D03*
X143750000Y-99400000D03*
X141750000Y-99400000D03*
X139750000Y-99400000D03*
X137750000Y-99400000D03*
X135750000Y-99400000D03*
X135750000Y-113000000D03*
X137750000Y-113000000D03*
X139750000Y-113000000D03*
X141750000Y-113000000D03*
X143750000Y-113000000D03*
X145750000Y-113000000D03*
X147750000Y-113000000D03*
X149750000Y-113000000D03*
%TD*%
D24*
%TO.C,D4*%
X111000000Y-67950000D03*
X111000000Y-70000000D03*
%TD*%
D32*
%TO.C,U2*%
X106825000Y-105250000D03*
X106825000Y-105750000D03*
X106825000Y-106250000D03*
X106825000Y-106750000D03*
X106825000Y-107250000D03*
X106825000Y-107750000D03*
X106825000Y-108250000D03*
X106825000Y-108750000D03*
X106825000Y-109250000D03*
X106825000Y-109750000D03*
X106825000Y-110250000D03*
X106825000Y-110750000D03*
X106825000Y-111250000D03*
X106825000Y-111750000D03*
X106825000Y-112250000D03*
X106825000Y-112750000D03*
D33*
X108750000Y-114675000D03*
X109250000Y-114675000D03*
X109750000Y-114675000D03*
X110250000Y-114675000D03*
X110750000Y-114675000D03*
X111250000Y-114675000D03*
X111750000Y-114675000D03*
X112250000Y-114675000D03*
X112750000Y-114675000D03*
X113250000Y-114675000D03*
X113750000Y-114675000D03*
X114250000Y-114675000D03*
X114750000Y-114675000D03*
X115250000Y-114675000D03*
X115750000Y-114675000D03*
X116250000Y-114675000D03*
D32*
X118175000Y-112750000D03*
X118175000Y-112250000D03*
X118175000Y-111750000D03*
X118175000Y-111250000D03*
X118175000Y-110750000D03*
X118175000Y-110250000D03*
X118175000Y-109750000D03*
X118175000Y-109250000D03*
X118175000Y-108750000D03*
X118175000Y-108250000D03*
X118175000Y-107750000D03*
X118175000Y-107250000D03*
X118175000Y-106750000D03*
X118175000Y-106250000D03*
X118175000Y-105750000D03*
X118175000Y-105250000D03*
D33*
X116250000Y-103325000D03*
X115750000Y-103325000D03*
X115250000Y-103325000D03*
X114750000Y-103325000D03*
X114250000Y-103325000D03*
X113750000Y-103325000D03*
X113250000Y-103325000D03*
X112750000Y-103325000D03*
X112250000Y-103325000D03*
X111750000Y-103325000D03*
X111250000Y-103325000D03*
X110750000Y-103325000D03*
X110250000Y-103325000D03*
X109750000Y-103325000D03*
X109250000Y-103325000D03*
X108750000Y-103325000D03*
%TD*%
D34*
%TO.C,D14*%
X121000000Y-73000000D03*
D35*
X121000000Y-65380000D03*
%TD*%
D14*
%TO.C,R14*%
X105000000Y-66050000D03*
X105000000Y-64050000D03*
%TD*%
D24*
%TO.C,D3*%
X113000000Y-67950000D03*
X113000000Y-70000000D03*
%TD*%
D25*
%TO.C,C16*%
X74095000Y-64220000D03*
X74095000Y-66295000D03*
%TD*%
D36*
%TO.C,U6*%
X126500000Y-89426041D03*
D37*
X126500000Y-90696041D03*
X126500000Y-91966041D03*
%TD*%
D38*
%TO.C,R23*%
X115000000Y-73500000D03*
X115000000Y-75500000D03*
%TD*%
D23*
%TO.C,C8*%
X121592500Y-80966041D03*
X119517500Y-80966041D03*
%TD*%
D39*
%TO.C,U7*%
X120055000Y-84886041D03*
D40*
X120055000Y-87426041D03*
X120055000Y-89966041D03*
%TD*%
D24*
%TO.C,D5*%
X115000000Y-67950000D03*
X115000000Y-70000000D03*
%TD*%
D14*
%TO.C,R7*%
X121500000Y-77426041D03*
X121500000Y-75426041D03*
%TD*%
D34*
%TO.C,D13*%
X75000000Y-118000000D03*
D35*
X75000000Y-110380000D03*
%TD*%
D23*
%TO.C,C3*%
X127397500Y-94696041D03*
X125322500Y-94696041D03*
%TD*%
D36*
%TO.C,Q1*%
X68500000Y-105060000D03*
D37*
X68500000Y-103790000D03*
X68500000Y-102520000D03*
%TD*%
D24*
%TO.C,D8*%
X109000000Y-67950000D03*
X109000000Y-70000000D03*
%TD*%
D23*
%TO.C,C7*%
X121592500Y-93966041D03*
X119517500Y-93966041D03*
%TD*%
D11*
%TO.C,U3*%
X69710000Y-88485000D03*
D12*
X72250000Y-88485000D03*
X74790000Y-88485000D03*
X77330000Y-88485000D03*
X79870000Y-88485000D03*
X82410000Y-88485000D03*
X84950000Y-88485000D03*
X87490000Y-88485000D03*
X87490000Y-80865000D03*
X84950000Y-80865000D03*
X82410000Y-80865000D03*
X79870000Y-80865000D03*
X77330000Y-80865000D03*
X74790000Y-80865000D03*
X72250000Y-80865000D03*
X69710000Y-80865000D03*
%TD*%
D41*
%TO.C,D1*%
X135500000Y-84000000D03*
X135500000Y-79600000D03*
%TD*%
D42*
%TO.C,C5*%
X142000000Y-74500000D03*
D43*
X142000000Y-67000000D03*
%TD*%
D28*
%TO.C,L1*%
X69350000Y-111540000D03*
D29*
X69350000Y-109000000D03*
%TD*%
D13*
%TO.C,R2*%
X110000000Y-101000000D03*
X112000000Y-101000000D03*
%TD*%
D10*
%TO.C,D12*%
X101750000Y-81000000D03*
X99700000Y-81000000D03*
%TD*%
D16*
%TO.C,R10*%
X123000000Y-96426041D03*
X121000000Y-96426041D03*
%TD*%
D24*
%TO.C,D6*%
X107000000Y-68000000D03*
X107000000Y-70050000D03*
%TD*%
D13*
%TO.C,R4*%
X131000000Y-89000000D03*
X133000000Y-89000000D03*
%TD*%
D17*
%TO.C,C11*%
X118000000Y-117537500D03*
X118000000Y-115462500D03*
%TD*%
D25*
%TO.C,C17*%
X95595000Y-73720000D03*
X95595000Y-75795000D03*
%TD*%
D28*
%TO.C,M1*%
X67845000Y-68085000D03*
D29*
X67845000Y-65545000D03*
%TD*%
D44*
%TO.C,L2*%
X139000000Y-89000000D03*
X149000000Y-89000000D03*
%TD*%
D24*
%TO.C,D2*%
X78500000Y-107950000D03*
X78500000Y-110000000D03*
%TD*%
D10*
%TO.C,D9*%
X101700000Y-88565000D03*
X99650000Y-88565000D03*
%TD*%
D38*
%TO.C,R6*%
X127500000Y-81926041D03*
X127500000Y-83926041D03*
%TD*%
D14*
%TO.C,R15*%
X109000000Y-66025000D03*
X109000000Y-64025000D03*
%TD*%
D15*
%TO.C,C10*%
X102500000Y-111000000D03*
X104575000Y-111000000D03*
%TD*%
D11*
%TO.C,C20*%
X97095000Y-71000113D03*
D20*
X97095000Y-69000113D03*
%TD*%
D23*
%TO.C,C14*%
X120923529Y-103500000D03*
X118848529Y-103500000D03*
%TD*%
M02*
