%TF.GenerationSoftware,KiCad,Pcbnew,8.0.3*%
%TF.CreationDate,2024-07-31T08:23:15+01:00*%
%TF.ProjectId,controller,636f6e74-726f-46c6-9c65-722e6b696361,rev?*%
%TF.SameCoordinates,Original*%
%TF.FileFunction,Paste,Top*%
%TF.FilePolarity,Positive*%
%FSLAX46Y46*%
G04 Gerber Fmt 4.6, Leading zero omitted, Abs format (unit mm)*
G04 Created by KiCad (PCBNEW 8.0.3) date 2024-07-31 08:23:15*
%MOMM*%
%LPD*%
G01*
G04 APERTURE LIST*
G04 Aperture macros list*
%AMRoundRect*
0 Rectangle with rounded corners*
0 $1 Rounding radius*
0 $2 $3 $4 $5 $6 $7 $8 $9 X,Y pos of 4 corners*
0 Add a 4 corners polygon primitive as box body*
4,1,4,$2,$3,$4,$5,$6,$7,$8,$9,$2,$3,0*
0 Add four circle primitives for the rounded corners*
1,1,$1+$1,$2,$3*
1,1,$1+$1,$4,$5*
1,1,$1+$1,$6,$7*
1,1,$1+$1,$8,$9*
0 Add four rect primitives between the rounded corners*
20,1,$1+$1,$2,$3,$4,$5,0*
20,1,$1+$1,$4,$5,$6,$7,0*
20,1,$1+$1,$6,$7,$8,$9,0*
20,1,$1+$1,$8,$9,$2,$3,0*%
G04 Aperture macros list end*
%ADD10RoundRect,0.250000X0.325000X0.450000X-0.325000X0.450000X-0.325000X-0.450000X0.325000X-0.450000X0*%
%ADD11RoundRect,0.250000X-0.350000X-0.450000X0.350000X-0.450000X0.350000X0.450000X-0.350000X0.450000X0*%
%ADD12RoundRect,0.250000X0.450000X-0.350000X0.450000X0.350000X-0.450000X0.350000X-0.450000X-0.350000X0*%
%ADD13RoundRect,0.250000X-0.337500X-0.475000X0.337500X-0.475000X0.337500X0.475000X-0.337500X0.475000X0*%
%ADD14RoundRect,0.250000X0.350000X0.450000X-0.350000X0.450000X-0.350000X-0.450000X0.350000X-0.450000X0*%
%ADD15RoundRect,0.250000X0.475000X-0.337500X0.475000X0.337500X-0.475000X0.337500X-0.475000X-0.337500X0*%
%ADD16RoundRect,0.250000X0.337500X0.475000X-0.337500X0.475000X-0.337500X-0.475000X0.337500X-0.475000X0*%
%ADD17RoundRect,0.250000X-0.450000X0.325000X-0.450000X-0.325000X0.450000X-0.325000X0.450000X0.325000X0*%
%ADD18RoundRect,0.250000X-0.475000X0.337500X-0.475000X-0.337500X0.475000X-0.337500X0.475000X0.337500X0*%
%ADD19RoundRect,0.075000X-0.700000X-0.075000X0.700000X-0.075000X0.700000X0.075000X-0.700000X0.075000X0*%
%ADD20RoundRect,0.075000X-0.075000X-0.700000X0.075000X-0.700000X0.075000X0.700000X-0.075000X0.700000X0*%
%ADD21RoundRect,0.250000X-0.450000X0.350000X-0.450000X-0.350000X0.450000X-0.350000X0.450000X0.350000X0*%
%ADD22RoundRect,0.250000X0.800000X-0.450000X0.800000X0.450000X-0.800000X0.450000X-0.800000X-0.450000X0*%
%ADD23R,4.000000X7.000000*%
G04 APERTURE END LIST*
D10*
%TO.C,D11*%
X101700000Y-83525000D03*
X99650000Y-83525000D03*
%TD*%
D11*
%TO.C,R5*%
X131000000Y-91426041D03*
X133000000Y-91426041D03*
%TD*%
D12*
%TO.C,R12*%
X115000000Y-66000000D03*
X115000000Y-64000000D03*
%TD*%
D13*
%TO.C,C15*%
X67342500Y-78174657D03*
X69417500Y-78174657D03*
%TD*%
%TO.C,C12*%
X102773529Y-104500000D03*
X104848529Y-104500000D03*
%TD*%
D12*
%TO.C,R17*%
X113000000Y-66000000D03*
X113000000Y-64000000D03*
%TD*%
D14*
%TO.C,R8*%
X133000000Y-95000000D03*
X131000000Y-95000000D03*
%TD*%
D15*
%TO.C,C9*%
X109348529Y-119075000D03*
X109348529Y-117000000D03*
%TD*%
D11*
%TO.C,R20*%
X103650000Y-83525000D03*
X105650000Y-83525000D03*
%TD*%
D14*
%TO.C,R24*%
X102000000Y-73000000D03*
X100000000Y-73000000D03*
%TD*%
%TO.C,R3*%
X69000000Y-99765000D03*
X67000000Y-99765000D03*
%TD*%
D12*
%TO.C,R13*%
X107000000Y-66050000D03*
X107000000Y-64050000D03*
%TD*%
D16*
%TO.C,C1*%
X127360000Y-86696041D03*
X125285000Y-86696041D03*
%TD*%
D12*
%TO.C,R1*%
X72000000Y-105765000D03*
X72000000Y-103765000D03*
%TD*%
D16*
%TO.C,C21*%
X146445000Y-117792500D03*
X144370000Y-117792500D03*
%TD*%
D12*
%TO.C,R9*%
X119500000Y-77426041D03*
X119500000Y-75426041D03*
%TD*%
D11*
%TO.C,R21*%
X103700000Y-81000000D03*
X105700000Y-81000000D03*
%TD*%
D17*
%TO.C,D7*%
X105000000Y-68000000D03*
X105000000Y-70050000D03*
%TD*%
D10*
%TO.C,D10*%
X101700000Y-86025000D03*
X99650000Y-86025000D03*
%TD*%
D13*
%TO.C,C2*%
X90965000Y-114500000D03*
X93040000Y-114500000D03*
%TD*%
D18*
%TO.C,C18*%
X90380000Y-86674657D03*
X90380000Y-88749657D03*
%TD*%
D12*
%TO.C,R11*%
X74500000Y-105765000D03*
X74500000Y-103765000D03*
%TD*%
D11*
%TO.C,R19*%
X103650000Y-86025000D03*
X105650000Y-86025000D03*
%TD*%
D14*
%TO.C,R22*%
X73500000Y-101265000D03*
X71500000Y-101265000D03*
%TD*%
D12*
%TO.C,R16*%
X111000000Y-66000000D03*
X111000000Y-64000000D03*
%TD*%
D11*
%TO.C,R18*%
X103650000Y-88525000D03*
X105650000Y-88525000D03*
%TD*%
D18*
%TO.C,C13*%
X107348529Y-100425000D03*
X107348529Y-102500000D03*
%TD*%
D17*
%TO.C,D4*%
X111000000Y-67950000D03*
X111000000Y-70000000D03*
%TD*%
D19*
%TO.C,U2*%
X106825000Y-105250000D03*
X106825000Y-105750000D03*
X106825000Y-106250000D03*
X106825000Y-106750000D03*
X106825000Y-107250000D03*
X106825000Y-107750000D03*
X106825000Y-108250000D03*
X106825000Y-108750000D03*
X106825000Y-109250000D03*
X106825000Y-109750000D03*
X106825000Y-110250000D03*
X106825000Y-110750000D03*
X106825000Y-111250000D03*
X106825000Y-111750000D03*
X106825000Y-112250000D03*
X106825000Y-112750000D03*
D20*
X108750000Y-114675000D03*
X109250000Y-114675000D03*
X109750000Y-114675000D03*
X110250000Y-114675000D03*
X110750000Y-114675000D03*
X111250000Y-114675000D03*
X111750000Y-114675000D03*
X112250000Y-114675000D03*
X112750000Y-114675000D03*
X113250000Y-114675000D03*
X113750000Y-114675000D03*
X114250000Y-114675000D03*
X114750000Y-114675000D03*
X115250000Y-114675000D03*
X115750000Y-114675000D03*
X116250000Y-114675000D03*
D19*
X118175000Y-112750000D03*
X118175000Y-112250000D03*
X118175000Y-111750000D03*
X118175000Y-111250000D03*
X118175000Y-110750000D03*
X118175000Y-110250000D03*
X118175000Y-109750000D03*
X118175000Y-109250000D03*
X118175000Y-108750000D03*
X118175000Y-108250000D03*
X118175000Y-107750000D03*
X118175000Y-107250000D03*
X118175000Y-106750000D03*
X118175000Y-106250000D03*
X118175000Y-105750000D03*
X118175000Y-105250000D03*
D20*
X116250000Y-103325000D03*
X115750000Y-103325000D03*
X115250000Y-103325000D03*
X114750000Y-103325000D03*
X114250000Y-103325000D03*
X113750000Y-103325000D03*
X113250000Y-103325000D03*
X112750000Y-103325000D03*
X112250000Y-103325000D03*
X111750000Y-103325000D03*
X111250000Y-103325000D03*
X110750000Y-103325000D03*
X110250000Y-103325000D03*
X109750000Y-103325000D03*
X109250000Y-103325000D03*
X108750000Y-103325000D03*
%TD*%
D12*
%TO.C,R14*%
X105000000Y-66050000D03*
X105000000Y-64050000D03*
%TD*%
D17*
%TO.C,D3*%
X113000000Y-67950000D03*
X113000000Y-70000000D03*
%TD*%
D18*
%TO.C,C16*%
X74095000Y-64220000D03*
X74095000Y-66295000D03*
%TD*%
D21*
%TO.C,R23*%
X115000000Y-73500000D03*
X115000000Y-75500000D03*
%TD*%
D16*
%TO.C,C8*%
X121592500Y-80966041D03*
X119517500Y-80966041D03*
%TD*%
D17*
%TO.C,D5*%
X115000000Y-67950000D03*
X115000000Y-70000000D03*
%TD*%
D12*
%TO.C,R7*%
X121500000Y-77426041D03*
X121500000Y-75426041D03*
%TD*%
D16*
%TO.C,C3*%
X127397500Y-94696041D03*
X125322500Y-94696041D03*
%TD*%
D17*
%TO.C,D8*%
X109000000Y-67950000D03*
X109000000Y-70000000D03*
%TD*%
D16*
%TO.C,C7*%
X121592500Y-93966041D03*
X119517500Y-93966041D03*
%TD*%
D22*
%TO.C,D1*%
X135500000Y-84000000D03*
X135500000Y-79600000D03*
%TD*%
D11*
%TO.C,R2*%
X110000000Y-101000000D03*
X112000000Y-101000000D03*
%TD*%
D10*
%TO.C,D12*%
X101750000Y-81000000D03*
X99700000Y-81000000D03*
%TD*%
D14*
%TO.C,R10*%
X123000000Y-96426041D03*
X121000000Y-96426041D03*
%TD*%
D17*
%TO.C,D6*%
X107000000Y-68000000D03*
X107000000Y-70050000D03*
%TD*%
D11*
%TO.C,R4*%
X131000000Y-89000000D03*
X133000000Y-89000000D03*
%TD*%
D15*
%TO.C,C11*%
X118000000Y-117537500D03*
X118000000Y-115462500D03*
%TD*%
D18*
%TO.C,C17*%
X95595000Y-73720000D03*
X95595000Y-75795000D03*
%TD*%
D23*
%TO.C,L2*%
X139000000Y-89000000D03*
X149000000Y-89000000D03*
%TD*%
D17*
%TO.C,D2*%
X78500000Y-107950000D03*
X78500000Y-110000000D03*
%TD*%
D10*
%TO.C,D9*%
X101700000Y-88565000D03*
X99650000Y-88565000D03*
%TD*%
D21*
%TO.C,R6*%
X127500000Y-81926041D03*
X127500000Y-83926041D03*
%TD*%
D12*
%TO.C,R15*%
X109000000Y-66025000D03*
X109000000Y-64025000D03*
%TD*%
D13*
%TO.C,C10*%
X102500000Y-111000000D03*
X104575000Y-111000000D03*
%TD*%
D16*
%TO.C,C14*%
X120923529Y-103500000D03*
X118848529Y-103500000D03*
%TD*%
M02*
