M48
; DRILL file {KiCad 8.0.3} date 2024-08-01T08:23:04+0100
; FORMAT={-:-/ absolute / inch / decimal}
; #@! TF.CreationDate,2024-08-01T08:23:04+01:00
; #@! TF.GenerationSoftware,Kicad,Pcbnew,8.0.3
; #@! TF.FileFunction,Plated,1,2,PTH
FMAT,2
INCH
; #@! TA.AperFunction,Plated,PTH,ViaDrill
T1C0.0118
; #@! TA.AperFunction,Plated,PTH,ViaDrill
T2C0.0197
; #@! TA.AperFunction,Plated,PTH,ComponentDrill
T3C0.0295
; #@! TA.AperFunction,Plated,PTH,ComponentDrill
T4C0.0315
; #@! TA.AperFunction,Plated,PTH,ComponentDrill
T5C0.0354
; #@! TA.AperFunction,Plated,PTH,ComponentDrill
T6C0.0394
; #@! TA.AperFunction,Plated,PTH,ComponentDrill
T7C0.0433
; #@! TA.AperFunction,Plated,PTH,ComponentDrill
T8C0.0472
; #@! TA.AperFunction,Plated,PTH,ComponentDrill
T9C0.0591
; #@! TA.AperFunction,Plated,PTH,ComponentDrill
T10C0.0630
%
G90
G05
T1
X2.5197Y-2.4409
X2.5197Y-2.628
X2.5197Y-2.7657
X2.5197Y-2.9035
X2.5394Y-4.3406
X2.5394Y-4.5079
X2.5492Y-4.6752
X2.5689Y-3.0807
X2.5787Y-4.5866
X2.5984Y-3.6417
X2.6083Y-4.0945
X2.6083Y-4.1732
X2.6181Y-3.9862
X2.6673Y-2.7657
X2.6673Y-3.1496
X2.6772Y-3.7992
X2.687Y-2.4409
X2.7067Y-4.2126
X2.7461Y-3.3465
X2.7461Y-3.4055
X2.7461Y-4.6654
X2.7559Y-3.9764
X2.7559Y-4.5472
X2.7657Y-2.5689
X2.7756Y-2.9823
X2.8248Y-3.7992
X2.8346Y-3.0512
X2.8346Y-3.6024
X2.8445Y-4.2421
X2.8543Y-2.687
X2.8543Y-3.4055
X2.8543Y-4.3307
X2.9134Y-2.4409
X2.9331Y-3.9075
X2.9429Y-3.4055
X2.9429Y-3.7106
X2.9528Y-4.4291
X2.9528Y-4.5669
X2.9626Y-3.2677
X3.0315Y-4.0551
X3.0413Y-2.5886
X3.0709Y-3.8386
X3.0906Y-3.248
X3.0906Y-3.4252
X3.0906Y-3.5335
X3.0906Y-4.1339
X3.1299Y-2.4409
X3.1496Y-4.6654
X3.1693Y-2.9035
X3.189Y-2.7657
X3.189Y-3.3268
X3.189Y-4.1929
X3.189Y-4.4291
X3.189Y-4.5472
X3.1988Y-3.5335
X3.2087Y-3.0413
X3.2087Y-4.3209
X3.2185Y-3.7008
X3.2283Y-2.5984
X3.248Y-4.0157
X3.2579Y-3.2776
X3.2579Y-3.3858
X3.2874Y-2.7657
X3.2972Y-3.0413
X3.3071Y-4.2913
X3.3169Y-2.9232
X3.3268Y-4.6654
X3.3366Y-2.4409
X3.3465Y-4.0551
X3.3465Y-4.3701
X3.3661Y-4.5669
X3.3957Y-3.0413
X3.3957Y-3.2677
X3.3957Y-3.376
X3.4055Y-3.75
X3.4154Y-2.5984
X3.4252Y-3.9961
X3.4449Y-4.252
X3.4449Y-4.4488
X3.4843Y-3.2677
X3.4843Y-3.376
X3.4843Y-4.5669
X3.4941Y-4.6752
X3.5039Y-2.8051
X3.5039Y-2.8937
X3.5039Y-3.75
X3.5108Y-3.9301
X3.5276Y-4.0945
X3.563Y-2.4409
X3.563Y-2.5984
X3.563Y-4.4291
X3.5827Y-4.1437
X3.622Y-3.8681
X3.6417Y-3.2677
X3.6516Y-4.2028
X3.6614Y-2.8051
X3.6614Y-2.8937
X3.6614Y-3.7008
X3.6614Y-3.7894
X3.6614Y-3.937
X3.7205Y-4.5177
X3.7303Y-4.685
X3.7402Y-3.2874
X3.7598Y-4.2224
X3.7894Y-4.1634
X3.83Y-4.1227
X3.8386Y-4.3769
X3.8484Y-4.2717
X3.8583Y-2.4409
X3.8681Y-3.7106
X3.8681Y-3.7894
X3.8878Y-3.937
X3.8976Y-4.0354
X3.9075Y-2.7264
X3.9075Y-2.9823
X3.9075Y-4.3602
X3.9764Y-4.4291
X4.0256Y-2.9921
X4.0354Y-4.2283
X4.0354Y-4.4291
X4.0453Y-3.9469
X4.0453Y-4.5866
X4.0551Y-4.0453
X4.1043Y-4.5866
X4.1437Y-2.8937
X4.1437Y-3.7008
X4.1535Y-2.4409
X4.1535Y-3.7894
X4.1535Y-4.6654
X4.1634Y-3.9469
X4.1831Y-4.0945
X4.1831Y-4.498
X4.2224Y-2.8356
X4.2224Y-3.8976
X4.2224Y-4.5768
X4.2421Y-4.685
X4.252Y-3.0315
X4.2717Y-3.2185
X4.2717Y-3.376
X4.2717Y-3.5236
X4.2717Y-3.8681
X4.2815Y-4.1535
X4.2815Y-4.252
X4.2815Y-4.3406
X4.2913Y-3.8091
X4.3209Y-3.9173
X4.3504Y-3.0512
X4.3504Y-4.252
X4.3602Y-4.6752
X4.4094Y-3.9173
X4.4094Y-4.2323
X4.4193Y-3.6713
X4.4193Y-3.8091
X4.4193Y-4.4193
X4.4291Y-2.9429
X4.4291Y-3.2087
X4.4291Y-3.376
X4.4291Y-3.5236
X4.4291Y-4.1634
X4.4488Y-4.626
X4.4587Y-2.4409
X4.4685Y-4.2126
X4.4807Y-4.2839
X4.4882Y-4.3898
X4.4882Y-4.6752
X4.5079Y-4.3307
X4.5276Y-4.2717
X4.5669Y-4.4291
X4.5768Y-3.937
X4.5768Y-3.9961
X4.5768Y-4.6063
X4.5866Y-4.1437
X4.5866Y-4.3209
X4.5965Y-3.8091
X4.6063Y-3.2185
X4.6063Y-3.3661
X4.6161Y-2.9626
X4.6161Y-3.5827
X4.6358Y-2.8346
X4.6457Y-2.5197
X4.7146Y-4.1929
X4.7244Y-4.626
X4.7638Y-2.6772
X4.7638Y-3.9567
X4.7718Y-4.2735
X4.7835Y-2.4606
X4.8031Y-4.498
X4.813Y-4.685
X4.8425Y-3.2677
X4.8425Y-3.3661
X4.8425Y-3.4941
X4.8425Y-4.0256
X4.8524Y-3.1004
X4.8524Y-3.8878
X4.8622Y-3.6909
X4.9114Y-2.7854
X4.9114Y-3.622
X4.9409Y-2.7559
X4.9409Y-3.2677
X4.9409Y-3.9075
X4.9409Y-4.0256
X4.9409Y-4.498
X4.9409Y-4.626
X5.0098Y-2.5984
X5.0689Y-3.5236
X5.0787Y-3.6516
X5.0886Y-3.8287
X5.0984Y-2.9823
X5.0984Y-3.1693
X5.0984Y-3.2874
X5.0984Y-3.4449
X5.1383Y-2.7704
X5.1476Y-4.2028
X5.1575Y-4.3701
X5.2264Y-4.1339
X5.2362Y-2.4606
X5.2461Y-2.5984
X5.2461Y-3.9173
X5.2756Y-3.189
X5.2854Y-4.4094
X5.2854Y-4.4882
X5.2913Y-3.6024
X5.2953Y-2.8543
X5.2953Y-3.4252
X5.315Y-4.5669
X5.3543Y-3.9862
X5.3839Y-4.2126
X5.3937Y-2.5984
X5.3937Y-3.0118
X5.4232Y-4.3406
X5.4331Y-2.5197
X5.4331Y-2.8543
X5.4331Y-3.6811
X5.4724Y-3.3071
X5.4724Y-4.1043
X5.4921Y-4.5472
X5.502Y-3.0807
X5.5118Y-2.5197
X5.5413Y-2.4705
X5.5709Y-2.5197
X5.5906Y-3.2087
X5.5906Y-3.3071
X5.6004Y-4.5472
X5.6102Y-3.6811
X5.6201Y-3.5236
X5.6299Y-4.1339
X5.689Y-2.815
X5.689Y-3.061
X5.689Y-3.3858
X5.7087Y-3.189
X5.748Y-2.5984
X5.7579Y-4.1043
X5.7677Y-2.5098
X5.7776Y-4.252
X5.7776Y-4.3504
X5.7874Y-2.8937
X5.7874Y-4.5276
X5.8858Y-2.4803
X5.8858Y-2.6378
X5.9055Y-4.3602
X5.9055Y-4.6457
X5.9154Y-3.0709
X5.9154Y-4.1043
X5.9252Y-4.252
X5.9449Y-3.2677
X5.9449Y-3.7795
T2
X4.0846Y-4.4193
X4.124Y-4.1831
X4.2717Y-3.1299
X4.6752Y-3.9567
X4.7146Y-4.5177
X4.7736Y-4.1732
X5.502Y-4.6752
T3
X2.6969Y-4.0067
X2.6969Y-4.0767
X2.6969Y-4.1467
X4.9792Y-3.5215
X4.9792Y-3.5915
X4.9792Y-3.6615
T4
X2.7445Y-3.1837
X2.7445Y-3.4837
X2.8445Y-3.1837
X2.8445Y-3.4837
X2.9445Y-3.1837
X2.9445Y-3.4837
X2.9516Y-2.686
X2.9516Y-2.986
X3.0445Y-3.1837
X3.0445Y-3.4837
X3.0516Y-2.686
X3.0516Y-2.986
X3.1445Y-3.1837
X3.1445Y-3.4837
X3.1516Y-2.686
X3.1516Y-2.986
X3.2445Y-3.1837
X3.2445Y-3.4837
X3.2516Y-2.686
X3.2516Y-2.986
X3.3445Y-3.1837
X3.3445Y-3.4837
X3.3516Y-2.686
X3.3516Y-2.986
X3.4445Y-3.1837
X3.4445Y-3.4837
X3.4516Y-2.686
X3.4516Y-2.986
X3.5516Y-2.686
X3.5516Y-2.986
X3.6516Y-2.686
X3.6516Y-2.986
X3.7157Y-3.3927
X3.7157Y-3.4714
X3.8226Y-2.7165
X3.8226Y-2.7953
X4.9409Y-3.0483
X4.9409Y-3.127
X5.0394Y-2.7362
X5.0394Y-2.874
X5.3445Y-3.9134
X5.3445Y-4.4488
X5.4232Y-3.9134
X5.4232Y-4.4488
X5.502Y-3.9134
X5.502Y-4.4488
X5.5807Y-3.9134
X5.5807Y-4.4488
X5.6594Y-3.9134
X5.6594Y-4.4488
X5.7382Y-3.9134
X5.7382Y-4.4488
X5.8169Y-3.9134
X5.8169Y-4.4488
X5.8957Y-3.9134
X5.8957Y-4.4488
T5
X2.9528Y-4.3457
X2.9528Y-4.6457
X4.7638Y-2.574
X4.7638Y-2.874
T6
X2.5937Y-3.1915
X2.5937Y-3.2915
X2.5937Y-3.3915
X2.5937Y-3.4915
X3.578Y-4.627
X3.678Y-4.627
X3.778Y-4.627
X3.878Y-4.627
X3.978Y-4.627
X4.9114Y-2.499
X5.0114Y-2.499
X5.1947Y-3.0689
X5.1947Y-3.1437
X5.1947Y-3.2185
X5.1947Y-3.2933
X5.1947Y-3.3681
T7
X4.7266Y-3.342
X4.7266Y-3.442
X4.7266Y-3.542
T8
X2.6711Y-2.5805
X2.6711Y-2.6805
X2.6711Y-2.8561
X2.6711Y-2.9561
X2.7303Y-4.2913
X2.7303Y-4.3913
X5.5906Y-2.6378
X5.5906Y-2.9331
T9
X5.1303Y-4.4488
T10
X5.0264Y-4.3518
X5.0264Y-4.5518
X5.2264Y-4.3518
X5.2264Y-4.5518
M30
