%TF.GenerationSoftware,KiCad,Pcbnew,8.0.3*%
%TF.CreationDate,2024-08-01T08:22:56+01:00*%
%TF.ProjectId,controller,636f6e74-726f-46c6-9c65-722e6b696361,rev?*%
%TF.SameCoordinates,Original*%
%TF.FileFunction,Legend,Top*%
%TF.FilePolarity,Positive*%
%FSLAX46Y46*%
G04 Gerber Fmt 4.6, Leading zero omitted, Abs format (unit mm)*
G04 Created by KiCad (PCBNEW 8.0.3) date 2024-08-01 08:22:56*
%MOMM*%
%LPD*%
G01*
G04 APERTURE LIST*
%ADD10C,0.150000*%
%ADD11C,0.120000*%
%ADD12C,0.100000*%
G04 APERTURE END LIST*
D10*
X95785714Y-82454819D02*
X95785714Y-81454819D01*
X95785714Y-81454819D02*
X96023809Y-81454819D01*
X96023809Y-81454819D02*
X96166666Y-81502438D01*
X96166666Y-81502438D02*
X96261904Y-81597676D01*
X96261904Y-81597676D02*
X96309523Y-81692914D01*
X96309523Y-81692914D02*
X96357142Y-81883390D01*
X96357142Y-81883390D02*
X96357142Y-82026247D01*
X96357142Y-82026247D02*
X96309523Y-82216723D01*
X96309523Y-82216723D02*
X96261904Y-82311961D01*
X96261904Y-82311961D02*
X96166666Y-82407200D01*
X96166666Y-82407200D02*
X96023809Y-82454819D01*
X96023809Y-82454819D02*
X95785714Y-82454819D01*
X97309523Y-82454819D02*
X96738095Y-82454819D01*
X97023809Y-82454819D02*
X97023809Y-81454819D01*
X97023809Y-81454819D02*
X96928571Y-81597676D01*
X96928571Y-81597676D02*
X96833333Y-81692914D01*
X96833333Y-81692914D02*
X96738095Y-81740533D01*
X98261904Y-82454819D02*
X97690476Y-82454819D01*
X97976190Y-82454819D02*
X97976190Y-81454819D01*
X97976190Y-81454819D02*
X97880952Y-81597676D01*
X97880952Y-81597676D02*
X97785714Y-81692914D01*
X97785714Y-81692914D02*
X97690476Y-81740533D01*
X72094819Y-72796904D02*
X72904342Y-72796904D01*
X72904342Y-72796904D02*
X72999580Y-72749285D01*
X72999580Y-72749285D02*
X73047200Y-72701666D01*
X73047200Y-72701666D02*
X73094819Y-72606428D01*
X73094819Y-72606428D02*
X73094819Y-72415952D01*
X73094819Y-72415952D02*
X73047200Y-72320714D01*
X73047200Y-72320714D02*
X72999580Y-72273095D01*
X72999580Y-72273095D02*
X72904342Y-72225476D01*
X72904342Y-72225476D02*
X72094819Y-72225476D01*
X73094819Y-71225476D02*
X73094819Y-71796904D01*
X73094819Y-71511190D02*
X72094819Y-71511190D01*
X72094819Y-71511190D02*
X72237676Y-71606428D01*
X72237676Y-71606428D02*
X72332914Y-71701666D01*
X72332914Y-71701666D02*
X72380533Y-71796904D01*
X129333333Y-93954819D02*
X129000000Y-93478628D01*
X128761905Y-93954819D02*
X128761905Y-92954819D01*
X128761905Y-92954819D02*
X129142857Y-92954819D01*
X129142857Y-92954819D02*
X129238095Y-93002438D01*
X129238095Y-93002438D02*
X129285714Y-93050057D01*
X129285714Y-93050057D02*
X129333333Y-93145295D01*
X129333333Y-93145295D02*
X129333333Y-93288152D01*
X129333333Y-93288152D02*
X129285714Y-93383390D01*
X129285714Y-93383390D02*
X129238095Y-93431009D01*
X129238095Y-93431009D02*
X129142857Y-93478628D01*
X129142857Y-93478628D02*
X128761905Y-93478628D01*
X130238095Y-92954819D02*
X129761905Y-92954819D01*
X129761905Y-92954819D02*
X129714286Y-93431009D01*
X129714286Y-93431009D02*
X129761905Y-93383390D01*
X129761905Y-93383390D02*
X129857143Y-93335771D01*
X129857143Y-93335771D02*
X130095238Y-93335771D01*
X130095238Y-93335771D02*
X130190476Y-93383390D01*
X130190476Y-93383390D02*
X130238095Y-93431009D01*
X130238095Y-93431009D02*
X130285714Y-93526247D01*
X130285714Y-93526247D02*
X130285714Y-93764342D01*
X130285714Y-93764342D02*
X130238095Y-93859580D01*
X130238095Y-93859580D02*
X130190476Y-93907200D01*
X130190476Y-93907200D02*
X130095238Y-93954819D01*
X130095238Y-93954819D02*
X129857143Y-93954819D01*
X129857143Y-93954819D02*
X129761905Y-93907200D01*
X129761905Y-93907200D02*
X129714286Y-93859580D01*
X117867142Y-64339819D02*
X117533809Y-63863628D01*
X117295714Y-64339819D02*
X117295714Y-63339819D01*
X117295714Y-63339819D02*
X117676666Y-63339819D01*
X117676666Y-63339819D02*
X117771904Y-63387438D01*
X117771904Y-63387438D02*
X117819523Y-63435057D01*
X117819523Y-63435057D02*
X117867142Y-63530295D01*
X117867142Y-63530295D02*
X117867142Y-63673152D01*
X117867142Y-63673152D02*
X117819523Y-63768390D01*
X117819523Y-63768390D02*
X117771904Y-63816009D01*
X117771904Y-63816009D02*
X117676666Y-63863628D01*
X117676666Y-63863628D02*
X117295714Y-63863628D01*
X118819523Y-64339819D02*
X118248095Y-64339819D01*
X118533809Y-64339819D02*
X118533809Y-63339819D01*
X118533809Y-63339819D02*
X118438571Y-63482676D01*
X118438571Y-63482676D02*
X118343333Y-63577914D01*
X118343333Y-63577914D02*
X118248095Y-63625533D01*
X119200476Y-63435057D02*
X119248095Y-63387438D01*
X119248095Y-63387438D02*
X119343333Y-63339819D01*
X119343333Y-63339819D02*
X119581428Y-63339819D01*
X119581428Y-63339819D02*
X119676666Y-63387438D01*
X119676666Y-63387438D02*
X119724285Y-63435057D01*
X119724285Y-63435057D02*
X119771904Y-63530295D01*
X119771904Y-63530295D02*
X119771904Y-63625533D01*
X119771904Y-63625533D02*
X119724285Y-63768390D01*
X119724285Y-63768390D02*
X119152857Y-64339819D01*
X119152857Y-64339819D02*
X119771904Y-64339819D01*
X71367142Y-78444580D02*
X71319523Y-78492200D01*
X71319523Y-78492200D02*
X71176666Y-78539819D01*
X71176666Y-78539819D02*
X71081428Y-78539819D01*
X71081428Y-78539819D02*
X70938571Y-78492200D01*
X70938571Y-78492200D02*
X70843333Y-78396961D01*
X70843333Y-78396961D02*
X70795714Y-78301723D01*
X70795714Y-78301723D02*
X70748095Y-78111247D01*
X70748095Y-78111247D02*
X70748095Y-77968390D01*
X70748095Y-77968390D02*
X70795714Y-77777914D01*
X70795714Y-77777914D02*
X70843333Y-77682676D01*
X70843333Y-77682676D02*
X70938571Y-77587438D01*
X70938571Y-77587438D02*
X71081428Y-77539819D01*
X71081428Y-77539819D02*
X71176666Y-77539819D01*
X71176666Y-77539819D02*
X71319523Y-77587438D01*
X71319523Y-77587438D02*
X71367142Y-77635057D01*
X72319523Y-78539819D02*
X71748095Y-78539819D01*
X72033809Y-78539819D02*
X72033809Y-77539819D01*
X72033809Y-77539819D02*
X71938571Y-77682676D01*
X71938571Y-77682676D02*
X71843333Y-77777914D01*
X71843333Y-77777914D02*
X71748095Y-77825533D01*
X73224285Y-77539819D02*
X72748095Y-77539819D01*
X72748095Y-77539819D02*
X72700476Y-78016009D01*
X72700476Y-78016009D02*
X72748095Y-77968390D01*
X72748095Y-77968390D02*
X72843333Y-77920771D01*
X72843333Y-77920771D02*
X73081428Y-77920771D01*
X73081428Y-77920771D02*
X73176666Y-77968390D01*
X73176666Y-77968390D02*
X73224285Y-78016009D01*
X73224285Y-78016009D02*
X73271904Y-78111247D01*
X73271904Y-78111247D02*
X73271904Y-78349342D01*
X73271904Y-78349342D02*
X73224285Y-78444580D01*
X73224285Y-78444580D02*
X73176666Y-78492200D01*
X73176666Y-78492200D02*
X73081428Y-78539819D01*
X73081428Y-78539819D02*
X72843333Y-78539819D01*
X72843333Y-78539819D02*
X72748095Y-78492200D01*
X72748095Y-78492200D02*
X72700476Y-78444580D01*
X101357142Y-102859580D02*
X101309523Y-102907200D01*
X101309523Y-102907200D02*
X101166666Y-102954819D01*
X101166666Y-102954819D02*
X101071428Y-102954819D01*
X101071428Y-102954819D02*
X100928571Y-102907200D01*
X100928571Y-102907200D02*
X100833333Y-102811961D01*
X100833333Y-102811961D02*
X100785714Y-102716723D01*
X100785714Y-102716723D02*
X100738095Y-102526247D01*
X100738095Y-102526247D02*
X100738095Y-102383390D01*
X100738095Y-102383390D02*
X100785714Y-102192914D01*
X100785714Y-102192914D02*
X100833333Y-102097676D01*
X100833333Y-102097676D02*
X100928571Y-102002438D01*
X100928571Y-102002438D02*
X101071428Y-101954819D01*
X101071428Y-101954819D02*
X101166666Y-101954819D01*
X101166666Y-101954819D02*
X101309523Y-102002438D01*
X101309523Y-102002438D02*
X101357142Y-102050057D01*
X102309523Y-102954819D02*
X101738095Y-102954819D01*
X102023809Y-102954819D02*
X102023809Y-101954819D01*
X102023809Y-101954819D02*
X101928571Y-102097676D01*
X101928571Y-102097676D02*
X101833333Y-102192914D01*
X101833333Y-102192914D02*
X101738095Y-102240533D01*
X102690476Y-102050057D02*
X102738095Y-102002438D01*
X102738095Y-102002438D02*
X102833333Y-101954819D01*
X102833333Y-101954819D02*
X103071428Y-101954819D01*
X103071428Y-101954819D02*
X103166666Y-102002438D01*
X103166666Y-102002438D02*
X103214285Y-102050057D01*
X103214285Y-102050057D02*
X103261904Y-102145295D01*
X103261904Y-102145295D02*
X103261904Y-102240533D01*
X103261904Y-102240533D02*
X103214285Y-102383390D01*
X103214285Y-102383390D02*
X102642857Y-102954819D01*
X102642857Y-102954819D02*
X103261904Y-102954819D01*
X113867142Y-62839819D02*
X113533809Y-62363628D01*
X113295714Y-62839819D02*
X113295714Y-61839819D01*
X113295714Y-61839819D02*
X113676666Y-61839819D01*
X113676666Y-61839819D02*
X113771904Y-61887438D01*
X113771904Y-61887438D02*
X113819523Y-61935057D01*
X113819523Y-61935057D02*
X113867142Y-62030295D01*
X113867142Y-62030295D02*
X113867142Y-62173152D01*
X113867142Y-62173152D02*
X113819523Y-62268390D01*
X113819523Y-62268390D02*
X113771904Y-62316009D01*
X113771904Y-62316009D02*
X113676666Y-62363628D01*
X113676666Y-62363628D02*
X113295714Y-62363628D01*
X114819523Y-62839819D02*
X114248095Y-62839819D01*
X114533809Y-62839819D02*
X114533809Y-61839819D01*
X114533809Y-61839819D02*
X114438571Y-61982676D01*
X114438571Y-61982676D02*
X114343333Y-62077914D01*
X114343333Y-62077914D02*
X114248095Y-62125533D01*
X115152857Y-61839819D02*
X115819523Y-61839819D01*
X115819523Y-61839819D02*
X115390952Y-62839819D01*
X133833333Y-93502548D02*
X133500000Y-93026357D01*
X133261905Y-93502548D02*
X133261905Y-92502548D01*
X133261905Y-92502548D02*
X133642857Y-92502548D01*
X133642857Y-92502548D02*
X133738095Y-92550167D01*
X133738095Y-92550167D02*
X133785714Y-92597786D01*
X133785714Y-92597786D02*
X133833333Y-92693024D01*
X133833333Y-92693024D02*
X133833333Y-92835881D01*
X133833333Y-92835881D02*
X133785714Y-92931119D01*
X133785714Y-92931119D02*
X133738095Y-92978738D01*
X133738095Y-92978738D02*
X133642857Y-93026357D01*
X133642857Y-93026357D02*
X133261905Y-93026357D01*
X134404762Y-92931119D02*
X134309524Y-92883500D01*
X134309524Y-92883500D02*
X134261905Y-92835881D01*
X134261905Y-92835881D02*
X134214286Y-92740643D01*
X134214286Y-92740643D02*
X134214286Y-92693024D01*
X134214286Y-92693024D02*
X134261905Y-92597786D01*
X134261905Y-92597786D02*
X134309524Y-92550167D01*
X134309524Y-92550167D02*
X134404762Y-92502548D01*
X134404762Y-92502548D02*
X134595238Y-92502548D01*
X134595238Y-92502548D02*
X134690476Y-92550167D01*
X134690476Y-92550167D02*
X134738095Y-92597786D01*
X134738095Y-92597786D02*
X134785714Y-92693024D01*
X134785714Y-92693024D02*
X134785714Y-92740643D01*
X134785714Y-92740643D02*
X134738095Y-92835881D01*
X134738095Y-92835881D02*
X134690476Y-92883500D01*
X134690476Y-92883500D02*
X134595238Y-92931119D01*
X134595238Y-92931119D02*
X134404762Y-92931119D01*
X134404762Y-92931119D02*
X134309524Y-92978738D01*
X134309524Y-92978738D02*
X134261905Y-93026357D01*
X134261905Y-93026357D02*
X134214286Y-93121595D01*
X134214286Y-93121595D02*
X134214286Y-93312071D01*
X134214286Y-93312071D02*
X134261905Y-93407309D01*
X134261905Y-93407309D02*
X134309524Y-93454929D01*
X134309524Y-93454929D02*
X134404762Y-93502548D01*
X134404762Y-93502548D02*
X134595238Y-93502548D01*
X134595238Y-93502548D02*
X134690476Y-93454929D01*
X134690476Y-93454929D02*
X134738095Y-93407309D01*
X134738095Y-93407309D02*
X134785714Y-93312071D01*
X134785714Y-93312071D02*
X134785714Y-93121595D01*
X134785714Y-93121595D02*
X134738095Y-93026357D01*
X134738095Y-93026357D02*
X134690476Y-92978738D01*
X134690476Y-92978738D02*
X134595238Y-92931119D01*
X115620833Y-117359580D02*
X115573214Y-117407200D01*
X115573214Y-117407200D02*
X115430357Y-117454819D01*
X115430357Y-117454819D02*
X115335119Y-117454819D01*
X115335119Y-117454819D02*
X115192262Y-117407200D01*
X115192262Y-117407200D02*
X115097024Y-117311961D01*
X115097024Y-117311961D02*
X115049405Y-117216723D01*
X115049405Y-117216723D02*
X115001786Y-117026247D01*
X115001786Y-117026247D02*
X115001786Y-116883390D01*
X115001786Y-116883390D02*
X115049405Y-116692914D01*
X115049405Y-116692914D02*
X115097024Y-116597676D01*
X115097024Y-116597676D02*
X115192262Y-116502438D01*
X115192262Y-116502438D02*
X115335119Y-116454819D01*
X115335119Y-116454819D02*
X115430357Y-116454819D01*
X115430357Y-116454819D02*
X115573214Y-116502438D01*
X115573214Y-116502438D02*
X115620833Y-116550057D01*
X116097024Y-117454819D02*
X116287500Y-117454819D01*
X116287500Y-117454819D02*
X116382738Y-117407200D01*
X116382738Y-117407200D02*
X116430357Y-117359580D01*
X116430357Y-117359580D02*
X116525595Y-117216723D01*
X116525595Y-117216723D02*
X116573214Y-117026247D01*
X116573214Y-117026247D02*
X116573214Y-116645295D01*
X116573214Y-116645295D02*
X116525595Y-116550057D01*
X116525595Y-116550057D02*
X116477976Y-116502438D01*
X116477976Y-116502438D02*
X116382738Y-116454819D01*
X116382738Y-116454819D02*
X116192262Y-116454819D01*
X116192262Y-116454819D02*
X116097024Y-116502438D01*
X116097024Y-116502438D02*
X116049405Y-116550057D01*
X116049405Y-116550057D02*
X116001786Y-116645295D01*
X116001786Y-116645295D02*
X116001786Y-116883390D01*
X116001786Y-116883390D02*
X116049405Y-116978628D01*
X116049405Y-116978628D02*
X116097024Y-117026247D01*
X116097024Y-117026247D02*
X116192262Y-117073866D01*
X116192262Y-117073866D02*
X116382738Y-117073866D01*
X116382738Y-117073866D02*
X116477976Y-117026247D01*
X116477976Y-117026247D02*
X116525595Y-116978628D01*
X116525595Y-116978628D02*
X116573214Y-116883390D01*
X107532142Y-83479819D02*
X107198809Y-83003628D01*
X106960714Y-83479819D02*
X106960714Y-82479819D01*
X106960714Y-82479819D02*
X107341666Y-82479819D01*
X107341666Y-82479819D02*
X107436904Y-82527438D01*
X107436904Y-82527438D02*
X107484523Y-82575057D01*
X107484523Y-82575057D02*
X107532142Y-82670295D01*
X107532142Y-82670295D02*
X107532142Y-82813152D01*
X107532142Y-82813152D02*
X107484523Y-82908390D01*
X107484523Y-82908390D02*
X107436904Y-82956009D01*
X107436904Y-82956009D02*
X107341666Y-83003628D01*
X107341666Y-83003628D02*
X106960714Y-83003628D01*
X107913095Y-82575057D02*
X107960714Y-82527438D01*
X107960714Y-82527438D02*
X108055952Y-82479819D01*
X108055952Y-82479819D02*
X108294047Y-82479819D01*
X108294047Y-82479819D02*
X108389285Y-82527438D01*
X108389285Y-82527438D02*
X108436904Y-82575057D01*
X108436904Y-82575057D02*
X108484523Y-82670295D01*
X108484523Y-82670295D02*
X108484523Y-82765533D01*
X108484523Y-82765533D02*
X108436904Y-82908390D01*
X108436904Y-82908390D02*
X107865476Y-83479819D01*
X107865476Y-83479819D02*
X108484523Y-83479819D01*
X109103571Y-82479819D02*
X109198809Y-82479819D01*
X109198809Y-82479819D02*
X109294047Y-82527438D01*
X109294047Y-82527438D02*
X109341666Y-82575057D01*
X109341666Y-82575057D02*
X109389285Y-82670295D01*
X109389285Y-82670295D02*
X109436904Y-82860771D01*
X109436904Y-82860771D02*
X109436904Y-83098866D01*
X109436904Y-83098866D02*
X109389285Y-83289342D01*
X109389285Y-83289342D02*
X109341666Y-83384580D01*
X109341666Y-83384580D02*
X109294047Y-83432200D01*
X109294047Y-83432200D02*
X109198809Y-83479819D01*
X109198809Y-83479819D02*
X109103571Y-83479819D01*
X109103571Y-83479819D02*
X109008333Y-83432200D01*
X109008333Y-83432200D02*
X108960714Y-83384580D01*
X108960714Y-83384580D02*
X108913095Y-83289342D01*
X108913095Y-83289342D02*
X108865476Y-83098866D01*
X108865476Y-83098866D02*
X108865476Y-82860771D01*
X108865476Y-82860771D02*
X108913095Y-82670295D01*
X108913095Y-82670295D02*
X108960714Y-82575057D01*
X108960714Y-82575057D02*
X109008333Y-82527438D01*
X109008333Y-82527438D02*
X109103571Y-82479819D01*
X124509166Y-112529819D02*
X124509166Y-113244104D01*
X124509166Y-113244104D02*
X124461547Y-113386961D01*
X124461547Y-113386961D02*
X124366309Y-113482200D01*
X124366309Y-113482200D02*
X124223452Y-113529819D01*
X124223452Y-113529819D02*
X124128214Y-113529819D01*
X125509166Y-113529819D02*
X124937738Y-113529819D01*
X125223452Y-113529819D02*
X125223452Y-112529819D01*
X125223452Y-112529819D02*
X125128214Y-112672676D01*
X125128214Y-112672676D02*
X125032976Y-112767914D01*
X125032976Y-112767914D02*
X124937738Y-112815533D01*
X100357142Y-75104819D02*
X100023809Y-74628628D01*
X99785714Y-75104819D02*
X99785714Y-74104819D01*
X99785714Y-74104819D02*
X100166666Y-74104819D01*
X100166666Y-74104819D02*
X100261904Y-74152438D01*
X100261904Y-74152438D02*
X100309523Y-74200057D01*
X100309523Y-74200057D02*
X100357142Y-74295295D01*
X100357142Y-74295295D02*
X100357142Y-74438152D01*
X100357142Y-74438152D02*
X100309523Y-74533390D01*
X100309523Y-74533390D02*
X100261904Y-74581009D01*
X100261904Y-74581009D02*
X100166666Y-74628628D01*
X100166666Y-74628628D02*
X99785714Y-74628628D01*
X100738095Y-74200057D02*
X100785714Y-74152438D01*
X100785714Y-74152438D02*
X100880952Y-74104819D01*
X100880952Y-74104819D02*
X101119047Y-74104819D01*
X101119047Y-74104819D02*
X101214285Y-74152438D01*
X101214285Y-74152438D02*
X101261904Y-74200057D01*
X101261904Y-74200057D02*
X101309523Y-74295295D01*
X101309523Y-74295295D02*
X101309523Y-74390533D01*
X101309523Y-74390533D02*
X101261904Y-74533390D01*
X101261904Y-74533390D02*
X100690476Y-75104819D01*
X100690476Y-75104819D02*
X101309523Y-75104819D01*
X102166666Y-74438152D02*
X102166666Y-75104819D01*
X101928571Y-74057200D02*
X101690476Y-74771485D01*
X101690476Y-74771485D02*
X102309523Y-74771485D01*
X124333333Y-82359580D02*
X124285714Y-82407200D01*
X124285714Y-82407200D02*
X124142857Y-82454819D01*
X124142857Y-82454819D02*
X124047619Y-82454819D01*
X124047619Y-82454819D02*
X123904762Y-82407200D01*
X123904762Y-82407200D02*
X123809524Y-82311961D01*
X123809524Y-82311961D02*
X123761905Y-82216723D01*
X123761905Y-82216723D02*
X123714286Y-82026247D01*
X123714286Y-82026247D02*
X123714286Y-81883390D01*
X123714286Y-81883390D02*
X123761905Y-81692914D01*
X123761905Y-81692914D02*
X123809524Y-81597676D01*
X123809524Y-81597676D02*
X123904762Y-81502438D01*
X123904762Y-81502438D02*
X124047619Y-81454819D01*
X124047619Y-81454819D02*
X124142857Y-81454819D01*
X124142857Y-81454819D02*
X124285714Y-81502438D01*
X124285714Y-81502438D02*
X124333333Y-81550057D01*
X125190476Y-81788152D02*
X125190476Y-82454819D01*
X124952381Y-81407200D02*
X124714286Y-82121485D01*
X124714286Y-82121485D02*
X125333333Y-82121485D01*
X70333333Y-97454819D02*
X70000000Y-96978628D01*
X69761905Y-97454819D02*
X69761905Y-96454819D01*
X69761905Y-96454819D02*
X70142857Y-96454819D01*
X70142857Y-96454819D02*
X70238095Y-96502438D01*
X70238095Y-96502438D02*
X70285714Y-96550057D01*
X70285714Y-96550057D02*
X70333333Y-96645295D01*
X70333333Y-96645295D02*
X70333333Y-96788152D01*
X70333333Y-96788152D02*
X70285714Y-96883390D01*
X70285714Y-96883390D02*
X70238095Y-96931009D01*
X70238095Y-96931009D02*
X70142857Y-96978628D01*
X70142857Y-96978628D02*
X69761905Y-96978628D01*
X70666667Y-96454819D02*
X71285714Y-96454819D01*
X71285714Y-96454819D02*
X70952381Y-96835771D01*
X70952381Y-96835771D02*
X71095238Y-96835771D01*
X71095238Y-96835771D02*
X71190476Y-96883390D01*
X71190476Y-96883390D02*
X71238095Y-96931009D01*
X71238095Y-96931009D02*
X71285714Y-97026247D01*
X71285714Y-97026247D02*
X71285714Y-97264342D01*
X71285714Y-97264342D02*
X71238095Y-97359580D01*
X71238095Y-97359580D02*
X71190476Y-97407200D01*
X71190476Y-97407200D02*
X71095238Y-97454819D01*
X71095238Y-97454819D02*
X70809524Y-97454819D01*
X70809524Y-97454819D02*
X70714286Y-97407200D01*
X70714286Y-97407200D02*
X70666667Y-97359580D01*
X104367142Y-62839819D02*
X104033809Y-62363628D01*
X103795714Y-62839819D02*
X103795714Y-61839819D01*
X103795714Y-61839819D02*
X104176666Y-61839819D01*
X104176666Y-61839819D02*
X104271904Y-61887438D01*
X104271904Y-61887438D02*
X104319523Y-61935057D01*
X104319523Y-61935057D02*
X104367142Y-62030295D01*
X104367142Y-62030295D02*
X104367142Y-62173152D01*
X104367142Y-62173152D02*
X104319523Y-62268390D01*
X104319523Y-62268390D02*
X104271904Y-62316009D01*
X104271904Y-62316009D02*
X104176666Y-62363628D01*
X104176666Y-62363628D02*
X103795714Y-62363628D01*
X105319523Y-62839819D02*
X104748095Y-62839819D01*
X105033809Y-62839819D02*
X105033809Y-61839819D01*
X105033809Y-61839819D02*
X104938571Y-61982676D01*
X104938571Y-61982676D02*
X104843333Y-62077914D01*
X104843333Y-62077914D02*
X104748095Y-62125533D01*
X105652857Y-61839819D02*
X106271904Y-61839819D01*
X106271904Y-61839819D02*
X105938571Y-62220771D01*
X105938571Y-62220771D02*
X106081428Y-62220771D01*
X106081428Y-62220771D02*
X106176666Y-62268390D01*
X106176666Y-62268390D02*
X106224285Y-62316009D01*
X106224285Y-62316009D02*
X106271904Y-62411247D01*
X106271904Y-62411247D02*
X106271904Y-62649342D01*
X106271904Y-62649342D02*
X106224285Y-62744580D01*
X106224285Y-62744580D02*
X106176666Y-62792200D01*
X106176666Y-62792200D02*
X106081428Y-62839819D01*
X106081428Y-62839819D02*
X105795714Y-62839819D01*
X105795714Y-62839819D02*
X105700476Y-62792200D01*
X105700476Y-62792200D02*
X105652857Y-62744580D01*
X121454819Y-63333333D02*
X122169104Y-63333333D01*
X122169104Y-63333333D02*
X122311961Y-63380952D01*
X122311961Y-63380952D02*
X122407200Y-63476190D01*
X122407200Y-63476190D02*
X122454819Y-63619047D01*
X122454819Y-63619047D02*
X122454819Y-63714285D01*
X121454819Y-62952380D02*
X121454819Y-62333333D01*
X121454819Y-62333333D02*
X121835771Y-62666666D01*
X121835771Y-62666666D02*
X121835771Y-62523809D01*
X121835771Y-62523809D02*
X121883390Y-62428571D01*
X121883390Y-62428571D02*
X121931009Y-62380952D01*
X121931009Y-62380952D02*
X122026247Y-62333333D01*
X122026247Y-62333333D02*
X122264342Y-62333333D01*
X122264342Y-62333333D02*
X122359580Y-62380952D01*
X122359580Y-62380952D02*
X122407200Y-62428571D01*
X122407200Y-62428571D02*
X122454819Y-62523809D01*
X122454819Y-62523809D02*
X122454819Y-62809523D01*
X122454819Y-62809523D02*
X122407200Y-62904761D01*
X122407200Y-62904761D02*
X122359580Y-62952380D01*
X124333333Y-85359580D02*
X124285714Y-85407200D01*
X124285714Y-85407200D02*
X124142857Y-85454819D01*
X124142857Y-85454819D02*
X124047619Y-85454819D01*
X124047619Y-85454819D02*
X123904762Y-85407200D01*
X123904762Y-85407200D02*
X123809524Y-85311961D01*
X123809524Y-85311961D02*
X123761905Y-85216723D01*
X123761905Y-85216723D02*
X123714286Y-85026247D01*
X123714286Y-85026247D02*
X123714286Y-84883390D01*
X123714286Y-84883390D02*
X123761905Y-84692914D01*
X123761905Y-84692914D02*
X123809524Y-84597676D01*
X123809524Y-84597676D02*
X123904762Y-84502438D01*
X123904762Y-84502438D02*
X124047619Y-84454819D01*
X124047619Y-84454819D02*
X124142857Y-84454819D01*
X124142857Y-84454819D02*
X124285714Y-84502438D01*
X124285714Y-84502438D02*
X124333333Y-84550057D01*
X125285714Y-85454819D02*
X124714286Y-85454819D01*
X125000000Y-85454819D02*
X125000000Y-84454819D01*
X125000000Y-84454819D02*
X124904762Y-84597676D01*
X124904762Y-84597676D02*
X124809524Y-84692914D01*
X124809524Y-84692914D02*
X124714286Y-84740533D01*
X71954819Y-99666666D02*
X71478628Y-99999999D01*
X71954819Y-100238094D02*
X70954819Y-100238094D01*
X70954819Y-100238094D02*
X70954819Y-99857142D01*
X70954819Y-99857142D02*
X71002438Y-99761904D01*
X71002438Y-99761904D02*
X71050057Y-99714285D01*
X71050057Y-99714285D02*
X71145295Y-99666666D01*
X71145295Y-99666666D02*
X71288152Y-99666666D01*
X71288152Y-99666666D02*
X71383390Y-99714285D01*
X71383390Y-99714285D02*
X71431009Y-99761904D01*
X71431009Y-99761904D02*
X71478628Y-99857142D01*
X71478628Y-99857142D02*
X71478628Y-100238094D01*
X71954819Y-98714285D02*
X71954819Y-99285713D01*
X71954819Y-98999999D02*
X70954819Y-98999999D01*
X70954819Y-98999999D02*
X71097676Y-99095237D01*
X71097676Y-99095237D02*
X71192914Y-99190475D01*
X71192914Y-99190475D02*
X71240533Y-99285713D01*
X148144642Y-115859580D02*
X148097023Y-115907200D01*
X148097023Y-115907200D02*
X147954166Y-115954819D01*
X147954166Y-115954819D02*
X147858928Y-115954819D01*
X147858928Y-115954819D02*
X147716071Y-115907200D01*
X147716071Y-115907200D02*
X147620833Y-115811961D01*
X147620833Y-115811961D02*
X147573214Y-115716723D01*
X147573214Y-115716723D02*
X147525595Y-115526247D01*
X147525595Y-115526247D02*
X147525595Y-115383390D01*
X147525595Y-115383390D02*
X147573214Y-115192914D01*
X147573214Y-115192914D02*
X147620833Y-115097676D01*
X147620833Y-115097676D02*
X147716071Y-115002438D01*
X147716071Y-115002438D02*
X147858928Y-114954819D01*
X147858928Y-114954819D02*
X147954166Y-114954819D01*
X147954166Y-114954819D02*
X148097023Y-115002438D01*
X148097023Y-115002438D02*
X148144642Y-115050057D01*
X148525595Y-115050057D02*
X148573214Y-115002438D01*
X148573214Y-115002438D02*
X148668452Y-114954819D01*
X148668452Y-114954819D02*
X148906547Y-114954819D01*
X148906547Y-114954819D02*
X149001785Y-115002438D01*
X149001785Y-115002438D02*
X149049404Y-115050057D01*
X149049404Y-115050057D02*
X149097023Y-115145295D01*
X149097023Y-115145295D02*
X149097023Y-115240533D01*
X149097023Y-115240533D02*
X149049404Y-115383390D01*
X149049404Y-115383390D02*
X148477976Y-115954819D01*
X148477976Y-115954819D02*
X149097023Y-115954819D01*
X150049404Y-115954819D02*
X149477976Y-115954819D01*
X149763690Y-115954819D02*
X149763690Y-114954819D01*
X149763690Y-114954819D02*
X149668452Y-115097676D01*
X149668452Y-115097676D02*
X149573214Y-115192914D01*
X149573214Y-115192914D02*
X149477976Y-115240533D01*
X118454819Y-74592707D02*
X117978628Y-74926040D01*
X118454819Y-75164135D02*
X117454819Y-75164135D01*
X117454819Y-75164135D02*
X117454819Y-74783183D01*
X117454819Y-74783183D02*
X117502438Y-74687945D01*
X117502438Y-74687945D02*
X117550057Y-74640326D01*
X117550057Y-74640326D02*
X117645295Y-74592707D01*
X117645295Y-74592707D02*
X117788152Y-74592707D01*
X117788152Y-74592707D02*
X117883390Y-74640326D01*
X117883390Y-74640326D02*
X117931009Y-74687945D01*
X117931009Y-74687945D02*
X117978628Y-74783183D01*
X117978628Y-74783183D02*
X117978628Y-75164135D01*
X118454819Y-74116516D02*
X118454819Y-73926040D01*
X118454819Y-73926040D02*
X118407200Y-73830802D01*
X118407200Y-73830802D02*
X118359580Y-73783183D01*
X118359580Y-73783183D02*
X118216723Y-73687945D01*
X118216723Y-73687945D02*
X118026247Y-73640326D01*
X118026247Y-73640326D02*
X117645295Y-73640326D01*
X117645295Y-73640326D02*
X117550057Y-73687945D01*
X117550057Y-73687945D02*
X117502438Y-73735564D01*
X117502438Y-73735564D02*
X117454819Y-73830802D01*
X117454819Y-73830802D02*
X117454819Y-74021278D01*
X117454819Y-74021278D02*
X117502438Y-74116516D01*
X117502438Y-74116516D02*
X117550057Y-74164135D01*
X117550057Y-74164135D02*
X117645295Y-74211754D01*
X117645295Y-74211754D02*
X117883390Y-74211754D01*
X117883390Y-74211754D02*
X117978628Y-74164135D01*
X117978628Y-74164135D02*
X118026247Y-74116516D01*
X118026247Y-74116516D02*
X118073866Y-74021278D01*
X118073866Y-74021278D02*
X118073866Y-73830802D01*
X118073866Y-73830802D02*
X118026247Y-73735564D01*
X118026247Y-73735564D02*
X117978628Y-73687945D01*
X117978628Y-73687945D02*
X117883390Y-73640326D01*
X107582142Y-81454819D02*
X107248809Y-80978628D01*
X107010714Y-81454819D02*
X107010714Y-80454819D01*
X107010714Y-80454819D02*
X107391666Y-80454819D01*
X107391666Y-80454819D02*
X107486904Y-80502438D01*
X107486904Y-80502438D02*
X107534523Y-80550057D01*
X107534523Y-80550057D02*
X107582142Y-80645295D01*
X107582142Y-80645295D02*
X107582142Y-80788152D01*
X107582142Y-80788152D02*
X107534523Y-80883390D01*
X107534523Y-80883390D02*
X107486904Y-80931009D01*
X107486904Y-80931009D02*
X107391666Y-80978628D01*
X107391666Y-80978628D02*
X107010714Y-80978628D01*
X107963095Y-80550057D02*
X108010714Y-80502438D01*
X108010714Y-80502438D02*
X108105952Y-80454819D01*
X108105952Y-80454819D02*
X108344047Y-80454819D01*
X108344047Y-80454819D02*
X108439285Y-80502438D01*
X108439285Y-80502438D02*
X108486904Y-80550057D01*
X108486904Y-80550057D02*
X108534523Y-80645295D01*
X108534523Y-80645295D02*
X108534523Y-80740533D01*
X108534523Y-80740533D02*
X108486904Y-80883390D01*
X108486904Y-80883390D02*
X107915476Y-81454819D01*
X107915476Y-81454819D02*
X108534523Y-81454819D01*
X109486904Y-81454819D02*
X108915476Y-81454819D01*
X109201190Y-81454819D02*
X109201190Y-80454819D01*
X109201190Y-80454819D02*
X109105952Y-80597676D01*
X109105952Y-80597676D02*
X109010714Y-80692914D01*
X109010714Y-80692914D02*
X108915476Y-80740533D01*
X105454819Y-72763094D02*
X104454819Y-72763094D01*
X104454819Y-72763094D02*
X104454819Y-72524999D01*
X104454819Y-72524999D02*
X104502438Y-72382142D01*
X104502438Y-72382142D02*
X104597676Y-72286904D01*
X104597676Y-72286904D02*
X104692914Y-72239285D01*
X104692914Y-72239285D02*
X104883390Y-72191666D01*
X104883390Y-72191666D02*
X105026247Y-72191666D01*
X105026247Y-72191666D02*
X105216723Y-72239285D01*
X105216723Y-72239285D02*
X105311961Y-72286904D01*
X105311961Y-72286904D02*
X105407200Y-72382142D01*
X105407200Y-72382142D02*
X105454819Y-72524999D01*
X105454819Y-72524999D02*
X105454819Y-72763094D01*
X104454819Y-71858332D02*
X104454819Y-71191666D01*
X104454819Y-71191666D02*
X105454819Y-71620237D01*
X95785714Y-83954819D02*
X95785714Y-82954819D01*
X95785714Y-82954819D02*
X96023809Y-82954819D01*
X96023809Y-82954819D02*
X96166666Y-83002438D01*
X96166666Y-83002438D02*
X96261904Y-83097676D01*
X96261904Y-83097676D02*
X96309523Y-83192914D01*
X96309523Y-83192914D02*
X96357142Y-83383390D01*
X96357142Y-83383390D02*
X96357142Y-83526247D01*
X96357142Y-83526247D02*
X96309523Y-83716723D01*
X96309523Y-83716723D02*
X96261904Y-83811961D01*
X96261904Y-83811961D02*
X96166666Y-83907200D01*
X96166666Y-83907200D02*
X96023809Y-83954819D01*
X96023809Y-83954819D02*
X95785714Y-83954819D01*
X97309523Y-83954819D02*
X96738095Y-83954819D01*
X97023809Y-83954819D02*
X97023809Y-82954819D01*
X97023809Y-82954819D02*
X96928571Y-83097676D01*
X96928571Y-83097676D02*
X96833333Y-83192914D01*
X96833333Y-83192914D02*
X96738095Y-83240533D01*
X97928571Y-82954819D02*
X98023809Y-82954819D01*
X98023809Y-82954819D02*
X98119047Y-83002438D01*
X98119047Y-83002438D02*
X98166666Y-83050057D01*
X98166666Y-83050057D02*
X98214285Y-83145295D01*
X98214285Y-83145295D02*
X98261904Y-83335771D01*
X98261904Y-83335771D02*
X98261904Y-83573866D01*
X98261904Y-83573866D02*
X98214285Y-83764342D01*
X98214285Y-83764342D02*
X98166666Y-83859580D01*
X98166666Y-83859580D02*
X98119047Y-83907200D01*
X98119047Y-83907200D02*
X98023809Y-83954819D01*
X98023809Y-83954819D02*
X97928571Y-83954819D01*
X97928571Y-83954819D02*
X97833333Y-83907200D01*
X97833333Y-83907200D02*
X97785714Y-83859580D01*
X97785714Y-83859580D02*
X97738095Y-83764342D01*
X97738095Y-83764342D02*
X97690476Y-83573866D01*
X97690476Y-83573866D02*
X97690476Y-83335771D01*
X97690476Y-83335771D02*
X97738095Y-83145295D01*
X97738095Y-83145295D02*
X97785714Y-83050057D01*
X97785714Y-83050057D02*
X97833333Y-83002438D01*
X97833333Y-83002438D02*
X97928571Y-82954819D01*
X91835833Y-113179580D02*
X91788214Y-113227200D01*
X91788214Y-113227200D02*
X91645357Y-113274819D01*
X91645357Y-113274819D02*
X91550119Y-113274819D01*
X91550119Y-113274819D02*
X91407262Y-113227200D01*
X91407262Y-113227200D02*
X91312024Y-113131961D01*
X91312024Y-113131961D02*
X91264405Y-113036723D01*
X91264405Y-113036723D02*
X91216786Y-112846247D01*
X91216786Y-112846247D02*
X91216786Y-112703390D01*
X91216786Y-112703390D02*
X91264405Y-112512914D01*
X91264405Y-112512914D02*
X91312024Y-112417676D01*
X91312024Y-112417676D02*
X91407262Y-112322438D01*
X91407262Y-112322438D02*
X91550119Y-112274819D01*
X91550119Y-112274819D02*
X91645357Y-112274819D01*
X91645357Y-112274819D02*
X91788214Y-112322438D01*
X91788214Y-112322438D02*
X91835833Y-112370057D01*
X92216786Y-112370057D02*
X92264405Y-112322438D01*
X92264405Y-112322438D02*
X92359643Y-112274819D01*
X92359643Y-112274819D02*
X92597738Y-112274819D01*
X92597738Y-112274819D02*
X92692976Y-112322438D01*
X92692976Y-112322438D02*
X92740595Y-112370057D01*
X92740595Y-112370057D02*
X92788214Y-112465295D01*
X92788214Y-112465295D02*
X92788214Y-112560533D01*
X92788214Y-112560533D02*
X92740595Y-112703390D01*
X92740595Y-112703390D02*
X92169167Y-113274819D01*
X92169167Y-113274819D02*
X92788214Y-113274819D01*
X89739580Y-91817514D02*
X89787200Y-91865133D01*
X89787200Y-91865133D02*
X89834819Y-92007990D01*
X89834819Y-92007990D02*
X89834819Y-92103228D01*
X89834819Y-92103228D02*
X89787200Y-92246085D01*
X89787200Y-92246085D02*
X89691961Y-92341323D01*
X89691961Y-92341323D02*
X89596723Y-92388942D01*
X89596723Y-92388942D02*
X89406247Y-92436561D01*
X89406247Y-92436561D02*
X89263390Y-92436561D01*
X89263390Y-92436561D02*
X89072914Y-92388942D01*
X89072914Y-92388942D02*
X88977676Y-92341323D01*
X88977676Y-92341323D02*
X88882438Y-92246085D01*
X88882438Y-92246085D02*
X88834819Y-92103228D01*
X88834819Y-92103228D02*
X88834819Y-92007990D01*
X88834819Y-92007990D02*
X88882438Y-91865133D01*
X88882438Y-91865133D02*
X88930057Y-91817514D01*
X89834819Y-90865133D02*
X89834819Y-91436561D01*
X89834819Y-91150847D02*
X88834819Y-91150847D01*
X88834819Y-91150847D02*
X88977676Y-91246085D01*
X88977676Y-91246085D02*
X89072914Y-91341323D01*
X89072914Y-91341323D02*
X89120533Y-91436561D01*
X89263390Y-90293704D02*
X89215771Y-90388942D01*
X89215771Y-90388942D02*
X89168152Y-90436561D01*
X89168152Y-90436561D02*
X89072914Y-90484180D01*
X89072914Y-90484180D02*
X89025295Y-90484180D01*
X89025295Y-90484180D02*
X88930057Y-90436561D01*
X88930057Y-90436561D02*
X88882438Y-90388942D01*
X88882438Y-90388942D02*
X88834819Y-90293704D01*
X88834819Y-90293704D02*
X88834819Y-90103228D01*
X88834819Y-90103228D02*
X88882438Y-90007990D01*
X88882438Y-90007990D02*
X88930057Y-89960371D01*
X88930057Y-89960371D02*
X89025295Y-89912752D01*
X89025295Y-89912752D02*
X89072914Y-89912752D01*
X89072914Y-89912752D02*
X89168152Y-89960371D01*
X89168152Y-89960371D02*
X89215771Y-90007990D01*
X89215771Y-90007990D02*
X89263390Y-90103228D01*
X89263390Y-90103228D02*
X89263390Y-90293704D01*
X89263390Y-90293704D02*
X89311009Y-90388942D01*
X89311009Y-90388942D02*
X89358628Y-90436561D01*
X89358628Y-90436561D02*
X89453866Y-90484180D01*
X89453866Y-90484180D02*
X89644342Y-90484180D01*
X89644342Y-90484180D02*
X89739580Y-90436561D01*
X89739580Y-90436561D02*
X89787200Y-90388942D01*
X89787200Y-90388942D02*
X89834819Y-90293704D01*
X89834819Y-90293704D02*
X89834819Y-90103228D01*
X89834819Y-90103228D02*
X89787200Y-90007990D01*
X89787200Y-90007990D02*
X89739580Y-89960371D01*
X89739580Y-89960371D02*
X89644342Y-89912752D01*
X89644342Y-89912752D02*
X89453866Y-89912752D01*
X89453866Y-89912752D02*
X89358628Y-89960371D01*
X89358628Y-89960371D02*
X89311009Y-90007990D01*
X89311009Y-90007990D02*
X89263390Y-90103228D01*
X133954819Y-87261904D02*
X134764342Y-87261904D01*
X134764342Y-87261904D02*
X134859580Y-87214285D01*
X134859580Y-87214285D02*
X134907200Y-87166666D01*
X134907200Y-87166666D02*
X134954819Y-87071428D01*
X134954819Y-87071428D02*
X134954819Y-86880952D01*
X134954819Y-86880952D02*
X134907200Y-86785714D01*
X134907200Y-86785714D02*
X134859580Y-86738095D01*
X134859580Y-86738095D02*
X134764342Y-86690476D01*
X134764342Y-86690476D02*
X133954819Y-86690476D01*
X133954819Y-85738095D02*
X133954819Y-86214285D01*
X133954819Y-86214285D02*
X134431009Y-86261904D01*
X134431009Y-86261904D02*
X134383390Y-86214285D01*
X134383390Y-86214285D02*
X134335771Y-86119047D01*
X134335771Y-86119047D02*
X134335771Y-85880952D01*
X134335771Y-85880952D02*
X134383390Y-85785714D01*
X134383390Y-85785714D02*
X134431009Y-85738095D01*
X134431009Y-85738095D02*
X134526247Y-85690476D01*
X134526247Y-85690476D02*
X134764342Y-85690476D01*
X134764342Y-85690476D02*
X134859580Y-85738095D01*
X134859580Y-85738095D02*
X134907200Y-85785714D01*
X134907200Y-85785714D02*
X134954819Y-85880952D01*
X134954819Y-85880952D02*
X134954819Y-86119047D01*
X134954819Y-86119047D02*
X134907200Y-86214285D01*
X134907200Y-86214285D02*
X134859580Y-86261904D01*
X67204819Y-92559523D02*
X66204819Y-92559523D01*
X66204819Y-92559523D02*
X66919104Y-92226190D01*
X66919104Y-92226190D02*
X66204819Y-91892857D01*
X66204819Y-91892857D02*
X67204819Y-91892857D01*
X66204819Y-91511904D02*
X66204819Y-90892857D01*
X66204819Y-90892857D02*
X66585771Y-91226190D01*
X66585771Y-91226190D02*
X66585771Y-91083333D01*
X66585771Y-91083333D02*
X66633390Y-90988095D01*
X66633390Y-90988095D02*
X66681009Y-90940476D01*
X66681009Y-90940476D02*
X66776247Y-90892857D01*
X66776247Y-90892857D02*
X67014342Y-90892857D01*
X67014342Y-90892857D02*
X67109580Y-90940476D01*
X67109580Y-90940476D02*
X67157200Y-90988095D01*
X67157200Y-90988095D02*
X67204819Y-91083333D01*
X67204819Y-91083333D02*
X67204819Y-91369047D01*
X67204819Y-91369047D02*
X67157200Y-91464285D01*
X67157200Y-91464285D02*
X67109580Y-91511904D01*
X76454819Y-103407857D02*
X75978628Y-103741190D01*
X76454819Y-103979285D02*
X75454819Y-103979285D01*
X75454819Y-103979285D02*
X75454819Y-103598333D01*
X75454819Y-103598333D02*
X75502438Y-103503095D01*
X75502438Y-103503095D02*
X75550057Y-103455476D01*
X75550057Y-103455476D02*
X75645295Y-103407857D01*
X75645295Y-103407857D02*
X75788152Y-103407857D01*
X75788152Y-103407857D02*
X75883390Y-103455476D01*
X75883390Y-103455476D02*
X75931009Y-103503095D01*
X75931009Y-103503095D02*
X75978628Y-103598333D01*
X75978628Y-103598333D02*
X75978628Y-103979285D01*
X76454819Y-102455476D02*
X76454819Y-103026904D01*
X76454819Y-102741190D02*
X75454819Y-102741190D01*
X75454819Y-102741190D02*
X75597676Y-102836428D01*
X75597676Y-102836428D02*
X75692914Y-102931666D01*
X75692914Y-102931666D02*
X75740533Y-103026904D01*
X76454819Y-101503095D02*
X76454819Y-102074523D01*
X76454819Y-101788809D02*
X75454819Y-101788809D01*
X75454819Y-101788809D02*
X75597676Y-101884047D01*
X75597676Y-101884047D02*
X75692914Y-101979285D01*
X75692914Y-101979285D02*
X75740533Y-102074523D01*
X124859580Y-67166666D02*
X124907200Y-67214285D01*
X124907200Y-67214285D02*
X124954819Y-67357142D01*
X124954819Y-67357142D02*
X124954819Y-67452380D01*
X124954819Y-67452380D02*
X124907200Y-67595237D01*
X124907200Y-67595237D02*
X124811961Y-67690475D01*
X124811961Y-67690475D02*
X124716723Y-67738094D01*
X124716723Y-67738094D02*
X124526247Y-67785713D01*
X124526247Y-67785713D02*
X124383390Y-67785713D01*
X124383390Y-67785713D02*
X124192914Y-67738094D01*
X124192914Y-67738094D02*
X124097676Y-67690475D01*
X124097676Y-67690475D02*
X124002438Y-67595237D01*
X124002438Y-67595237D02*
X123954819Y-67452380D01*
X123954819Y-67452380D02*
X123954819Y-67357142D01*
X123954819Y-67357142D02*
X124002438Y-67214285D01*
X124002438Y-67214285D02*
X124050057Y-67166666D01*
X123954819Y-66309523D02*
X123954819Y-66499999D01*
X123954819Y-66499999D02*
X124002438Y-66595237D01*
X124002438Y-66595237D02*
X124050057Y-66642856D01*
X124050057Y-66642856D02*
X124192914Y-66738094D01*
X124192914Y-66738094D02*
X124383390Y-66785713D01*
X124383390Y-66785713D02*
X124764342Y-66785713D01*
X124764342Y-66785713D02*
X124859580Y-66738094D01*
X124859580Y-66738094D02*
X124907200Y-66690475D01*
X124907200Y-66690475D02*
X124954819Y-66595237D01*
X124954819Y-66595237D02*
X124954819Y-66404761D01*
X124954819Y-66404761D02*
X124907200Y-66309523D01*
X124907200Y-66309523D02*
X124859580Y-66261904D01*
X124859580Y-66261904D02*
X124764342Y-66214285D01*
X124764342Y-66214285D02*
X124526247Y-66214285D01*
X124526247Y-66214285D02*
X124431009Y-66261904D01*
X124431009Y-66261904D02*
X124383390Y-66309523D01*
X124383390Y-66309523D02*
X124335771Y-66404761D01*
X124335771Y-66404761D02*
X124335771Y-66595237D01*
X124335771Y-66595237D02*
X124383390Y-66690475D01*
X124383390Y-66690475D02*
X124431009Y-66738094D01*
X124431009Y-66738094D02*
X124526247Y-66785713D01*
X107532142Y-85979819D02*
X107198809Y-85503628D01*
X106960714Y-85979819D02*
X106960714Y-84979819D01*
X106960714Y-84979819D02*
X107341666Y-84979819D01*
X107341666Y-84979819D02*
X107436904Y-85027438D01*
X107436904Y-85027438D02*
X107484523Y-85075057D01*
X107484523Y-85075057D02*
X107532142Y-85170295D01*
X107532142Y-85170295D02*
X107532142Y-85313152D01*
X107532142Y-85313152D02*
X107484523Y-85408390D01*
X107484523Y-85408390D02*
X107436904Y-85456009D01*
X107436904Y-85456009D02*
X107341666Y-85503628D01*
X107341666Y-85503628D02*
X106960714Y-85503628D01*
X108484523Y-85979819D02*
X107913095Y-85979819D01*
X108198809Y-85979819D02*
X108198809Y-84979819D01*
X108198809Y-84979819D02*
X108103571Y-85122676D01*
X108103571Y-85122676D02*
X108008333Y-85217914D01*
X108008333Y-85217914D02*
X107913095Y-85265533D01*
X108960714Y-85979819D02*
X109151190Y-85979819D01*
X109151190Y-85979819D02*
X109246428Y-85932200D01*
X109246428Y-85932200D02*
X109294047Y-85884580D01*
X109294047Y-85884580D02*
X109389285Y-85741723D01*
X109389285Y-85741723D02*
X109436904Y-85551247D01*
X109436904Y-85551247D02*
X109436904Y-85170295D01*
X109436904Y-85170295D02*
X109389285Y-85075057D01*
X109389285Y-85075057D02*
X109341666Y-85027438D01*
X109341666Y-85027438D02*
X109246428Y-84979819D01*
X109246428Y-84979819D02*
X109055952Y-84979819D01*
X109055952Y-84979819D02*
X108960714Y-85027438D01*
X108960714Y-85027438D02*
X108913095Y-85075057D01*
X108913095Y-85075057D02*
X108865476Y-85170295D01*
X108865476Y-85170295D02*
X108865476Y-85408390D01*
X108865476Y-85408390D02*
X108913095Y-85503628D01*
X108913095Y-85503628D02*
X108960714Y-85551247D01*
X108960714Y-85551247D02*
X109055952Y-85598866D01*
X109055952Y-85598866D02*
X109246428Y-85598866D01*
X109246428Y-85598866D02*
X109341666Y-85551247D01*
X109341666Y-85551247D02*
X109389285Y-85503628D01*
X109389285Y-85503628D02*
X109436904Y-85408390D01*
X103264819Y-117858333D02*
X103979104Y-117858333D01*
X103979104Y-117858333D02*
X104121961Y-117905952D01*
X104121961Y-117905952D02*
X104217200Y-118001190D01*
X104217200Y-118001190D02*
X104264819Y-118144047D01*
X104264819Y-118144047D02*
X104264819Y-118239285D01*
X103360057Y-117429761D02*
X103312438Y-117382142D01*
X103312438Y-117382142D02*
X103264819Y-117286904D01*
X103264819Y-117286904D02*
X103264819Y-117048809D01*
X103264819Y-117048809D02*
X103312438Y-116953571D01*
X103312438Y-116953571D02*
X103360057Y-116905952D01*
X103360057Y-116905952D02*
X103455295Y-116858333D01*
X103455295Y-116858333D02*
X103550533Y-116858333D01*
X103550533Y-116858333D02*
X103693390Y-116905952D01*
X103693390Y-116905952D02*
X104264819Y-117477380D01*
X104264819Y-117477380D02*
X104264819Y-116858333D01*
X91857142Y-84359580D02*
X91809523Y-84407200D01*
X91809523Y-84407200D02*
X91666666Y-84454819D01*
X91666666Y-84454819D02*
X91571428Y-84454819D01*
X91571428Y-84454819D02*
X91428571Y-84407200D01*
X91428571Y-84407200D02*
X91333333Y-84311961D01*
X91333333Y-84311961D02*
X91285714Y-84216723D01*
X91285714Y-84216723D02*
X91238095Y-84026247D01*
X91238095Y-84026247D02*
X91238095Y-83883390D01*
X91238095Y-83883390D02*
X91285714Y-83692914D01*
X91285714Y-83692914D02*
X91333333Y-83597676D01*
X91333333Y-83597676D02*
X91428571Y-83502438D01*
X91428571Y-83502438D02*
X91571428Y-83454819D01*
X91571428Y-83454819D02*
X91666666Y-83454819D01*
X91666666Y-83454819D02*
X91809523Y-83502438D01*
X91809523Y-83502438D02*
X91857142Y-83550057D01*
X92809523Y-84454819D02*
X92238095Y-84454819D01*
X92523809Y-84454819D02*
X92523809Y-83454819D01*
X92523809Y-83454819D02*
X92428571Y-83597676D01*
X92428571Y-83597676D02*
X92333333Y-83692914D01*
X92333333Y-83692914D02*
X92238095Y-83740533D01*
X93285714Y-84454819D02*
X93476190Y-84454819D01*
X93476190Y-84454819D02*
X93571428Y-84407200D01*
X93571428Y-84407200D02*
X93619047Y-84359580D01*
X93619047Y-84359580D02*
X93714285Y-84216723D01*
X93714285Y-84216723D02*
X93761904Y-84026247D01*
X93761904Y-84026247D02*
X93761904Y-83645295D01*
X93761904Y-83645295D02*
X93714285Y-83550057D01*
X93714285Y-83550057D02*
X93666666Y-83502438D01*
X93666666Y-83502438D02*
X93571428Y-83454819D01*
X93571428Y-83454819D02*
X93380952Y-83454819D01*
X93380952Y-83454819D02*
X93285714Y-83502438D01*
X93285714Y-83502438D02*
X93238095Y-83550057D01*
X93238095Y-83550057D02*
X93190476Y-83645295D01*
X93190476Y-83645295D02*
X93190476Y-83883390D01*
X93190476Y-83883390D02*
X93238095Y-83978628D01*
X93238095Y-83978628D02*
X93285714Y-84026247D01*
X93285714Y-84026247D02*
X93380952Y-84073866D01*
X93380952Y-84073866D02*
X93571428Y-84073866D01*
X93571428Y-84073866D02*
X93666666Y-84026247D01*
X93666666Y-84026247D02*
X93714285Y-83978628D01*
X93714285Y-83978628D02*
X93761904Y-83883390D01*
X73857142Y-99719819D02*
X73523809Y-99243628D01*
X73285714Y-99719819D02*
X73285714Y-98719819D01*
X73285714Y-98719819D02*
X73666666Y-98719819D01*
X73666666Y-98719819D02*
X73761904Y-98767438D01*
X73761904Y-98767438D02*
X73809523Y-98815057D01*
X73809523Y-98815057D02*
X73857142Y-98910295D01*
X73857142Y-98910295D02*
X73857142Y-99053152D01*
X73857142Y-99053152D02*
X73809523Y-99148390D01*
X73809523Y-99148390D02*
X73761904Y-99196009D01*
X73761904Y-99196009D02*
X73666666Y-99243628D01*
X73666666Y-99243628D02*
X73285714Y-99243628D01*
X74238095Y-98815057D02*
X74285714Y-98767438D01*
X74285714Y-98767438D02*
X74380952Y-98719819D01*
X74380952Y-98719819D02*
X74619047Y-98719819D01*
X74619047Y-98719819D02*
X74714285Y-98767438D01*
X74714285Y-98767438D02*
X74761904Y-98815057D01*
X74761904Y-98815057D02*
X74809523Y-98910295D01*
X74809523Y-98910295D02*
X74809523Y-99005533D01*
X74809523Y-99005533D02*
X74761904Y-99148390D01*
X74761904Y-99148390D02*
X74190476Y-99719819D01*
X74190476Y-99719819D02*
X74809523Y-99719819D01*
X75190476Y-98815057D02*
X75238095Y-98767438D01*
X75238095Y-98767438D02*
X75333333Y-98719819D01*
X75333333Y-98719819D02*
X75571428Y-98719819D01*
X75571428Y-98719819D02*
X75666666Y-98767438D01*
X75666666Y-98767438D02*
X75714285Y-98815057D01*
X75714285Y-98815057D02*
X75761904Y-98910295D01*
X75761904Y-98910295D02*
X75761904Y-99005533D01*
X75761904Y-99005533D02*
X75714285Y-99148390D01*
X75714285Y-99148390D02*
X75142857Y-99719819D01*
X75142857Y-99719819D02*
X75761904Y-99719819D01*
X110867142Y-62839819D02*
X110533809Y-62363628D01*
X110295714Y-62839819D02*
X110295714Y-61839819D01*
X110295714Y-61839819D02*
X110676666Y-61839819D01*
X110676666Y-61839819D02*
X110771904Y-61887438D01*
X110771904Y-61887438D02*
X110819523Y-61935057D01*
X110819523Y-61935057D02*
X110867142Y-62030295D01*
X110867142Y-62030295D02*
X110867142Y-62173152D01*
X110867142Y-62173152D02*
X110819523Y-62268390D01*
X110819523Y-62268390D02*
X110771904Y-62316009D01*
X110771904Y-62316009D02*
X110676666Y-62363628D01*
X110676666Y-62363628D02*
X110295714Y-62363628D01*
X111819523Y-62839819D02*
X111248095Y-62839819D01*
X111533809Y-62839819D02*
X111533809Y-61839819D01*
X111533809Y-61839819D02*
X111438571Y-61982676D01*
X111438571Y-61982676D02*
X111343333Y-62077914D01*
X111343333Y-62077914D02*
X111248095Y-62125533D01*
X112676666Y-61839819D02*
X112486190Y-61839819D01*
X112486190Y-61839819D02*
X112390952Y-61887438D01*
X112390952Y-61887438D02*
X112343333Y-61935057D01*
X112343333Y-61935057D02*
X112248095Y-62077914D01*
X112248095Y-62077914D02*
X112200476Y-62268390D01*
X112200476Y-62268390D02*
X112200476Y-62649342D01*
X112200476Y-62649342D02*
X112248095Y-62744580D01*
X112248095Y-62744580D02*
X112295714Y-62792200D01*
X112295714Y-62792200D02*
X112390952Y-62839819D01*
X112390952Y-62839819D02*
X112581428Y-62839819D01*
X112581428Y-62839819D02*
X112676666Y-62792200D01*
X112676666Y-62792200D02*
X112724285Y-62744580D01*
X112724285Y-62744580D02*
X112771904Y-62649342D01*
X112771904Y-62649342D02*
X112771904Y-62411247D01*
X112771904Y-62411247D02*
X112724285Y-62316009D01*
X112724285Y-62316009D02*
X112676666Y-62268390D01*
X112676666Y-62268390D02*
X112581428Y-62220771D01*
X112581428Y-62220771D02*
X112390952Y-62220771D01*
X112390952Y-62220771D02*
X112295714Y-62268390D01*
X112295714Y-62268390D02*
X112248095Y-62316009D01*
X112248095Y-62316009D02*
X112200476Y-62411247D01*
X107532142Y-88479819D02*
X107198809Y-88003628D01*
X106960714Y-88479819D02*
X106960714Y-87479819D01*
X106960714Y-87479819D02*
X107341666Y-87479819D01*
X107341666Y-87479819D02*
X107436904Y-87527438D01*
X107436904Y-87527438D02*
X107484523Y-87575057D01*
X107484523Y-87575057D02*
X107532142Y-87670295D01*
X107532142Y-87670295D02*
X107532142Y-87813152D01*
X107532142Y-87813152D02*
X107484523Y-87908390D01*
X107484523Y-87908390D02*
X107436904Y-87956009D01*
X107436904Y-87956009D02*
X107341666Y-88003628D01*
X107341666Y-88003628D02*
X106960714Y-88003628D01*
X108484523Y-88479819D02*
X107913095Y-88479819D01*
X108198809Y-88479819D02*
X108198809Y-87479819D01*
X108198809Y-87479819D02*
X108103571Y-87622676D01*
X108103571Y-87622676D02*
X108008333Y-87717914D01*
X108008333Y-87717914D02*
X107913095Y-87765533D01*
X109055952Y-87908390D02*
X108960714Y-87860771D01*
X108960714Y-87860771D02*
X108913095Y-87813152D01*
X108913095Y-87813152D02*
X108865476Y-87717914D01*
X108865476Y-87717914D02*
X108865476Y-87670295D01*
X108865476Y-87670295D02*
X108913095Y-87575057D01*
X108913095Y-87575057D02*
X108960714Y-87527438D01*
X108960714Y-87527438D02*
X109055952Y-87479819D01*
X109055952Y-87479819D02*
X109246428Y-87479819D01*
X109246428Y-87479819D02*
X109341666Y-87527438D01*
X109341666Y-87527438D02*
X109389285Y-87575057D01*
X109389285Y-87575057D02*
X109436904Y-87670295D01*
X109436904Y-87670295D02*
X109436904Y-87717914D01*
X109436904Y-87717914D02*
X109389285Y-87813152D01*
X109389285Y-87813152D02*
X109341666Y-87860771D01*
X109341666Y-87860771D02*
X109246428Y-87908390D01*
X109246428Y-87908390D02*
X109055952Y-87908390D01*
X109055952Y-87908390D02*
X108960714Y-87956009D01*
X108960714Y-87956009D02*
X108913095Y-88003628D01*
X108913095Y-88003628D02*
X108865476Y-88098866D01*
X108865476Y-88098866D02*
X108865476Y-88289342D01*
X108865476Y-88289342D02*
X108913095Y-88384580D01*
X108913095Y-88384580D02*
X108960714Y-88432200D01*
X108960714Y-88432200D02*
X109055952Y-88479819D01*
X109055952Y-88479819D02*
X109246428Y-88479819D01*
X109246428Y-88479819D02*
X109341666Y-88432200D01*
X109341666Y-88432200D02*
X109389285Y-88384580D01*
X109389285Y-88384580D02*
X109436904Y-88289342D01*
X109436904Y-88289342D02*
X109436904Y-88098866D01*
X109436904Y-88098866D02*
X109389285Y-88003628D01*
X109389285Y-88003628D02*
X109341666Y-87956009D01*
X109341666Y-87956009D02*
X109246428Y-87908390D01*
X103109580Y-101142857D02*
X103157200Y-101190476D01*
X103157200Y-101190476D02*
X103204819Y-101333333D01*
X103204819Y-101333333D02*
X103204819Y-101428571D01*
X103204819Y-101428571D02*
X103157200Y-101571428D01*
X103157200Y-101571428D02*
X103061961Y-101666666D01*
X103061961Y-101666666D02*
X102966723Y-101714285D01*
X102966723Y-101714285D02*
X102776247Y-101761904D01*
X102776247Y-101761904D02*
X102633390Y-101761904D01*
X102633390Y-101761904D02*
X102442914Y-101714285D01*
X102442914Y-101714285D02*
X102347676Y-101666666D01*
X102347676Y-101666666D02*
X102252438Y-101571428D01*
X102252438Y-101571428D02*
X102204819Y-101428571D01*
X102204819Y-101428571D02*
X102204819Y-101333333D01*
X102204819Y-101333333D02*
X102252438Y-101190476D01*
X102252438Y-101190476D02*
X102300057Y-101142857D01*
X103204819Y-100190476D02*
X103204819Y-100761904D01*
X103204819Y-100476190D02*
X102204819Y-100476190D01*
X102204819Y-100476190D02*
X102347676Y-100571428D01*
X102347676Y-100571428D02*
X102442914Y-100666666D01*
X102442914Y-100666666D02*
X102490533Y-100761904D01*
X102204819Y-99857142D02*
X102204819Y-99238095D01*
X102204819Y-99238095D02*
X102585771Y-99571428D01*
X102585771Y-99571428D02*
X102585771Y-99428571D01*
X102585771Y-99428571D02*
X102633390Y-99333333D01*
X102633390Y-99333333D02*
X102681009Y-99285714D01*
X102681009Y-99285714D02*
X102776247Y-99238095D01*
X102776247Y-99238095D02*
X103014342Y-99238095D01*
X103014342Y-99238095D02*
X103109580Y-99285714D01*
X103109580Y-99285714D02*
X103157200Y-99333333D01*
X103157200Y-99333333D02*
X103204819Y-99428571D01*
X103204819Y-99428571D02*
X103204819Y-99714285D01*
X103204819Y-99714285D02*
X103157200Y-99809523D01*
X103157200Y-99809523D02*
X103109580Y-99857142D01*
X73454819Y-76809523D02*
X72454819Y-76809523D01*
X72454819Y-76809523D02*
X73169104Y-76476190D01*
X73169104Y-76476190D02*
X72454819Y-76142857D01*
X72454819Y-76142857D02*
X73454819Y-76142857D01*
X72550057Y-75714285D02*
X72502438Y-75666666D01*
X72502438Y-75666666D02*
X72454819Y-75571428D01*
X72454819Y-75571428D02*
X72454819Y-75333333D01*
X72454819Y-75333333D02*
X72502438Y-75238095D01*
X72502438Y-75238095D02*
X72550057Y-75190476D01*
X72550057Y-75190476D02*
X72645295Y-75142857D01*
X72645295Y-75142857D02*
X72740533Y-75142857D01*
X72740533Y-75142857D02*
X72883390Y-75190476D01*
X72883390Y-75190476D02*
X73454819Y-75761904D01*
X73454819Y-75761904D02*
X73454819Y-75142857D01*
X149297319Y-102369404D02*
X150106842Y-102369404D01*
X150106842Y-102369404D02*
X150202080Y-102321785D01*
X150202080Y-102321785D02*
X150249700Y-102274166D01*
X150249700Y-102274166D02*
X150297319Y-102178928D01*
X150297319Y-102178928D02*
X150297319Y-101988452D01*
X150297319Y-101988452D02*
X150249700Y-101893214D01*
X150249700Y-101893214D02*
X150202080Y-101845595D01*
X150202080Y-101845595D02*
X150106842Y-101797976D01*
X150106842Y-101797976D02*
X149297319Y-101797976D01*
X149630652Y-100893214D02*
X150297319Y-100893214D01*
X149249700Y-101131309D02*
X149963985Y-101369404D01*
X149963985Y-101369404D02*
X149963985Y-100750357D01*
X110954819Y-72713094D02*
X109954819Y-72713094D01*
X109954819Y-72713094D02*
X109954819Y-72474999D01*
X109954819Y-72474999D02*
X110002438Y-72332142D01*
X110002438Y-72332142D02*
X110097676Y-72236904D01*
X110097676Y-72236904D02*
X110192914Y-72189285D01*
X110192914Y-72189285D02*
X110383390Y-72141666D01*
X110383390Y-72141666D02*
X110526247Y-72141666D01*
X110526247Y-72141666D02*
X110716723Y-72189285D01*
X110716723Y-72189285D02*
X110811961Y-72236904D01*
X110811961Y-72236904D02*
X110907200Y-72332142D01*
X110907200Y-72332142D02*
X110954819Y-72474999D01*
X110954819Y-72474999D02*
X110954819Y-72713094D01*
X110288152Y-71284523D02*
X110954819Y-71284523D01*
X109907200Y-71522618D02*
X110621485Y-71760713D01*
X110621485Y-71760713D02*
X110621485Y-71141666D01*
X111738095Y-104954819D02*
X111738095Y-105764342D01*
X111738095Y-105764342D02*
X111785714Y-105859580D01*
X111785714Y-105859580D02*
X111833333Y-105907200D01*
X111833333Y-105907200D02*
X111928571Y-105954819D01*
X111928571Y-105954819D02*
X112119047Y-105954819D01*
X112119047Y-105954819D02*
X112214285Y-105907200D01*
X112214285Y-105907200D02*
X112261904Y-105859580D01*
X112261904Y-105859580D02*
X112309523Y-105764342D01*
X112309523Y-105764342D02*
X112309523Y-104954819D01*
X112738095Y-105050057D02*
X112785714Y-105002438D01*
X112785714Y-105002438D02*
X112880952Y-104954819D01*
X112880952Y-104954819D02*
X113119047Y-104954819D01*
X113119047Y-104954819D02*
X113214285Y-105002438D01*
X113214285Y-105002438D02*
X113261904Y-105050057D01*
X113261904Y-105050057D02*
X113309523Y-105145295D01*
X113309523Y-105145295D02*
X113309523Y-105240533D01*
X113309523Y-105240533D02*
X113261904Y-105383390D01*
X113261904Y-105383390D02*
X112690476Y-105954819D01*
X112690476Y-105954819D02*
X113309523Y-105954819D01*
X118984819Y-70404285D02*
X117984819Y-70404285D01*
X117984819Y-70404285D02*
X117984819Y-70166190D01*
X117984819Y-70166190D02*
X118032438Y-70023333D01*
X118032438Y-70023333D02*
X118127676Y-69928095D01*
X118127676Y-69928095D02*
X118222914Y-69880476D01*
X118222914Y-69880476D02*
X118413390Y-69832857D01*
X118413390Y-69832857D02*
X118556247Y-69832857D01*
X118556247Y-69832857D02*
X118746723Y-69880476D01*
X118746723Y-69880476D02*
X118841961Y-69928095D01*
X118841961Y-69928095D02*
X118937200Y-70023333D01*
X118937200Y-70023333D02*
X118984819Y-70166190D01*
X118984819Y-70166190D02*
X118984819Y-70404285D01*
X118984819Y-68880476D02*
X118984819Y-69451904D01*
X118984819Y-69166190D02*
X117984819Y-69166190D01*
X117984819Y-69166190D02*
X118127676Y-69261428D01*
X118127676Y-69261428D02*
X118222914Y-69356666D01*
X118222914Y-69356666D02*
X118270533Y-69451904D01*
X118318152Y-68023333D02*
X118984819Y-68023333D01*
X117937200Y-68261428D02*
X118651485Y-68499523D01*
X118651485Y-68499523D02*
X118651485Y-67880476D01*
X119554819Y-73261904D02*
X118554819Y-73261904D01*
X119554819Y-72690476D02*
X118983390Y-73119047D01*
X118554819Y-72690476D02*
X119126247Y-73261904D01*
X101357142Y-64454819D02*
X101023809Y-63978628D01*
X100785714Y-64454819D02*
X100785714Y-63454819D01*
X100785714Y-63454819D02*
X101166666Y-63454819D01*
X101166666Y-63454819D02*
X101261904Y-63502438D01*
X101261904Y-63502438D02*
X101309523Y-63550057D01*
X101309523Y-63550057D02*
X101357142Y-63645295D01*
X101357142Y-63645295D02*
X101357142Y-63788152D01*
X101357142Y-63788152D02*
X101309523Y-63883390D01*
X101309523Y-63883390D02*
X101261904Y-63931009D01*
X101261904Y-63931009D02*
X101166666Y-63978628D01*
X101166666Y-63978628D02*
X100785714Y-63978628D01*
X102309523Y-64454819D02*
X101738095Y-64454819D01*
X102023809Y-64454819D02*
X102023809Y-63454819D01*
X102023809Y-63454819D02*
X101928571Y-63597676D01*
X101928571Y-63597676D02*
X101833333Y-63692914D01*
X101833333Y-63692914D02*
X101738095Y-63740533D01*
X103166666Y-63788152D02*
X103166666Y-64454819D01*
X102928571Y-63407200D02*
X102690476Y-64121485D01*
X102690476Y-64121485D02*
X103309523Y-64121485D01*
X113454819Y-72713094D02*
X112454819Y-72713094D01*
X112454819Y-72713094D02*
X112454819Y-72474999D01*
X112454819Y-72474999D02*
X112502438Y-72332142D01*
X112502438Y-72332142D02*
X112597676Y-72236904D01*
X112597676Y-72236904D02*
X112692914Y-72189285D01*
X112692914Y-72189285D02*
X112883390Y-72141666D01*
X112883390Y-72141666D02*
X113026247Y-72141666D01*
X113026247Y-72141666D02*
X113216723Y-72189285D01*
X113216723Y-72189285D02*
X113311961Y-72236904D01*
X113311961Y-72236904D02*
X113407200Y-72332142D01*
X113407200Y-72332142D02*
X113454819Y-72474999D01*
X113454819Y-72474999D02*
X113454819Y-72713094D01*
X112454819Y-71808332D02*
X112454819Y-71189285D01*
X112454819Y-71189285D02*
X112835771Y-71522618D01*
X112835771Y-71522618D02*
X112835771Y-71379761D01*
X112835771Y-71379761D02*
X112883390Y-71284523D01*
X112883390Y-71284523D02*
X112931009Y-71236904D01*
X112931009Y-71236904D02*
X113026247Y-71189285D01*
X113026247Y-71189285D02*
X113264342Y-71189285D01*
X113264342Y-71189285D02*
X113359580Y-71236904D01*
X113359580Y-71236904D02*
X113407200Y-71284523D01*
X113407200Y-71284523D02*
X113454819Y-71379761D01*
X113454819Y-71379761D02*
X113454819Y-71665475D01*
X113454819Y-71665475D02*
X113407200Y-71760713D01*
X113407200Y-71760713D02*
X113359580Y-71808332D01*
X76134580Y-65900357D02*
X76182200Y-65947976D01*
X76182200Y-65947976D02*
X76229819Y-66090833D01*
X76229819Y-66090833D02*
X76229819Y-66186071D01*
X76229819Y-66186071D02*
X76182200Y-66328928D01*
X76182200Y-66328928D02*
X76086961Y-66424166D01*
X76086961Y-66424166D02*
X75991723Y-66471785D01*
X75991723Y-66471785D02*
X75801247Y-66519404D01*
X75801247Y-66519404D02*
X75658390Y-66519404D01*
X75658390Y-66519404D02*
X75467914Y-66471785D01*
X75467914Y-66471785D02*
X75372676Y-66424166D01*
X75372676Y-66424166D02*
X75277438Y-66328928D01*
X75277438Y-66328928D02*
X75229819Y-66186071D01*
X75229819Y-66186071D02*
X75229819Y-66090833D01*
X75229819Y-66090833D02*
X75277438Y-65947976D01*
X75277438Y-65947976D02*
X75325057Y-65900357D01*
X76229819Y-64947976D02*
X76229819Y-65519404D01*
X76229819Y-65233690D02*
X75229819Y-65233690D01*
X75229819Y-65233690D02*
X75372676Y-65328928D01*
X75372676Y-65328928D02*
X75467914Y-65424166D01*
X75467914Y-65424166D02*
X75515533Y-65519404D01*
X75229819Y-64090833D02*
X75229819Y-64281309D01*
X75229819Y-64281309D02*
X75277438Y-64376547D01*
X75277438Y-64376547D02*
X75325057Y-64424166D01*
X75325057Y-64424166D02*
X75467914Y-64519404D01*
X75467914Y-64519404D02*
X75658390Y-64567023D01*
X75658390Y-64567023D02*
X76039342Y-64567023D01*
X76039342Y-64567023D02*
X76134580Y-64519404D01*
X76134580Y-64519404D02*
X76182200Y-64471785D01*
X76182200Y-64471785D02*
X76229819Y-64376547D01*
X76229819Y-64376547D02*
X76229819Y-64186071D01*
X76229819Y-64186071D02*
X76182200Y-64090833D01*
X76182200Y-64090833D02*
X76134580Y-64043214D01*
X76134580Y-64043214D02*
X76039342Y-63995595D01*
X76039342Y-63995595D02*
X75801247Y-63995595D01*
X75801247Y-63995595D02*
X75706009Y-64043214D01*
X75706009Y-64043214D02*
X75658390Y-64090833D01*
X75658390Y-64090833D02*
X75610771Y-64186071D01*
X75610771Y-64186071D02*
X75610771Y-64376547D01*
X75610771Y-64376547D02*
X75658390Y-64471785D01*
X75658390Y-64471785D02*
X75706009Y-64519404D01*
X75706009Y-64519404D02*
X75801247Y-64567023D01*
X117104819Y-75142857D02*
X116628628Y-75476190D01*
X117104819Y-75714285D02*
X116104819Y-75714285D01*
X116104819Y-75714285D02*
X116104819Y-75333333D01*
X116104819Y-75333333D02*
X116152438Y-75238095D01*
X116152438Y-75238095D02*
X116200057Y-75190476D01*
X116200057Y-75190476D02*
X116295295Y-75142857D01*
X116295295Y-75142857D02*
X116438152Y-75142857D01*
X116438152Y-75142857D02*
X116533390Y-75190476D01*
X116533390Y-75190476D02*
X116581009Y-75238095D01*
X116581009Y-75238095D02*
X116628628Y-75333333D01*
X116628628Y-75333333D02*
X116628628Y-75714285D01*
X116200057Y-74761904D02*
X116152438Y-74714285D01*
X116152438Y-74714285D02*
X116104819Y-74619047D01*
X116104819Y-74619047D02*
X116104819Y-74380952D01*
X116104819Y-74380952D02*
X116152438Y-74285714D01*
X116152438Y-74285714D02*
X116200057Y-74238095D01*
X116200057Y-74238095D02*
X116295295Y-74190476D01*
X116295295Y-74190476D02*
X116390533Y-74190476D01*
X116390533Y-74190476D02*
X116533390Y-74238095D01*
X116533390Y-74238095D02*
X117104819Y-74809523D01*
X117104819Y-74809523D02*
X117104819Y-74190476D01*
X116104819Y-73857142D02*
X116104819Y-73238095D01*
X116104819Y-73238095D02*
X116485771Y-73571428D01*
X116485771Y-73571428D02*
X116485771Y-73428571D01*
X116485771Y-73428571D02*
X116533390Y-73333333D01*
X116533390Y-73333333D02*
X116581009Y-73285714D01*
X116581009Y-73285714D02*
X116676247Y-73238095D01*
X116676247Y-73238095D02*
X116914342Y-73238095D01*
X116914342Y-73238095D02*
X117009580Y-73285714D01*
X117009580Y-73285714D02*
X117057200Y-73333333D01*
X117057200Y-73333333D02*
X117104819Y-73428571D01*
X117104819Y-73428571D02*
X117104819Y-73714285D01*
X117104819Y-73714285D02*
X117057200Y-73809523D01*
X117057200Y-73809523D02*
X117009580Y-73857142D01*
X117333333Y-82285621D02*
X117285714Y-82333241D01*
X117285714Y-82333241D02*
X117142857Y-82380860D01*
X117142857Y-82380860D02*
X117047619Y-82380860D01*
X117047619Y-82380860D02*
X116904762Y-82333241D01*
X116904762Y-82333241D02*
X116809524Y-82238002D01*
X116809524Y-82238002D02*
X116761905Y-82142764D01*
X116761905Y-82142764D02*
X116714286Y-81952288D01*
X116714286Y-81952288D02*
X116714286Y-81809431D01*
X116714286Y-81809431D02*
X116761905Y-81618955D01*
X116761905Y-81618955D02*
X116809524Y-81523717D01*
X116809524Y-81523717D02*
X116904762Y-81428479D01*
X116904762Y-81428479D02*
X117047619Y-81380860D01*
X117047619Y-81380860D02*
X117142857Y-81380860D01*
X117142857Y-81380860D02*
X117285714Y-81428479D01*
X117285714Y-81428479D02*
X117333333Y-81476098D01*
X117904762Y-81809431D02*
X117809524Y-81761812D01*
X117809524Y-81761812D02*
X117761905Y-81714193D01*
X117761905Y-81714193D02*
X117714286Y-81618955D01*
X117714286Y-81618955D02*
X117714286Y-81571336D01*
X117714286Y-81571336D02*
X117761905Y-81476098D01*
X117761905Y-81476098D02*
X117809524Y-81428479D01*
X117809524Y-81428479D02*
X117904762Y-81380860D01*
X117904762Y-81380860D02*
X118095238Y-81380860D01*
X118095238Y-81380860D02*
X118190476Y-81428479D01*
X118190476Y-81428479D02*
X118238095Y-81476098D01*
X118238095Y-81476098D02*
X118285714Y-81571336D01*
X118285714Y-81571336D02*
X118285714Y-81618955D01*
X118285714Y-81618955D02*
X118238095Y-81714193D01*
X118238095Y-81714193D02*
X118190476Y-81761812D01*
X118190476Y-81761812D02*
X118095238Y-81809431D01*
X118095238Y-81809431D02*
X117904762Y-81809431D01*
X117904762Y-81809431D02*
X117809524Y-81857050D01*
X117809524Y-81857050D02*
X117761905Y-81904669D01*
X117761905Y-81904669D02*
X117714286Y-81999907D01*
X117714286Y-81999907D02*
X117714286Y-82190383D01*
X117714286Y-82190383D02*
X117761905Y-82285621D01*
X117761905Y-82285621D02*
X117809524Y-82333241D01*
X117809524Y-82333241D02*
X117904762Y-82380860D01*
X117904762Y-82380860D02*
X118095238Y-82380860D01*
X118095238Y-82380860D02*
X118190476Y-82333241D01*
X118190476Y-82333241D02*
X118238095Y-82285621D01*
X118238095Y-82285621D02*
X118285714Y-82190383D01*
X118285714Y-82190383D02*
X118285714Y-81999907D01*
X118285714Y-81999907D02*
X118238095Y-81904669D01*
X118238095Y-81904669D02*
X118190476Y-81857050D01*
X118190476Y-81857050D02*
X118095238Y-81809431D01*
X116954819Y-85687945D02*
X117764342Y-85687945D01*
X117764342Y-85687945D02*
X117859580Y-85640326D01*
X117859580Y-85640326D02*
X117907200Y-85592707D01*
X117907200Y-85592707D02*
X117954819Y-85497469D01*
X117954819Y-85497469D02*
X117954819Y-85306993D01*
X117954819Y-85306993D02*
X117907200Y-85211755D01*
X117907200Y-85211755D02*
X117859580Y-85164136D01*
X117859580Y-85164136D02*
X117764342Y-85116517D01*
X117764342Y-85116517D02*
X116954819Y-85116517D01*
X116954819Y-84735564D02*
X116954819Y-84068898D01*
X116954819Y-84068898D02*
X117954819Y-84497469D01*
X117454819Y-70738094D02*
X116454819Y-70738094D01*
X116454819Y-70738094D02*
X116454819Y-70499999D01*
X116454819Y-70499999D02*
X116502438Y-70357142D01*
X116502438Y-70357142D02*
X116597676Y-70261904D01*
X116597676Y-70261904D02*
X116692914Y-70214285D01*
X116692914Y-70214285D02*
X116883390Y-70166666D01*
X116883390Y-70166666D02*
X117026247Y-70166666D01*
X117026247Y-70166666D02*
X117216723Y-70214285D01*
X117216723Y-70214285D02*
X117311961Y-70261904D01*
X117311961Y-70261904D02*
X117407200Y-70357142D01*
X117407200Y-70357142D02*
X117454819Y-70499999D01*
X117454819Y-70499999D02*
X117454819Y-70738094D01*
X116454819Y-69261904D02*
X116454819Y-69738094D01*
X116454819Y-69738094D02*
X116931009Y-69785713D01*
X116931009Y-69785713D02*
X116883390Y-69738094D01*
X116883390Y-69738094D02*
X116835771Y-69642856D01*
X116835771Y-69642856D02*
X116835771Y-69404761D01*
X116835771Y-69404761D02*
X116883390Y-69309523D01*
X116883390Y-69309523D02*
X116931009Y-69261904D01*
X116931009Y-69261904D02*
X117026247Y-69214285D01*
X117026247Y-69214285D02*
X117264342Y-69214285D01*
X117264342Y-69214285D02*
X117359580Y-69261904D01*
X117359580Y-69261904D02*
X117407200Y-69309523D01*
X117407200Y-69309523D02*
X117454819Y-69404761D01*
X117454819Y-69404761D02*
X117454819Y-69642856D01*
X117454819Y-69642856D02*
X117407200Y-69738094D01*
X117407200Y-69738094D02*
X117359580Y-69785713D01*
X123454819Y-74140436D02*
X122978628Y-74473769D01*
X123454819Y-74711864D02*
X122454819Y-74711864D01*
X122454819Y-74711864D02*
X122454819Y-74330912D01*
X122454819Y-74330912D02*
X122502438Y-74235674D01*
X122502438Y-74235674D02*
X122550057Y-74188055D01*
X122550057Y-74188055D02*
X122645295Y-74140436D01*
X122645295Y-74140436D02*
X122788152Y-74140436D01*
X122788152Y-74140436D02*
X122883390Y-74188055D01*
X122883390Y-74188055D02*
X122931009Y-74235674D01*
X122931009Y-74235674D02*
X122978628Y-74330912D01*
X122978628Y-74330912D02*
X122978628Y-74711864D01*
X122454819Y-73807102D02*
X122454819Y-73140436D01*
X122454819Y-73140436D02*
X123454819Y-73569007D01*
X77954819Y-114904285D02*
X76954819Y-114904285D01*
X76954819Y-114904285D02*
X76954819Y-114666190D01*
X76954819Y-114666190D02*
X77002438Y-114523333D01*
X77002438Y-114523333D02*
X77097676Y-114428095D01*
X77097676Y-114428095D02*
X77192914Y-114380476D01*
X77192914Y-114380476D02*
X77383390Y-114332857D01*
X77383390Y-114332857D02*
X77526247Y-114332857D01*
X77526247Y-114332857D02*
X77716723Y-114380476D01*
X77716723Y-114380476D02*
X77811961Y-114428095D01*
X77811961Y-114428095D02*
X77907200Y-114523333D01*
X77907200Y-114523333D02*
X77954819Y-114666190D01*
X77954819Y-114666190D02*
X77954819Y-114904285D01*
X77954819Y-113380476D02*
X77954819Y-113951904D01*
X77954819Y-113666190D02*
X76954819Y-113666190D01*
X76954819Y-113666190D02*
X77097676Y-113761428D01*
X77097676Y-113761428D02*
X77192914Y-113856666D01*
X77192914Y-113856666D02*
X77240533Y-113951904D01*
X76954819Y-113047142D02*
X76954819Y-112428095D01*
X76954819Y-112428095D02*
X77335771Y-112761428D01*
X77335771Y-112761428D02*
X77335771Y-112618571D01*
X77335771Y-112618571D02*
X77383390Y-112523333D01*
X77383390Y-112523333D02*
X77431009Y-112475714D01*
X77431009Y-112475714D02*
X77526247Y-112428095D01*
X77526247Y-112428095D02*
X77764342Y-112428095D01*
X77764342Y-112428095D02*
X77859580Y-112475714D01*
X77859580Y-112475714D02*
X77907200Y-112523333D01*
X77907200Y-112523333D02*
X77954819Y-112618571D01*
X77954819Y-112618571D02*
X77954819Y-112904285D01*
X77954819Y-112904285D02*
X77907200Y-112999523D01*
X77907200Y-112999523D02*
X77859580Y-113047142D01*
X73954819Y-118451904D02*
X72954819Y-118451904D01*
X73954819Y-117880476D02*
X73383390Y-118309047D01*
X72954819Y-117880476D02*
X73526247Y-118451904D01*
X129193333Y-95609580D02*
X129145714Y-95657200D01*
X129145714Y-95657200D02*
X129002857Y-95704819D01*
X129002857Y-95704819D02*
X128907619Y-95704819D01*
X128907619Y-95704819D02*
X128764762Y-95657200D01*
X128764762Y-95657200D02*
X128669524Y-95561961D01*
X128669524Y-95561961D02*
X128621905Y-95466723D01*
X128621905Y-95466723D02*
X128574286Y-95276247D01*
X128574286Y-95276247D02*
X128574286Y-95133390D01*
X128574286Y-95133390D02*
X128621905Y-94942914D01*
X128621905Y-94942914D02*
X128669524Y-94847676D01*
X128669524Y-94847676D02*
X128764762Y-94752438D01*
X128764762Y-94752438D02*
X128907619Y-94704819D01*
X128907619Y-94704819D02*
X129002857Y-94704819D01*
X129002857Y-94704819D02*
X129145714Y-94752438D01*
X129145714Y-94752438D02*
X129193333Y-94800057D01*
X129526667Y-94704819D02*
X130145714Y-94704819D01*
X130145714Y-94704819D02*
X129812381Y-95085771D01*
X129812381Y-95085771D02*
X129955238Y-95085771D01*
X129955238Y-95085771D02*
X130050476Y-95133390D01*
X130050476Y-95133390D02*
X130098095Y-95181009D01*
X130098095Y-95181009D02*
X130145714Y-95276247D01*
X130145714Y-95276247D02*
X130145714Y-95514342D01*
X130145714Y-95514342D02*
X130098095Y-95609580D01*
X130098095Y-95609580D02*
X130050476Y-95657200D01*
X130050476Y-95657200D02*
X129955238Y-95704819D01*
X129955238Y-95704819D02*
X129669524Y-95704819D01*
X129669524Y-95704819D02*
X129574286Y-95657200D01*
X129574286Y-95657200D02*
X129526667Y-95609580D01*
X109454819Y-72738094D02*
X108454819Y-72738094D01*
X108454819Y-72738094D02*
X108454819Y-72499999D01*
X108454819Y-72499999D02*
X108502438Y-72357142D01*
X108502438Y-72357142D02*
X108597676Y-72261904D01*
X108597676Y-72261904D02*
X108692914Y-72214285D01*
X108692914Y-72214285D02*
X108883390Y-72166666D01*
X108883390Y-72166666D02*
X109026247Y-72166666D01*
X109026247Y-72166666D02*
X109216723Y-72214285D01*
X109216723Y-72214285D02*
X109311961Y-72261904D01*
X109311961Y-72261904D02*
X109407200Y-72357142D01*
X109407200Y-72357142D02*
X109454819Y-72499999D01*
X109454819Y-72499999D02*
X109454819Y-72738094D01*
X108883390Y-71595237D02*
X108835771Y-71690475D01*
X108835771Y-71690475D02*
X108788152Y-71738094D01*
X108788152Y-71738094D02*
X108692914Y-71785713D01*
X108692914Y-71785713D02*
X108645295Y-71785713D01*
X108645295Y-71785713D02*
X108550057Y-71738094D01*
X108550057Y-71738094D02*
X108502438Y-71690475D01*
X108502438Y-71690475D02*
X108454819Y-71595237D01*
X108454819Y-71595237D02*
X108454819Y-71404761D01*
X108454819Y-71404761D02*
X108502438Y-71309523D01*
X108502438Y-71309523D02*
X108550057Y-71261904D01*
X108550057Y-71261904D02*
X108645295Y-71214285D01*
X108645295Y-71214285D02*
X108692914Y-71214285D01*
X108692914Y-71214285D02*
X108788152Y-71261904D01*
X108788152Y-71261904D02*
X108835771Y-71309523D01*
X108835771Y-71309523D02*
X108883390Y-71404761D01*
X108883390Y-71404761D02*
X108883390Y-71595237D01*
X108883390Y-71595237D02*
X108931009Y-71690475D01*
X108931009Y-71690475D02*
X108978628Y-71738094D01*
X108978628Y-71738094D02*
X109073866Y-71785713D01*
X109073866Y-71785713D02*
X109264342Y-71785713D01*
X109264342Y-71785713D02*
X109359580Y-71738094D01*
X109359580Y-71738094D02*
X109407200Y-71690475D01*
X109407200Y-71690475D02*
X109454819Y-71595237D01*
X109454819Y-71595237D02*
X109454819Y-71404761D01*
X109454819Y-71404761D02*
X109407200Y-71309523D01*
X109407200Y-71309523D02*
X109359580Y-71261904D01*
X109359580Y-71261904D02*
X109264342Y-71214285D01*
X109264342Y-71214285D02*
X109073866Y-71214285D01*
X109073866Y-71214285D02*
X108978628Y-71261904D01*
X108978628Y-71261904D02*
X108931009Y-71309523D01*
X108931009Y-71309523D02*
X108883390Y-71404761D01*
X117388333Y-95745621D02*
X117340714Y-95793241D01*
X117340714Y-95793241D02*
X117197857Y-95840860D01*
X117197857Y-95840860D02*
X117102619Y-95840860D01*
X117102619Y-95840860D02*
X116959762Y-95793241D01*
X116959762Y-95793241D02*
X116864524Y-95698002D01*
X116864524Y-95698002D02*
X116816905Y-95602764D01*
X116816905Y-95602764D02*
X116769286Y-95412288D01*
X116769286Y-95412288D02*
X116769286Y-95269431D01*
X116769286Y-95269431D02*
X116816905Y-95078955D01*
X116816905Y-95078955D02*
X116864524Y-94983717D01*
X116864524Y-94983717D02*
X116959762Y-94888479D01*
X116959762Y-94888479D02*
X117102619Y-94840860D01*
X117102619Y-94840860D02*
X117197857Y-94840860D01*
X117197857Y-94840860D02*
X117340714Y-94888479D01*
X117340714Y-94888479D02*
X117388333Y-94936098D01*
X117721667Y-94840860D02*
X118388333Y-94840860D01*
X118388333Y-94840860D02*
X117959762Y-95840860D01*
X69954819Y-85436904D02*
X70764342Y-85436904D01*
X70764342Y-85436904D02*
X70859580Y-85389285D01*
X70859580Y-85389285D02*
X70907200Y-85341666D01*
X70907200Y-85341666D02*
X70954819Y-85246428D01*
X70954819Y-85246428D02*
X70954819Y-85055952D01*
X70954819Y-85055952D02*
X70907200Y-84960714D01*
X70907200Y-84960714D02*
X70859580Y-84913095D01*
X70859580Y-84913095D02*
X70764342Y-84865476D01*
X70764342Y-84865476D02*
X69954819Y-84865476D01*
X69954819Y-84484523D02*
X69954819Y-83865476D01*
X69954819Y-83865476D02*
X70335771Y-84198809D01*
X70335771Y-84198809D02*
X70335771Y-84055952D01*
X70335771Y-84055952D02*
X70383390Y-83960714D01*
X70383390Y-83960714D02*
X70431009Y-83913095D01*
X70431009Y-83913095D02*
X70526247Y-83865476D01*
X70526247Y-83865476D02*
X70764342Y-83865476D01*
X70764342Y-83865476D02*
X70859580Y-83913095D01*
X70859580Y-83913095D02*
X70907200Y-83960714D01*
X70907200Y-83960714D02*
X70954819Y-84055952D01*
X70954819Y-84055952D02*
X70954819Y-84341666D01*
X70954819Y-84341666D02*
X70907200Y-84436904D01*
X70907200Y-84436904D02*
X70859580Y-84484523D01*
X137761905Y-81454819D02*
X137761905Y-80454819D01*
X137761905Y-80454819D02*
X138000000Y-80454819D01*
X138000000Y-80454819D02*
X138142857Y-80502438D01*
X138142857Y-80502438D02*
X138238095Y-80597676D01*
X138238095Y-80597676D02*
X138285714Y-80692914D01*
X138285714Y-80692914D02*
X138333333Y-80883390D01*
X138333333Y-80883390D02*
X138333333Y-81026247D01*
X138333333Y-81026247D02*
X138285714Y-81216723D01*
X138285714Y-81216723D02*
X138238095Y-81311961D01*
X138238095Y-81311961D02*
X138142857Y-81407200D01*
X138142857Y-81407200D02*
X138000000Y-81454819D01*
X138000000Y-81454819D02*
X137761905Y-81454819D01*
X139285714Y-81454819D02*
X138714286Y-81454819D01*
X139000000Y-81454819D02*
X139000000Y-80454819D01*
X139000000Y-80454819D02*
X138904762Y-80597676D01*
X138904762Y-80597676D02*
X138809524Y-80692914D01*
X138809524Y-80692914D02*
X138714286Y-80740533D01*
X132359580Y-67666666D02*
X132407200Y-67714285D01*
X132407200Y-67714285D02*
X132454819Y-67857142D01*
X132454819Y-67857142D02*
X132454819Y-67952380D01*
X132454819Y-67952380D02*
X132407200Y-68095237D01*
X132407200Y-68095237D02*
X132311961Y-68190475D01*
X132311961Y-68190475D02*
X132216723Y-68238094D01*
X132216723Y-68238094D02*
X132026247Y-68285713D01*
X132026247Y-68285713D02*
X131883390Y-68285713D01*
X131883390Y-68285713D02*
X131692914Y-68238094D01*
X131692914Y-68238094D02*
X131597676Y-68190475D01*
X131597676Y-68190475D02*
X131502438Y-68095237D01*
X131502438Y-68095237D02*
X131454819Y-67952380D01*
X131454819Y-67952380D02*
X131454819Y-67857142D01*
X131454819Y-67857142D02*
X131502438Y-67714285D01*
X131502438Y-67714285D02*
X131550057Y-67666666D01*
X131454819Y-66761904D02*
X131454819Y-67238094D01*
X131454819Y-67238094D02*
X131931009Y-67285713D01*
X131931009Y-67285713D02*
X131883390Y-67238094D01*
X131883390Y-67238094D02*
X131835771Y-67142856D01*
X131835771Y-67142856D02*
X131835771Y-66904761D01*
X131835771Y-66904761D02*
X131883390Y-66809523D01*
X131883390Y-66809523D02*
X131931009Y-66761904D01*
X131931009Y-66761904D02*
X132026247Y-66714285D01*
X132026247Y-66714285D02*
X132264342Y-66714285D01*
X132264342Y-66714285D02*
X132359580Y-66761904D01*
X132359580Y-66761904D02*
X132407200Y-66809523D01*
X132407200Y-66809523D02*
X132454819Y-66904761D01*
X132454819Y-66904761D02*
X132454819Y-67142856D01*
X132454819Y-67142856D02*
X132407200Y-67238094D01*
X132407200Y-67238094D02*
X132359580Y-67285713D01*
X67304819Y-116246666D02*
X67304819Y-116722856D01*
X67304819Y-116722856D02*
X66304819Y-116722856D01*
X67304819Y-115389523D02*
X67304819Y-115960951D01*
X67304819Y-115675237D02*
X66304819Y-115675237D01*
X66304819Y-115675237D02*
X66447676Y-115770475D01*
X66447676Y-115770475D02*
X66542914Y-115865713D01*
X66542914Y-115865713D02*
X66590533Y-115960951D01*
X110833333Y-99804819D02*
X110500000Y-99328628D01*
X110261905Y-99804819D02*
X110261905Y-98804819D01*
X110261905Y-98804819D02*
X110642857Y-98804819D01*
X110642857Y-98804819D02*
X110738095Y-98852438D01*
X110738095Y-98852438D02*
X110785714Y-98900057D01*
X110785714Y-98900057D02*
X110833333Y-98995295D01*
X110833333Y-98995295D02*
X110833333Y-99138152D01*
X110833333Y-99138152D02*
X110785714Y-99233390D01*
X110785714Y-99233390D02*
X110738095Y-99281009D01*
X110738095Y-99281009D02*
X110642857Y-99328628D01*
X110642857Y-99328628D02*
X110261905Y-99328628D01*
X111214286Y-98900057D02*
X111261905Y-98852438D01*
X111261905Y-98852438D02*
X111357143Y-98804819D01*
X111357143Y-98804819D02*
X111595238Y-98804819D01*
X111595238Y-98804819D02*
X111690476Y-98852438D01*
X111690476Y-98852438D02*
X111738095Y-98900057D01*
X111738095Y-98900057D02*
X111785714Y-98995295D01*
X111785714Y-98995295D02*
X111785714Y-99090533D01*
X111785714Y-99090533D02*
X111738095Y-99233390D01*
X111738095Y-99233390D02*
X111166667Y-99804819D01*
X111166667Y-99804819D02*
X111785714Y-99804819D01*
X95785714Y-79929819D02*
X95785714Y-78929819D01*
X95785714Y-78929819D02*
X96023809Y-78929819D01*
X96023809Y-78929819D02*
X96166666Y-78977438D01*
X96166666Y-78977438D02*
X96261904Y-79072676D01*
X96261904Y-79072676D02*
X96309523Y-79167914D01*
X96309523Y-79167914D02*
X96357142Y-79358390D01*
X96357142Y-79358390D02*
X96357142Y-79501247D01*
X96357142Y-79501247D02*
X96309523Y-79691723D01*
X96309523Y-79691723D02*
X96261904Y-79786961D01*
X96261904Y-79786961D02*
X96166666Y-79882200D01*
X96166666Y-79882200D02*
X96023809Y-79929819D01*
X96023809Y-79929819D02*
X95785714Y-79929819D01*
X97309523Y-79929819D02*
X96738095Y-79929819D01*
X97023809Y-79929819D02*
X97023809Y-78929819D01*
X97023809Y-78929819D02*
X96928571Y-79072676D01*
X96928571Y-79072676D02*
X96833333Y-79167914D01*
X96833333Y-79167914D02*
X96738095Y-79215533D01*
X97690476Y-79025057D02*
X97738095Y-78977438D01*
X97738095Y-78977438D02*
X97833333Y-78929819D01*
X97833333Y-78929819D02*
X98071428Y-78929819D01*
X98071428Y-78929819D02*
X98166666Y-78977438D01*
X98166666Y-78977438D02*
X98214285Y-79025057D01*
X98214285Y-79025057D02*
X98261904Y-79120295D01*
X98261904Y-79120295D02*
X98261904Y-79215533D01*
X98261904Y-79215533D02*
X98214285Y-79358390D01*
X98214285Y-79358390D02*
X97642857Y-79929819D01*
X97642857Y-79929819D02*
X98261904Y-79929819D01*
X123857142Y-98954819D02*
X123523809Y-98478628D01*
X123285714Y-98954819D02*
X123285714Y-97954819D01*
X123285714Y-97954819D02*
X123666666Y-97954819D01*
X123666666Y-97954819D02*
X123761904Y-98002438D01*
X123761904Y-98002438D02*
X123809523Y-98050057D01*
X123809523Y-98050057D02*
X123857142Y-98145295D01*
X123857142Y-98145295D02*
X123857142Y-98288152D01*
X123857142Y-98288152D02*
X123809523Y-98383390D01*
X123809523Y-98383390D02*
X123761904Y-98431009D01*
X123761904Y-98431009D02*
X123666666Y-98478628D01*
X123666666Y-98478628D02*
X123285714Y-98478628D01*
X124809523Y-98954819D02*
X124238095Y-98954819D01*
X124523809Y-98954819D02*
X124523809Y-97954819D01*
X124523809Y-97954819D02*
X124428571Y-98097676D01*
X124428571Y-98097676D02*
X124333333Y-98192914D01*
X124333333Y-98192914D02*
X124238095Y-98240533D01*
X125428571Y-97954819D02*
X125523809Y-97954819D01*
X125523809Y-97954819D02*
X125619047Y-98002438D01*
X125619047Y-98002438D02*
X125666666Y-98050057D01*
X125666666Y-98050057D02*
X125714285Y-98145295D01*
X125714285Y-98145295D02*
X125761904Y-98335771D01*
X125761904Y-98335771D02*
X125761904Y-98573866D01*
X125761904Y-98573866D02*
X125714285Y-98764342D01*
X125714285Y-98764342D02*
X125666666Y-98859580D01*
X125666666Y-98859580D02*
X125619047Y-98907200D01*
X125619047Y-98907200D02*
X125523809Y-98954819D01*
X125523809Y-98954819D02*
X125428571Y-98954819D01*
X125428571Y-98954819D02*
X125333333Y-98907200D01*
X125333333Y-98907200D02*
X125285714Y-98859580D01*
X125285714Y-98859580D02*
X125238095Y-98764342D01*
X125238095Y-98764342D02*
X125190476Y-98573866D01*
X125190476Y-98573866D02*
X125190476Y-98335771D01*
X125190476Y-98335771D02*
X125238095Y-98145295D01*
X125238095Y-98145295D02*
X125285714Y-98050057D01*
X125285714Y-98050057D02*
X125333333Y-98002438D01*
X125333333Y-98002438D02*
X125428571Y-97954819D01*
X107454819Y-72738094D02*
X106454819Y-72738094D01*
X106454819Y-72738094D02*
X106454819Y-72499999D01*
X106454819Y-72499999D02*
X106502438Y-72357142D01*
X106502438Y-72357142D02*
X106597676Y-72261904D01*
X106597676Y-72261904D02*
X106692914Y-72214285D01*
X106692914Y-72214285D02*
X106883390Y-72166666D01*
X106883390Y-72166666D02*
X107026247Y-72166666D01*
X107026247Y-72166666D02*
X107216723Y-72214285D01*
X107216723Y-72214285D02*
X107311961Y-72261904D01*
X107311961Y-72261904D02*
X107407200Y-72357142D01*
X107407200Y-72357142D02*
X107454819Y-72499999D01*
X107454819Y-72499999D02*
X107454819Y-72738094D01*
X106454819Y-71309523D02*
X106454819Y-71499999D01*
X106454819Y-71499999D02*
X106502438Y-71595237D01*
X106502438Y-71595237D02*
X106550057Y-71642856D01*
X106550057Y-71642856D02*
X106692914Y-71738094D01*
X106692914Y-71738094D02*
X106883390Y-71785713D01*
X106883390Y-71785713D02*
X107264342Y-71785713D01*
X107264342Y-71785713D02*
X107359580Y-71738094D01*
X107359580Y-71738094D02*
X107407200Y-71690475D01*
X107407200Y-71690475D02*
X107454819Y-71595237D01*
X107454819Y-71595237D02*
X107454819Y-71404761D01*
X107454819Y-71404761D02*
X107407200Y-71309523D01*
X107407200Y-71309523D02*
X107359580Y-71261904D01*
X107359580Y-71261904D02*
X107264342Y-71214285D01*
X107264342Y-71214285D02*
X107026247Y-71214285D01*
X107026247Y-71214285D02*
X106931009Y-71261904D01*
X106931009Y-71261904D02*
X106883390Y-71309523D01*
X106883390Y-71309523D02*
X106835771Y-71404761D01*
X106835771Y-71404761D02*
X106835771Y-71595237D01*
X106835771Y-71595237D02*
X106883390Y-71690475D01*
X106883390Y-71690475D02*
X106931009Y-71738094D01*
X106931009Y-71738094D02*
X107026247Y-71785713D01*
X134833333Y-89528778D02*
X134500000Y-89052587D01*
X134261905Y-89528778D02*
X134261905Y-88528778D01*
X134261905Y-88528778D02*
X134642857Y-88528778D01*
X134642857Y-88528778D02*
X134738095Y-88576397D01*
X134738095Y-88576397D02*
X134785714Y-88624016D01*
X134785714Y-88624016D02*
X134833333Y-88719254D01*
X134833333Y-88719254D02*
X134833333Y-88862111D01*
X134833333Y-88862111D02*
X134785714Y-88957349D01*
X134785714Y-88957349D02*
X134738095Y-89004968D01*
X134738095Y-89004968D02*
X134642857Y-89052587D01*
X134642857Y-89052587D02*
X134261905Y-89052587D01*
X135690476Y-88862111D02*
X135690476Y-89528778D01*
X135452381Y-88481159D02*
X135214286Y-89195444D01*
X135214286Y-89195444D02*
X135833333Y-89195444D01*
X120359580Y-118392857D02*
X120407200Y-118440476D01*
X120407200Y-118440476D02*
X120454819Y-118583333D01*
X120454819Y-118583333D02*
X120454819Y-118678571D01*
X120454819Y-118678571D02*
X120407200Y-118821428D01*
X120407200Y-118821428D02*
X120311961Y-118916666D01*
X120311961Y-118916666D02*
X120216723Y-118964285D01*
X120216723Y-118964285D02*
X120026247Y-119011904D01*
X120026247Y-119011904D02*
X119883390Y-119011904D01*
X119883390Y-119011904D02*
X119692914Y-118964285D01*
X119692914Y-118964285D02*
X119597676Y-118916666D01*
X119597676Y-118916666D02*
X119502438Y-118821428D01*
X119502438Y-118821428D02*
X119454819Y-118678571D01*
X119454819Y-118678571D02*
X119454819Y-118583333D01*
X119454819Y-118583333D02*
X119502438Y-118440476D01*
X119502438Y-118440476D02*
X119550057Y-118392857D01*
X120454819Y-117440476D02*
X120454819Y-118011904D01*
X120454819Y-117726190D02*
X119454819Y-117726190D01*
X119454819Y-117726190D02*
X119597676Y-117821428D01*
X119597676Y-117821428D02*
X119692914Y-117916666D01*
X119692914Y-117916666D02*
X119740533Y-118011904D01*
X120454819Y-116488095D02*
X120454819Y-117059523D01*
X120454819Y-116773809D02*
X119454819Y-116773809D01*
X119454819Y-116773809D02*
X119597676Y-116869047D01*
X119597676Y-116869047D02*
X119692914Y-116964285D01*
X119692914Y-116964285D02*
X119740533Y-117059523D01*
X97634580Y-75400357D02*
X97682200Y-75447976D01*
X97682200Y-75447976D02*
X97729819Y-75590833D01*
X97729819Y-75590833D02*
X97729819Y-75686071D01*
X97729819Y-75686071D02*
X97682200Y-75828928D01*
X97682200Y-75828928D02*
X97586961Y-75924166D01*
X97586961Y-75924166D02*
X97491723Y-75971785D01*
X97491723Y-75971785D02*
X97301247Y-76019404D01*
X97301247Y-76019404D02*
X97158390Y-76019404D01*
X97158390Y-76019404D02*
X96967914Y-75971785D01*
X96967914Y-75971785D02*
X96872676Y-75924166D01*
X96872676Y-75924166D02*
X96777438Y-75828928D01*
X96777438Y-75828928D02*
X96729819Y-75686071D01*
X96729819Y-75686071D02*
X96729819Y-75590833D01*
X96729819Y-75590833D02*
X96777438Y-75447976D01*
X96777438Y-75447976D02*
X96825057Y-75400357D01*
X97729819Y-74447976D02*
X97729819Y-75019404D01*
X97729819Y-74733690D02*
X96729819Y-74733690D01*
X96729819Y-74733690D02*
X96872676Y-74828928D01*
X96872676Y-74828928D02*
X96967914Y-74924166D01*
X96967914Y-74924166D02*
X97015533Y-75019404D01*
X96729819Y-74114642D02*
X96729819Y-73447976D01*
X96729819Y-73447976D02*
X97729819Y-73876547D01*
X65035476Y-63499819D02*
X65035476Y-62499819D01*
X65035476Y-62499819D02*
X65368809Y-63214104D01*
X65368809Y-63214104D02*
X65702142Y-62499819D01*
X65702142Y-62499819D02*
X65702142Y-63499819D01*
X66702142Y-63499819D02*
X66130714Y-63499819D01*
X66416428Y-63499819D02*
X66416428Y-62499819D01*
X66416428Y-62499819D02*
X66321190Y-62642676D01*
X66321190Y-62642676D02*
X66225952Y-62737914D01*
X66225952Y-62737914D02*
X66130714Y-62785533D01*
X143833333Y-82054819D02*
X143357143Y-82054819D01*
X143357143Y-82054819D02*
X143357143Y-81054819D01*
X144119048Y-81150057D02*
X144166667Y-81102438D01*
X144166667Y-81102438D02*
X144261905Y-81054819D01*
X144261905Y-81054819D02*
X144500000Y-81054819D01*
X144500000Y-81054819D02*
X144595238Y-81102438D01*
X144595238Y-81102438D02*
X144642857Y-81150057D01*
X144642857Y-81150057D02*
X144690476Y-81245295D01*
X144690476Y-81245295D02*
X144690476Y-81340533D01*
X144690476Y-81340533D02*
X144642857Y-81483390D01*
X144642857Y-81483390D02*
X144071429Y-82054819D01*
X144071429Y-82054819D02*
X144690476Y-82054819D01*
X77954819Y-106738094D02*
X76954819Y-106738094D01*
X76954819Y-106738094D02*
X76954819Y-106499999D01*
X76954819Y-106499999D02*
X77002438Y-106357142D01*
X77002438Y-106357142D02*
X77097676Y-106261904D01*
X77097676Y-106261904D02*
X77192914Y-106214285D01*
X77192914Y-106214285D02*
X77383390Y-106166666D01*
X77383390Y-106166666D02*
X77526247Y-106166666D01*
X77526247Y-106166666D02*
X77716723Y-106214285D01*
X77716723Y-106214285D02*
X77811961Y-106261904D01*
X77811961Y-106261904D02*
X77907200Y-106357142D01*
X77907200Y-106357142D02*
X77954819Y-106499999D01*
X77954819Y-106499999D02*
X77954819Y-106738094D01*
X77050057Y-105785713D02*
X77002438Y-105738094D01*
X77002438Y-105738094D02*
X76954819Y-105642856D01*
X76954819Y-105642856D02*
X76954819Y-105404761D01*
X76954819Y-105404761D02*
X77002438Y-105309523D01*
X77002438Y-105309523D02*
X77050057Y-105261904D01*
X77050057Y-105261904D02*
X77145295Y-105214285D01*
X77145295Y-105214285D02*
X77240533Y-105214285D01*
X77240533Y-105214285D02*
X77383390Y-105261904D01*
X77383390Y-105261904D02*
X77954819Y-105833332D01*
X77954819Y-105833332D02*
X77954819Y-105214285D01*
X98511905Y-90979819D02*
X98511905Y-89979819D01*
X98511905Y-89979819D02*
X98750000Y-89979819D01*
X98750000Y-89979819D02*
X98892857Y-90027438D01*
X98892857Y-90027438D02*
X98988095Y-90122676D01*
X98988095Y-90122676D02*
X99035714Y-90217914D01*
X99035714Y-90217914D02*
X99083333Y-90408390D01*
X99083333Y-90408390D02*
X99083333Y-90551247D01*
X99083333Y-90551247D02*
X99035714Y-90741723D01*
X99035714Y-90741723D02*
X98988095Y-90836961D01*
X98988095Y-90836961D02*
X98892857Y-90932200D01*
X98892857Y-90932200D02*
X98750000Y-90979819D01*
X98750000Y-90979819D02*
X98511905Y-90979819D01*
X99559524Y-90979819D02*
X99750000Y-90979819D01*
X99750000Y-90979819D02*
X99845238Y-90932200D01*
X99845238Y-90932200D02*
X99892857Y-90884580D01*
X99892857Y-90884580D02*
X99988095Y-90741723D01*
X99988095Y-90741723D02*
X100035714Y-90551247D01*
X100035714Y-90551247D02*
X100035714Y-90170295D01*
X100035714Y-90170295D02*
X99988095Y-90075057D01*
X99988095Y-90075057D02*
X99940476Y-90027438D01*
X99940476Y-90027438D02*
X99845238Y-89979819D01*
X99845238Y-89979819D02*
X99654762Y-89979819D01*
X99654762Y-89979819D02*
X99559524Y-90027438D01*
X99559524Y-90027438D02*
X99511905Y-90075057D01*
X99511905Y-90075057D02*
X99464286Y-90170295D01*
X99464286Y-90170295D02*
X99464286Y-90408390D01*
X99464286Y-90408390D02*
X99511905Y-90503628D01*
X99511905Y-90503628D02*
X99559524Y-90551247D01*
X99559524Y-90551247D02*
X99654762Y-90598866D01*
X99654762Y-90598866D02*
X99845238Y-90598866D01*
X99845238Y-90598866D02*
X99940476Y-90551247D01*
X99940476Y-90551247D02*
X99988095Y-90503628D01*
X99988095Y-90503628D02*
X100035714Y-90408390D01*
X125954819Y-83666666D02*
X125478628Y-83999999D01*
X125954819Y-84238094D02*
X124954819Y-84238094D01*
X124954819Y-84238094D02*
X124954819Y-83857142D01*
X124954819Y-83857142D02*
X125002438Y-83761904D01*
X125002438Y-83761904D02*
X125050057Y-83714285D01*
X125050057Y-83714285D02*
X125145295Y-83666666D01*
X125145295Y-83666666D02*
X125288152Y-83666666D01*
X125288152Y-83666666D02*
X125383390Y-83714285D01*
X125383390Y-83714285D02*
X125431009Y-83761904D01*
X125431009Y-83761904D02*
X125478628Y-83857142D01*
X125478628Y-83857142D02*
X125478628Y-84238094D01*
X124954819Y-82809523D02*
X124954819Y-82999999D01*
X124954819Y-82999999D02*
X125002438Y-83095237D01*
X125002438Y-83095237D02*
X125050057Y-83142856D01*
X125050057Y-83142856D02*
X125192914Y-83238094D01*
X125192914Y-83238094D02*
X125383390Y-83285713D01*
X125383390Y-83285713D02*
X125764342Y-83285713D01*
X125764342Y-83285713D02*
X125859580Y-83238094D01*
X125859580Y-83238094D02*
X125907200Y-83190475D01*
X125907200Y-83190475D02*
X125954819Y-83095237D01*
X125954819Y-83095237D02*
X125954819Y-82904761D01*
X125954819Y-82904761D02*
X125907200Y-82809523D01*
X125907200Y-82809523D02*
X125859580Y-82761904D01*
X125859580Y-82761904D02*
X125764342Y-82714285D01*
X125764342Y-82714285D02*
X125526247Y-82714285D01*
X125526247Y-82714285D02*
X125431009Y-82761904D01*
X125431009Y-82761904D02*
X125383390Y-82809523D01*
X125383390Y-82809523D02*
X125335771Y-82904761D01*
X125335771Y-82904761D02*
X125335771Y-83095237D01*
X125335771Y-83095237D02*
X125383390Y-83190475D01*
X125383390Y-83190475D02*
X125431009Y-83238094D01*
X125431009Y-83238094D02*
X125526247Y-83285713D01*
X107367142Y-62839819D02*
X107033809Y-62363628D01*
X106795714Y-62839819D02*
X106795714Y-61839819D01*
X106795714Y-61839819D02*
X107176666Y-61839819D01*
X107176666Y-61839819D02*
X107271904Y-61887438D01*
X107271904Y-61887438D02*
X107319523Y-61935057D01*
X107319523Y-61935057D02*
X107367142Y-62030295D01*
X107367142Y-62030295D02*
X107367142Y-62173152D01*
X107367142Y-62173152D02*
X107319523Y-62268390D01*
X107319523Y-62268390D02*
X107271904Y-62316009D01*
X107271904Y-62316009D02*
X107176666Y-62363628D01*
X107176666Y-62363628D02*
X106795714Y-62363628D01*
X108319523Y-62839819D02*
X107748095Y-62839819D01*
X108033809Y-62839819D02*
X108033809Y-61839819D01*
X108033809Y-61839819D02*
X107938571Y-61982676D01*
X107938571Y-61982676D02*
X107843333Y-62077914D01*
X107843333Y-62077914D02*
X107748095Y-62125533D01*
X109224285Y-61839819D02*
X108748095Y-61839819D01*
X108748095Y-61839819D02*
X108700476Y-62316009D01*
X108700476Y-62316009D02*
X108748095Y-62268390D01*
X108748095Y-62268390D02*
X108843333Y-62220771D01*
X108843333Y-62220771D02*
X109081428Y-62220771D01*
X109081428Y-62220771D02*
X109176666Y-62268390D01*
X109176666Y-62268390D02*
X109224285Y-62316009D01*
X109224285Y-62316009D02*
X109271904Y-62411247D01*
X109271904Y-62411247D02*
X109271904Y-62649342D01*
X109271904Y-62649342D02*
X109224285Y-62744580D01*
X109224285Y-62744580D02*
X109176666Y-62792200D01*
X109176666Y-62792200D02*
X109081428Y-62839819D01*
X109081428Y-62839819D02*
X108843333Y-62839819D01*
X108843333Y-62839819D02*
X108748095Y-62792200D01*
X108748095Y-62792200D02*
X108700476Y-62744580D01*
X102894642Y-109679580D02*
X102847023Y-109727200D01*
X102847023Y-109727200D02*
X102704166Y-109774819D01*
X102704166Y-109774819D02*
X102608928Y-109774819D01*
X102608928Y-109774819D02*
X102466071Y-109727200D01*
X102466071Y-109727200D02*
X102370833Y-109631961D01*
X102370833Y-109631961D02*
X102323214Y-109536723D01*
X102323214Y-109536723D02*
X102275595Y-109346247D01*
X102275595Y-109346247D02*
X102275595Y-109203390D01*
X102275595Y-109203390D02*
X102323214Y-109012914D01*
X102323214Y-109012914D02*
X102370833Y-108917676D01*
X102370833Y-108917676D02*
X102466071Y-108822438D01*
X102466071Y-108822438D02*
X102608928Y-108774819D01*
X102608928Y-108774819D02*
X102704166Y-108774819D01*
X102704166Y-108774819D02*
X102847023Y-108822438D01*
X102847023Y-108822438D02*
X102894642Y-108870057D01*
X103847023Y-109774819D02*
X103275595Y-109774819D01*
X103561309Y-109774819D02*
X103561309Y-108774819D01*
X103561309Y-108774819D02*
X103466071Y-108917676D01*
X103466071Y-108917676D02*
X103370833Y-109012914D01*
X103370833Y-109012914D02*
X103275595Y-109060533D01*
X104466071Y-108774819D02*
X104561309Y-108774819D01*
X104561309Y-108774819D02*
X104656547Y-108822438D01*
X104656547Y-108822438D02*
X104704166Y-108870057D01*
X104704166Y-108870057D02*
X104751785Y-108965295D01*
X104751785Y-108965295D02*
X104799404Y-109155771D01*
X104799404Y-109155771D02*
X104799404Y-109393866D01*
X104799404Y-109393866D02*
X104751785Y-109584342D01*
X104751785Y-109584342D02*
X104704166Y-109679580D01*
X104704166Y-109679580D02*
X104656547Y-109727200D01*
X104656547Y-109727200D02*
X104561309Y-109774819D01*
X104561309Y-109774819D02*
X104466071Y-109774819D01*
X104466071Y-109774819D02*
X104370833Y-109727200D01*
X104370833Y-109727200D02*
X104323214Y-109679580D01*
X104323214Y-109679580D02*
X104275595Y-109584342D01*
X104275595Y-109584342D02*
X104227976Y-109393866D01*
X104227976Y-109393866D02*
X104227976Y-109155771D01*
X104227976Y-109155771D02*
X104275595Y-108965295D01*
X104275595Y-108965295D02*
X104323214Y-108870057D01*
X104323214Y-108870057D02*
X104370833Y-108822438D01*
X104370833Y-108822438D02*
X104466071Y-108774819D01*
X96357142Y-66859580D02*
X96309523Y-66907200D01*
X96309523Y-66907200D02*
X96166666Y-66954819D01*
X96166666Y-66954819D02*
X96071428Y-66954819D01*
X96071428Y-66954819D02*
X95928571Y-66907200D01*
X95928571Y-66907200D02*
X95833333Y-66811961D01*
X95833333Y-66811961D02*
X95785714Y-66716723D01*
X95785714Y-66716723D02*
X95738095Y-66526247D01*
X95738095Y-66526247D02*
X95738095Y-66383390D01*
X95738095Y-66383390D02*
X95785714Y-66192914D01*
X95785714Y-66192914D02*
X95833333Y-66097676D01*
X95833333Y-66097676D02*
X95928571Y-66002438D01*
X95928571Y-66002438D02*
X96071428Y-65954819D01*
X96071428Y-65954819D02*
X96166666Y-65954819D01*
X96166666Y-65954819D02*
X96309523Y-66002438D01*
X96309523Y-66002438D02*
X96357142Y-66050057D01*
X96738095Y-66050057D02*
X96785714Y-66002438D01*
X96785714Y-66002438D02*
X96880952Y-65954819D01*
X96880952Y-65954819D02*
X97119047Y-65954819D01*
X97119047Y-65954819D02*
X97214285Y-66002438D01*
X97214285Y-66002438D02*
X97261904Y-66050057D01*
X97261904Y-66050057D02*
X97309523Y-66145295D01*
X97309523Y-66145295D02*
X97309523Y-66240533D01*
X97309523Y-66240533D02*
X97261904Y-66383390D01*
X97261904Y-66383390D02*
X96690476Y-66954819D01*
X96690476Y-66954819D02*
X97309523Y-66954819D01*
X97928571Y-65954819D02*
X98023809Y-65954819D01*
X98023809Y-65954819D02*
X98119047Y-66002438D01*
X98119047Y-66002438D02*
X98166666Y-66050057D01*
X98166666Y-66050057D02*
X98214285Y-66145295D01*
X98214285Y-66145295D02*
X98261904Y-66335771D01*
X98261904Y-66335771D02*
X98261904Y-66573866D01*
X98261904Y-66573866D02*
X98214285Y-66764342D01*
X98214285Y-66764342D02*
X98166666Y-66859580D01*
X98166666Y-66859580D02*
X98119047Y-66907200D01*
X98119047Y-66907200D02*
X98023809Y-66954819D01*
X98023809Y-66954819D02*
X97928571Y-66954819D01*
X97928571Y-66954819D02*
X97833333Y-66907200D01*
X97833333Y-66907200D02*
X97785714Y-66859580D01*
X97785714Y-66859580D02*
X97738095Y-66764342D01*
X97738095Y-66764342D02*
X97690476Y-66573866D01*
X97690476Y-66573866D02*
X97690476Y-66335771D01*
X97690476Y-66335771D02*
X97738095Y-66145295D01*
X97738095Y-66145295D02*
X97785714Y-66050057D01*
X97785714Y-66050057D02*
X97833333Y-66002438D01*
X97833333Y-66002438D02*
X97928571Y-65954819D01*
X120857142Y-105859580D02*
X120809523Y-105907200D01*
X120809523Y-105907200D02*
X120666666Y-105954819D01*
X120666666Y-105954819D02*
X120571428Y-105954819D01*
X120571428Y-105954819D02*
X120428571Y-105907200D01*
X120428571Y-105907200D02*
X120333333Y-105811961D01*
X120333333Y-105811961D02*
X120285714Y-105716723D01*
X120285714Y-105716723D02*
X120238095Y-105526247D01*
X120238095Y-105526247D02*
X120238095Y-105383390D01*
X120238095Y-105383390D02*
X120285714Y-105192914D01*
X120285714Y-105192914D02*
X120333333Y-105097676D01*
X120333333Y-105097676D02*
X120428571Y-105002438D01*
X120428571Y-105002438D02*
X120571428Y-104954819D01*
X120571428Y-104954819D02*
X120666666Y-104954819D01*
X120666666Y-104954819D02*
X120809523Y-105002438D01*
X120809523Y-105002438D02*
X120857142Y-105050057D01*
X121809523Y-105954819D02*
X121238095Y-105954819D01*
X121523809Y-105954819D02*
X121523809Y-104954819D01*
X121523809Y-104954819D02*
X121428571Y-105097676D01*
X121428571Y-105097676D02*
X121333333Y-105192914D01*
X121333333Y-105192914D02*
X121238095Y-105240533D01*
X122666666Y-105288152D02*
X122666666Y-105954819D01*
X122428571Y-104907200D02*
X122190476Y-105621485D01*
X122190476Y-105621485D02*
X122809523Y-105621485D01*
D11*
%TO.C,D11*%
X99675000Y-84485000D02*
X102535000Y-84485000D01*
X102535000Y-82565000D02*
X99675000Y-82565000D01*
X102535000Y-84485000D02*
X102535000Y-82565000D01*
%TO.C,U1*%
X73640000Y-69385000D02*
X73640000Y-71035000D01*
X73640000Y-73035000D02*
X73640000Y-74685000D01*
X73640000Y-74685000D02*
X94080000Y-74685000D01*
X94080000Y-69385000D02*
X73640000Y-69385000D01*
X94080000Y-74685000D02*
X94080000Y-69385000D01*
X73640000Y-71035000D02*
G75*
G02*
X73640000Y-73035000I0J-1000000D01*
G01*
%TO.C,R5*%
X131772936Y-90691041D02*
X132227064Y-90691041D01*
X131772936Y-92161041D02*
X132227064Y-92161041D01*
%TO.C,R12*%
X114265000Y-65227064D02*
X114265000Y-64772936D01*
X115735000Y-65227064D02*
X115735000Y-64772936D01*
%TO.C,C15*%
X68118748Y-77439657D02*
X68641252Y-77439657D01*
X68118748Y-78909657D02*
X68641252Y-78909657D01*
%TO.C,C12*%
X103549777Y-103765000D02*
X104072281Y-103765000D01*
X103549777Y-105235000D02*
X104072281Y-105235000D01*
%TO.C,R17*%
X112265000Y-65227064D02*
X112265000Y-64772936D01*
X113735000Y-65227064D02*
X113735000Y-64772936D01*
%TO.C,R8*%
X132227064Y-94265000D02*
X131772936Y-94265000D01*
X132227064Y-95735000D02*
X131772936Y-95735000D01*
%TO.C,C9*%
X111048752Y-116265000D02*
X110526248Y-116265000D01*
X111048752Y-117735000D02*
X110526248Y-117735000D01*
%TO.C,R20*%
X104422936Y-82790000D02*
X104877064Y-82790000D01*
X104422936Y-84260000D02*
X104877064Y-84260000D01*
D12*
%TO.C,J1*%
X126885000Y-114300000D02*
X126885000Y-111850000D01*
X128910000Y-116400000D02*
X131460000Y-116400000D01*
X129060000Y-109725000D02*
X131385000Y-109725000D01*
X133610000Y-111925000D02*
X133610000Y-114100000D01*
D11*
%TO.C,R24*%
X101227064Y-72265000D02*
X100772936Y-72265000D01*
X101227064Y-73735000D02*
X100772936Y-73735000D01*
%TO.C,C4*%
X122920000Y-78386041D02*
X124460000Y-78386041D01*
X122920000Y-78426041D02*
X124460000Y-78426041D01*
X122921000Y-78346041D02*
X124460000Y-78346041D01*
X122922000Y-78306041D02*
X124460000Y-78306041D01*
X122924000Y-78266041D02*
X124460000Y-78266041D01*
X122927000Y-78226041D02*
X124460000Y-78226041D01*
X122931000Y-78186041D02*
X124460000Y-78186041D01*
X122935000Y-78146041D02*
X124460000Y-78146041D01*
X122939000Y-78106041D02*
X124460000Y-78106041D01*
X122944000Y-78066041D02*
X124460000Y-78066041D01*
X122950000Y-78026041D02*
X124460000Y-78026041D01*
X122957000Y-77986041D02*
X124460000Y-77986041D01*
X122964000Y-77946041D02*
X124460000Y-77946041D01*
X122972000Y-77906041D02*
X124460000Y-77906041D01*
X122980000Y-77866041D02*
X124460000Y-77866041D01*
X122989000Y-77826041D02*
X124460000Y-77826041D01*
X122999000Y-77786041D02*
X124460000Y-77786041D01*
X123009000Y-77746041D02*
X124460000Y-77746041D01*
X123020000Y-77705041D02*
X124460000Y-77705041D01*
X123032000Y-77665041D02*
X124460000Y-77665041D01*
X123045000Y-77625041D02*
X124460000Y-77625041D01*
X123058000Y-77585041D02*
X124460000Y-77585041D01*
X123072000Y-77545041D02*
X124460000Y-77545041D01*
X123086000Y-77505041D02*
X124460000Y-77505041D01*
X123102000Y-77465041D02*
X124460000Y-77465041D01*
X123118000Y-77425041D02*
X124460000Y-77425041D01*
X123135000Y-77385041D02*
X124460000Y-77385041D01*
X123152000Y-77345041D02*
X124460000Y-77345041D01*
X123171000Y-77305041D02*
X124460000Y-77305041D01*
X123190000Y-77265041D02*
X124460000Y-77265041D01*
X123210000Y-77225041D02*
X124460000Y-77225041D01*
X123232000Y-77185041D02*
X124460000Y-77185041D01*
X123253000Y-77145041D02*
X124460000Y-77145041D01*
X123276000Y-77105041D02*
X124460000Y-77105041D01*
X123300000Y-77065041D02*
X124460000Y-77065041D01*
X123325000Y-77025041D02*
X124460000Y-77025041D01*
X123351000Y-76985041D02*
X124460000Y-76985041D01*
X123378000Y-76945041D02*
X124460000Y-76945041D01*
X123405000Y-76905041D02*
X124460000Y-76905041D01*
X123435000Y-76865041D02*
X124460000Y-76865041D01*
X123465000Y-76825041D02*
X124460000Y-76825041D01*
X123496000Y-76785041D02*
X124460000Y-76785041D01*
X123529000Y-76745041D02*
X124460000Y-76745041D01*
X123563000Y-76705041D02*
X124460000Y-76705041D01*
X123599000Y-76665041D02*
X124460000Y-76665041D01*
X123636000Y-76625041D02*
X124460000Y-76625041D01*
X123674000Y-76585041D02*
X124460000Y-76585041D01*
X123715000Y-76545041D02*
X124460000Y-76545041D01*
X123757000Y-76505041D02*
X124460000Y-76505041D01*
X123775000Y-80980816D02*
X124275000Y-80980816D01*
X123801000Y-76465041D02*
X124460000Y-76465041D01*
X123847000Y-76425041D02*
X124460000Y-76425041D01*
X123895000Y-76385041D02*
X127105000Y-76385041D01*
X123946000Y-76345041D02*
X127054000Y-76345041D01*
X124000000Y-76305041D02*
X127000000Y-76305041D01*
X124025000Y-81230816D02*
X124025000Y-80730816D01*
X124057000Y-76265041D02*
X126943000Y-76265041D01*
X124117000Y-76225041D02*
X126883000Y-76225041D01*
X124181000Y-76185041D02*
X126819000Y-76185041D01*
X124249000Y-76145041D02*
X126751000Y-76145041D01*
X124322000Y-76105041D02*
X126678000Y-76105041D01*
X124402000Y-76065041D02*
X126598000Y-76065041D01*
X124489000Y-76025041D02*
X126511000Y-76025041D01*
X124585000Y-75985041D02*
X126415000Y-75985041D01*
X124695000Y-75945041D02*
X126305000Y-75945041D01*
X124823000Y-75905041D02*
X126177000Y-75905041D01*
X124982000Y-75865041D02*
X126018000Y-75865041D01*
X125216000Y-75825041D02*
X125784000Y-75825041D01*
X126540000Y-76425041D02*
X127153000Y-76425041D01*
X126540000Y-76465041D02*
X127199000Y-76465041D01*
X126540000Y-76505041D02*
X127243000Y-76505041D01*
X126540000Y-76545041D02*
X127285000Y-76545041D01*
X126540000Y-76585041D02*
X127326000Y-76585041D01*
X126540000Y-76625041D02*
X127364000Y-76625041D01*
X126540000Y-76665041D02*
X127401000Y-76665041D01*
X126540000Y-76705041D02*
X127437000Y-76705041D01*
X126540000Y-76745041D02*
X127471000Y-76745041D01*
X126540000Y-76785041D02*
X127504000Y-76785041D01*
X126540000Y-76825041D02*
X127535000Y-76825041D01*
X126540000Y-76865041D02*
X127565000Y-76865041D01*
X126540000Y-76905041D02*
X127595000Y-76905041D01*
X126540000Y-76945041D02*
X127622000Y-76945041D01*
X126540000Y-76985041D02*
X127649000Y-76985041D01*
X126540000Y-77025041D02*
X127675000Y-77025041D01*
X126540000Y-77065041D02*
X127700000Y-77065041D01*
X126540000Y-77105041D02*
X127724000Y-77105041D01*
X126540000Y-77145041D02*
X127747000Y-77145041D01*
X126540000Y-77185041D02*
X127768000Y-77185041D01*
X126540000Y-77225041D02*
X127790000Y-77225041D01*
X126540000Y-77265041D02*
X127810000Y-77265041D01*
X126540000Y-77305041D02*
X127829000Y-77305041D01*
X126540000Y-77345041D02*
X127848000Y-77345041D01*
X126540000Y-77385041D02*
X127865000Y-77385041D01*
X126540000Y-77425041D02*
X127882000Y-77425041D01*
X126540000Y-77465041D02*
X127898000Y-77465041D01*
X126540000Y-77505041D02*
X127914000Y-77505041D01*
X126540000Y-77545041D02*
X127928000Y-77545041D01*
X126540000Y-77585041D02*
X127942000Y-77585041D01*
X126540000Y-77625041D02*
X127955000Y-77625041D01*
X126540000Y-77665041D02*
X127968000Y-77665041D01*
X126540000Y-77705041D02*
X127980000Y-77705041D01*
X126540000Y-77746041D02*
X127991000Y-77746041D01*
X126540000Y-77786041D02*
X128001000Y-77786041D01*
X126540000Y-77826041D02*
X128011000Y-77826041D01*
X126540000Y-77866041D02*
X128020000Y-77866041D01*
X126540000Y-77906041D02*
X128028000Y-77906041D01*
X126540000Y-77946041D02*
X128036000Y-77946041D01*
X126540000Y-77986041D02*
X128043000Y-77986041D01*
X126540000Y-78026041D02*
X128050000Y-78026041D01*
X126540000Y-78066041D02*
X128056000Y-78066041D01*
X126540000Y-78106041D02*
X128061000Y-78106041D01*
X126540000Y-78146041D02*
X128065000Y-78146041D01*
X126540000Y-78186041D02*
X128069000Y-78186041D01*
X126540000Y-78226041D02*
X128073000Y-78226041D01*
X126540000Y-78266041D02*
X128076000Y-78266041D01*
X126540000Y-78306041D02*
X128078000Y-78306041D01*
X126540000Y-78346041D02*
X128079000Y-78346041D01*
X126540000Y-78386041D02*
X128080000Y-78386041D01*
X126540000Y-78426041D02*
X128080000Y-78426041D01*
X128120000Y-78426041D02*
G75*
G02*
X122880000Y-78426041I-2620000J0D01*
G01*
X122880000Y-78426041D02*
G75*
G02*
X128120000Y-78426041I2620000J0D01*
G01*
%TO.C,R3*%
X68227064Y-98265000D02*
X67772936Y-98265000D01*
X68227064Y-99735000D02*
X67772936Y-99735000D01*
%TO.C,R13*%
X106265000Y-65277064D02*
X106265000Y-64822936D01*
X107735000Y-65277064D02*
X107735000Y-64822936D01*
%TO.C,J3*%
X123420000Y-62145000D02*
X124750000Y-62145000D01*
X123420000Y-63475000D02*
X123420000Y-62145000D01*
X126020000Y-62145000D02*
X128620000Y-62145000D01*
X126020000Y-64805000D02*
X126020000Y-62145000D01*
X126020000Y-64805000D02*
X128620000Y-64805000D01*
X128620000Y-64805000D02*
X128620000Y-62145000D01*
%TO.C,C1*%
X126583752Y-85961041D02*
X126061248Y-85961041D01*
X126583752Y-87431041D02*
X126061248Y-87431041D01*
%TO.C,R1*%
X71265000Y-104992064D02*
X71265000Y-104537936D01*
X72735000Y-104992064D02*
X72735000Y-104537936D01*
%TO.C,C21*%
X145548752Y-115265000D02*
X145026248Y-115265000D01*
X145548752Y-116735000D02*
X145026248Y-116735000D01*
%TO.C,R9*%
X118765000Y-76653105D02*
X118765000Y-76198977D01*
X120235000Y-76653105D02*
X120235000Y-76198977D01*
%TO.C,R21*%
X104472936Y-80265000D02*
X104927064Y-80265000D01*
X104472936Y-81735000D02*
X104927064Y-81735000D01*
%TO.C,D7*%
X104040000Y-67165000D02*
X104040000Y-70025000D01*
X105960000Y-67165000D02*
X104040000Y-67165000D01*
X105960000Y-70025000D02*
X105960000Y-67165000D01*
%TO.C,D10*%
X99675000Y-86985000D02*
X102535000Y-86985000D01*
X102535000Y-85065000D02*
X99675000Y-85065000D01*
X102535000Y-86985000D02*
X102535000Y-85065000D01*
%TO.C,C2*%
X91741248Y-113765000D02*
X92263752Y-113765000D01*
X91741248Y-115235000D02*
X92263752Y-115235000D01*
%TO.C,C18*%
X89645000Y-87450905D02*
X89645000Y-87973409D01*
X91115000Y-87450905D02*
X91115000Y-87973409D01*
%TO.C,U5*%
X128675000Y-77029811D02*
X133316000Y-77029811D01*
X128675000Y-80299811D02*
X130185000Y-80299811D01*
X128675000Y-83999811D02*
X130185000Y-83999811D01*
X128675000Y-87270811D02*
X128675000Y-77029811D01*
X128675000Y-87270811D02*
X133316000Y-87270811D01*
X130185000Y-87270811D02*
X130185000Y-77029811D01*
X133316000Y-87270811D02*
X133316000Y-77029811D01*
%TO.C,M3*%
X64550000Y-87415000D02*
X64550000Y-79735000D01*
X64550000Y-90015000D02*
X64550000Y-88685000D01*
X65880000Y-90015000D02*
X64550000Y-90015000D01*
X67210000Y-79735000D02*
X64550000Y-79735000D01*
X67210000Y-87415000D02*
X64550000Y-87415000D01*
X67210000Y-87415000D02*
X67210000Y-79735000D01*
%TO.C,R11*%
X73765000Y-104992064D02*
X73765000Y-104537936D01*
X75235000Y-104992064D02*
X75235000Y-104537936D01*
%TO.C,C6*%
X123920000Y-71170000D02*
X132080000Y-71170000D01*
X123920000Y-71210000D02*
X132080000Y-71210000D01*
X123920000Y-71250000D02*
X132080000Y-71250000D01*
X123921000Y-71130000D02*
X132079000Y-71130000D01*
X123923000Y-71090000D02*
X132077000Y-71090000D01*
X123924000Y-71050000D02*
X132076000Y-71050000D01*
X123926000Y-71010000D02*
X132074000Y-71010000D01*
X123929000Y-70970000D02*
X132071000Y-70970000D01*
X123932000Y-70930000D02*
X132068000Y-70930000D01*
X123935000Y-70890000D02*
X132065000Y-70890000D01*
X123939000Y-70850000D02*
X132061000Y-70850000D01*
X123943000Y-70810000D02*
X132057000Y-70810000D01*
X123948000Y-70770000D02*
X132052000Y-70770000D01*
X123952000Y-70730000D02*
X132048000Y-70730000D01*
X123958000Y-70690000D02*
X132042000Y-70690000D01*
X123963000Y-70650000D02*
X132037000Y-70650000D01*
X123970000Y-70610000D02*
X132030000Y-70610000D01*
X123976000Y-70570000D02*
X132024000Y-70570000D01*
X123983000Y-70529000D02*
X126960000Y-70529000D01*
X123990000Y-70489000D02*
X126960000Y-70489000D01*
X123998000Y-70449000D02*
X126960000Y-70449000D01*
X124006000Y-70409000D02*
X126960000Y-70409000D01*
X124015000Y-70369000D02*
X126960000Y-70369000D01*
X124024000Y-70329000D02*
X126960000Y-70329000D01*
X124033000Y-70289000D02*
X126960000Y-70289000D01*
X124043000Y-70249000D02*
X126960000Y-70249000D01*
X124053000Y-70209000D02*
X126960000Y-70209000D01*
X124064000Y-70169000D02*
X126960000Y-70169000D01*
X124075000Y-70129000D02*
X126960000Y-70129000D01*
X124086000Y-70089000D02*
X126960000Y-70089000D01*
X124098000Y-70049000D02*
X126960000Y-70049000D01*
X124111000Y-70009000D02*
X126960000Y-70009000D01*
X124123000Y-69969000D02*
X126960000Y-69969000D01*
X124137000Y-69929000D02*
X126960000Y-69929000D01*
X124150000Y-69889000D02*
X126960000Y-69889000D01*
X124165000Y-69849000D02*
X126960000Y-69849000D01*
X124179000Y-69809000D02*
X126960000Y-69809000D01*
X124195000Y-69769000D02*
X126960000Y-69769000D01*
X124210000Y-69729000D02*
X126960000Y-69729000D01*
X124226000Y-69689000D02*
X126960000Y-69689000D01*
X124243000Y-69649000D02*
X126960000Y-69649000D01*
X124260000Y-69609000D02*
X126960000Y-69609000D01*
X124278000Y-69569000D02*
X126960000Y-69569000D01*
X124296000Y-69529000D02*
X126960000Y-69529000D01*
X124314000Y-69489000D02*
X126960000Y-69489000D01*
X124334000Y-69449000D02*
X126960000Y-69449000D01*
X124353000Y-69409000D02*
X126960000Y-69409000D01*
X124373000Y-69369000D02*
X126960000Y-69369000D01*
X124394000Y-69329000D02*
X126960000Y-69329000D01*
X124416000Y-69289000D02*
X126960000Y-69289000D01*
X124438000Y-69249000D02*
X126960000Y-69249000D01*
X124460000Y-69209000D02*
X126960000Y-69209000D01*
X124483000Y-69169000D02*
X126960000Y-69169000D01*
X124507000Y-69129000D02*
X126960000Y-69129000D01*
X124531000Y-69089000D02*
X126960000Y-69089000D01*
X124556000Y-69049000D02*
X126960000Y-69049000D01*
X124582000Y-69009000D02*
X126960000Y-69009000D01*
X124608000Y-68969000D02*
X126960000Y-68969000D01*
X124635000Y-68929000D02*
X126960000Y-68929000D01*
X124662000Y-68889000D02*
X126960000Y-68889000D01*
X124691000Y-68849000D02*
X126960000Y-68849000D01*
X124720000Y-68809000D02*
X126960000Y-68809000D01*
X124750000Y-68769000D02*
X126960000Y-68769000D01*
X124780000Y-68729000D02*
X126960000Y-68729000D01*
X124811000Y-68689000D02*
X126960000Y-68689000D01*
X124844000Y-68649000D02*
X126960000Y-68649000D01*
X124876000Y-68609000D02*
X126960000Y-68609000D01*
X124910000Y-68569000D02*
X126960000Y-68569000D01*
X124945000Y-68529000D02*
X126960000Y-68529000D01*
X124981000Y-68489000D02*
X126960000Y-68489000D01*
X125017000Y-68449000D02*
X130983000Y-68449000D01*
X125055000Y-68409000D02*
X130945000Y-68409000D01*
X125093000Y-68369000D02*
X130907000Y-68369000D01*
X125133000Y-68329000D02*
X130867000Y-68329000D01*
X125174000Y-68289000D02*
X130826000Y-68289000D01*
X125216000Y-68249000D02*
X130784000Y-68249000D01*
X125259000Y-68209000D02*
X130741000Y-68209000D01*
X125285000Y-75259698D02*
X126085000Y-75259698D01*
X125303000Y-68169000D02*
X130697000Y-68169000D01*
X125349000Y-68129000D02*
X130651000Y-68129000D01*
X125396000Y-68089000D02*
X130604000Y-68089000D01*
X125444000Y-68049000D02*
X130556000Y-68049000D01*
X125495000Y-68009000D02*
X130505000Y-68009000D01*
X125546000Y-67969000D02*
X130454000Y-67969000D01*
X125600000Y-67929000D02*
X130400000Y-67929000D01*
X125655000Y-67889000D02*
X130345000Y-67889000D01*
X125685000Y-75659698D02*
X125685000Y-74859698D01*
X125713000Y-67849000D02*
X130287000Y-67849000D01*
X125772000Y-67809000D02*
X130228000Y-67809000D01*
X125834000Y-67769000D02*
X130166000Y-67769000D01*
X125898000Y-67729000D02*
X130102000Y-67729000D01*
X125966000Y-67689000D02*
X130034000Y-67689000D01*
X126036000Y-67649000D02*
X129964000Y-67649000D01*
X126110000Y-67609000D02*
X129890000Y-67609000D01*
X126187000Y-67569000D02*
X129813000Y-67569000D01*
X126269000Y-67529000D02*
X129731000Y-67529000D01*
X126355000Y-67489000D02*
X129645000Y-67489000D01*
X126448000Y-67449000D02*
X129552000Y-67449000D01*
X126547000Y-67409000D02*
X129453000Y-67409000D01*
X126654000Y-67369000D02*
X129346000Y-67369000D01*
X126771000Y-67329000D02*
X129229000Y-67329000D01*
X126902000Y-67289000D02*
X129098000Y-67289000D01*
X127052000Y-67249000D02*
X128948000Y-67249000D01*
X127232000Y-67209000D02*
X128768000Y-67209000D01*
X127467000Y-67169000D02*
X128533000Y-67169000D01*
X129040000Y-68489000D02*
X131019000Y-68489000D01*
X129040000Y-68529000D02*
X131055000Y-68529000D01*
X129040000Y-68569000D02*
X131090000Y-68569000D01*
X129040000Y-68609000D02*
X131124000Y-68609000D01*
X129040000Y-68649000D02*
X131156000Y-68649000D01*
X129040000Y-68689000D02*
X131189000Y-68689000D01*
X129040000Y-68729000D02*
X131220000Y-68729000D01*
X129040000Y-68769000D02*
X131250000Y-68769000D01*
X129040000Y-68809000D02*
X131280000Y-68809000D01*
X129040000Y-68849000D02*
X131309000Y-68849000D01*
X129040000Y-68889000D02*
X131338000Y-68889000D01*
X129040000Y-68929000D02*
X131365000Y-68929000D01*
X129040000Y-68969000D02*
X131392000Y-68969000D01*
X129040000Y-69009000D02*
X131418000Y-69009000D01*
X129040000Y-69049000D02*
X131444000Y-69049000D01*
X129040000Y-69089000D02*
X131469000Y-69089000D01*
X129040000Y-69129000D02*
X131493000Y-69129000D01*
X129040000Y-69169000D02*
X131517000Y-69169000D01*
X129040000Y-69209000D02*
X131540000Y-69209000D01*
X129040000Y-69249000D02*
X131562000Y-69249000D01*
X129040000Y-69289000D02*
X131584000Y-69289000D01*
X129040000Y-69329000D02*
X131606000Y-69329000D01*
X129040000Y-69369000D02*
X131627000Y-69369000D01*
X129040000Y-69409000D02*
X131647000Y-69409000D01*
X129040000Y-69449000D02*
X131666000Y-69449000D01*
X129040000Y-69489000D02*
X131686000Y-69489000D01*
X129040000Y-69529000D02*
X131704000Y-69529000D01*
X129040000Y-69569000D02*
X131722000Y-69569000D01*
X129040000Y-69609000D02*
X131740000Y-69609000D01*
X129040000Y-69649000D02*
X131757000Y-69649000D01*
X129040000Y-69689000D02*
X131774000Y-69689000D01*
X129040000Y-69729000D02*
X131790000Y-69729000D01*
X129040000Y-69769000D02*
X131805000Y-69769000D01*
X129040000Y-69809000D02*
X131821000Y-69809000D01*
X129040000Y-69849000D02*
X131835000Y-69849000D01*
X129040000Y-69889000D02*
X131850000Y-69889000D01*
X129040000Y-69929000D02*
X131863000Y-69929000D01*
X129040000Y-69969000D02*
X131877000Y-69969000D01*
X129040000Y-70009000D02*
X131889000Y-70009000D01*
X129040000Y-70049000D02*
X131902000Y-70049000D01*
X129040000Y-70089000D02*
X131914000Y-70089000D01*
X129040000Y-70129000D02*
X131925000Y-70129000D01*
X129040000Y-70169000D02*
X131936000Y-70169000D01*
X129040000Y-70209000D02*
X131947000Y-70209000D01*
X129040000Y-70249000D02*
X131957000Y-70249000D01*
X129040000Y-70289000D02*
X131967000Y-70289000D01*
X129040000Y-70329000D02*
X131976000Y-70329000D01*
X129040000Y-70369000D02*
X131985000Y-70369000D01*
X129040000Y-70409000D02*
X131994000Y-70409000D01*
X129040000Y-70449000D02*
X132002000Y-70449000D01*
X129040000Y-70489000D02*
X132010000Y-70489000D01*
X129040000Y-70529000D02*
X132017000Y-70529000D01*
X132120000Y-71250000D02*
G75*
G02*
X123880000Y-71250000I-4120000J0D01*
G01*
X123880000Y-71250000D02*
G75*
G02*
X132120000Y-71250000I4120000J0D01*
G01*
%TO.C,R19*%
X104422936Y-85290000D02*
X104877064Y-85290000D01*
X104422936Y-86760000D02*
X104877064Y-86760000D01*
%TO.C,J2*%
X89550000Y-116195000D02*
X89550000Y-118855000D01*
X99770000Y-116195000D02*
X89550000Y-116195000D01*
X99770000Y-116195000D02*
X99770000Y-118855000D01*
X99770000Y-118855000D02*
X89550000Y-118855000D01*
X102370000Y-117525000D02*
X102370000Y-118855000D01*
X102370000Y-118855000D02*
X101040000Y-118855000D01*
%TO.C,C19*%
X91800000Y-87134657D02*
X93340000Y-87134657D01*
X91800000Y-87174657D02*
X93340000Y-87174657D01*
X91801000Y-87094657D02*
X93340000Y-87094657D01*
X91802000Y-87054657D02*
X93340000Y-87054657D01*
X91804000Y-87014657D02*
X93340000Y-87014657D01*
X91807000Y-86974657D02*
X93340000Y-86974657D01*
X91811000Y-86934657D02*
X93340000Y-86934657D01*
X91815000Y-86894657D02*
X93340000Y-86894657D01*
X91819000Y-86854657D02*
X93340000Y-86854657D01*
X91824000Y-86814657D02*
X93340000Y-86814657D01*
X91830000Y-86774657D02*
X93340000Y-86774657D01*
X91837000Y-86734657D02*
X93340000Y-86734657D01*
X91844000Y-86694657D02*
X93340000Y-86694657D01*
X91852000Y-86654657D02*
X93340000Y-86654657D01*
X91860000Y-86614657D02*
X93340000Y-86614657D01*
X91869000Y-86574657D02*
X93340000Y-86574657D01*
X91879000Y-86534657D02*
X93340000Y-86534657D01*
X91889000Y-86494657D02*
X93340000Y-86494657D01*
X91900000Y-86453657D02*
X93340000Y-86453657D01*
X91912000Y-86413657D02*
X93340000Y-86413657D01*
X91925000Y-86373657D02*
X93340000Y-86373657D01*
X91938000Y-86333657D02*
X93340000Y-86333657D01*
X91952000Y-86293657D02*
X93340000Y-86293657D01*
X91966000Y-86253657D02*
X93340000Y-86253657D01*
X91982000Y-86213657D02*
X93340000Y-86213657D01*
X91998000Y-86173657D02*
X93340000Y-86173657D01*
X92015000Y-86133657D02*
X93340000Y-86133657D01*
X92032000Y-86093657D02*
X93340000Y-86093657D01*
X92051000Y-86053657D02*
X93340000Y-86053657D01*
X92070000Y-86013657D02*
X93340000Y-86013657D01*
X92090000Y-85973657D02*
X93340000Y-85973657D01*
X92112000Y-85933657D02*
X93340000Y-85933657D01*
X92133000Y-85893657D02*
X93340000Y-85893657D01*
X92156000Y-85853657D02*
X93340000Y-85853657D01*
X92180000Y-85813657D02*
X93340000Y-85813657D01*
X92205000Y-85773657D02*
X93340000Y-85773657D01*
X92231000Y-85733657D02*
X93340000Y-85733657D01*
X92258000Y-85693657D02*
X93340000Y-85693657D01*
X92285000Y-85653657D02*
X93340000Y-85653657D01*
X92315000Y-85613657D02*
X93340000Y-85613657D01*
X92345000Y-85573657D02*
X93340000Y-85573657D01*
X92376000Y-85533657D02*
X93340000Y-85533657D01*
X92409000Y-85493657D02*
X93340000Y-85493657D01*
X92443000Y-85453657D02*
X93340000Y-85453657D01*
X92479000Y-85413657D02*
X93340000Y-85413657D01*
X92516000Y-85373657D02*
X93340000Y-85373657D01*
X92554000Y-85333657D02*
X93340000Y-85333657D01*
X92595000Y-85293657D02*
X93340000Y-85293657D01*
X92637000Y-85253657D02*
X93340000Y-85253657D01*
X92655000Y-89729432D02*
X93155000Y-89729432D01*
X92681000Y-85213657D02*
X93340000Y-85213657D01*
X92727000Y-85173657D02*
X93340000Y-85173657D01*
X92775000Y-85133657D02*
X95985000Y-85133657D01*
X92826000Y-85093657D02*
X95934000Y-85093657D01*
X92880000Y-85053657D02*
X95880000Y-85053657D01*
X92905000Y-89979432D02*
X92905000Y-89479432D01*
X92937000Y-85013657D02*
X95823000Y-85013657D01*
X92997000Y-84973657D02*
X95763000Y-84973657D01*
X93061000Y-84933657D02*
X95699000Y-84933657D01*
X93129000Y-84893657D02*
X95631000Y-84893657D01*
X93202000Y-84853657D02*
X95558000Y-84853657D01*
X93282000Y-84813657D02*
X95478000Y-84813657D01*
X93369000Y-84773657D02*
X95391000Y-84773657D01*
X93465000Y-84733657D02*
X95295000Y-84733657D01*
X93575000Y-84693657D02*
X95185000Y-84693657D01*
X93703000Y-84653657D02*
X95057000Y-84653657D01*
X93862000Y-84613657D02*
X94898000Y-84613657D01*
X94096000Y-84573657D02*
X94664000Y-84573657D01*
X95420000Y-85173657D02*
X96033000Y-85173657D01*
X95420000Y-85213657D02*
X96079000Y-85213657D01*
X95420000Y-85253657D02*
X96123000Y-85253657D01*
X95420000Y-85293657D02*
X96165000Y-85293657D01*
X95420000Y-85333657D02*
X96206000Y-85333657D01*
X95420000Y-85373657D02*
X96244000Y-85373657D01*
X95420000Y-85413657D02*
X96281000Y-85413657D01*
X95420000Y-85453657D02*
X96317000Y-85453657D01*
X95420000Y-85493657D02*
X96351000Y-85493657D01*
X95420000Y-85533657D02*
X96384000Y-85533657D01*
X95420000Y-85573657D02*
X96415000Y-85573657D01*
X95420000Y-85613657D02*
X96445000Y-85613657D01*
X95420000Y-85653657D02*
X96475000Y-85653657D01*
X95420000Y-85693657D02*
X96502000Y-85693657D01*
X95420000Y-85733657D02*
X96529000Y-85733657D01*
X95420000Y-85773657D02*
X96555000Y-85773657D01*
X95420000Y-85813657D02*
X96580000Y-85813657D01*
X95420000Y-85853657D02*
X96604000Y-85853657D01*
X95420000Y-85893657D02*
X96627000Y-85893657D01*
X95420000Y-85933657D02*
X96648000Y-85933657D01*
X95420000Y-85973657D02*
X96670000Y-85973657D01*
X95420000Y-86013657D02*
X96690000Y-86013657D01*
X95420000Y-86053657D02*
X96709000Y-86053657D01*
X95420000Y-86093657D02*
X96728000Y-86093657D01*
X95420000Y-86133657D02*
X96745000Y-86133657D01*
X95420000Y-86173657D02*
X96762000Y-86173657D01*
X95420000Y-86213657D02*
X96778000Y-86213657D01*
X95420000Y-86253657D02*
X96794000Y-86253657D01*
X95420000Y-86293657D02*
X96808000Y-86293657D01*
X95420000Y-86333657D02*
X96822000Y-86333657D01*
X95420000Y-86373657D02*
X96835000Y-86373657D01*
X95420000Y-86413657D02*
X96848000Y-86413657D01*
X95420000Y-86453657D02*
X96860000Y-86453657D01*
X95420000Y-86494657D02*
X96871000Y-86494657D01*
X95420000Y-86534657D02*
X96881000Y-86534657D01*
X95420000Y-86574657D02*
X96891000Y-86574657D01*
X95420000Y-86614657D02*
X96900000Y-86614657D01*
X95420000Y-86654657D02*
X96908000Y-86654657D01*
X95420000Y-86694657D02*
X96916000Y-86694657D01*
X95420000Y-86734657D02*
X96923000Y-86734657D01*
X95420000Y-86774657D02*
X96930000Y-86774657D01*
X95420000Y-86814657D02*
X96936000Y-86814657D01*
X95420000Y-86854657D02*
X96941000Y-86854657D01*
X95420000Y-86894657D02*
X96945000Y-86894657D01*
X95420000Y-86934657D02*
X96949000Y-86934657D01*
X95420000Y-86974657D02*
X96953000Y-86974657D01*
X95420000Y-87014657D02*
X96956000Y-87014657D01*
X95420000Y-87054657D02*
X96958000Y-87054657D01*
X95420000Y-87094657D02*
X96959000Y-87094657D01*
X95420000Y-87134657D02*
X96960000Y-87134657D01*
X95420000Y-87174657D02*
X96960000Y-87174657D01*
X97000000Y-87174657D02*
G75*
G02*
X91760000Y-87174657I-2620000J0D01*
G01*
X91760000Y-87174657D02*
G75*
G02*
X97000000Y-87174657I2620000J0D01*
G01*
%TO.C,R22*%
X72727064Y-100530000D02*
X72272936Y-100530000D01*
X72727064Y-102000000D02*
X72272936Y-102000000D01*
%TO.C,R16*%
X110265000Y-65227064D02*
X110265000Y-64772936D01*
X111735000Y-65227064D02*
X111735000Y-64772936D01*
%TO.C,R18*%
X104422936Y-87790000D02*
X104877064Y-87790000D01*
X104422936Y-89260000D02*
X104877064Y-89260000D01*
%TO.C,C13*%
X106613529Y-101201248D02*
X106613529Y-101723752D01*
X108083529Y-101201248D02*
X108083529Y-101723752D01*
%TO.C,M2*%
X64625000Y-70905000D02*
X71365000Y-70905000D01*
X64625000Y-76725000D02*
X64625000Y-70905000D01*
X64625000Y-76725000D02*
X71365000Y-76725000D01*
X66344000Y-76725000D02*
X66344000Y-70905000D01*
X69445000Y-76725000D02*
X69445000Y-70905000D01*
X70445000Y-76725000D02*
X70445000Y-70905000D01*
X70565000Y-76965000D02*
X71605000Y-76965000D01*
X71365000Y-76725000D02*
X71365000Y-70905000D01*
X71605000Y-76965000D02*
X71605000Y-76165000D01*
%TO.C,U4*%
X134625000Y-98075000D02*
X150875000Y-98075000D01*
X134625000Y-114325000D02*
X134625000Y-98075000D01*
X149050000Y-97800000D02*
X151150000Y-97800000D01*
X150875000Y-98075000D02*
X150875000Y-114325000D01*
X150875000Y-114325000D02*
X134625000Y-114325000D01*
X151150000Y-97800000D02*
X151150000Y-100100000D01*
%TO.C,D4*%
X110040000Y-67115000D02*
X110040000Y-69975000D01*
X111960000Y-67115000D02*
X110040000Y-67115000D01*
X111960000Y-69975000D02*
X111960000Y-67115000D01*
%TO.C,U2*%
X107390000Y-103890000D02*
X107390000Y-104840000D01*
X107390000Y-114110000D02*
X107390000Y-113160000D01*
X108340000Y-103890000D02*
X107390000Y-103890000D01*
X108340000Y-114110000D02*
X107390000Y-114110000D01*
X116660000Y-103890000D02*
X117610000Y-103890000D01*
X116660000Y-114110000D02*
X117610000Y-114110000D01*
X117610000Y-103890000D02*
X117610000Y-104840000D01*
X117610000Y-114110000D02*
X117610000Y-113160000D01*
X106775000Y-104840000D02*
X106435000Y-104370000D01*
X107115000Y-104370000D01*
X106775000Y-104840000D01*
G36*
X106775000Y-104840000D02*
G01*
X106435000Y-104370000D01*
X107115000Y-104370000D01*
X106775000Y-104840000D01*
G37*
%TO.C,D14*%
X119530000Y-66470000D02*
X119860000Y-66470000D01*
X119530000Y-70890000D02*
X122470000Y-70890000D01*
X119530000Y-71010000D02*
X122470000Y-71010000D01*
X119530000Y-71130000D02*
X122470000Y-71130000D01*
X119530000Y-71910000D02*
X119530000Y-66470000D01*
X119860000Y-71910000D02*
X119530000Y-71910000D01*
X122140000Y-71910000D02*
X122470000Y-71910000D01*
X122470000Y-66470000D02*
X122140000Y-66470000D01*
X122470000Y-71910000D02*
X122470000Y-66470000D01*
%TO.C,R14*%
X104265000Y-65277064D02*
X104265000Y-64822936D01*
X105735000Y-65277064D02*
X105735000Y-64822936D01*
%TO.C,D3*%
X112040000Y-67115000D02*
X112040000Y-69975000D01*
X113960000Y-67115000D02*
X112040000Y-67115000D01*
X113960000Y-69975000D02*
X113960000Y-67115000D01*
%TO.C,C16*%
X73360000Y-64996248D02*
X73360000Y-65518752D01*
X74830000Y-64996248D02*
X74830000Y-65518752D01*
%TO.C,U6*%
X124628000Y-89245041D02*
X124639522Y-93180432D01*
X124627574Y-89194615D02*
G75*
G02*
X129077999Y-91341954I1850426J-1850426D01*
G01*
X129078000Y-91341954D02*
G75*
G02*
X124639524Y-93180430I-2600000J3D01*
G01*
%TO.C,R23*%
X114265000Y-74272936D02*
X114265000Y-74727064D01*
X115735000Y-74272936D02*
X115735000Y-74727064D01*
%TO.C,C8*%
X120816252Y-80231041D02*
X120293748Y-80231041D01*
X120816252Y-81701041D02*
X120293748Y-81701041D01*
%TO.C,U7*%
X118684000Y-82306041D02*
X118684000Y-92546041D01*
X121815000Y-82306041D02*
X121815000Y-92546041D01*
X123325000Y-82306041D02*
X118684000Y-82306041D01*
X123325000Y-82306041D02*
X123325000Y-92546041D01*
X123325000Y-85576041D02*
X121815000Y-85576041D01*
X123325000Y-89277041D02*
X121815000Y-89277041D01*
X123325000Y-92546041D02*
X118684000Y-92546041D01*
%TO.C,D5*%
X114040000Y-67115000D02*
X114040000Y-69975000D01*
X115960000Y-67115000D02*
X114040000Y-67115000D01*
X115960000Y-69975000D02*
X115960000Y-67115000D01*
%TO.C,R7*%
X120765000Y-76653105D02*
X120765000Y-76198977D01*
X122235000Y-76653105D02*
X122235000Y-76198977D01*
%TO.C,D13*%
X73530000Y-111470000D02*
X73860000Y-111470000D01*
X73530000Y-115890000D02*
X76470000Y-115890000D01*
X73530000Y-116010000D02*
X76470000Y-116010000D01*
X73530000Y-116130000D02*
X76470000Y-116130000D01*
X73530000Y-116910000D02*
X73530000Y-111470000D01*
X73860000Y-116910000D02*
X73530000Y-116910000D01*
X76140000Y-116910000D02*
X76470000Y-116910000D01*
X76470000Y-111470000D02*
X76140000Y-111470000D01*
X76470000Y-116910000D02*
X76470000Y-111470000D01*
%TO.C,C3*%
X126621252Y-94515000D02*
X126098748Y-94515000D01*
X126621252Y-95985000D02*
X126098748Y-95985000D01*
%TO.C,Q1*%
X70344000Y-105526000D02*
X70332478Y-101590609D01*
X65894000Y-103429087D02*
G75*
G02*
X70332481Y-101590606I2600000J7D01*
G01*
X70344426Y-105576426D02*
G75*
G02*
X65894001Y-103429087I-1850426J1850426D01*
G01*
%TO.C,D8*%
X108040000Y-67115000D02*
X108040000Y-69975000D01*
X109960000Y-67115000D02*
X108040000Y-67115000D01*
X109960000Y-69975000D02*
X109960000Y-67115000D01*
%TO.C,C7*%
X120816252Y-93231041D02*
X120293748Y-93231041D01*
X120816252Y-94701041D02*
X120293748Y-94701041D01*
%TO.C,U3*%
X68380000Y-82025000D02*
X68380000Y-83675000D01*
X68380000Y-85675000D02*
X68380000Y-87325000D01*
X68380000Y-87325000D02*
X88820000Y-87325000D01*
X88820000Y-82025000D02*
X68380000Y-82025000D01*
X88820000Y-87325000D02*
X88820000Y-82025000D01*
X68380000Y-83675000D02*
G75*
G02*
X68380000Y-85675000I0J-1000000D01*
G01*
%TO.C,D1*%
X134140000Y-84960000D02*
X134140000Y-79900000D01*
X134140000Y-84960000D02*
X136860000Y-84960000D01*
X136860000Y-84960000D02*
X136860000Y-79900000D01*
%TO.C,C5*%
X132919000Y-70750000D02*
X151081000Y-70750000D01*
X132920000Y-70630000D02*
X151080000Y-70630000D01*
X132920000Y-70670000D02*
X151080000Y-70670000D01*
X132920000Y-70710000D02*
X151080000Y-70710000D01*
X132921000Y-70590000D02*
X151079000Y-70590000D01*
X132922000Y-70550000D02*
X151078000Y-70550000D01*
X132923000Y-70510000D02*
X151077000Y-70510000D01*
X132924000Y-70470000D02*
X151076000Y-70470000D01*
X132925000Y-70430000D02*
X151075000Y-70430000D01*
X132927000Y-70390000D02*
X151073000Y-70390000D01*
X132928000Y-70350000D02*
X151072000Y-70350000D01*
X132930000Y-70310000D02*
X151070000Y-70310000D01*
X132932000Y-70270000D02*
X151068000Y-70270000D01*
X132934000Y-70230000D02*
X151066000Y-70230000D01*
X132937000Y-70190000D02*
X151063000Y-70190000D01*
X132939000Y-70150000D02*
X151061000Y-70150000D01*
X132942000Y-70110000D02*
X151058000Y-70110000D01*
X132945000Y-70070000D02*
X151055000Y-70070000D01*
X132948000Y-70029000D02*
X151052000Y-70029000D01*
X132951000Y-69989000D02*
X151049000Y-69989000D01*
X132955000Y-69949000D02*
X151045000Y-69949000D01*
X132958000Y-69909000D02*
X151042000Y-69909000D01*
X132962000Y-69869000D02*
X151038000Y-69869000D01*
X132966000Y-69829000D02*
X151034000Y-69829000D01*
X132970000Y-69789000D02*
X151030000Y-69789000D01*
X132974000Y-69749000D02*
X151026000Y-69749000D01*
X132979000Y-69709000D02*
X151021000Y-69709000D01*
X132984000Y-69669000D02*
X151016000Y-69669000D01*
X132989000Y-69629000D02*
X151011000Y-69629000D01*
X132994000Y-69589000D02*
X151006000Y-69589000D01*
X132999000Y-69549000D02*
X151001000Y-69549000D01*
X133004000Y-69509000D02*
X150996000Y-69509000D01*
X133010000Y-69469000D02*
X150990000Y-69469000D01*
X133016000Y-69429000D02*
X150984000Y-69429000D01*
X133021000Y-69389000D02*
X150979000Y-69389000D01*
X133028000Y-69349000D02*
X150972000Y-69349000D01*
X133034000Y-69309000D02*
X150966000Y-69309000D01*
X133040000Y-69269000D02*
X150960000Y-69269000D01*
X133047000Y-69229000D02*
X150953000Y-69229000D01*
X133054000Y-69189000D02*
X150946000Y-69189000D01*
X133061000Y-69149000D02*
X150939000Y-69149000D01*
X133068000Y-69109000D02*
X150932000Y-69109000D01*
X133076000Y-69069000D02*
X150924000Y-69069000D01*
X133083000Y-69029000D02*
X150917000Y-69029000D01*
X133091000Y-68989000D02*
X150909000Y-68989000D01*
X133099000Y-68949000D02*
X150901000Y-68949000D01*
X133107000Y-68909000D02*
X150893000Y-68909000D01*
X133115000Y-68869000D02*
X150885000Y-68869000D01*
X133124000Y-68829000D02*
X150876000Y-68829000D01*
X133133000Y-68789000D02*
X150867000Y-68789000D01*
X133142000Y-68749000D02*
X150858000Y-68749000D01*
X133151000Y-68709000D02*
X150849000Y-68709000D01*
X133160000Y-68669000D02*
X150840000Y-68669000D01*
X133169000Y-68629000D02*
X150831000Y-68629000D01*
X133179000Y-68589000D02*
X150821000Y-68589000D01*
X133189000Y-68549000D02*
X150811000Y-68549000D01*
X133199000Y-68509000D02*
X150801000Y-68509000D01*
X133209000Y-68469000D02*
X150791000Y-68469000D01*
X133220000Y-68429000D02*
X140560000Y-68429000D01*
X133230000Y-68389000D02*
X140560000Y-68389000D01*
X133241000Y-68349000D02*
X140560000Y-68349000D01*
X133252000Y-68309000D02*
X140560000Y-68309000D01*
X133263000Y-68269000D02*
X140560000Y-68269000D01*
X133275000Y-68229000D02*
X140560000Y-68229000D01*
X133286000Y-68189000D02*
X140560000Y-68189000D01*
X133298000Y-68149000D02*
X140560000Y-68149000D01*
X133310000Y-68109000D02*
X140560000Y-68109000D01*
X133322000Y-68069000D02*
X140560000Y-68069000D01*
X133335000Y-68029000D02*
X140560000Y-68029000D01*
X133347000Y-67989000D02*
X140560000Y-67989000D01*
X133360000Y-67949000D02*
X140560000Y-67949000D01*
X133373000Y-67909000D02*
X140560000Y-67909000D01*
X133386000Y-67869000D02*
X140560000Y-67869000D01*
X133400000Y-67829000D02*
X140560000Y-67829000D01*
X133413000Y-67789000D02*
X140560000Y-67789000D01*
X133427000Y-67749000D02*
X140560000Y-67749000D01*
X133441000Y-67709000D02*
X140560000Y-67709000D01*
X133455000Y-67669000D02*
X140560000Y-67669000D01*
X133470000Y-67629000D02*
X140560000Y-67629000D01*
X133484000Y-67589000D02*
X140560000Y-67589000D01*
X133499000Y-67549000D02*
X140560000Y-67549000D01*
X133514000Y-67509000D02*
X140560000Y-67509000D01*
X133530000Y-67469000D02*
X140560000Y-67469000D01*
X133545000Y-67429000D02*
X140560000Y-67429000D01*
X133561000Y-67389000D02*
X140560000Y-67389000D01*
X133577000Y-67349000D02*
X140560000Y-67349000D01*
X133593000Y-67309000D02*
X140560000Y-67309000D01*
X133610000Y-67269000D02*
X140560000Y-67269000D01*
X133626000Y-67229000D02*
X140560000Y-67229000D01*
X133643000Y-67189000D02*
X140560000Y-67189000D01*
X133660000Y-67149000D02*
X140560000Y-67149000D01*
X133677000Y-67109000D02*
X140560000Y-67109000D01*
X133695000Y-67069000D02*
X140560000Y-67069000D01*
X133713000Y-67029000D02*
X140560000Y-67029000D01*
X133731000Y-66989000D02*
X140560000Y-66989000D01*
X133749000Y-66949000D02*
X140560000Y-66949000D01*
X133767000Y-66909000D02*
X140560000Y-66909000D01*
X133786000Y-66869000D02*
X140560000Y-66869000D01*
X133805000Y-66829000D02*
X140560000Y-66829000D01*
X133824000Y-66789000D02*
X140560000Y-66789000D01*
X133844000Y-66749000D02*
X140560000Y-66749000D01*
X133863000Y-66709000D02*
X140560000Y-66709000D01*
X133883000Y-66669000D02*
X140560000Y-66669000D01*
X133903000Y-66629000D02*
X140560000Y-66629000D01*
X133924000Y-66589000D02*
X140560000Y-66589000D01*
X133944000Y-66549000D02*
X140560000Y-66549000D01*
X133965000Y-66509000D02*
X140560000Y-66509000D01*
X133986000Y-66469000D02*
X140560000Y-66469000D01*
X134008000Y-66429000D02*
X140560000Y-66429000D01*
X134029000Y-66389000D02*
X140560000Y-66389000D01*
X134051000Y-66349000D02*
X140560000Y-66349000D01*
X134073000Y-66309000D02*
X140560000Y-66309000D01*
X134096000Y-66269000D02*
X140560000Y-66269000D01*
X134118000Y-66229000D02*
X140560000Y-66229000D01*
X134141000Y-66189000D02*
X140560000Y-66189000D01*
X134165000Y-66149000D02*
X140560000Y-66149000D01*
X134188000Y-66109000D02*
X140560000Y-66109000D01*
X134212000Y-66069000D02*
X140560000Y-66069000D01*
X134236000Y-66029000D02*
X140560000Y-66029000D01*
X134260000Y-65989000D02*
X140560000Y-65989000D01*
X134285000Y-65949000D02*
X140560000Y-65949000D01*
X134310000Y-65909000D02*
X140560000Y-65909000D01*
X134335000Y-65869000D02*
X140560000Y-65869000D01*
X134360000Y-65829000D02*
X140560000Y-65829000D01*
X134386000Y-65789000D02*
X140560000Y-65789000D01*
X134412000Y-65749000D02*
X140560000Y-65749000D01*
X134439000Y-65709000D02*
X140560000Y-65709000D01*
X134465000Y-65669000D02*
X140560000Y-65669000D01*
X134492000Y-65629000D02*
X140560000Y-65629000D01*
X134520000Y-65589000D02*
X140560000Y-65589000D01*
X134547000Y-65549000D02*
X149453000Y-65549000D01*
X134575000Y-65509000D02*
X149425000Y-65509000D01*
X134603000Y-65469000D02*
X149397000Y-65469000D01*
X134632000Y-65429000D02*
X149368000Y-65429000D01*
X134661000Y-65389000D02*
X149339000Y-65389000D01*
X134690000Y-65349000D02*
X149310000Y-65349000D01*
X134720000Y-65309000D02*
X149280000Y-65309000D01*
X134750000Y-65269000D02*
X149250000Y-65269000D01*
X134780000Y-65229000D02*
X149220000Y-65229000D01*
X134810000Y-65189000D02*
X149190000Y-65189000D01*
X134841000Y-65149000D02*
X149159000Y-65149000D01*
X134873000Y-65109000D02*
X149127000Y-65109000D01*
X134904000Y-65069000D02*
X149096000Y-65069000D01*
X134936000Y-65029000D02*
X149064000Y-65029000D01*
X134969000Y-64989000D02*
X149031000Y-64989000D01*
X135001000Y-64949000D02*
X148999000Y-64949000D01*
X135035000Y-64909000D02*
X148965000Y-64909000D01*
X135068000Y-64869000D02*
X148932000Y-64869000D01*
X135102000Y-64829000D02*
X148898000Y-64829000D01*
X135136000Y-64789000D02*
X148864000Y-64789000D01*
X135171000Y-64749000D02*
X148829000Y-64749000D01*
X135206000Y-64709000D02*
X148794000Y-64709000D01*
X135242000Y-64669000D02*
X148758000Y-64669000D01*
X135278000Y-64629000D02*
X148722000Y-64629000D01*
X135314000Y-64589000D02*
X148686000Y-64589000D01*
X135351000Y-64549000D02*
X148649000Y-64549000D01*
X135388000Y-64509000D02*
X148612000Y-64509000D01*
X135426000Y-64469000D02*
X148574000Y-64469000D01*
X135464000Y-64429000D02*
X148536000Y-64429000D01*
X135503000Y-64389000D02*
X148497000Y-64389000D01*
X135542000Y-64349000D02*
X148458000Y-64349000D01*
X135582000Y-64309000D02*
X148418000Y-64309000D01*
X135622000Y-64269000D02*
X148378000Y-64269000D01*
X135663000Y-64229000D02*
X148337000Y-64229000D01*
X135704000Y-64189000D02*
X148296000Y-64189000D01*
X135746000Y-64149000D02*
X148254000Y-64149000D01*
X135788000Y-64109000D02*
X148212000Y-64109000D01*
X135830000Y-64069000D02*
X148170000Y-64069000D01*
X135874000Y-64029000D02*
X148126000Y-64029000D01*
X135918000Y-63989000D02*
X148082000Y-63989000D01*
X135962000Y-63949000D02*
X148038000Y-63949000D01*
X135985000Y-79609440D02*
X137785000Y-79609440D01*
X136007000Y-63909000D02*
X147993000Y-63909000D01*
X136053000Y-63869000D02*
X147947000Y-63869000D01*
X136099000Y-63829000D02*
X147901000Y-63829000D01*
X136146000Y-63789000D02*
X147854000Y-63789000D01*
X136194000Y-63749000D02*
X147806000Y-63749000D01*
X136242000Y-63709000D02*
X147758000Y-63709000D01*
X136291000Y-63669000D02*
X147709000Y-63669000D01*
X136340000Y-63629000D02*
X147660000Y-63629000D01*
X136391000Y-63589000D02*
X147609000Y-63589000D01*
X136442000Y-63549000D02*
X147558000Y-63549000D01*
X136494000Y-63509000D02*
X147506000Y-63509000D01*
X136546000Y-63469000D02*
X147454000Y-63469000D01*
X136600000Y-63429000D02*
X147400000Y-63429000D01*
X136654000Y-63389000D02*
X147346000Y-63389000D01*
X136709000Y-63349000D02*
X147291000Y-63349000D01*
X136765000Y-63309000D02*
X147235000Y-63309000D01*
X136822000Y-63269000D02*
X147178000Y-63269000D01*
X136880000Y-63229000D02*
X147120000Y-63229000D01*
X136885000Y-80509440D02*
X136885000Y-78709440D01*
X136938000Y-63189000D02*
X147062000Y-63189000D01*
X136998000Y-63149000D02*
X147002000Y-63149000D01*
X137059000Y-63109000D02*
X146941000Y-63109000D01*
X137121000Y-63069000D02*
X146879000Y-63069000D01*
X137184000Y-63029000D02*
X146816000Y-63029000D01*
X137248000Y-62989000D02*
X146752000Y-62989000D01*
X137314000Y-62949000D02*
X146686000Y-62949000D01*
X137380000Y-62909000D02*
X146620000Y-62909000D01*
X137448000Y-62869000D02*
X146552000Y-62869000D01*
X137518000Y-62829000D02*
X146482000Y-62829000D01*
X137588000Y-62789000D02*
X146412000Y-62789000D01*
X137661000Y-62749000D02*
X146339000Y-62749000D01*
X137735000Y-62709000D02*
X146265000Y-62709000D01*
X137810000Y-62669000D02*
X146190000Y-62669000D01*
X137887000Y-62629000D02*
X146113000Y-62629000D01*
X137967000Y-62589000D02*
X146033000Y-62589000D01*
X138048000Y-62550000D02*
X145952000Y-62550000D01*
X138131000Y-62510000D02*
X145869000Y-62510000D01*
X138216000Y-62470000D02*
X145784000Y-62470000D01*
X138304000Y-62430000D02*
X145696000Y-62430000D01*
X138395000Y-62390000D02*
X145605000Y-62390000D01*
X138488000Y-62350000D02*
X145512000Y-62350000D01*
X138584000Y-62310000D02*
X145416000Y-62310000D01*
X138683000Y-62270000D02*
X145317000Y-62270000D01*
X138786000Y-62230000D02*
X145214000Y-62230000D01*
X138893000Y-62190000D02*
X145107000Y-62190000D01*
X139004000Y-62150000D02*
X144996000Y-62150000D01*
X139120000Y-62110000D02*
X144880000Y-62110000D01*
X139241000Y-62070000D02*
X144759000Y-62070000D01*
X139368000Y-62030000D02*
X144632000Y-62030000D01*
X139502000Y-61990000D02*
X144498000Y-61990000D01*
X139645000Y-61950000D02*
X144355000Y-61950000D01*
X139797000Y-61910000D02*
X144203000Y-61910000D01*
X139961000Y-61870000D02*
X144039000Y-61870000D01*
X140140000Y-61830000D02*
X143860000Y-61830000D01*
X140339000Y-61790000D02*
X143661000Y-61790000D01*
X140565000Y-61750000D02*
X143435000Y-61750000D01*
X140834000Y-61710000D02*
X143166000Y-61710000D01*
X141186000Y-61670000D02*
X142814000Y-61670000D01*
X141960000Y-61630000D02*
X142040000Y-61630000D01*
X143440000Y-65589000D02*
X149480000Y-65589000D01*
X143440000Y-65629000D02*
X149508000Y-65629000D01*
X143440000Y-65669000D02*
X149535000Y-65669000D01*
X143440000Y-65709000D02*
X149561000Y-65709000D01*
X143440000Y-65749000D02*
X149588000Y-65749000D01*
X143440000Y-65789000D02*
X149614000Y-65789000D01*
X143440000Y-65829000D02*
X149640000Y-65829000D01*
X143440000Y-65869000D02*
X149665000Y-65869000D01*
X143440000Y-65909000D02*
X149690000Y-65909000D01*
X143440000Y-65949000D02*
X149715000Y-65949000D01*
X143440000Y-65989000D02*
X149740000Y-65989000D01*
X143440000Y-66029000D02*
X149764000Y-66029000D01*
X143440000Y-66069000D02*
X149788000Y-66069000D01*
X143440000Y-66109000D02*
X149812000Y-66109000D01*
X143440000Y-66149000D02*
X149835000Y-66149000D01*
X143440000Y-66189000D02*
X149859000Y-66189000D01*
X143440000Y-66229000D02*
X149882000Y-66229000D01*
X143440000Y-66269000D02*
X149904000Y-66269000D01*
X143440000Y-66309000D02*
X149927000Y-66309000D01*
X143440000Y-66349000D02*
X149949000Y-66349000D01*
X143440000Y-66389000D02*
X149971000Y-66389000D01*
X143440000Y-66429000D02*
X149992000Y-66429000D01*
X143440000Y-66469000D02*
X150014000Y-66469000D01*
X143440000Y-66509000D02*
X150035000Y-66509000D01*
X143440000Y-66549000D02*
X150056000Y-66549000D01*
X143440000Y-66589000D02*
X150076000Y-66589000D01*
X143440000Y-66629000D02*
X150097000Y-66629000D01*
X143440000Y-66669000D02*
X150117000Y-66669000D01*
X143440000Y-66709000D02*
X150137000Y-66709000D01*
X143440000Y-66749000D02*
X150156000Y-66749000D01*
X143440000Y-66789000D02*
X150176000Y-66789000D01*
X143440000Y-66829000D02*
X150195000Y-66829000D01*
X143440000Y-66869000D02*
X150214000Y-66869000D01*
X143440000Y-66909000D02*
X150233000Y-66909000D01*
X143440000Y-66949000D02*
X150251000Y-66949000D01*
X143440000Y-66989000D02*
X150269000Y-66989000D01*
X143440000Y-67029000D02*
X150287000Y-67029000D01*
X143440000Y-67069000D02*
X150305000Y-67069000D01*
X143440000Y-67109000D02*
X150323000Y-67109000D01*
X143440000Y-67149000D02*
X150340000Y-67149000D01*
X143440000Y-67189000D02*
X150357000Y-67189000D01*
X143440000Y-67229000D02*
X150374000Y-67229000D01*
X143440000Y-67269000D02*
X150390000Y-67269000D01*
X143440000Y-67309000D02*
X150407000Y-67309000D01*
X143440000Y-67349000D02*
X150423000Y-67349000D01*
X143440000Y-67389000D02*
X150439000Y-67389000D01*
X143440000Y-67429000D02*
X150455000Y-67429000D01*
X143440000Y-67469000D02*
X150470000Y-67469000D01*
X143440000Y-67509000D02*
X150486000Y-67509000D01*
X143440000Y-67549000D02*
X150501000Y-67549000D01*
X143440000Y-67589000D02*
X150516000Y-67589000D01*
X143440000Y-67629000D02*
X150530000Y-67629000D01*
X143440000Y-67669000D02*
X150545000Y-67669000D01*
X143440000Y-67709000D02*
X150559000Y-67709000D01*
X143440000Y-67749000D02*
X150573000Y-67749000D01*
X143440000Y-67789000D02*
X150587000Y-67789000D01*
X143440000Y-67829000D02*
X150600000Y-67829000D01*
X143440000Y-67869000D02*
X150614000Y-67869000D01*
X143440000Y-67909000D02*
X150627000Y-67909000D01*
X143440000Y-67949000D02*
X150640000Y-67949000D01*
X143440000Y-67989000D02*
X150653000Y-67989000D01*
X143440000Y-68029000D02*
X150665000Y-68029000D01*
X143440000Y-68069000D02*
X150678000Y-68069000D01*
X143440000Y-68109000D02*
X150690000Y-68109000D01*
X143440000Y-68149000D02*
X150702000Y-68149000D01*
X143440000Y-68189000D02*
X150714000Y-68189000D01*
X143440000Y-68229000D02*
X150725000Y-68229000D01*
X143440000Y-68269000D02*
X150737000Y-68269000D01*
X143440000Y-68309000D02*
X150748000Y-68309000D01*
X143440000Y-68349000D02*
X150759000Y-68349000D01*
X143440000Y-68389000D02*
X150770000Y-68389000D01*
X143440000Y-68429000D02*
X150780000Y-68429000D01*
X151120000Y-70750000D02*
G75*
G02*
X132880000Y-70750000I-9120000J0D01*
G01*
X132880000Y-70750000D02*
G75*
G02*
X151120000Y-70750000I9120000J0D01*
G01*
%TO.C,L1*%
X66130000Y-107360000D02*
X72870000Y-107360000D01*
X66130000Y-113180000D02*
X66130000Y-107360000D01*
X66130000Y-113180000D02*
X72870000Y-113180000D01*
X67849000Y-113180000D02*
X67849000Y-107360000D01*
X70950000Y-113180000D02*
X70950000Y-107360000D01*
X71950000Y-113180000D02*
X71950000Y-107360000D01*
X72070000Y-113420000D02*
X73110000Y-113420000D01*
X72870000Y-113180000D02*
X72870000Y-107360000D01*
X73110000Y-113420000D02*
X73110000Y-112620000D01*
%TO.C,R2*%
X110772936Y-100265000D02*
X111227064Y-100265000D01*
X110772936Y-101735000D02*
X111227064Y-101735000D01*
%TO.C,D12*%
X99725000Y-81960000D02*
X102585000Y-81960000D01*
X102585000Y-80040000D02*
X99725000Y-80040000D01*
X102585000Y-81960000D02*
X102585000Y-80040000D01*
%TO.C,R10*%
X122227064Y-95691041D02*
X121772936Y-95691041D01*
X122227064Y-97161041D02*
X121772936Y-97161041D01*
%TO.C,D6*%
X106040000Y-67165000D02*
X106040000Y-70025000D01*
X107960000Y-67165000D02*
X106040000Y-67165000D01*
X107960000Y-70025000D02*
X107960000Y-67165000D01*
%TO.C,R4*%
X131772936Y-88265000D02*
X132227064Y-88265000D01*
X131772936Y-89735000D02*
X132227064Y-89735000D01*
%TO.C,C11*%
X117265000Y-116761252D02*
X117265000Y-116238748D01*
X118735000Y-116761252D02*
X118735000Y-116238748D01*
%TO.C,C17*%
X94860000Y-74496248D02*
X94860000Y-75018752D01*
X96330000Y-74496248D02*
X96330000Y-75018752D01*
%TO.C,M1*%
X64625000Y-63905000D02*
X71365000Y-63905000D01*
X64625000Y-69725000D02*
X64625000Y-63905000D01*
X64625000Y-69725000D02*
X71365000Y-69725000D01*
X66344000Y-69725000D02*
X66344000Y-63905000D01*
X69445000Y-69725000D02*
X69445000Y-63905000D01*
X70445000Y-69725000D02*
X70445000Y-63905000D01*
X70565000Y-69965000D02*
X71605000Y-69965000D01*
X71365000Y-69725000D02*
X71365000Y-63905000D01*
X71605000Y-69965000D02*
X71605000Y-69165000D01*
%TO.C,L2*%
X137500000Y-82900000D02*
X137500000Y-85250000D01*
X137500000Y-85250000D02*
X136750000Y-85250000D01*
X137500000Y-92750000D02*
X137500000Y-95100000D01*
X137900000Y-82500000D02*
X150100000Y-82500000D01*
X150100000Y-95500000D02*
X137900000Y-95500000D01*
X150500000Y-82900000D02*
X150500000Y-85250000D01*
X150500000Y-92750000D02*
X150500000Y-95100000D01*
X137500000Y-82900000D02*
G75*
G02*
X137900000Y-82500000I399999J1D01*
G01*
X137900000Y-95500000D02*
G75*
G02*
X137500000Y-95100000I-1J399999D01*
G01*
X150100000Y-82500000D02*
G75*
G02*
X150500000Y-82900000I0J-400000D01*
G01*
X150500000Y-95100000D02*
G75*
G02*
X150100000Y-95500000I-400000J0D01*
G01*
%TO.C,D2*%
X77540000Y-107115000D02*
X77540000Y-109975000D01*
X79460000Y-107115000D02*
X77540000Y-107115000D01*
X79460000Y-109975000D02*
X79460000Y-107115000D01*
%TO.C,D9*%
X99675000Y-89525000D02*
X102535000Y-89525000D01*
X102535000Y-87605000D02*
X99675000Y-87605000D01*
X102535000Y-89525000D02*
X102535000Y-87605000D01*
%TO.C,R6*%
X126765000Y-82698977D02*
X126765000Y-83153105D01*
X128235000Y-82698977D02*
X128235000Y-83153105D01*
%TO.C,R15*%
X108265000Y-65252064D02*
X108265000Y-64797936D01*
X109735000Y-65252064D02*
X109735000Y-64797936D01*
%TO.C,C10*%
X103276248Y-110265000D02*
X103798752Y-110265000D01*
X103276248Y-111735000D02*
X103798752Y-111735000D01*
%TO.C,C20*%
X94515000Y-69960113D02*
X96055000Y-69960113D01*
X94515000Y-70000113D02*
X96055000Y-70000113D01*
X94516000Y-69920113D02*
X96055000Y-69920113D01*
X94517000Y-69880113D02*
X96055000Y-69880113D01*
X94519000Y-69840113D02*
X96055000Y-69840113D01*
X94522000Y-69800113D02*
X96055000Y-69800113D01*
X94526000Y-69760113D02*
X96055000Y-69760113D01*
X94530000Y-69720113D02*
X96055000Y-69720113D01*
X94534000Y-69680113D02*
X96055000Y-69680113D01*
X94539000Y-69640113D02*
X96055000Y-69640113D01*
X94545000Y-69600113D02*
X96055000Y-69600113D01*
X94552000Y-69560113D02*
X96055000Y-69560113D01*
X94559000Y-69520113D02*
X96055000Y-69520113D01*
X94567000Y-69480113D02*
X96055000Y-69480113D01*
X94575000Y-69440113D02*
X96055000Y-69440113D01*
X94584000Y-69400113D02*
X96055000Y-69400113D01*
X94594000Y-69360113D02*
X96055000Y-69360113D01*
X94604000Y-69320113D02*
X96055000Y-69320113D01*
X94615000Y-69279113D02*
X96055000Y-69279113D01*
X94627000Y-69239113D02*
X96055000Y-69239113D01*
X94640000Y-69199113D02*
X96055000Y-69199113D01*
X94653000Y-69159113D02*
X96055000Y-69159113D01*
X94667000Y-69119113D02*
X96055000Y-69119113D01*
X94681000Y-69079113D02*
X96055000Y-69079113D01*
X94697000Y-69039113D02*
X96055000Y-69039113D01*
X94713000Y-68999113D02*
X96055000Y-68999113D01*
X94730000Y-68959113D02*
X96055000Y-68959113D01*
X94747000Y-68919113D02*
X96055000Y-68919113D01*
X94766000Y-68879113D02*
X96055000Y-68879113D01*
X94785000Y-68839113D02*
X96055000Y-68839113D01*
X94805000Y-68799113D02*
X96055000Y-68799113D01*
X94827000Y-68759113D02*
X96055000Y-68759113D01*
X94848000Y-68719113D02*
X96055000Y-68719113D01*
X94871000Y-68679113D02*
X96055000Y-68679113D01*
X94895000Y-68639113D02*
X96055000Y-68639113D01*
X94920000Y-68599113D02*
X96055000Y-68599113D01*
X94946000Y-68559113D02*
X96055000Y-68559113D01*
X94973000Y-68519113D02*
X96055000Y-68519113D01*
X95000000Y-68479113D02*
X96055000Y-68479113D01*
X95030000Y-68439113D02*
X96055000Y-68439113D01*
X95060000Y-68399113D02*
X96055000Y-68399113D01*
X95091000Y-68359113D02*
X96055000Y-68359113D01*
X95124000Y-68319113D02*
X96055000Y-68319113D01*
X95158000Y-68279113D02*
X96055000Y-68279113D01*
X95194000Y-68239113D02*
X96055000Y-68239113D01*
X95231000Y-68199113D02*
X96055000Y-68199113D01*
X95269000Y-68159113D02*
X96055000Y-68159113D01*
X95310000Y-68119113D02*
X96055000Y-68119113D01*
X95352000Y-68079113D02*
X96055000Y-68079113D01*
X95370000Y-72554888D02*
X95870000Y-72554888D01*
X95396000Y-68039113D02*
X96055000Y-68039113D01*
X95442000Y-67999113D02*
X96055000Y-67999113D01*
X95490000Y-67959113D02*
X98700000Y-67959113D01*
X95541000Y-67919113D02*
X98649000Y-67919113D01*
X95595000Y-67879113D02*
X98595000Y-67879113D01*
X95620000Y-72804888D02*
X95620000Y-72304888D01*
X95652000Y-67839113D02*
X98538000Y-67839113D01*
X95712000Y-67799113D02*
X98478000Y-67799113D01*
X95776000Y-67759113D02*
X98414000Y-67759113D01*
X95844000Y-67719113D02*
X98346000Y-67719113D01*
X95917000Y-67679113D02*
X98273000Y-67679113D01*
X95997000Y-67639113D02*
X98193000Y-67639113D01*
X96084000Y-67599113D02*
X98106000Y-67599113D01*
X96180000Y-67559113D02*
X98010000Y-67559113D01*
X96290000Y-67519113D02*
X97900000Y-67519113D01*
X96418000Y-67479113D02*
X97772000Y-67479113D01*
X96577000Y-67439113D02*
X97613000Y-67439113D01*
X96811000Y-67399113D02*
X97379000Y-67399113D01*
X98135000Y-67999113D02*
X98748000Y-67999113D01*
X98135000Y-68039113D02*
X98794000Y-68039113D01*
X98135000Y-68079113D02*
X98838000Y-68079113D01*
X98135000Y-68119113D02*
X98880000Y-68119113D01*
X98135000Y-68159113D02*
X98921000Y-68159113D01*
X98135000Y-68199113D02*
X98959000Y-68199113D01*
X98135000Y-68239113D02*
X98996000Y-68239113D01*
X98135000Y-68279113D02*
X99032000Y-68279113D01*
X98135000Y-68319113D02*
X99066000Y-68319113D01*
X98135000Y-68359113D02*
X99099000Y-68359113D01*
X98135000Y-68399113D02*
X99130000Y-68399113D01*
X98135000Y-68439113D02*
X99160000Y-68439113D01*
X98135000Y-68479113D02*
X99190000Y-68479113D01*
X98135000Y-68519113D02*
X99217000Y-68519113D01*
X98135000Y-68559113D02*
X99244000Y-68559113D01*
X98135000Y-68599113D02*
X99270000Y-68599113D01*
X98135000Y-68639113D02*
X99295000Y-68639113D01*
X98135000Y-68679113D02*
X99319000Y-68679113D01*
X98135000Y-68719113D02*
X99342000Y-68719113D01*
X98135000Y-68759113D02*
X99363000Y-68759113D01*
X98135000Y-68799113D02*
X99385000Y-68799113D01*
X98135000Y-68839113D02*
X99405000Y-68839113D01*
X98135000Y-68879113D02*
X99424000Y-68879113D01*
X98135000Y-68919113D02*
X99443000Y-68919113D01*
X98135000Y-68959113D02*
X99460000Y-68959113D01*
X98135000Y-68999113D02*
X99477000Y-68999113D01*
X98135000Y-69039113D02*
X99493000Y-69039113D01*
X98135000Y-69079113D02*
X99509000Y-69079113D01*
X98135000Y-69119113D02*
X99523000Y-69119113D01*
X98135000Y-69159113D02*
X99537000Y-69159113D01*
X98135000Y-69199113D02*
X99550000Y-69199113D01*
X98135000Y-69239113D02*
X99563000Y-69239113D01*
X98135000Y-69279113D02*
X99575000Y-69279113D01*
X98135000Y-69320113D02*
X99586000Y-69320113D01*
X98135000Y-69360113D02*
X99596000Y-69360113D01*
X98135000Y-69400113D02*
X99606000Y-69400113D01*
X98135000Y-69440113D02*
X99615000Y-69440113D01*
X98135000Y-69480113D02*
X99623000Y-69480113D01*
X98135000Y-69520113D02*
X99631000Y-69520113D01*
X98135000Y-69560113D02*
X99638000Y-69560113D01*
X98135000Y-69600113D02*
X99645000Y-69600113D01*
X98135000Y-69640113D02*
X99651000Y-69640113D01*
X98135000Y-69680113D02*
X99656000Y-69680113D01*
X98135000Y-69720113D02*
X99660000Y-69720113D01*
X98135000Y-69760113D02*
X99664000Y-69760113D01*
X98135000Y-69800113D02*
X99668000Y-69800113D01*
X98135000Y-69840113D02*
X99671000Y-69840113D01*
X98135000Y-69880113D02*
X99673000Y-69880113D01*
X98135000Y-69920113D02*
X99674000Y-69920113D01*
X98135000Y-69960113D02*
X99675000Y-69960113D01*
X98135000Y-70000113D02*
X99675000Y-70000113D01*
X99715000Y-70000113D02*
G75*
G02*
X94475000Y-70000113I-2620000J0D01*
G01*
X94475000Y-70000113D02*
G75*
G02*
X99715000Y-70000113I2620000J0D01*
G01*
%TO.C,C14*%
X120147281Y-102765000D02*
X119624777Y-102765000D01*
X120147281Y-104235000D02*
X119624777Y-104235000D01*
%TD*%
M02*
